<?xml version="1.0" encoding="UTF-8" standalone="no"?><svg xmlns="http://www.w3.org/2000/svg" xmlns:xlink="http://www.w3.org/1999/xlink" contentScriptType="application/ecmascript" contentStyleType="text/css" height="746px" preserveAspectRatio="none" style="width:1461px;height:746px;background:#FFFFFF;" version="1.1" viewBox="0 0 1461 746" width="1461px" zoomAndPan="magnify"><defs><filter height="300%" id="fyj239c9rg80x" width="300%" x="-1" y="-1"><feGaussianBlur result="blurOut" stdDeviation="2.0"/><feColorMatrix in="blurOut" result="blurOut2" type="matrix" values="0 0 0 0 0 0 0 0 0 0 0 0 0 0 0 0 0 0 .4 0"/><feOffset dx="4.0" dy="4.0" in="blurOut2" result="blurOut3"/><feBlend in="SourceGraphic" in2="blurOut3" mode="normal"/></filter></defs><g><!--MD5=[a25926e05a94976f721477cead6a290f]
cluster com.iluwatar.abstractfactory--><polygon fill="#FFFFFF" filter="url(#fyj239c9rg80x)" points="16,6,225,6,232,28.4883,1444,28.4883,1444,739.92,16,739.92,16,6" style="stroke:#000000;stroke-width:1.5;"/><line style="stroke:#000000;stroke-width:1.5;" x1="16" x2="232" y1="28.4883" y2="28.4883"/><text fill="#000000" font-family="sans-serif" font-size="14" font-weight="bold" lengthAdjust="spacing" textLength="203" x="20" y="21.5352">com.iluwatar.abstractfactory</text><!--MD5=[335f4d9be48430461c68bf6d6fdba145]
class App--><rect codeLine="2" fill="#FEFECE" filter="url(#fyj239c9rg80x)" height="255.2813" id="App" style="stroke:#A80036;stroke-width:1.5;" width="261" x="788.5" y="347.68"/><ellipse cx="902.75" cy="363.68" fill="#ADD1B2" rx="11" ry="11" style="stroke:#A80036;stroke-width:1.0;"/><path d="M905.2231,369.8231 Q904.6421,370.1219 904.0029,370.2713 Q903.3638,370.4207 902.6582,370.4207 Q900.1514,370.4207 898.8315,368.7689 Q897.5117,367.117 897.5117,363.9959 Q897.5117,360.8665 898.8315,359.2147 Q900.1514,357.5628 902.6582,357.5628 Q903.3638,357.5628 904.0112,357.7122 Q904.6587,357.8616 905.2231,358.1605 L905.2231,360.8831 Q904.5923,360.3021 903.9988,360.0323 Q903.4053,359.7625 902.7744,359.7625 Q901.4297,359.7625 900.7449,360.8292 Q900.0601,361.8958 900.0601,363.9959 Q900.0601,366.0877 900.7449,367.1544 Q901.4297,368.221 902.7744,368.221 Q903.4053,368.221 903.9988,367.9512 Q904.5923,367.6815 905.2231,367.1004 Z " fill="#000000"/><text fill="#000000" font-family="sans-serif" font-size="12" lengthAdjust="spacing" textLength="24" x="923.25" y="368.2152">App</text><line style="stroke:#A80036;stroke-width:1.5;" x1="789.5" x2="1048.5" y1="379.68" y2="379.68"/><rect fill="none" height="6" style="stroke:#C82930;stroke-width:1.0;" width="6" x="796.5" y="387.68"/><text fill="#000000" font-family="sans-serif" font-size="11" lengthAdjust="spacing" text-decoration="underline" textLength="91" x="808.5" y="394.3148">LOGGER : Logger</text><rect fill="none" height="6" style="stroke:#C82930;stroke-width:1.0;" width="6" x="796.5" y="400.6351"/><text fill="#000000" font-family="sans-serif" font-size="11" lengthAdjust="spacing" textLength="65" x="808.5" y="407.2698">army : Army</text><rect fill="none" height="6" style="stroke:#C82930;stroke-width:1.0;" width="6" x="796.5" y="413.5902"/><text fill="#000000" font-family="sans-serif" font-size="11" lengthAdjust="spacing" textLength="73" x="808.5" y="420.2249">castle : Castle</text><rect fill="none" height="6" style="stroke:#C82930;stroke-width:1.0;" width="6" x="796.5" y="426.5452"/><text fill="#000000" font-family="sans-serif" font-size="11" lengthAdjust="spacing" textLength="56" x="808.5" y="433.18">king : King</text><line style="stroke:#A80036;stroke-width:1.5;" x1="789.5" x2="1048.5" y1="439.5003" y2="439.5003"/><ellipse cx="799.5" cy="450.5003" fill="#84BE84" rx="3" ry="3" style="stroke:#038048;stroke-width:1.0;"/><text fill="#000000" font-family="sans-serif" font-size="11" lengthAdjust="spacing" textLength="30" x="808.5" y="454.1351">App()</text><ellipse cx="799.5" cy="463.4554" fill="#84BE84" rx="3" ry="3" style="stroke:#038048;stroke-width:1.0;"/><text fill="#000000" font-family="sans-serif" font-size="11" lengthAdjust="spacing" textLength="224" x="808.5" y="467.0902">createKingdom(factory : KingdomFactory)</text><ellipse cx="799.5" cy="476.4105" fill="#84BE84" rx="3" ry="3" style="stroke:#038048;stroke-width:1.0;"/><text fill="#000000" font-family="sans-serif" font-size="11" lengthAdjust="spacing" textLength="92" x="808.5" y="480.0452">getArmy() : Army</text><polygon fill="#4177AF" points="799.5,485.3655,795.5,491.3655,803.5,491.3655" style="stroke:#1963A0;stroke-width:1.0;"/><text fill="#000000" font-family="sans-serif" font-size="11" lengthAdjust="spacing" textLength="227" x="808.5" y="493.0003">getArmy(factory : KingdomFactory) : Army</text><ellipse cx="799.5" cy="502.3206" fill="#84BE84" rx="3" ry="3" style="stroke:#038048;stroke-width:1.0;"/><text fill="#000000" font-family="sans-serif" font-size="11" lengthAdjust="spacing" textLength="100" x="808.5" y="505.9554">getCastle() : Castle</text><polygon fill="#4177AF" points="799.5,511.2757,795.5,517.2757,803.5,517.2757" style="stroke:#1963A0;stroke-width:1.0;"/><text fill="#000000" font-family="sans-serif" font-size="11" lengthAdjust="spacing" textLength="235" x="808.5" y="518.9105">getCastle(factory : KingdomFactory) : Castle</text><ellipse cx="799.5" cy="528.2308" fill="#84BE84" rx="3" ry="3" style="stroke:#038048;stroke-width:1.0;"/><text fill="#000000" font-family="sans-serif" font-size="11" lengthAdjust="spacing" textLength="82" x="808.5" y="531.8655">getKing() : King</text><polygon fill="#4177AF" points="799.5,537.1859,795.5,543.1859,803.5,543.1859" style="stroke:#1963A0;stroke-width:1.0;"/><text fill="#000000" font-family="sans-serif" font-size="11" lengthAdjust="spacing" textLength="217" x="808.5" y="544.8206">getKing(factory : KingdomFactory) : King</text><ellipse cx="799.5" cy="554.1409" fill="#84BE84" rx="3" ry="3" style="stroke:#038048;stroke-width:1.0;"/><text fill="#000000" font-family="sans-serif" font-size="11" lengthAdjust="spacing" text-decoration="underline" textLength="107" x="808.5" y="557.7757">main(args : String[])</text><rect fill="#F24D5C" height="6" style="stroke:#C82930;stroke-width:1.0;" width="6" x="796.5" y="564.096"/><text fill="#000000" font-family="sans-serif" font-size="11" lengthAdjust="spacing" textLength="118" x="808.5" y="570.7308">setArmy(army : Army)</text><rect fill="#F24D5C" height="6" style="stroke:#C82930;stroke-width:1.0;" width="6" x="796.5" y="577.0511"/><text fill="#000000" font-family="sans-serif" font-size="11" lengthAdjust="spacing" textLength="130" x="808.5" y="583.6859">setCastle(castle : Castle)</text><rect fill="#F24D5C" height="6" style="stroke:#C82930;stroke-width:1.0;" width="6" x="796.5" y="590.0062"/><text fill="#000000" font-family="sans-serif" font-size="11" lengthAdjust="spacing" textLength="104" x="808.5" y="596.6409">setKing(king : King)</text><!--MD5=[5e69b1c44eb749c0bf1d9f933b76e5c6]
class FactoryMaker--><rect codeLine="20" fill="#FEFECE" filter="url(#fyj239c9rg80x)" height="73.9102" id="FactoryMaker" style="stroke:#A80036;stroke-width:1.5;" width="305" x="766.5" y="207.3"/><ellipse cx="876.25" cy="223.3" fill="#ADD1B2" rx="11" ry="11" style="stroke:#A80036;stroke-width:1.0;"/><path d="M878.7231,229.4431 Q878.1421,229.7419 877.5029,229.8913 Q876.8638,230.0407 876.1582,230.0407 Q873.6514,230.0407 872.3315,228.3889 Q871.0117,226.737 871.0117,223.6159 Q871.0117,220.4865 872.3315,218.8347 Q873.6514,217.1828 876.1582,217.1828 Q876.8638,217.1828 877.5112,217.3322 Q878.1587,217.4816 878.7231,217.7805 L878.7231,220.5031 Q878.0923,219.9221 877.4988,219.6523 Q876.9053,219.3825 876.2744,219.3825 Q874.9297,219.3825 874.2449,220.4492 Q873.5601,221.5158 873.5601,223.6159 Q873.5601,225.7077 874.2449,226.7744 Q874.9297,227.841 876.2744,227.841 Q876.9053,227.841 877.4988,227.5712 Q878.0923,227.3015 878.7231,226.7204 Z " fill="#000000"/><text fill="#000000" font-family="sans-serif" font-size="12" lengthAdjust="spacing" textLength="77" x="896.75" y="227.8352">FactoryMaker</text><line style="stroke:#A80036;stroke-width:1.5;" x1="767.5" x2="1070.5" y1="239.3" y2="239.3"/><line style="stroke:#A80036;stroke-width:1.5;" x1="767.5" x2="1070.5" y1="247.3" y2="247.3"/><ellipse cx="777.5" cy="258.3" fill="#84BE84" rx="3" ry="3" style="stroke:#038048;stroke-width:1.0;"/><text fill="#000000" font-family="sans-serif" font-size="11" lengthAdjust="spacing" textLength="80" x="786.5" y="261.9348">FactoryMaker()</text><ellipse cx="777.5" cy="271.2551" fill="#84BE84" rx="3" ry="3" style="stroke:#038048;stroke-width:1.0;"/><text fill="#000000" font-family="sans-serif" font-size="11" lengthAdjust="spacing" text-decoration="underline" textLength="279" x="786.5" y="274.8898">makeFactory(type : KingdomType) : KingdomFactory</text><!--MD5=[8c038dcdb4b87ea04237b141f7f409fa]
class KingdomType--><rect codeLine="24" fill="#FEFECE" filter="url(#fyj239c9rg80x)" height="99.8203" id="KingdomType" style="stroke:#A80036;stroke-width:1.5;" width="228" x="805" y="41"/><ellipse cx="874.75" cy="57" fill="#EB937F" rx="11" ry="11" style="stroke:#A80036;stroke-width:1.0;"/><path d="M878.3643,63.5 L870.6445,63.5 L870.6445,51.1069 L878.3643,51.1069 L878.3643,53.2651 L873.0933,53.2651 L873.0933,55.938 L877.8662,55.938 L877.8662,58.0962 L873.0933,58.0962 L873.0933,61.3418 L878.3643,61.3418 Z " fill="#000000"/><text fill="#000000" font-family="sans-serif" font-size="12" lengthAdjust="spacing" textLength="80" x="895.25" y="61.5352">KingdomType</text><line style="stroke:#A80036;stroke-width:1.5;" x1="806" x2="1032" y1="73" y2="73"/><ellipse cx="816" cy="84" rx="3" ry="3" style="stroke:#038048;stroke-width:1.0;fill:none;"/><text fill="#000000" font-family="sans-serif" font-size="11" lengthAdjust="spacing" text-decoration="underline" textLength="18" x="825" y="87.6348">ELF</text><ellipse cx="816" cy="96.9551" rx="3" ry="3" style="stroke:#038048;stroke-width:1.0;fill:none;"/><text fill="#000000" font-family="sans-serif" font-size="11" lengthAdjust="spacing" text-decoration="underline" textLength="24" x="825" y="100.5898">ORC</text><line style="stroke:#A80036;stroke-width:1.5;" x1="806" x2="1032" y1="106.9102" y2="106.9102"/><ellipse cx="816" cy="117.9102" fill="#84BE84" rx="3" ry="3" style="stroke:#038048;stroke-width:1.0;"/><text fill="#000000" font-family="sans-serif" font-size="11" lengthAdjust="spacing" text-decoration="underline" textLength="202" x="825" y="121.5449">valueOf(name : String) : KingdomType</text><ellipse cx="816" cy="130.8652" fill="#84BE84" rx="3" ry="3" style="stroke:#038048;stroke-width:1.0;"/><text fill="#000000" font-family="sans-serif" font-size="11" lengthAdjust="spacing" text-decoration="underline" textLength="133" x="825" y="134.5">values() : KingdomType[]</text><!--MD5=[b96ce472b013257463663b1526cad2a5]
class Army--><rect codeLine="30" fill="#FEFECE" filter="url(#fyj239c9rg80x)" height="60.9551" id="Army" style="stroke:#A80036;stroke-width:1.5;" width="154" x="1085" y="662.96"/><ellipse cx="1142.75" cy="678.96" fill="#B4A7E5" rx="11" ry="11" style="stroke:#A80036;stroke-width:1.0;"/><path d="M1139.1777,675.2251 L1139.1777,673.0669 L1146.5571,673.0669 L1146.5571,675.2251 L1144.0918,675.2251 L1144.0918,683.3018 L1146.5571,683.3018 L1146.5571,685.46 L1139.1777,685.46 L1139.1777,683.3018 L1141.6431,683.3018 L1141.6431,675.2251 Z " fill="#000000"/><text fill="#000000" font-family="sans-serif" font-size="12" font-style="italic" lengthAdjust="spacing" textLength="30" x="1163.25" y="683.4952">Army</text><line style="stroke:#A80036;stroke-width:1.5;" x1="1086" x2="1238" y1="694.96" y2="694.96"/><line style="stroke:#A80036;stroke-width:1.5;" x1="1086" x2="1238" y1="702.96" y2="702.96"/><ellipse cx="1096" cy="713.96" fill="#84BE84" rx="3" ry="3" style="stroke:#038048;stroke-width:1.0;"/><text fill="#000000" font-family="sans-serif" font-size="11" font-style="italic" lengthAdjust="spacing" textLength="128" x="1105" y="717.5948">getDescription() : String</text><!--MD5=[0feac561e620dadf4a1942f31eaa0f58]
class Castle--><rect codeLine="33" fill="#FEFECE" filter="url(#fyj239c9rg80x)" height="60.9551" id="Castle" style="stroke:#A80036;stroke-width:1.5;" width="154" x="599" y="662.96"/><ellipse cx="654.25" cy="678.96" fill="#B4A7E5" rx="11" ry="11" style="stroke:#A80036;stroke-width:1.0;"/><path d="M650.6777,675.2251 L650.6777,673.0669 L658.0571,673.0669 L658.0571,675.2251 L655.5918,675.2251 L655.5918,683.3018 L658.0571,683.3018 L658.0571,685.46 L650.6777,685.46 L650.6777,683.3018 L653.1431,683.3018 L653.1431,675.2251 Z " fill="#000000"/><text fill="#000000" font-family="sans-serif" font-size="12" font-style="italic" lengthAdjust="spacing" textLength="35" x="674.75" y="683.4952">Castle</text><line style="stroke:#A80036;stroke-width:1.5;" x1="600" x2="752" y1="694.96" y2="694.96"/><line style="stroke:#A80036;stroke-width:1.5;" x1="600" x2="752" y1="702.96" y2="702.96"/><ellipse cx="610" cy="713.96" fill="#84BE84" rx="3" ry="3" style="stroke:#038048;stroke-width:1.0;"/><text fill="#000000" font-family="sans-serif" font-size="11" font-style="italic" lengthAdjust="spacing" textLength="128" x="619" y="717.5948">getDescription() : String</text><!--MD5=[c8d3dbe99cb4013326966788d2542785]
class ElfArmy--><rect codeLine="36" fill="#FEFECE" filter="url(#fyj239c9rg80x)" height="86.8652" id="ElfArmy" style="stroke:#A80036;stroke-width:1.5;" width="154" x="1274" y="431.89"/><ellipse cx="1324.75" cy="447.89" fill="#ADD1B2" rx="11" ry="11" style="stroke:#A80036;stroke-width:1.0;"/><path d="M1327.2231,454.0331 Q1326.6421,454.3319 1326.0029,454.4813 Q1325.3638,454.6307 1324.6582,454.6307 Q1322.1514,454.6307 1320.8315,452.9789 Q1319.5117,451.327 1319.5117,448.2059 Q1319.5117,445.0765 1320.8315,443.4247 Q1322.1514,441.7728 1324.6582,441.7728 Q1325.3638,441.7728 1326.0112,441.9222 Q1326.6587,442.0716 1327.2231,442.3705 L1327.2231,445.0931 Q1326.5923,444.5121 1325.9988,444.2423 Q1325.4053,443.9725 1324.7744,443.9725 Q1323.4297,443.9725 1322.7449,445.0392 Q1322.0601,446.1058 1322.0601,448.2059 Q1322.0601,450.2977 1322.7449,451.3644 Q1323.4297,452.431 1324.7744,452.431 Q1325.4053,452.431 1325.9988,452.1612 Q1326.5923,451.8915 1327.2231,451.3104 Z " fill="#000000"/><text fill="#000000" font-family="sans-serif" font-size="12" lengthAdjust="spacing" textLength="44" x="1345.25" y="452.4252">ElfArmy</text><line style="stroke:#A80036;stroke-width:1.5;" x1="1275" x2="1427" y1="463.89" y2="463.89"/><polygon fill="none" points="1285,470.89,1281,476.89,1289,476.89" style="stroke:#1963A0;stroke-width:1.0;"/><text fill="#000000" font-family="sans-serif" font-size="11" lengthAdjust="spacing" text-decoration="underline" textLength="112" x="1294" y="478.5248">DESCRIPTION : String</text><line style="stroke:#A80036;stroke-width:1.5;" x1="1275" x2="1427" y1="484.8451" y2="484.8451"/><ellipse cx="1285" cy="495.8451" fill="#84BE84" rx="3" ry="3" style="stroke:#038048;stroke-width:1.0;"/><text fill="#000000" font-family="sans-serif" font-size="11" lengthAdjust="spacing" textLength="50" x="1294" y="499.4798">ElfArmy()</text><ellipse cx="1285" cy="508.8002" fill="#84BE84" rx="3" ry="3" style="stroke:#038048;stroke-width:1.0;"/><text fill="#000000" font-family="sans-serif" font-size="11" lengthAdjust="spacing" textLength="128" x="1294" y="512.4349">getDescription() : String</text><!--MD5=[35b4f8650e69e19b34c6c33f5ed04cc4]
class ElfCastle--><rect codeLine="41" fill="#FEFECE" filter="url(#fyj239c9rg80x)" height="86.8652" id="ElfCastle" style="stroke:#A80036;stroke-width:1.5;" width="154" x="599" y="431.89"/><ellipse cx="647.25" cy="447.89" fill="#ADD1B2" rx="11" ry="11" style="stroke:#A80036;stroke-width:1.0;"/><path d="M649.7231,454.0331 Q649.1421,454.3319 648.5029,454.4813 Q647.8638,454.6307 647.1582,454.6307 Q644.6514,454.6307 643.3315,452.9789 Q642.0117,451.327 642.0117,448.2059 Q642.0117,445.0765 643.3315,443.4247 Q644.6514,441.7728 647.1582,441.7728 Q647.8638,441.7728 648.5112,441.9222 Q649.1587,442.0716 649.7231,442.3705 L649.7231,445.0931 Q649.0923,444.5121 648.4988,444.2423 Q647.9053,443.9725 647.2744,443.9725 Q645.9297,443.9725 645.2449,445.0392 Q644.5601,446.1058 644.5601,448.2059 Q644.5601,450.2977 645.2449,451.3644 Q645.9297,452.431 647.2744,452.431 Q647.9053,452.431 648.4988,452.1612 Q649.0923,451.8915 649.7231,451.3104 Z " fill="#000000"/><text fill="#000000" font-family="sans-serif" font-size="12" lengthAdjust="spacing" textLength="49" x="667.75" y="452.4252">ElfCastle</text><line style="stroke:#A80036;stroke-width:1.5;" x1="600" x2="752" y1="463.89" y2="463.89"/><polygon fill="none" points="610,470.89,606,476.89,614,476.89" style="stroke:#1963A0;stroke-width:1.0;"/><text fill="#000000" font-family="sans-serif" font-size="11" lengthAdjust="spacing" text-decoration="underline" textLength="112" x="619" y="478.5248">DESCRIPTION : String</text><line style="stroke:#A80036;stroke-width:1.5;" x1="600" x2="752" y1="484.8451" y2="484.8451"/><ellipse cx="610" cy="495.8451" fill="#84BE84" rx="3" ry="3" style="stroke:#038048;stroke-width:1.0;"/><text fill="#000000" font-family="sans-serif" font-size="11" lengthAdjust="spacing" textLength="54" x="619" y="499.4798">ElfCastle()</text><ellipse cx="610" cy="508.8002" fill="#84BE84" rx="3" ry="3" style="stroke:#038048;stroke-width:1.0;"/><text fill="#000000" font-family="sans-serif" font-size="11" lengthAdjust="spacing" textLength="128" x="619" y="512.4349">getDescription() : String</text><!--MD5=[e6e6a7e49610edef36979727bfe21315]
class ElfKing--><rect codeLine="46" fill="#FEFECE" filter="url(#fyj239c9rg80x)" height="86.8652" id="ElfKing" style="stroke:#A80036;stroke-width:1.5;" width="154" x="221" y="431.89"/><ellipse cx="274.25" cy="447.89" fill="#ADD1B2" rx="11" ry="11" style="stroke:#A80036;stroke-width:1.0;"/><path d="M276.7231,454.0331 Q276.1421,454.3319 275.5029,454.4813 Q274.8638,454.6307 274.1582,454.6307 Q271.6514,454.6307 270.3315,452.9789 Q269.0117,451.327 269.0117,448.2059 Q269.0117,445.0765 270.3315,443.4247 Q271.6514,441.7728 274.1582,441.7728 Q274.8638,441.7728 275.5112,441.9222 Q276.1587,442.0716 276.7231,442.3705 L276.7231,445.0931 Q276.0923,444.5121 275.4988,444.2423 Q274.9053,443.9725 274.2744,443.9725 Q272.9297,443.9725 272.2449,445.0392 Q271.5601,446.1058 271.5601,448.2059 Q271.5601,450.2977 272.2449,451.3644 Q272.9297,452.431 274.2744,452.431 Q274.9053,452.431 275.4988,452.1612 Q276.0923,451.8915 276.7231,451.3104 Z " fill="#000000"/><text fill="#000000" font-family="sans-serif" font-size="12" lengthAdjust="spacing" textLength="39" x="294.75" y="452.4252">ElfKing</text><line style="stroke:#A80036;stroke-width:1.5;" x1="222" x2="374" y1="463.89" y2="463.89"/><polygon fill="none" points="232,470.89,228,476.89,236,476.89" style="stroke:#1963A0;stroke-width:1.0;"/><text fill="#000000" font-family="sans-serif" font-size="11" lengthAdjust="spacing" text-decoration="underline" textLength="112" x="241" y="478.5248">DESCRIPTION : String</text><line style="stroke:#A80036;stroke-width:1.5;" x1="222" x2="374" y1="484.8451" y2="484.8451"/><ellipse cx="232" cy="495.8451" fill="#84BE84" rx="3" ry="3" style="stroke:#038048;stroke-width:1.0;"/><text fill="#000000" font-family="sans-serif" font-size="11" lengthAdjust="spacing" textLength="45" x="241" y="499.4798">ElfKing()</text><ellipse cx="232" cy="508.8002" fill="#84BE84" rx="3" ry="3" style="stroke:#038048;stroke-width:1.0;"/><text fill="#000000" font-family="sans-serif" font-size="11" lengthAdjust="spacing" textLength="128" x="241" y="512.4349">getDescription() : String</text><!--MD5=[1eeeabf94cb560236527858659e0aa6a]
class ElfKingdomFactory--><rect codeLine="51" fill="#FEFECE" filter="url(#fyj239c9rg80x)" height="99.8203" id="ElfKingdomFactory" style="stroke:#A80036;stroke-width:1.5;" width="142" x="420" y="41"/><ellipse cx="436.8" cy="57" fill="#ADD1B2" rx="11" ry="11" style="stroke:#A80036;stroke-width:1.0;"/><path d="M439.2731,63.1431 Q438.6921,63.4419 438.0529,63.5913 Q437.4138,63.7407 436.7082,63.7407 Q434.2014,63.7407 432.8815,62.0889 Q431.5617,60.437 431.5617,57.3159 Q431.5617,54.1865 432.8815,52.5347 Q434.2014,50.8828 436.7082,50.8828 Q437.4138,50.8828 438.0612,51.0322 Q438.7087,51.1816 439.2731,51.4805 L439.2731,54.2031 Q438.6423,53.6221 438.0488,53.3523 Q437.4553,53.0825 436.8244,53.0825 Q435.4797,53.0825 434.7949,54.1492 Q434.1101,55.2158 434.1101,57.3159 Q434.1101,59.4077 434.7949,60.4744 Q435.4797,61.541 436.8244,61.541 Q437.4553,61.541 438.0488,61.2712 Q438.6423,61.0015 439.2731,60.4204 Z " fill="#000000"/><text fill="#000000" font-family="sans-serif" font-size="12" lengthAdjust="spacing" textLength="106" x="451.2" y="61.5352">ElfKingdomFactory</text><line style="stroke:#A80036;stroke-width:1.5;" x1="421" x2="561" y1="73" y2="73"/><line style="stroke:#A80036;stroke-width:1.5;" x1="421" x2="561" y1="81" y2="81"/><ellipse cx="431" cy="92" fill="#84BE84" rx="3" ry="3" style="stroke:#038048;stroke-width:1.0;"/><text fill="#000000" font-family="sans-serif" font-size="11" lengthAdjust="spacing" textLength="109" x="440" y="95.6348">ElfKingdomFactory()</text><ellipse cx="431" cy="104.9551" fill="#84BE84" rx="3" ry="3" style="stroke:#038048;stroke-width:1.0;"/><text fill="#000000" font-family="sans-serif" font-size="11" lengthAdjust="spacing" textLength="108" x="440" y="108.5898">createArmy() : Army</text><ellipse cx="431" cy="117.9102" fill="#84BE84" rx="3" ry="3" style="stroke:#038048;stroke-width:1.0;"/><text fill="#000000" font-family="sans-serif" font-size="11" lengthAdjust="spacing" textLength="116" x="440" y="121.5449">createCastle() : Castle</text><ellipse cx="431" cy="130.8652" fill="#84BE84" rx="3" ry="3" style="stroke:#038048;stroke-width:1.0;"/><text fill="#000000" font-family="sans-serif" font-size="11" lengthAdjust="spacing" textLength="98" x="440" y="134.5">createKing() : King</text><!--MD5=[76412a1b87b0f1c748604a3142aab9ae]
class King--><rect codeLine="57" fill="#FEFECE" filter="url(#fyj239c9rg80x)" height="60.9551" id="King" style="stroke:#A80036;stroke-width:1.5;" width="154" x="221" y="662.96"/><ellipse cx="281.25" cy="678.96" fill="#B4A7E5" rx="11" ry="11" style="stroke:#A80036;stroke-width:1.0;"/><path d="M277.6777,675.2251 L277.6777,673.0669 L285.0571,673.0669 L285.0571,675.2251 L282.5918,675.2251 L282.5918,683.3018 L285.0571,683.3018 L285.0571,685.46 L277.6777,685.46 L277.6777,683.3018 L280.1431,683.3018 L280.1431,675.2251 Z " fill="#000000"/><text fill="#000000" font-family="sans-serif" font-size="12" font-style="italic" lengthAdjust="spacing" textLength="25" x="301.75" y="683.4952">King</text><line style="stroke:#A80036;stroke-width:1.5;" x1="222" x2="374" y1="694.96" y2="694.96"/><line style="stroke:#A80036;stroke-width:1.5;" x1="222" x2="374" y1="702.96" y2="702.96"/><ellipse cx="232" cy="713.96" fill="#84BE84" rx="3" ry="3" style="stroke:#038048;stroke-width:1.0;"/><text fill="#000000" font-family="sans-serif" font-size="11" font-style="italic" lengthAdjust="spacing" textLength="128" x="241" y="717.5948">getDescription() : String</text><!--MD5=[c65e58417e450db266cb8c45c69f2292]
class KingdomFactory--><rect codeLine="60" fill="#FEFECE" filter="url(#fyj239c9rg80x)" height="86.8652" id="KingdomFactory" style="stroke:#A80036;stroke-width:1.5;" width="142" x="331" y="200.82"/><ellipse cx="354.1" cy="216.82" fill="#B4A7E5" rx="11" ry="11" style="stroke:#A80036;stroke-width:1.0;"/><path d="M350.5277,213.0851 L350.5277,210.9269 L357.9071,210.9269 L357.9071,213.0851 L355.4418,213.0851 L355.4418,221.1618 L357.9071,221.1618 L357.9071,223.32 L350.5277,223.32 L350.5277,221.1618 L352.9931,221.1618 L352.9931,213.0851 Z " fill="#000000"/><text fill="#000000" font-family="sans-serif" font-size="12" font-style="italic" lengthAdjust="spacing" textLength="92" x="369.9" y="221.3552">KingdomFactory</text><line style="stroke:#A80036;stroke-width:1.5;" x1="332" x2="472" y1="232.82" y2="232.82"/><line style="stroke:#A80036;stroke-width:1.5;" x1="332" x2="472" y1="240.82" y2="240.82"/><ellipse cx="342" cy="251.82" fill="#84BE84" rx="3" ry="3" style="stroke:#038048;stroke-width:1.0;"/><text fill="#000000" font-family="sans-serif" font-size="11" font-style="italic" lengthAdjust="spacing" textLength="108" x="351" y="255.4548">createArmy() : Army</text><ellipse cx="342" cy="264.7751" fill="#84BE84" rx="3" ry="3" style="stroke:#038048;stroke-width:1.0;"/><text fill="#000000" font-family="sans-serif" font-size="11" font-style="italic" lengthAdjust="spacing" textLength="116" x="351" y="268.4098">createCastle() : Castle</text><ellipse cx="342" cy="277.7302" fill="#84BE84" rx="3" ry="3" style="stroke:#038048;stroke-width:1.0;"/><text fill="#000000" font-family="sans-serif" font-size="11" font-style="italic" lengthAdjust="spacing" textLength="98" x="351" y="281.3649">createKing() : King</text><!--MD5=[e28070b58a32bec808737f78a950c307]
class OrcArmy--><rect codeLine="65" fill="#FEFECE" filter="url(#fyj239c9rg80x)" height="86.8652" id="OrcArmy" style="stroke:#A80036;stroke-width:1.5;" width="154" x="1085" y="431.89"/><ellipse cx="1132.75" cy="447.89" fill="#ADD1B2" rx="11" ry="11" style="stroke:#A80036;stroke-width:1.0;"/><path d="M1135.2231,454.0331 Q1134.6421,454.3319 1134.0029,454.4813 Q1133.3638,454.6307 1132.6582,454.6307 Q1130.1514,454.6307 1128.8315,452.9789 Q1127.5117,451.327 1127.5117,448.2059 Q1127.5117,445.0765 1128.8315,443.4247 Q1130.1514,441.7728 1132.6582,441.7728 Q1133.3638,441.7728 1134.0112,441.9222 Q1134.6587,442.0716 1135.2231,442.3705 L1135.2231,445.0931 Q1134.5923,444.5121 1133.9988,444.2423 Q1133.4053,443.9725 1132.7744,443.9725 Q1131.4297,443.9725 1130.7449,445.0392 Q1130.0601,446.1058 1130.0601,448.2059 Q1130.0601,450.2977 1130.7449,451.3644 Q1131.4297,452.431 1132.7744,452.431 Q1133.4053,452.431 1133.9988,452.1612 Q1134.5923,451.8915 1135.2231,451.3104 Z " fill="#000000"/><text fill="#000000" font-family="sans-serif" font-size="12" lengthAdjust="spacing" textLength="50" x="1153.25" y="452.4252">OrcArmy</text><line style="stroke:#A80036;stroke-width:1.5;" x1="1086" x2="1238" y1="463.89" y2="463.89"/><polygon fill="none" points="1096,470.89,1092,476.89,1100,476.89" style="stroke:#1963A0;stroke-width:1.0;"/><text fill="#000000" font-family="sans-serif" font-size="11" lengthAdjust="spacing" text-decoration="underline" textLength="112" x="1105" y="478.5248">DESCRIPTION : String</text><line style="stroke:#A80036;stroke-width:1.5;" x1="1086" x2="1238" y1="484.8451" y2="484.8451"/><ellipse cx="1096" cy="495.8451" fill="#84BE84" rx="3" ry="3" style="stroke:#038048;stroke-width:1.0;"/><text fill="#000000" font-family="sans-serif" font-size="11" lengthAdjust="spacing" textLength="57" x="1105" y="499.4798">OrcArmy()</text><ellipse cx="1096" cy="508.8002" fill="#84BE84" rx="3" ry="3" style="stroke:#038048;stroke-width:1.0;"/><text fill="#000000" font-family="sans-serif" font-size="11" lengthAdjust="spacing" textLength="128" x="1105" y="512.4349">getDescription() : String</text><!--MD5=[0451aa7798ab4361f36406c163a7068c]
class OrcCastle--><rect codeLine="70" fill="#FEFECE" filter="url(#fyj239c9rg80x)" height="86.8652" id="OrcCastle" style="stroke:#A80036;stroke-width:1.5;" width="154" x="410" y="431.89"/><ellipse cx="455.25" cy="447.89" fill="#ADD1B2" rx="11" ry="11" style="stroke:#A80036;stroke-width:1.0;"/><path d="M457.7231,454.0331 Q457.1421,454.3319 456.5029,454.4813 Q455.8638,454.6307 455.1582,454.6307 Q452.6514,454.6307 451.3315,452.9789 Q450.0117,451.327 450.0117,448.2059 Q450.0117,445.0765 451.3315,443.4247 Q452.6514,441.7728 455.1582,441.7728 Q455.8638,441.7728 456.5112,441.9222 Q457.1587,442.0716 457.7231,442.3705 L457.7231,445.0931 Q457.0923,444.5121 456.4988,444.2423 Q455.9053,443.9725 455.2744,443.9725 Q453.9297,443.9725 453.2449,445.0392 Q452.5601,446.1058 452.5601,448.2059 Q452.5601,450.2977 453.2449,451.3644 Q453.9297,452.431 455.2744,452.431 Q455.9053,452.431 456.4988,452.1612 Q457.0923,451.8915 457.7231,451.3104 Z " fill="#000000"/><text fill="#000000" font-family="sans-serif" font-size="12" lengthAdjust="spacing" textLength="55" x="475.75" y="452.4252">OrcCastle</text><line style="stroke:#A80036;stroke-width:1.5;" x1="411" x2="563" y1="463.89" y2="463.89"/><polygon fill="none" points="421,470.89,417,476.89,425,476.89" style="stroke:#1963A0;stroke-width:1.0;"/><text fill="#000000" font-family="sans-serif" font-size="11" lengthAdjust="spacing" text-decoration="underline" textLength="112" x="430" y="478.5248">DESCRIPTION : String</text><line style="stroke:#A80036;stroke-width:1.5;" x1="411" x2="563" y1="484.8451" y2="484.8451"/><ellipse cx="421" cy="495.8451" fill="#84BE84" rx="3" ry="3" style="stroke:#038048;stroke-width:1.0;"/><text fill="#000000" font-family="sans-serif" font-size="11" lengthAdjust="spacing" textLength="61" x="430" y="499.4798">OrcCastle()</text><ellipse cx="421" cy="508.8002" fill="#84BE84" rx="3" ry="3" style="stroke:#038048;stroke-width:1.0;"/><text fill="#000000" font-family="sans-serif" font-size="11" lengthAdjust="spacing" textLength="128" x="430" y="512.4349">getDescription() : String</text><!--MD5=[848cf05d553ba757827203fbac9a5f59]
class OrcKing--><rect codeLine="75" fill="#FEFECE" filter="url(#fyj239c9rg80x)" height="86.8652" id="OrcKing" style="stroke:#A80036;stroke-width:1.5;" width="154" x="32" y="431.89"/><ellipse cx="82.25" cy="447.89" fill="#ADD1B2" rx="11" ry="11" style="stroke:#A80036;stroke-width:1.0;"/><path d="M84.7231,454.0331 Q84.1421,454.3319 83.5029,454.4813 Q82.8638,454.6307 82.1582,454.6307 Q79.6514,454.6307 78.3315,452.9789 Q77.0117,451.327 77.0117,448.2059 Q77.0117,445.0765 78.3315,443.4247 Q79.6514,441.7728 82.1582,441.7728 Q82.8638,441.7728 83.5112,441.9222 Q84.1587,442.0716 84.7231,442.3705 L84.7231,445.0931 Q84.0923,444.5121 83.4988,444.2423 Q82.9053,443.9725 82.2744,443.9725 Q80.9297,443.9725 80.2449,445.0392 Q79.5601,446.1058 79.5601,448.2059 Q79.5601,450.2977 80.2449,451.3644 Q80.9297,452.431 82.2744,452.431 Q82.9053,452.431 83.4988,452.1612 Q84.0923,451.8915 84.7231,451.3104 Z " fill="#000000"/><text fill="#000000" font-family="sans-serif" font-size="12" lengthAdjust="spacing" textLength="45" x="102.75" y="452.4252">OrcKing</text><line style="stroke:#A80036;stroke-width:1.5;" x1="33" x2="185" y1="463.89" y2="463.89"/><polygon fill="none" points="43,470.89,39,476.89,47,476.89" style="stroke:#1963A0;stroke-width:1.0;"/><text fill="#000000" font-family="sans-serif" font-size="11" lengthAdjust="spacing" text-decoration="underline" textLength="112" x="52" y="478.5248">DESCRIPTION : String</text><line style="stroke:#A80036;stroke-width:1.5;" x1="33" x2="185" y1="484.8451" y2="484.8451"/><ellipse cx="43" cy="495.8451" fill="#84BE84" rx="3" ry="3" style="stroke:#038048;stroke-width:1.0;"/><text fill="#000000" font-family="sans-serif" font-size="11" lengthAdjust="spacing" textLength="52" x="52" y="499.4798">OrcKing()</text><ellipse cx="43" cy="508.8002" fill="#84BE84" rx="3" ry="3" style="stroke:#038048;stroke-width:1.0;"/><text fill="#000000" font-family="sans-serif" font-size="11" lengthAdjust="spacing" textLength="128" x="52" y="512.4349">getDescription() : String</text><!--MD5=[05939764d276c90449a14c62eb1c9ece]
class OrcKingdomFactory--><rect codeLine="80" fill="#FEFECE" filter="url(#fyj239c9rg80x)" height="99.8203" id="OrcKingdomFactory" style="stroke:#A80036;stroke-width:1.5;" width="144" x="241" y="41"/><ellipse cx="256" cy="57" fill="#ADD1B2" rx="11" ry="11" style="stroke:#A80036;stroke-width:1.0;"/><path d="M258.4731,63.1431 Q257.8921,63.4419 257.2529,63.5913 Q256.6138,63.7407 255.9082,63.7407 Q253.4014,63.7407 252.0815,62.0889 Q250.7617,60.437 250.7617,57.3159 Q250.7617,54.1865 252.0815,52.5347 Q253.4014,50.8828 255.9082,50.8828 Q256.6138,50.8828 257.2612,51.0322 Q257.9087,51.1816 258.4731,51.4805 L258.4731,54.2031 Q257.8423,53.6221 257.2488,53.3523 Q256.6553,53.0825 256.0244,53.0825 Q254.6797,53.0825 253.9949,54.1492 Q253.3101,55.2158 253.3101,57.3159 Q253.3101,59.4077 253.9949,60.4744 Q254.6797,61.541 256.0244,61.541 Q256.6553,61.541 257.2488,61.2712 Q257.8423,61.0015 258.4731,60.4204 Z " fill="#000000"/><text fill="#000000" font-family="sans-serif" font-size="12" lengthAdjust="spacing" textLength="112" x="270" y="61.5352">OrcKingdomFactory</text><line style="stroke:#A80036;stroke-width:1.5;" x1="242" x2="384" y1="73" y2="73"/><line style="stroke:#A80036;stroke-width:1.5;" x1="242" x2="384" y1="81" y2="81"/><ellipse cx="252" cy="92" fill="#84BE84" rx="3" ry="3" style="stroke:#038048;stroke-width:1.0;"/><text fill="#000000" font-family="sans-serif" font-size="11" lengthAdjust="spacing" textLength="116" x="261" y="95.6348">OrcKingdomFactory()</text><ellipse cx="252" cy="104.9551" fill="#84BE84" rx="3" ry="3" style="stroke:#038048;stroke-width:1.0;"/><text fill="#000000" font-family="sans-serif" font-size="11" lengthAdjust="spacing" textLength="108" x="261" y="108.5898">createArmy() : Army</text><ellipse cx="252" cy="117.9102" fill="#84BE84" rx="3" ry="3" style="stroke:#038048;stroke-width:1.0;"/><text fill="#000000" font-family="sans-serif" font-size="11" lengthAdjust="spacing" textLength="116" x="261" y="121.5449">createCastle() : Castle</text><ellipse cx="252" cy="130.8652" fill="#84BE84" rx="3" ry="3" style="stroke:#038048;stroke-width:1.0;"/><text fill="#000000" font-family="sans-serif" font-size="11" lengthAdjust="spacing" textLength="98" x="261" y="134.5">createKing() : King</text><!--MD5=[b07a57e1c11641b1c7b3c604b8b012ae]
link KingdomType to FactoryMaker--><path codeLine="87" d="M919,141.04 C919,157.02 919,174.79 919,190.98 " fill="none" id="KingdomType-to-FactoryMaker" style="stroke:#A80036;stroke-width:1.0;stroke-dasharray:7.0,7.0;"/><ellipse cx="919" cy="197.83" fill="#FFFFFF" rx="8" ry="8" style="stroke:#A80036;stroke-width:1.0;"/><line style="stroke:#A80036;stroke-width:1.0;" x1="919" x2="919" y1="189.83" y2="205.83"/><line style="stroke:#A80036;stroke-width:1.0;" x1="927" x2="911" y1="197.83" y2="197.83"/><!--MD5=[f7627ff5e9b9695755ac60be42650a64]
link App to Castle--><path codeLine="88" d="M788.25,592.61 C760.99,616.86 734.34,640.55 713.86,658.77 " fill="none" id="App-to-Castle" style="stroke:#A80036;stroke-width:1.0;"/><polygon fill="#A80036" points="710.58,661.57,719.9698,658.5982,714.3233,658.2553,714.6662,652.6088,710.58,661.57" style="stroke:#A80036;stroke-width:1.0;"/><text fill="#000000" font-family="sans-serif" font-size="13" lengthAdjust="spacing" textLength="45" x="666.8653" y="652.2571">-castle</text><!--MD5=[9a60b2328945dd21b3445f24f751106b]
link FactoryMaker to App--><path codeLine="89" d="M919,281.55 C919,295.77 919,313.07 919,331.41 " fill="none" id="FactoryMaker-to-App" style="stroke:#A80036;stroke-width:1.0;stroke-dasharray:7.0,7.0;"/><ellipse cx="919" cy="338.37" fill="#FFFFFF" rx="8" ry="8" style="stroke:#A80036;stroke-width:1.0;"/><line style="stroke:#A80036;stroke-width:1.0;" x1="919" x2="919" y1="330.37" y2="346.37"/><line style="stroke:#A80036;stroke-width:1.0;" x1="927" x2="911" y1="338.37" y2="338.37"/><!--MD5=[1c7af9f38c82869384d594ae82f6b9a0]
link App to King--><path codeLine="90" d="M788.22,593.83 C782.54,597.12 776.79,600.19 771,602.96 C703.29,635.45 497.54,666.42 380.93,682 " fill="none" id="App-to-King" style="stroke:#A80036;stroke-width:1.0;"/><polygon fill="#A80036" points="376.1,682.77,385.5476,685.5526,381.0566,682.1129,384.4963,677.622,376.1,682.77" style="stroke:#A80036;stroke-width:1.0;"/><text fill="#000000" font-family="sans-serif" font-size="13" lengthAdjust="spacing" textLength="36" x="382.9755" y="678.8467">-king</text><!--MD5=[1fe1442989eb3afeb1a903a10dce32cf]
link App to Army--><path codeLine="91" d="M1049.75,592.61 C1077.01,616.86 1103.66,640.55 1124.14,658.77 " fill="none" id="App-to-Army" style="stroke:#A80036;stroke-width:1.0;"/><polygon fill="#A80036" points="1127.42,661.57,1123.3338,652.6088,1123.6767,658.2553,1118.0302,658.5982,1127.42,661.57" style="stroke:#A80036;stroke-width:1.0;"/><text fill="#000000" font-family="sans-serif" font-size="13" lengthAdjust="spacing" textLength="39" x="1078.4723" y="652.2571">-army</text><!--MD5=[e1d533ec447e7dc40279e7bdd264c4ce]
link ElfArmy to Army--><path codeLine="92" d="M1322.09,519.12 C1304.34,544.37 1280.56,576.47 1257,602.96 C1243.03,618.67 1226.71,634.74 1211.58,648.86 " fill="none" id="ElfArmy-to-Army" style="stroke:#A80036;stroke-width:1.0;stroke-dasharray:7.0,7.0;"/><polygon fill="none" points="1216.87,653.42,1197.38,661.76,1207.42,643.09,1216.87,653.42" style="stroke:#A80036;stroke-width:1.0;"/><!--MD5=[40be25a591700a955adac059a953d699]
link ElfCastle to Castle--><path codeLine="93" d="M676,519.02 C676,554.33 676,604.56 676,641.88 " fill="none" id="ElfCastle-to-Castle" style="stroke:#A80036;stroke-width:1.0;stroke-dasharray:7.0,7.0;"/><polygon fill="none" points="683,641.67,676,661.67,669,641.67,683,641.67" style="stroke:#A80036;stroke-width:1.0;"/><!--MD5=[1e46e153800304ec95434d2af00e511e]
link ElfKing to King--><path codeLine="94" d="M298,519.02 C298,554.33 298,604.56 298,641.88 " fill="none" id="ElfKing-to-King" style="stroke:#A80036;stroke-width:1.0;stroke-dasharray:7.0,7.0;"/><polygon fill="none" points="305,641.67,298,661.67,291,641.67,305,641.67" style="stroke:#A80036;stroke-width:1.0;"/><!--MD5=[b6477e86f2cfbd4d97103f2d8e07dea0]
link ElfKingdomFactory to KingdomFactory--><path codeLine="95" d="M462.1,141.04 C454.27,154.37 445.7,168.95 437.54,182.81 " fill="none" id="ElfKingdomFactory-to-KingdomFactory" style="stroke:#A80036;stroke-width:1.0;stroke-dasharray:7.0,7.0;"/><polygon fill="none" points="443.33,185.78,427.16,199.47,431.26,178.68,443.33,185.78" style="stroke:#A80036;stroke-width:1.0;"/><!--MD5=[e7e4970fadd51531e86e05ddc84f7429]
link OrcArmy to Army--><path codeLine="96" d="M1162,519.02 C1162,554.33 1162,604.56 1162,641.88 " fill="none" id="OrcArmy-to-Army" style="stroke:#A80036;stroke-width:1.0;stroke-dasharray:7.0,7.0;"/><polygon fill="none" points="1169,641.67,1162,661.67,1155,641.67,1169,641.67" style="stroke:#A80036;stroke-width:1.0;"/><!--MD5=[78808e097ccbae7534071c849f3eb37a]
link OrcCastle to Castle--><path codeLine="97" d="M515.91,519.12 C533.66,544.37 557.44,576.47 581,602.96 C594.97,618.67 611.29,634.74 626.42,648.86 " fill="none" id="OrcCastle-to-Castle" style="stroke:#A80036;stroke-width:1.0;stroke-dasharray:7.0,7.0;"/><polygon fill="none" points="630.58,643.09,640.62,661.76,621.13,653.42,630.58,643.09" style="stroke:#A80036;stroke-width:1.0;"/><!--MD5=[f009bd6917590e33b7b36e902f8cb84b]
link OrcKing to King--><path codeLine="98" d="M137.91,519.12 C155.66,544.37 179.44,576.47 203,602.96 C216.97,618.67 233.29,634.74 248.42,648.86 " fill="none" id="OrcKing-to-King" style="stroke:#A80036;stroke-width:1.0;stroke-dasharray:7.0,7.0;"/><polygon fill="none" points="252.58,643.09,262.62,661.76,243.13,653.42,252.58,643.09" style="stroke:#A80036;stroke-width:1.0;"/><!--MD5=[4a5f6e671cb35aa1469a06bafe54ad73]
link OrcKingdomFactory to KingdomFactory--><path codeLine="99" d="M341.9,141.04 C349.73,154.37 358.3,168.95 366.46,182.81 " fill="none" id="OrcKingdomFactory-to-KingdomFactory" style="stroke:#A80036;stroke-width:1.0;stroke-dasharray:7.0,7.0;"/><polygon fill="none" points="372.74,178.68,376.84,199.47,360.67,185.78,372.74,178.68" style="stroke:#A80036;stroke-width:1.0;"/><!--MD5=[9b9010fe6b63ef81d85cd88834ea1c27]
@startuml
package com.iluwatar.abstractfactory {
  class App {
    - LOGGER : Logger {static}
    - army : Army
    - castle : Castle
    - king : King
    + App()
    + createKingdom(factory : KingdomFactory)
    + getArmy() : Army
    ~ getArmy(factory : KingdomFactory) : Army
    + getCastle() : Castle
    ~ getCastle(factory : KingdomFactory) : Castle
    + getKing() : King
    ~ getKing(factory : KingdomFactory) : King
    + main(args : String[]) {static}
    - setArmy(army : Army)
    - setCastle(castle : Castle)
    - setKing(king : King)
  }
  class FactoryMaker {
    + FactoryMaker()
    + makeFactory(type : KingdomType) : KingdomFactory {static}
  }
  enum KingdomType {
    + ELF {static}
    + ORC {static}
    + valueOf(name : String) : KingdomType {static}
    + values() : KingdomType[] {static}
  }
  interface Army {
    + getDescription() : String {abstract}
  }
  interface Castle {
    + getDescription() : String {abstract}
  }
  class ElfArmy {
    ~ DESCRIPTION : String {static}
    + ElfArmy()
    + getDescription() : String
  }
  class ElfCastle {
    ~ DESCRIPTION : String {static}
    + ElfCastle()
    + getDescription() : String
  }
  class ElfKing {
    ~ DESCRIPTION : String {static}
    + ElfKing()
    + getDescription() : String
  }
  class ElfKingdomFactory {
    + ElfKingdomFactory()
    + createArmy() : Army
    + createCastle() : Castle
    + createKing() : King
  }
  interface King {
    + getDescription() : String {abstract}
  }
  interface KingdomFactory {
    + createArmy() : Army {abstract}
    + createCastle() : Castle {abstract}
    + createKing() : King {abstract}
  }
  class OrcArmy {
    ~ DESCRIPTION : String {static}
    + OrcArmy()
    + getDescription() : String
  }
  class OrcCastle {
    ~ DESCRIPTION : String {static}
    + OrcCastle()
    + getDescription() : String
  }
  class OrcKing {
    ~ DESCRIPTION : String {static}
    + OrcKing()
    + getDescription() : String
  }
  class OrcKingdomFactory {
    + OrcKingdomFactory()
    + createArmy() : Army
    + createCastle() : Castle
    + createKing() : King
  }
}
KingdomType ..+ FactoryMaker
App - ->  "-castle" Castle
FactoryMaker ..+ App
App - ->  "-king" King
App - ->  "-army" Army
ElfArmy ..|> Army
ElfCastle ..|> Castle
ElfKing ..|> King
ElfKingdomFactory ..|> KingdomFactory
OrcArmy ..|> Army
OrcCastle ..|> Castle
OrcKing ..|> King
OrcKingdomFactory ..|> KingdomFactory
@enduml

PlantUML version 1.2021.16(Wed Dec 08 18:25:22 CET 2021)
(GPL source distribution)
Java Runtime: OpenJDK Runtime Environment
JVM: OpenJDK 64-Bit Server VM
Default Encoding: UTF-8
Language: en
Country: DE
--></g></svg>