<?xml version="1.0" encoding="UTF-8" standalone="no"?><svg xmlns="http://www.w3.org/2000/svg" xmlns:xlink="http://www.w3.org/1999/xlink" contentScriptType="application/ecmascript" contentStyleType="text/css" height="336px" preserveAspectRatio="none" style="width:826px;height:336px;background:#FFFFFF;" version="1.1" viewBox="0 0 826 336" width="826px" zoomAndPan="magnify"><defs><filter height="300%" id="f1hcaypa0hxiyr" width="300%" x="-1" y="-1"><feGaussianBlur result="blurOut" stdDeviation="2.0"/><feColorMatrix in="blurOut" result="blurOut2" type="matrix" values="0 0 0 0 0 0 0 0 0 0 0 0 0 0 0 0 0 0 .4 0"/><feOffset dx="4.0" dy="4.0" in="blurOut2" result="blurOut3"/><feBlend in="SourceGraphic" in2="blurOut3" mode="normal"/></filter></defs><g><!--MD5=[4461a49f27b2079a60d7588ad732bdf5]
cluster com.yonatankarp.proxy--><polygon fill="#FFFFFF" filter="url(#f1hcaypa0hxiyr)" points="16,6,187,6,194,28.4883,809,28.4883,809,329.78,16,329.78,16,6" style="stroke:#000000;stroke-width:1.5;"/><line style="stroke:#000000;stroke-width:1.5;" x1="16" x2="194" y1="28.4883" y2="28.4883"/><text fill="#000000" font-family="sans-serif" font-size="14" font-weight="bold" lengthAdjust="spacing" textLength="165" x="20" y="21.5352">com.yonatankarp.proxy</text><!--MD5=[335f4d9be48430461c68bf6d6fdba145]
class App--><rect codeLine="2" fill="#FEFECE" filter="url(#f1hcaypa0hxiyr)" height="86.8652" id="App" style="stroke:#A80036;stroke-width:1.5;" width="133" x="660.5" y="53.96"/><ellipse cx="710.75" cy="69.96" fill="#ADD1B2" rx="11" ry="11" style="stroke:#A80036;stroke-width:1.0;"/><path d="M713.2231,76.1031 Q712.6421,76.4019 712.0029,76.5513 Q711.3638,76.7007 710.6582,76.7007 Q708.1514,76.7007 706.8315,75.0489 Q705.5117,73.397 705.5117,70.2759 Q705.5117,67.1465 706.8315,65.4947 Q708.1514,63.8428 710.6582,63.8428 Q711.3638,63.8428 712.0112,63.9922 Q712.6587,64.1416 713.2231,64.4405 L713.2231,67.1631 Q712.5923,66.5821 711.9988,66.3123 Q711.4053,66.0425 710.7744,66.0425 Q709.4297,66.0425 708.7449,67.1092 Q708.0601,68.1758 708.0601,70.2759 Q708.0601,72.3677 708.7449,73.4344 Q709.4297,74.501 710.7744,74.501 Q711.4053,74.501 711.9988,74.2312 Q712.5923,73.9615 713.2231,73.3804 Z " fill="#000000"/><text fill="#000000" font-family="sans-serif" font-size="12" lengthAdjust="spacing" textLength="24" x="731.25" y="74.4952">App</text><line style="stroke:#A80036;stroke-width:1.5;" x1="661.5" x2="792.5" y1="85.96" y2="85.96"/><rect fill="none" height="6" style="stroke:#C82930;stroke-width:1.0;" width="6" x="668.5" y="93.96"/><text fill="#000000" font-family="sans-serif" font-size="11" lengthAdjust="spacing" text-decoration="underline" textLength="82" x="680.5" y="100.5948">logger : Logger</text><line style="stroke:#A80036;stroke-width:1.5;" x1="661.5" x2="792.5" y1="106.9151" y2="106.9151"/><ellipse cx="671.5" cy="117.9151" fill="#84BE84" rx="3" ry="3" style="stroke:#038048;stroke-width:1.0;"/><text fill="#000000" font-family="sans-serif" font-size="11" lengthAdjust="spacing" textLength="30" x="680.5" y="121.5498">App()</text><ellipse cx="671.5" cy="130.8702" fill="#84BE84" rx="3" ry="3" style="stroke:#038048;stroke-width:1.0;"/><text fill="#000000" font-family="sans-serif" font-size="11" lengthAdjust="spacing" text-decoration="underline" textLength="107" x="680.5" y="134.5049">main(args : String[])</text><!--MD5=[f05896b5e14cfb8963f744c6b6aabdeb]
class IvoryTower--><rect codeLine="7" fill="#FEFECE" filter="url(#f1hcaypa0hxiyr)" height="73.9102" id="IvoryTower" style="stroke:#A80036;stroke-width:1.5;" width="142" x="484" y="60.44"/><ellipse cx="520.15" cy="76.44" fill="#ADD1B2" rx="11" ry="11" style="stroke:#A80036;stroke-width:1.0;"/><path d="M522.6231,82.5831 Q522.0421,82.8819 521.4029,83.0313 Q520.7638,83.1807 520.0582,83.1807 Q517.5514,83.1807 516.2315,81.5289 Q514.9117,79.877 514.9117,76.7559 Q514.9117,73.6265 516.2315,71.9747 Q517.5514,70.3228 520.0582,70.3228 Q520.7638,70.3228 521.4112,70.4722 Q522.0587,70.6216 522.6231,70.9205 L522.6231,73.6431 Q521.9923,73.0621 521.3988,72.7923 Q520.8053,72.5225 520.1744,72.5225 Q518.8297,72.5225 518.1449,73.5892 Q517.4601,74.6558 517.4601,76.7559 Q517.4601,78.8477 518.1449,79.9144 Q518.8297,80.981 520.1744,80.981 Q520.8053,80.981 521.3988,80.7112 Q521.9923,80.4415 522.6231,79.8604 Z " fill="#000000"/><text fill="#000000" font-family="sans-serif" font-size="12" lengthAdjust="spacing" textLength="63" x="538.85" y="80.9752">IvoryTower</text><line style="stroke:#A80036;stroke-width:1.5;" x1="485" x2="625" y1="92.44" y2="92.44"/><line style="stroke:#A80036;stroke-width:1.5;" x1="485" x2="625" y1="100.44" y2="100.44"/><ellipse cx="495" cy="111.44" fill="#84BE84" rx="3" ry="3" style="stroke:#038048;stroke-width:1.0;"/><text fill="#000000" font-family="sans-serif" font-size="11" lengthAdjust="spacing" textLength="68" x="504" y="115.0748">IvoryTower()</text><ellipse cx="495" cy="124.3951" fill="#84BE84" rx="3" ry="3" style="stroke:#038048;stroke-width:1.0;"/><text fill="#000000" font-family="sans-serif" font-size="11" lengthAdjust="spacing" textLength="116" x="504" y="128.0298">enter(wizard : Wizard)</text><!--MD5=[5bf7d035477f2aea02ceb8f2b2c533b6]
class Wizard--><rect codeLine="11" fill="#FEFECE" filter="url(#f1hcaypa0hxiyr)" height="86.8652" id="Wizard" style="stroke:#A80036;stroke-width:1.5;" width="140" x="309" y="53.96"/><ellipse cx="354.75" cy="69.96" fill="#ADD1B2" rx="11" ry="11" style="stroke:#A80036;stroke-width:1.0;"/><path d="M357.2231,76.1031 Q356.6421,76.4019 356.0029,76.5513 Q355.3638,76.7007 354.6582,76.7007 Q352.1514,76.7007 350.8315,75.0489 Q349.5117,73.397 349.5117,70.2759 Q349.5117,67.1465 350.8315,65.4947 Q352.1514,63.8428 354.6582,63.8428 Q355.3638,63.8428 356.0112,63.9922 Q356.6587,64.1416 357.2231,64.4405 L357.2231,67.1631 Q356.5923,66.5821 355.9988,66.3123 Q355.4053,66.0425 354.7744,66.0425 Q353.4297,66.0425 352.7449,67.1092 Q352.0601,68.1758 352.0601,70.2759 Q352.0601,72.3677 352.7449,73.4344 Q353.4297,74.501 354.7744,74.501 Q355.4053,74.501 355.9988,74.2312 Q356.5923,73.9615 357.2231,73.3804 Z " fill="#000000"/><text fill="#000000" font-family="sans-serif" font-size="12" lengthAdjust="spacing" textLength="40" x="375.25" y="74.4952">Wizard</text><line style="stroke:#A80036;stroke-width:1.5;" x1="310" x2="448" y1="85.96" y2="85.96"/><rect fill="none" height="6" style="stroke:#C82930;stroke-width:1.0;" width="6" x="317" y="93.96"/><text fill="#000000" font-family="sans-serif" font-size="11" lengthAdjust="spacing" textLength="70" x="329" y="100.5948">name : String</text><line style="stroke:#A80036;stroke-width:1.5;" x1="310" x2="448" y1="106.9151" y2="106.9151"/><ellipse cx="320" cy="117.9151" fill="#84BE84" rx="3" ry="3" style="stroke:#038048;stroke-width:1.0;"/><text fill="#000000" font-family="sans-serif" font-size="11" lengthAdjust="spacing" textLength="114" x="329" y="121.5498">Wizard(name : String)</text><ellipse cx="320" cy="130.8702" fill="#84BE84" rx="3" ry="3" style="stroke:#038048;stroke-width:1.0;"/><text fill="#000000" font-family="sans-serif" font-size="11" lengthAdjust="spacing" textLength="92" x="329" y="134.5049">toString() : String</text><!--MD5=[54d1111407359e149046d0afb29798ca]
class WizardTower--><rect codeLine="16" fill="#FEFECE" filter="url(#f1hcaypa0hxiyr)" height="60.9551" id="WizardTower" style="stroke:#A80036;stroke-width:1.5;" width="108" x="99" y="233.78"/><ellipse cx="114" cy="249.78" fill="#B4A7E5" rx="11" ry="11" style="stroke:#A80036;stroke-width:1.0;"/><path d="M110.4277,246.0451 L110.4277,243.8869 L117.8071,243.8869 L117.8071,246.0451 L115.3418,246.0451 L115.3418,254.1218 L117.8071,254.1218 L117.8071,256.28 L110.4277,256.28 L110.4277,254.1218 L112.8931,254.1218 L112.8931,246.0451 Z " fill="#000000"/><text fill="#000000" font-family="sans-serif" font-size="12" font-style="italic" lengthAdjust="spacing" textLength="76" x="128" y="254.3152">WizardTower</text><line style="stroke:#A80036;stroke-width:1.5;" x1="100" x2="206" y1="265.78" y2="265.78"/><line style="stroke:#A80036;stroke-width:1.5;" x1="100" x2="206" y1="273.78" y2="273.78"/><ellipse cx="110" cy="284.78" fill="#84BE84" rx="3" ry="3" style="stroke:#038048;stroke-width:1.0;"/><text fill="#000000" font-family="sans-serif" font-size="11" font-style="italic" lengthAdjust="spacing" textLength="72" x="119" y="288.4148">enter(Wizard)</text><!--MD5=[4065110f54bb6085ed9f4f2f13797fe8]
class WizardTowerProxy--><rect codeLine="19" fill="#FEFECE" filter="url(#f1hcaypa0hxiyr)" height="112.7754" id="WizardTowerProxy" style="stroke:#A80036;stroke-width:1.5;" width="242" x="32" y="41"/><ellipse cx="94.75" cy="57" fill="#ADD1B2" rx="11" ry="11" style="stroke:#A80036;stroke-width:1.0;"/><path d="M97.2231,63.1431 Q96.6421,63.4419 96.0029,63.5913 Q95.3638,63.7407 94.6582,63.7407 Q92.1514,63.7407 90.8315,62.0889 Q89.5117,60.437 89.5117,57.3159 Q89.5117,54.1865 90.8315,52.5347 Q92.1514,50.8828 94.6582,50.8828 Q95.3638,50.8828 96.0112,51.0322 Q96.6587,51.1816 97.2231,51.4805 L97.2231,54.2031 Q96.5923,53.6221 95.9988,53.3523 Q95.4053,53.0825 94.7744,53.0825 Q93.4297,53.0825 92.7449,54.1492 Q92.0601,55.2158 92.0601,57.3159 Q92.0601,59.4077 92.7449,60.4744 Q93.4297,61.541 94.7744,61.541 Q95.4053,61.541 95.9988,61.2712 Q96.5923,61.0015 97.2231,60.4204 Z " fill="#000000"/><text fill="#000000" font-family="sans-serif" font-size="12" lengthAdjust="spacing" textLength="108" x="115.25" y="61.5352">WizardTowerProxy</text><line style="stroke:#A80036;stroke-width:1.5;" x1="33" x2="273" y1="73" y2="73"/><rect fill="none" height="6" style="stroke:#C82930;stroke-width:1.0;" width="6" x="40" y="81"/><text fill="#000000" font-family="sans-serif" font-size="11" lengthAdjust="spacing" text-decoration="underline" textLength="160" x="52" y="87.6348">NUM_WIZARDS_ALLOWED : int</text><rect fill="none" height="6" style="stroke:#C82930;stroke-width:1.0;" width="6" x="40" y="93.9551"/><text fill="#000000" font-family="sans-serif" font-size="11" lengthAdjust="spacing" textLength="89" x="52" y="100.5898">numWizards : int</text><rect fill="none" height="6" style="stroke:#C82930;stroke-width:1.0;" width="6" x="40" y="106.9102"/><text fill="#000000" font-family="sans-serif" font-size="11" lengthAdjust="spacing" textLength="108" x="52" y="113.5449">tower : WizardTower</text><line style="stroke:#A80036;stroke-width:1.5;" x1="33" x2="273" y1="119.8652" y2="119.8652"/><ellipse cx="43" cy="130.8652" fill="#84BE84" rx="3" ry="3" style="stroke:#038048;stroke-width:1.0;"/><text fill="#000000" font-family="sans-serif" font-size="11" lengthAdjust="spacing" textLength="216" x="52" y="134.5">WizardTowerProxy(tower : WizardTower)</text><ellipse cx="43" cy="143.8203" fill="#84BE84" rx="3" ry="3" style="stroke:#038048;stroke-width:1.0;"/><text fill="#000000" font-family="sans-serif" font-size="11" lengthAdjust="spacing" textLength="116" x="52" y="147.4551">enter(wizard : Wizard)</text><!--MD5=[b4f0d5f44f57630ce4eaf7dcd5144c56]
link WizardTowerProxy to WizardTower--><path codeLine="27" d="M140.86,154.05 C139.7,178.36 140.19,206.14 142.32,227.53 " fill="none" id="WizardTowerProxy-to-WizardTower" style="stroke:#A80036;stroke-width:1.0;"/><polygon fill="#A80036" points="142.86,232.45,145.8328,223.0605,142.3031,227.4811,137.8825,223.9515,142.86,232.45" style="stroke:#A80036;stroke-width:1.0;"/><text fill="#000000" font-family="sans-serif" font-size="13" lengthAdjust="spacing" textLength="43" x="92.7526" y="222.8236">-tower</text><!--MD5=[b4f0d5f44f57630ce4eaf7dcd5144c56]
link WizardTowerProxy to WizardTower--><path codeLine="29" d="M165.85,154.05 C166.81,173.01 166.71,194.09 165.55,212.6 " fill="none" id="WizardTowerProxy-to-WizardTower-1" style="stroke:#A80036;stroke-width:1.0;stroke-dasharray:7.0,7.0;"/><polygon fill="none" points="172.52,213.19,163.7,232.45,158.58,211.89,172.52,213.19" style="stroke:#A80036;stroke-width:1.0;"/><!--MD5=[7cf00280f8ff478da6e617853ac1b958]
link IvoryTower to WizardTower--><path codeLine="28" d="M501,134.63 C489.7,141.47 477.66,148.21 466,153.78 C387.12,191.48 291.61,222.83 227.01,242.08 " fill="none" id="IvoryTower-to-WizardTower" style="stroke:#A80036;stroke-width:1.0;stroke-dasharray:7.0,7.0;"/><polygon fill="none" points="229.38,248.68,208.21,247.59,225.43,235.25,229.38,248.68" style="stroke:#A80036;stroke-width:1.0;"/><!--MD5=[5c8e6f86b3626647bb539c4e7415d8fd]
@startuml
package com.yonatankarp.proxy {
  class App {
  - logger : Logger {static}
    + App()
    + main(args : String[]) {static}
  }
  class IvoryTower {
    + IvoryTower()
    + enter(wizard : Wizard)
  }
  class Wizard {
    - name : String
    + Wizard(name : String)
    + toString() : String
  }
  interface WizardTower {
    + enter(Wizard) {abstract}
  }
  class WizardTowerProxy {
    - NUM_WIZARDS_ALLOWED : int {static}
    - numWizards : int
    - tower : WizardTower
    + WizardTowerProxy(tower : WizardTower)
    + enter(wizard : Wizard)
  }
}
WizardTowerProxy - ->  "-tower" WizardTower
IvoryTower ..|> WizardTower
WizardTowerProxy ..|> WizardTower
@enduml

PlantUML version 1.2021.16(Wed Dec 08 18:25:22 CET 2021)
(GPL source distribution)
Java Runtime: OpenJDK Runtime Environment
JVM: OpenJDK 64-Bit Server VM
Default Encoding: UTF-8
Language: en
Country: DE
--></g></svg>