<?xml version="1.0" encoding="UTF-8" standalone="no"?><svg xmlns="http://www.w3.org/2000/svg" xmlns:xlink="http://www.w3.org/1999/xlink" contentScriptType="application/ecmascript" contentStyleType="text/css" height="388px" preserveAspectRatio="none" style="width:1449px;height:388px;background:#FFFFFF;" version="1.1" viewBox="0 0 1449 388" width="1449px" zoomAndPan="magnify"><defs><filter height="300%" id="f11tnp2jz2vjd0" width="300%" x="-1" y="-1"><feGaussianBlur result="blurOut" stdDeviation="2.0"/><feColorMatrix in="blurOut" result="blurOut2" type="matrix" values="0 0 0 0 0 0 0 0 0 0 0 0 0 0 0 0 0 0 .4 0"/><feOffset dx="4.0" dy="4.0" in="blurOut2" result="blurOut3"/><feBlend in="SourceGraphic" in2="blurOut3" mode="normal"/></filter></defs><g><!--MD5=[37f6c2912e28b7e56fd7ce57d3968c4f]
cluster com.yonatankarp.flyweight--><polygon fill="#FFFFFF" filter="url(#f11tnp2jz2vjd0)" points="16,6,215,6,222,28.4883,1432,28.4883,1432,381.42,16,381.42,16,6" style="stroke:#000000;stroke-width:1.5;"/><line style="stroke:#000000;stroke-width:1.5;" x1="16" x2="222" y1="28.4883" y2="28.4883"/><text fill="#000000" font-family="sans-serif" font-size="14" font-weight="bold" lengthAdjust="spacing" textLength="193" x="20" y="21.5352">com.yonatankarp.flyweight</text><!--MD5=[76ad7a4a3bccc5f58959e6be993b14c2]
class AlchemistShop--><rect codeLine="2" fill="#FEFECE" filter="url(#f11tnp2jz2vjd0)" height="125.7305" id="AlchemistShop" style="stroke:#A80036;stroke-width:1.5;" width="195" x="781.5" y="41"/><ellipse cx="833.25" cy="57" fill="#ADD1B2" rx="11" ry="11" style="stroke:#A80036;stroke-width:1.0;"/><path d="M835.7231,63.1431 Q835.1421,63.4419 834.5029,63.5913 Q833.8638,63.7407 833.1582,63.7407 Q830.6514,63.7407 829.3315,62.0889 Q828.0117,60.437 828.0117,57.3159 Q828.0117,54.1865 829.3315,52.5347 Q830.6514,50.8828 833.1582,50.8828 Q833.8638,50.8828 834.5112,51.0322 Q835.1587,51.1816 835.7231,51.4805 L835.7231,54.2031 Q835.0923,53.6221 834.4988,53.3523 Q833.9053,53.0825 833.2744,53.0825 Q831.9297,53.0825 831.2449,54.1492 Q830.5601,55.2158 830.5601,57.3159 Q830.5601,59.4077 831.2449,60.4744 Q831.9297,61.541 833.2744,61.541 Q833.9053,61.541 834.4988,61.2712 Q835.0923,61.0015 835.7231,60.4204 Z " fill="#000000"/><text fill="#000000" font-family="sans-serif" font-size="12" lengthAdjust="spacing" textLength="83" x="853.75" y="61.5352">AlchemistShop</text><line style="stroke:#A80036;stroke-width:1.5;" x1="782.5" x2="975.5" y1="73" y2="73"/><rect fill="none" height="6" style="stroke:#C82930;stroke-width:1.0;" width="6" x="789.5" y="81"/><text fill="#000000" font-family="sans-serif" font-size="11" lengthAdjust="spacing" textLength="145" x="801.5" y="87.6348">bottomShelf : List&lt;Potion&gt;</text><rect fill="none" height="6" style="stroke:#C82930;stroke-width:1.0;" width="6" x="789.5" y="93.9551"/><text fill="#000000" font-family="sans-serif" font-size="11" lengthAdjust="spacing" textLength="124" x="801.5" y="100.5898">topShelf : List&lt;Potion&gt;</text><line style="stroke:#A80036;stroke-width:1.5;" x1="782.5" x2="975.5" y1="106.9102" y2="106.9102"/><ellipse cx="792.5" cy="117.9102" fill="#84BE84" rx="3" ry="3" style="stroke:#038048;stroke-width:1.0;"/><text fill="#000000" font-family="sans-serif" font-size="11" lengthAdjust="spacing" textLength="88" x="801.5" y="121.5449">AlchemistShop()</text><ellipse cx="792.5" cy="130.8652" fill="#84BE84" rx="3" ry="3" style="stroke:#038048;stroke-width:1.0;"/><text fill="#000000" font-family="sans-serif" font-size="11" lengthAdjust="spacing" textLength="65" x="801.5" y="134.5">enumerate()</text><ellipse cx="792.5" cy="143.8203" fill="#84BE84" rx="3" ry="3" style="stroke:#038048;stroke-width:1.0;"/><text fill="#000000" font-family="sans-serif" font-size="11" lengthAdjust="spacing" textLength="169" x="801.5" y="147.4551">getBottomShelf() : List&lt;Potion&gt;</text><ellipse cx="792.5" cy="156.7754" fill="#84BE84" rx="3" ry="3" style="stroke:#038048;stroke-width:1.0;"/><text fill="#000000" font-family="sans-serif" font-size="11" lengthAdjust="spacing" textLength="152" x="801.5" y="160.4102">getTopShelf() : List&lt;Potion&gt;</text><!--MD5=[335f4d9be48430461c68bf6d6fdba145]
class App--><rect codeLine="10" fill="#FEFECE" filter="url(#f11tnp2jz2vjd0)" height="86.8652" id="App" style="stroke:#A80036;stroke-width:1.5;" width="133" x="1011.5" y="60.44"/><ellipse cx="1061.75" cy="76.44" fill="#ADD1B2" rx="11" ry="11" style="stroke:#A80036;stroke-width:1.0;"/><path d="M1064.2231,82.5831 Q1063.6421,82.8819 1063.0029,83.0313 Q1062.3638,83.1807 1061.6582,83.1807 Q1059.1514,83.1807 1057.8315,81.5289 Q1056.5117,79.877 1056.5117,76.7559 Q1056.5117,73.6265 1057.8315,71.9747 Q1059.1514,70.3228 1061.6582,70.3228 Q1062.3638,70.3228 1063.0112,70.4722 Q1063.6587,70.6216 1064.2231,70.9205 L1064.2231,73.6431 Q1063.5923,73.0621 1062.9988,72.7923 Q1062.4053,72.5225 1061.7744,72.5225 Q1060.4297,72.5225 1059.7449,73.5892 Q1059.0601,74.6558 1059.0601,76.7559 Q1059.0601,78.8477 1059.7449,79.9144 Q1060.4297,80.981 1061.7744,80.981 Q1062.4053,80.981 1062.9988,80.7112 Q1063.5923,80.4415 1064.2231,79.8604 Z " fill="#000000"/><text fill="#000000" font-family="sans-serif" font-size="12" lengthAdjust="spacing" textLength="24" x="1082.25" y="80.9752">App</text><line style="stroke:#A80036;stroke-width:1.5;" x1="1012.5" x2="1143.5" y1="92.44" y2="92.44"/><rect fill="none" height="6" style="stroke:#C82930;stroke-width:1.0;" width="6" x="1019.5" y="100.44"/><text fill="#000000" font-family="sans-serif" font-size="11" lengthAdjust="spacing" text-decoration="underline" textLength="82" x="1031.5" y="107.0748">logger : Logger</text><line style="stroke:#A80036;stroke-width:1.5;" x1="1012.5" x2="1143.5" y1="113.3951" y2="113.3951"/><ellipse cx="1022.5" cy="124.3951" fill="#84BE84" rx="3" ry="3" style="stroke:#038048;stroke-width:1.0;"/><text fill="#000000" font-family="sans-serif" font-size="11" lengthAdjust="spacing" textLength="30" x="1031.5" y="128.0298">App()</text><ellipse cx="1022.5" cy="137.3502" fill="#84BE84" rx="3" ry="3" style="stroke:#038048;stroke-width:1.0;"/><text fill="#000000" font-family="sans-serif" font-size="11" lengthAdjust="spacing" text-decoration="underline" textLength="107" x="1031.5" y="140.9849">main(args : String[])</text><!--MD5=[ce5c4642eee0eb1da7a968bf05c7ce5e]
class HealingPotion--><rect codeLine="15" fill="#FEFECE" filter="url(#f11tnp2jz2vjd0)" height="73.9102" id="HealingPotion" style="stroke:#A80036;stroke-width:1.5;" width="110" x="637" y="66.91"/><ellipse cx="652" cy="82.91" fill="#ADD1B2" rx="11" ry="11" style="stroke:#A80036;stroke-width:1.0;"/><path d="M654.4731,89.0531 Q653.8921,89.3519 653.2529,89.5013 Q652.6138,89.6507 651.9082,89.6507 Q649.4014,89.6507 648.0815,87.9989 Q646.7617,86.347 646.7617,83.2259 Q646.7617,80.0965 648.0815,78.4447 Q649.4014,76.7928 651.9082,76.7928 Q652.6138,76.7928 653.2612,76.9422 Q653.9087,77.0916 654.4731,77.3905 L654.4731,80.1131 Q653.8423,79.5321 653.2488,79.2623 Q652.6553,78.9925 652.0244,78.9925 Q650.6797,78.9925 649.9949,80.0592 Q649.3101,81.1258 649.3101,83.2259 Q649.3101,85.3177 649.9949,86.3844 Q650.6797,87.451 652.0244,87.451 Q652.6553,87.451 653.2488,87.1812 Q653.8423,86.9115 654.4731,86.3304 Z " fill="#000000"/><text fill="#000000" font-family="sans-serif" font-size="12" lengthAdjust="spacing" textLength="78" x="666" y="87.4452">HealingPotion</text><line style="stroke:#A80036;stroke-width:1.5;" x1="638" x2="746" y1="98.91" y2="98.91"/><line style="stroke:#A80036;stroke-width:1.5;" x1="638" x2="746" y1="106.91" y2="106.91"/><ellipse cx="648" cy="117.91" fill="#84BE84" rx="3" ry="3" style="stroke:#038048;stroke-width:1.0;"/><text fill="#000000" font-family="sans-serif" font-size="11" lengthAdjust="spacing" textLength="82" x="657" y="121.5448">HealingPotion()</text><ellipse cx="648" cy="130.8651" fill="#84BE84" rx="3" ry="3" style="stroke:#038048;stroke-width:1.0;"/><text fill="#000000" font-family="sans-serif" font-size="11" lengthAdjust="spacing" textLength="36" x="657" y="134.4998">drink()</text><!--MD5=[e8a133263d11ff5d8f1f8384f27c1d71]
class HolyWaterPotion--><rect codeLine="19" fill="#FEFECE" filter="url(#f11tnp2jz2vjd0)" height="73.9102" id="HolyWaterPotion" style="stroke:#A80036;stroke-width:1.5;" width="125" x="476.5" y="66.91"/><ellipse cx="491.5" cy="82.91" fill="#ADD1B2" rx="11" ry="11" style="stroke:#A80036;stroke-width:1.0;"/><path d="M493.9731,89.0531 Q493.3921,89.3519 492.7529,89.5013 Q492.1138,89.6507 491.4082,89.6507 Q488.9014,89.6507 487.5815,87.9989 Q486.2617,86.347 486.2617,83.2259 Q486.2617,80.0965 487.5815,78.4447 Q488.9014,76.7928 491.4082,76.7928 Q492.1138,76.7928 492.7612,76.9422 Q493.4087,77.0916 493.9731,77.3905 L493.9731,80.1131 Q493.3423,79.5321 492.7488,79.2623 Q492.1553,78.9925 491.5244,78.9925 Q490.1797,78.9925 489.4949,80.0592 Q488.8101,81.1258 488.8101,83.2259 Q488.8101,85.3177 489.4949,86.3844 Q490.1797,87.451 491.5244,87.451 Q492.1553,87.451 492.7488,87.1812 Q493.3423,86.9115 493.9731,86.3304 Z " fill="#000000"/><text fill="#000000" font-family="sans-serif" font-size="12" lengthAdjust="spacing" textLength="93" x="505.5" y="87.4452">HolyWaterPotion</text><line style="stroke:#A80036;stroke-width:1.5;" x1="477.5" x2="600.5" y1="98.91" y2="98.91"/><line style="stroke:#A80036;stroke-width:1.5;" x1="477.5" x2="600.5" y1="106.91" y2="106.91"/><ellipse cx="487.5" cy="117.91" fill="#84BE84" rx="3" ry="3" style="stroke:#038048;stroke-width:1.0;"/><text fill="#000000" font-family="sans-serif" font-size="11" lengthAdjust="spacing" textLength="96" x="496.5" y="121.5448">HolyWaterPotion()</text><ellipse cx="487.5" cy="130.8651" fill="#84BE84" rx="3" ry="3" style="stroke:#038048;stroke-width:1.0;"/><text fill="#000000" font-family="sans-serif" font-size="11" lengthAdjust="spacing" textLength="36" x="496.5" y="134.4998">drink()</text><!--MD5=[30d39f2b1b508efe10d9982760b32185]
class InvisibilityPotion--><rect codeLine="23" fill="#FEFECE" filter="url(#f11tnp2jz2vjd0)" height="73.9102" id="InvisibilityPotion" style="stroke:#A80036;stroke-width:1.5;" width="122" x="320" y="66.91"/><ellipse cx="335" cy="82.91" fill="#ADD1B2" rx="11" ry="11" style="stroke:#A80036;stroke-width:1.0;"/><path d="M337.4731,89.0531 Q336.8921,89.3519 336.2529,89.5013 Q335.6138,89.6507 334.9082,89.6507 Q332.4014,89.6507 331.0815,87.9989 Q329.7617,86.347 329.7617,83.2259 Q329.7617,80.0965 331.0815,78.4447 Q332.4014,76.7928 334.9082,76.7928 Q335.6138,76.7928 336.2612,76.9422 Q336.9087,77.0916 337.4731,77.3905 L337.4731,80.1131 Q336.8423,79.5321 336.2488,79.2623 Q335.6553,78.9925 335.0244,78.9925 Q333.6797,78.9925 332.9949,80.0592 Q332.3101,81.1258 332.3101,83.2259 Q332.3101,85.3177 332.9949,86.3844 Q333.6797,87.451 335.0244,87.451 Q335.6553,87.451 336.2488,87.1812 Q336.8423,86.9115 337.4731,86.3304 Z " fill="#000000"/><text fill="#000000" font-family="sans-serif" font-size="12" lengthAdjust="spacing" textLength="90" x="349" y="87.4452">InvisibilityPotion</text><line style="stroke:#A80036;stroke-width:1.5;" x1="321" x2="441" y1="98.91" y2="98.91"/><line style="stroke:#A80036;stroke-width:1.5;" x1="321" x2="441" y1="106.91" y2="106.91"/><ellipse cx="331" cy="117.91" fill="#84BE84" rx="3" ry="3" style="stroke:#038048;stroke-width:1.0;"/><text fill="#000000" font-family="sans-serif" font-size="11" lengthAdjust="spacing" textLength="96" x="340" y="121.5448">InvisibilityPotion()</text><ellipse cx="331" cy="130.8651" fill="#84BE84" rx="3" ry="3" style="stroke:#038048;stroke-width:1.0;"/><text fill="#000000" font-family="sans-serif" font-size="11" lengthAdjust="spacing" textLength="36" x="340" y="134.4998">drink()</text><!--MD5=[6fa53fc5922befa162e61aae66de9f6a]
class PoisonPotion--><rect codeLine="27" fill="#FEFECE" filter="url(#f11tnp2jz2vjd0)" height="73.9102" id="PoisonPotion" style="stroke:#A80036;stroke-width:1.5;" width="104" x="181" y="66.91"/><ellipse cx="196" cy="82.91" fill="#ADD1B2" rx="11" ry="11" style="stroke:#A80036;stroke-width:1.0;"/><path d="M198.4731,89.0531 Q197.8921,89.3519 197.2529,89.5013 Q196.6138,89.6507 195.9082,89.6507 Q193.4014,89.6507 192.0815,87.9989 Q190.7617,86.347 190.7617,83.2259 Q190.7617,80.0965 192.0815,78.4447 Q193.4014,76.7928 195.9082,76.7928 Q196.6138,76.7928 197.2612,76.9422 Q197.9087,77.0916 198.4731,77.3905 L198.4731,80.1131 Q197.8423,79.5321 197.2488,79.2623 Q196.6553,78.9925 196.0244,78.9925 Q194.6797,78.9925 193.9949,80.0592 Q193.3101,81.1258 193.3101,83.2259 Q193.3101,85.3177 193.9949,86.3844 Q194.6797,87.451 196.0244,87.451 Q196.6553,87.451 197.2488,87.1812 Q197.8423,86.9115 198.4731,86.3304 Z " fill="#000000"/><text fill="#000000" font-family="sans-serif" font-size="12" lengthAdjust="spacing" textLength="72" x="210" y="87.4452">PoisonPotion</text><line style="stroke:#A80036;stroke-width:1.5;" x1="182" x2="284" y1="98.91" y2="98.91"/><line style="stroke:#A80036;stroke-width:1.5;" x1="182" x2="284" y1="106.91" y2="106.91"/><ellipse cx="192" cy="117.91" fill="#84BE84" rx="3" ry="3" style="stroke:#038048;stroke-width:1.0;"/><text fill="#000000" font-family="sans-serif" font-size="11" lengthAdjust="spacing" textLength="78" x="201" y="121.5448">PoisonPotion()</text><ellipse cx="192" cy="130.8651" fill="#84BE84" rx="3" ry="3" style="stroke:#038048;stroke-width:1.0;"/><text fill="#000000" font-family="sans-serif" font-size="11" lengthAdjust="spacing" textLength="36" x="201" y="134.4998">drink()</text><!--MD5=[b0a16f083d971cd5fdb00a761526111f]
class Potion--><rect codeLine="31" fill="#FEFECE" filter="url(#f11tnp2jz2vjd0)" height="60.9551" id="Potion" style="stroke:#A80036;stroke-width:1.5;" width="67" x="426.5" y="266.08"/><ellipse cx="441.5" cy="282.08" fill="#B4A7E5" rx="11" ry="11" style="stroke:#A80036;stroke-width:1.0;"/><path d="M437.9277,278.3451 L437.9277,276.1869 L445.3071,276.1869 L445.3071,278.3451 L442.8418,278.3451 L442.8418,286.4218 L445.3071,286.4218 L445.3071,288.58 L437.9277,288.58 L437.9277,286.4218 L440.3931,286.4218 L440.3931,278.3451 Z " fill="#000000"/><text fill="#000000" font-family="sans-serif" font-size="12" font-style="italic" lengthAdjust="spacing" textLength="35" x="455.5" y="286.6152">Potion</text><line style="stroke:#A80036;stroke-width:1.5;" x1="427.5" x2="492.5" y1="298.08" y2="298.08"/><line style="stroke:#A80036;stroke-width:1.5;" x1="427.5" x2="492.5" y1="306.08" y2="306.08"/><ellipse cx="437.5" cy="317.08" fill="#84BE84" rx="3" ry="3" style="stroke:#038048;stroke-width:1.0;"/><text fill="#000000" font-family="sans-serif" font-size="11" font-style="italic" lengthAdjust="spacing" textLength="36" x="446.5" y="320.7148">drink()</text><!--MD5=[13d47804a5bb57a55bb089973d46bd73]
class PotionFactory--><rect codeLine="34" fill="#FEFECE" filter="url(#f11tnp2jz2vjd0)" height="86.8652" id="PotionFactory" style="stroke:#A80036;stroke-width:1.5;" width="236" x="1180" y="60.44"/><ellipse cx="1255.75" cy="76.44" fill="#ADD1B2" rx="11" ry="11" style="stroke:#A80036;stroke-width:1.0;"/><path d="M1258.2231,82.5831 Q1257.6421,82.8819 1257.0029,83.0313 Q1256.3638,83.1807 1255.6582,83.1807 Q1253.1514,83.1807 1251.8315,81.5289 Q1250.5117,79.877 1250.5117,76.7559 Q1250.5117,73.6265 1251.8315,71.9747 Q1253.1514,70.3228 1255.6582,70.3228 Q1256.3638,70.3228 1257.0112,70.4722 Q1257.6587,70.6216 1258.2231,70.9205 L1258.2231,73.6431 Q1257.5923,73.0621 1256.9988,72.7923 Q1256.4053,72.5225 1255.7744,72.5225 Q1254.4297,72.5225 1253.7449,73.5892 Q1253.0601,74.6558 1253.0601,76.7559 Q1253.0601,78.8477 1253.7449,79.9144 Q1254.4297,80.981 1255.7744,80.981 Q1256.4053,80.981 1256.9988,80.7112 Q1257.5923,80.4415 1258.2231,79.8604 Z " fill="#000000"/><text fill="#000000" font-family="sans-serif" font-size="12" lengthAdjust="spacing" textLength="76" x="1276.25" y="80.9752">PotionFactory</text><line style="stroke:#A80036;stroke-width:1.5;" x1="1181" x2="1415" y1="92.44" y2="92.44"/><rect fill="none" height="6" style="stroke:#C82930;stroke-width:1.0;" width="6" x="1188" y="100.44"/><text fill="#000000" font-family="sans-serif" font-size="11" lengthAdjust="spacing" textLength="190" x="1200" y="107.0748">potions : Map&lt;PotionType, Potion&gt;</text><line style="stroke:#A80036;stroke-width:1.5;" x1="1181" x2="1415" y1="113.3951" y2="113.3951"/><ellipse cx="1191" cy="124.3951" fill="#84BE84" rx="3" ry="3" style="stroke:#038048;stroke-width:1.0;"/><text fill="#000000" font-family="sans-serif" font-size="11" lengthAdjust="spacing" textLength="82" x="1200" y="128.0298">PotionFactory()</text><polygon fill="#4177AF" points="1191,133.3502,1187,139.3502,1195,139.3502" style="stroke:#1963A0;stroke-width:1.0;"/><text fill="#000000" font-family="sans-serif" font-size="11" lengthAdjust="spacing" textLength="210" x="1200" y="140.9849">createPotion(type : PotionType) : Potion</text><!--MD5=[01da8c543ef7c26ea36dc0305fd9dbee]
class PotionType--><rect codeLine="39" fill="#FEFECE" filter="url(#f11tnp2jz2vjd0)" height="138.6855" id="PotionType" style="stroke:#A80036;stroke-width:1.5;" width="214" x="971" y="226.73"/><ellipse cx="1041.75" cy="242.73" fill="#EB937F" rx="11" ry="11" style="stroke:#A80036;stroke-width:1.0;"/><path d="M1045.3643,249.23 L1037.6445,249.23 L1037.6445,236.8369 L1045.3643,236.8369 L1045.3643,238.9951 L1040.0933,238.9951 L1040.0933,241.668 L1044.8662,241.668 L1044.8662,243.8262 L1040.0933,243.8262 L1040.0933,247.0718 L1045.3643,247.0718 Z " fill="#000000"/><text fill="#000000" font-family="sans-serif" font-size="12" lengthAdjust="spacing" textLength="64" x="1062.25" y="247.2652">PotionType</text><line style="stroke:#A80036;stroke-width:1.5;" x1="972" x2="1184" y1="258.73" y2="258.73"/><ellipse cx="982" cy="269.73" rx="3" ry="3" style="stroke:#038048;stroke-width:1.0;fill:none;"/><text fill="#000000" font-family="sans-serif" font-size="11" lengthAdjust="spacing" text-decoration="underline" textLength="47" x="991" y="273.3648">HEALING</text><ellipse cx="982" cy="282.6851" rx="3" ry="3" style="stroke:#038048;stroke-width:1.0;fill:none;"/><text fill="#000000" font-family="sans-serif" font-size="11" lengthAdjust="spacing" text-decoration="underline" textLength="73" x="991" y="286.3198">HOLY_WATER</text><ellipse cx="982" cy="295.6402" rx="3" ry="3" style="stroke:#038048;stroke-width:1.0;fill:none;"/><text fill="#000000" font-family="sans-serif" font-size="11" lengthAdjust="spacing" text-decoration="underline" textLength="62" x="991" y="299.2749">INVISIBILITY</text><ellipse cx="982" cy="308.5952" rx="3" ry="3" style="stroke:#038048;stroke-width:1.0;fill:none;"/><text fill="#000000" font-family="sans-serif" font-size="11" lengthAdjust="spacing" text-decoration="underline" textLength="41" x="991" y="312.23">POISON</text><ellipse cx="982" cy="321.5503" rx="3" ry="3" style="stroke:#038048;stroke-width:1.0;fill:none;"/><text fill="#000000" font-family="sans-serif" font-size="11" lengthAdjust="spacing" text-decoration="underline" textLength="57" x="991" y="325.1851">STRENGTH</text><line style="stroke:#A80036;stroke-width:1.5;" x1="972" x2="1184" y1="331.5054" y2="331.5054"/><ellipse cx="982" cy="342.5054" fill="#84BE84" rx="3" ry="3" style="stroke:#038048;stroke-width:1.0;"/><text fill="#000000" font-family="sans-serif" font-size="11" lengthAdjust="spacing" text-decoration="underline" textLength="188" x="991" y="346.1402">valueOf(name : String) : PotionType</text><ellipse cx="982" cy="355.4605" fill="#84BE84" rx="3" ry="3" style="stroke:#038048;stroke-width:1.0;"/><text fill="#000000" font-family="sans-serif" font-size="11" lengthAdjust="spacing" text-decoration="underline" textLength="119" x="991" y="359.0952">values() : PotionType[]</text><!--MD5=[e8693261f41387e68e30aca0a639712f]
class StrengthPotion--><rect codeLine="48" fill="#FEFECE" filter="url(#f11tnp2jz2vjd0)" height="73.9102" id="StrengthPotion" style="stroke:#A80036;stroke-width:1.5;" width="114" x="32" y="66.91"/><ellipse cx="47" cy="82.91" fill="#ADD1B2" rx="11" ry="11" style="stroke:#A80036;stroke-width:1.0;"/><path d="M49.4731,89.0531 Q48.8921,89.3519 48.2529,89.5013 Q47.6138,89.6507 46.9082,89.6507 Q44.4014,89.6507 43.0815,87.9989 Q41.7617,86.347 41.7617,83.2259 Q41.7617,80.0965 43.0815,78.4447 Q44.4014,76.7928 46.9082,76.7928 Q47.6138,76.7928 48.2612,76.9422 Q48.9087,77.0916 49.4731,77.3905 L49.4731,80.1131 Q48.8423,79.5321 48.2488,79.2623 Q47.6553,78.9925 47.0244,78.9925 Q45.6797,78.9925 44.9949,80.0592 Q44.3101,81.1258 44.3101,83.2259 Q44.3101,85.3177 44.9949,86.3844 Q45.6797,87.451 47.0244,87.451 Q47.6553,87.451 48.2488,87.1812 Q48.8423,86.9115 49.4731,86.3304 Z " fill="#000000"/><text fill="#000000" font-family="sans-serif" font-size="12" lengthAdjust="spacing" textLength="82" x="61" y="87.4452">StrengthPotion</text><line style="stroke:#A80036;stroke-width:1.5;" x1="33" x2="145" y1="98.91" y2="98.91"/><line style="stroke:#A80036;stroke-width:1.5;" x1="33" x2="145" y1="106.91" y2="106.91"/><ellipse cx="43" cy="117.91" fill="#84BE84" rx="3" ry="3" style="stroke:#038048;stroke-width:1.0;"/><text fill="#000000" font-family="sans-serif" font-size="11" lengthAdjust="spacing" textLength="88" x="52" y="121.5448">StrengthPotion()</text><ellipse cx="43" cy="130.8651" fill="#84BE84" rx="3" ry="3" style="stroke:#038048;stroke-width:1.0;"/><text fill="#000000" font-family="sans-serif" font-size="11" lengthAdjust="spacing" textLength="36" x="52" y="134.4998">drink()</text><!--MD5=[771787eca214b26b4703b2da02d8f499]
link AlchemistShop to Potion--><path codeLine="53" d="M781.07,158.81 C775.66,161.54 770.28,164.2 765,166.73 C671.38,211.7 557.87,257.16 499.26,280 " fill="none" id="AlchemistShop-to-Potion" style="stroke:#A80036;stroke-width:1.0;"/><polygon fill="#A80036" points="494.83,281.72,504.6681,282.1802,499.4889,279.905,501.7641,274.7259,494.83,281.72" style="stroke:#A80036;stroke-width:1.0;"/><text fill="#000000" font-family="sans-serif" font-size="13" lengthAdjust="spacing" textLength="60" x="501.5457" y="277.0667">-topShelf</text><!--MD5=[c6423bebaec147933c35100311a8c571]
link HealingPotion to Potion--><path codeLine="54" d="M649.68,141.03 C639.66,149.51 628.98,158.48 619,166.73 C582.84,196.64 541.6,229.91 510.18,255.08 " fill="none" id="HealingPotion-to-Potion" style="stroke:#A80036;stroke-width:1.0;stroke-dasharray:7.0,7.0;"/><polygon fill="none" points="514.55,260.54,494.56,267.57,505.81,249.61,514.55,260.54" style="stroke:#A80036;stroke-width:1.0;"/><!--MD5=[c2d55799e1f25c291f17da104a0cc337]
link HolyWaterPotion to Potion--><path codeLine="55" d="M523.95,141.09 C511.52,171.03 493.75,213.81 480.1,246.68 " fill="none" id="HolyWaterPotion-to-Potion" style="stroke:#A80036;stroke-width:1.0;stroke-dasharray:7.0,7.0;"/><polygon fill="none" points="486.74,248.95,472.6,264.74,473.81,243.58,486.74,248.95" style="stroke:#A80036;stroke-width:1.0;"/><!--MD5=[6c0588fffe6e353348298b795048dff4]
link InvisibilityPotion to Potion--><path codeLine="56" d="M396.05,141.09 C408.48,171.03 426.25,213.81 439.9,246.68 " fill="none" id="InvisibilityPotion-to-Potion" style="stroke:#A80036;stroke-width:1.0;stroke-dasharray:7.0,7.0;"/><polygon fill="none" points="446.19,243.58,447.4,264.74,433.26,248.95,446.19,243.58" style="stroke:#A80036;stroke-width:1.0;"/><!--MD5=[2c63c5cb398af7b59d84f9f82a9719b6]
link PoisonPotion to Potion--><path codeLine="57" d="M273.49,141.12 C283.1,149.6 293.36,158.54 303,166.73 C338.37,196.8 378.95,229.94 410,255.02 " fill="none" id="PoisonPotion-to-Potion" style="stroke:#A80036;stroke-width:1.0;stroke-dasharray:7.0,7.0;"/><polygon fill="none" points="414.25,249.45,425.44,267.45,405.47,260.36,414.25,249.45" style="stroke:#A80036;stroke-width:1.0;"/><!--MD5=[600322f93b3049f68c75ad6639b80523]
link StrengthPotion to Potion--><path codeLine="58" d="M128.7,141.1 C139.68,150.12 151.91,159.33 164,166.73 C243.73,215.55 345.32,255.27 406.38,277 " fill="none" id="StrengthPotion-to-Potion" style="stroke:#A80036;stroke-width:1.0;stroke-dasharray:7.0,7.0;"/><polygon fill="none" points="408.55,270.35,425.12,283.55,403.93,283.56,408.55,270.35" style="stroke:#A80036;stroke-width:1.0;"/><!--MD5=[e2f6d51f0e96e5173abc313884007896]
link App to PotionFactory--><!--MD5=[acdb56bd4a517d6ccc0bdf8162af05ca]
link App to PotionType--><!--MD5=[eedd182ff0c37a4deb17d11da18a26e2]
@startuml
package com.yonatankarp.flyweight {
  class AlchemistShop {
    - bottomShelf : List<Potion>
    - topShelf : List<Potion>
    + AlchemistShop()
    + enumerate()
    + getBottomShelf() : List<Potion>
    + getTopShelf() : List<Potion>
  }
  class App {
    - logger : Logger {static}
    + App()
    + main(args : String[]) {static}
  }
  class HealingPotion {
    + HealingPotion()
    + drink()
  }
  class HolyWaterPotion {
    + HolyWaterPotion()
    + drink()
  }
  class InvisibilityPotion {
    + InvisibilityPotion()
    + drink()
  }
  class PoisonPotion {
    + PoisonPotion()
    + drink()
  }
  interface Potion {
    + drink() {abstract}
  }
  class PotionFactory {
    - potions : Map<PotionType, Potion>
    + PotionFactory()
    ~ createPotion(type : PotionType) : Potion
  }
  enum PotionType {
    + HEALING {static}
    + HOLY_WATER {static}
    + INVISIBILITY {static}
    + POISON {static}
    + STRENGTH {static}
    + valueOf(name : String) : PotionType {static}
    + values() : PotionType[] {static}
  }
  class StrengthPotion {
    + StrengthPotion()
    + drink()
  }
}
AlchemistShop - ->  "-topShelf" Potion
HealingPotion ..|> Potion
HolyWaterPotion ..|> Potion
InvisibilityPotion ..|> Potion
PoisonPotion ..|> Potion
StrengthPotion ..|> Potion
@enduml

PlantUML version 1.2021.16(Wed Dec 08 18:25:22 CET 2021)
(GPL source distribution)
Java Runtime: OpenJDK Runtime Environment
JVM: OpenJDK 64-Bit Server VM
Default Encoding: UTF-8
Language: en
Country: DE
--></g></svg>