<?xml version="1.0" encoding="UTF-8" standalone="no"?><svg xmlns="http://www.w3.org/2000/svg" xmlns:xlink="http://www.w3.org/1999/xlink" contentScriptType="application/ecmascript" contentStyleType="text/css" height="388px" preserveAspectRatio="none" style="width:1534px;height:388px;background:#FFFFFF;" version="1.1" viewBox="0 0 1534 388" width="1534px" zoomAndPan="magnify"><defs><filter height="300%" id="f18wukzvu3qzxq" width="300%" x="-1" y="-1"><feGaussianBlur result="blurOut" stdDeviation="2.0"/><feColorMatrix in="blurOut" result="blurOut2" type="matrix" values="0 0 0 0 0 0 0 0 0 0 0 0 0 0 0 0 0 0 .4 0"/><feOffset dx="4.0" dy="4.0" in="blurOut2" result="blurOut3"/><feBlend in="SourceGraphic" in2="blurOut3" mode="normal"/></filter></defs><g><!--MD5=[0d7e978513eb7803508f9fdf97291ab3]
cluster com.yonatankarp.factory.method--><polygon fill="#FFFFFF" filter="url(#f18wukzvu3qzxq)" points="16,6,255,6,262,28.4883,1517,28.4883,1517,381.42,16,381.42,16,6" style="stroke:#000000;stroke-width:1.5;"/><line style="stroke:#000000;stroke-width:1.5;" x1="16" x2="262" y1="28.4883" y2="28.4883"/><text fill="#000000" font-family="sans-serif" font-size="14" font-weight="bold" lengthAdjust="spacing" textLength="233" x="20" y="21.5352">com.yonatankarp.factory.method</text><!--MD5=[335f4d9be48430461c68bf6d6fdba145]
class App--><rect codeLine="2" fill="#FEFECE" filter="url(#f18wukzvu3qzxq)" height="112.7754" id="App" style="stroke:#A80036;stroke-width:1.5;" width="180" x="574" y="41"/><ellipse cx="647.75" cy="57" fill="#ADD1B2" rx="11" ry="11" style="stroke:#A80036;stroke-width:1.0;"/><path d="M650.2231,63.1431 Q649.6421,63.4419 649.0029,63.5913 Q648.3638,63.7407 647.6582,63.7407 Q645.1514,63.7407 643.8315,62.0889 Q642.5117,60.437 642.5117,57.3159 Q642.5117,54.1865 643.8315,52.5347 Q645.1514,50.8828 647.6582,50.8828 Q648.3638,50.8828 649.0112,51.0322 Q649.6587,51.1816 650.2231,51.4805 L650.2231,54.2031 Q649.5923,53.6221 648.9988,53.3523 Q648.4053,53.0825 647.7744,53.0825 Q646.4297,53.0825 645.7449,54.1492 Q645.0601,55.2158 645.0601,57.3159 Q645.0601,59.4077 645.7449,60.4744 Q646.4297,61.541 647.7744,61.541 Q648.4053,61.541 648.9988,61.2712 Q649.5923,61.0015 650.2231,60.4204 Z " fill="#000000"/><text fill="#000000" font-family="sans-serif" font-size="12" lengthAdjust="spacing" textLength="24" x="668.25" y="61.5352">App</text><line style="stroke:#A80036;stroke-width:1.5;" x1="575" x2="753" y1="73" y2="73"/><rect fill="none" height="6" style="stroke:#C82930;stroke-width:1.0;" width="6" x="582" y="81"/><text fill="#000000" font-family="sans-serif" font-size="11" lengthAdjust="spacing" text-decoration="underline" textLength="91" x="594" y="87.6348">LOGGER : Logger</text><rect fill="none" height="6" style="stroke:#C82930;stroke-width:1.0;" width="6" x="582" y="93.9551"/><text fill="#000000" font-family="sans-serif" font-size="11" lengthAdjust="spacing" textLength="124" x="594" y="100.5898">blacksmith : Blacksmith</text><line style="stroke:#A80036;stroke-width:1.5;" x1="575" x2="753" y1="106.9102" y2="106.9102"/><ellipse cx="585" cy="117.9102" fill="#84BE84" rx="3" ry="3" style="stroke:#038048;stroke-width:1.0;"/><text fill="#000000" font-family="sans-serif" font-size="11" lengthAdjust="spacing" textLength="154" x="594" y="121.5449">App(blacksmith : Blacksmith)</text><ellipse cx="585" cy="130.8652" fill="#84BE84" rx="3" ry="3" style="stroke:#038048;stroke-width:1.0;"/><text fill="#000000" font-family="sans-serif" font-size="11" lengthAdjust="spacing" text-decoration="underline" textLength="107" x="594" y="134.5">main(args : String[])</text><rect fill="#F24D5C" height="6" style="stroke:#C82930;stroke-width:1.0;" width="6" x="582" y="140.8203"/><text fill="#000000" font-family="sans-serif" font-size="11" lengthAdjust="spacing" textLength="124" x="594" y="147.4551">manufactureWeapons()</text><!--MD5=[844d3b513b474fbeef093dedcbc6321d]
class Blacksmith--><rect codeLine="9" fill="#FEFECE" filter="url(#f18wukzvu3qzxq)" height="60.9551" id="Blacksmith" style="stroke:#A80036;stroke-width:1.5;" width="263" x="826.5" y="259.12"/><ellipse cx="923.25" cy="275.12" fill="#B4A7E5" rx="11" ry="11" style="stroke:#A80036;stroke-width:1.0;"/><path d="M919.6777,271.3851 L919.6777,269.2269 L927.0571,269.2269 L927.0571,271.3851 L924.5918,271.3851 L924.5918,279.4618 L927.0571,279.4618 L927.0571,281.62 L919.6777,281.62 L919.6777,279.4618 L922.1431,279.4618 L922.1431,271.3851 Z " fill="#000000"/><text fill="#000000" font-family="sans-serif" font-size="12" font-style="italic" lengthAdjust="spacing" textLength="61" x="943.75" y="279.6552">Blacksmith</text><line style="stroke:#A80036;stroke-width:1.5;" x1="827.5" x2="1088.5" y1="291.12" y2="291.12"/><line style="stroke:#A80036;stroke-width:1.5;" x1="827.5" x2="1088.5" y1="299.12" y2="299.12"/><ellipse cx="837.5" cy="310.12" fill="#84BE84" rx="3" ry="3" style="stroke:#038048;stroke-width:1.0;"/><text fill="#000000" font-family="sans-serif" font-size="11" font-style="italic" lengthAdjust="spacing" textLength="237" x="846.5" y="313.7548">manufactureWeapon(WeaponType) : Weapon</text><!--MD5=[6781914cabfa74be4489b9f119a81d22]
class ElfBlacksmith--><rect codeLine="12" fill="#FEFECE" filter="url(#f18wukzvu3qzxq)" height="86.8652" id="ElfBlacksmith" style="stroke:#A80036;stroke-width:1.5;" width="339" x="1162.5" y="53.96"/><ellipse cx="1290.25" cy="69.96" fill="#ADD1B2" rx="11" ry="11" style="stroke:#A80036;stroke-width:1.0;"/><path d="M1292.7231,76.1031 Q1292.1421,76.4019 1291.5029,76.5513 Q1290.8638,76.7007 1290.1582,76.7007 Q1287.6514,76.7007 1286.3315,75.0489 Q1285.0117,73.397 1285.0117,70.2759 Q1285.0117,67.1465 1286.3315,65.4947 Q1287.6514,63.8428 1290.1582,63.8428 Q1290.8638,63.8428 1291.5112,63.9922 Q1292.1587,64.1416 1292.7231,64.4405 L1292.7231,67.1631 Q1292.0923,66.5821 1291.4988,66.3123 Q1290.9053,66.0425 1290.2744,66.0425 Q1288.9297,66.0425 1288.2449,67.1092 Q1287.5601,68.1758 1287.5601,70.2759 Q1287.5601,72.3677 1288.2449,73.4344 Q1288.9297,74.501 1290.2744,74.501 Q1290.9053,74.501 1291.4988,74.2312 Q1292.0923,73.9615 1292.7231,73.3804 Z " fill="#000000"/><text fill="#000000" font-family="sans-serif" font-size="12" lengthAdjust="spacing" textLength="75" x="1310.75" y="74.4952">ElfBlacksmith</text><line style="stroke:#A80036;stroke-width:1.5;" x1="1163.5" x2="1500.5" y1="85.96" y2="85.96"/><rect fill="none" height="6" style="stroke:#C82930;stroke-width:1.0;" width="6" x="1170.5" y="93.96"/><text fill="#000000" font-family="sans-serif" font-size="11" lengthAdjust="spacing" text-decoration="underline" textLength="245" x="1182.5" y="100.5948">ELFARSENAL : Map&lt;WeaponType, ElfWeapon&gt;</text><line style="stroke:#A80036;stroke-width:1.5;" x1="1163.5" x2="1500.5" y1="106.9151" y2="106.9151"/><ellipse cx="1173.5" cy="117.9151" fill="#84BE84" rx="3" ry="3" style="stroke:#038048;stroke-width:1.0;"/><text fill="#000000" font-family="sans-serif" font-size="11" lengthAdjust="spacing" textLength="78" x="1182.5" y="121.5498">ElfBlacksmith()</text><ellipse cx="1173.5" cy="130.8702" fill="#84BE84" rx="3" ry="3" style="stroke:#038048;stroke-width:1.0;"/><text fill="#000000" font-family="sans-serif" font-size="11" lengthAdjust="spacing" textLength="313" x="1182.5" y="134.5049">manufactureWeapon(weaponType : WeaponType) : Weapon</text><!--MD5=[951fecdb56da6eb7400d60ede9dbb083]
class ElfWeapon--><rect codeLine="17" fill="#FEFECE" filter="url(#f18wukzvu3qzxq)" height="99.8203" id="ElfWeapon" style="stroke:#A80036;stroke-width:1.5;" width="233" x="306.5" y="47.48"/><ellipse cx="388.75" cy="63.48" fill="#ADD1B2" rx="11" ry="11" style="stroke:#A80036;stroke-width:1.0;"/><path d="M391.2231,69.6231 Q390.6421,69.9219 390.0029,70.0713 Q389.3638,70.2207 388.6582,70.2207 Q386.1514,70.2207 384.8315,68.5689 Q383.5117,66.917 383.5117,63.7959 Q383.5117,60.6665 384.8315,59.0147 Q386.1514,57.3628 388.6582,57.3628 Q389.3638,57.3628 390.0112,57.5122 Q390.6587,57.6616 391.2231,57.9605 L391.2231,60.6831 Q390.5923,60.1021 389.9988,59.8323 Q389.4053,59.5625 388.7744,59.5625 Q387.4297,59.5625 386.7449,60.6292 Q386.0601,61.6958 386.0601,63.7959 Q386.0601,65.8877 386.7449,66.9544 Q387.4297,68.021 388.7744,68.021 Q389.4053,68.021 389.9988,67.7512 Q390.5923,67.4815 391.2231,66.9004 Z " fill="#000000"/><text fill="#000000" font-family="sans-serif" font-size="12" lengthAdjust="spacing" textLength="60" x="409.25" y="68.0152">ElfWeapon</text><line style="stroke:#A80036;stroke-width:1.5;" x1="307.5" x2="538.5" y1="79.48" y2="79.48"/><rect fill="none" height="6" style="stroke:#C82930;stroke-width:1.0;" width="6" x="314.5" y="87.48"/><text fill="#000000" font-family="sans-serif" font-size="11" lengthAdjust="spacing" textLength="144" x="326.5" y="94.1148">weaponType : WeaponType</text><line style="stroke:#A80036;stroke-width:1.5;" x1="307.5" x2="538.5" y1="100.4351" y2="100.4351"/><ellipse cx="317.5" cy="111.4351" fill="#84BE84" rx="3" ry="3" style="stroke:#038048;stroke-width:1.0;"/><text fill="#000000" font-family="sans-serif" font-size="11" lengthAdjust="spacing" textLength="207" x="326.5" y="115.0698">ElfWeapon(weaponType : WeaponType)</text><ellipse cx="317.5" cy="124.3902" fill="#84BE84" rx="3" ry="3" style="stroke:#038048;stroke-width:1.0;"/><text fill="#000000" font-family="sans-serif" font-size="11" lengthAdjust="spacing" textLength="170" x="326.5" y="128.0249">getWeaponType() : WeaponType</text><ellipse cx="317.5" cy="137.3452" fill="#84BE84" rx="3" ry="3" style="stroke:#038048;stroke-width:1.0;"/><text fill="#000000" font-family="sans-serif" font-size="11" lengthAdjust="spacing" textLength="92" x="326.5" y="140.98">toString() : String</text><!--MD5=[088115c555dd64b0ff4cbe0f82e49c0e]
class OrcBlacksmith--><rect codeLine="23" fill="#FEFECE" filter="url(#f18wukzvu3qzxq)" height="86.8652" id="OrcBlacksmith" style="stroke:#A80036;stroke-width:1.5;" width="339" x="788.5" y="53.96"/><ellipse cx="913.25" cy="69.96" fill="#ADD1B2" rx="11" ry="11" style="stroke:#A80036;stroke-width:1.0;"/><path d="M915.7231,76.1031 Q915.1421,76.4019 914.5029,76.5513 Q913.8638,76.7007 913.1582,76.7007 Q910.6514,76.7007 909.3315,75.0489 Q908.0117,73.397 908.0117,70.2759 Q908.0117,67.1465 909.3315,65.4947 Q910.6514,63.8428 913.1582,63.8428 Q913.8638,63.8428 914.5112,63.9922 Q915.1587,64.1416 915.7231,64.4405 L915.7231,67.1631 Q915.0923,66.5821 914.4988,66.3123 Q913.9053,66.0425 913.2744,66.0425 Q911.9297,66.0425 911.2449,67.1092 Q910.5601,68.1758 910.5601,70.2759 Q910.5601,72.3677 911.2449,73.4344 Q911.9297,74.501 913.2744,74.501 Q913.9053,74.501 914.4988,74.2312 Q915.0923,73.9615 915.7231,73.3804 Z " fill="#000000"/><text fill="#000000" font-family="sans-serif" font-size="12" lengthAdjust="spacing" textLength="81" x="933.75" y="74.4952">OrcBlacksmith</text><line style="stroke:#A80036;stroke-width:1.5;" x1="789.5" x2="1126.5" y1="85.96" y2="85.96"/><rect fill="none" height="6" style="stroke:#C82930;stroke-width:1.0;" width="6" x="796.5" y="93.96"/><text fill="#000000" font-family="sans-serif" font-size="11" lengthAdjust="spacing" text-decoration="underline" textLength="258" x="808.5" y="100.5948">ORCARSENAL : Map&lt;WeaponType, OrcWeapon&gt;</text><line style="stroke:#A80036;stroke-width:1.5;" x1="789.5" x2="1126.5" y1="106.9151" y2="106.9151"/><ellipse cx="799.5" cy="117.9151" fill="#84BE84" rx="3" ry="3" style="stroke:#038048;stroke-width:1.0;"/><text fill="#000000" font-family="sans-serif" font-size="11" lengthAdjust="spacing" textLength="85" x="808.5" y="121.5498">OrcBlacksmith()</text><ellipse cx="799.5" cy="130.8702" fill="#84BE84" rx="3" ry="3" style="stroke:#038048;stroke-width:1.0;"/><text fill="#000000" font-family="sans-serif" font-size="11" lengthAdjust="spacing" textLength="313" x="808.5" y="134.5049">manufactureWeapon(weaponType : WeaponType) : Weapon</text><!--MD5=[110ddbf31466095ba25b07729d2b1564]
class OrcWeapon--><rect codeLine="28" fill="#FEFECE" filter="url(#f18wukzvu3qzxq)" height="99.8203" id="OrcWeapon" style="stroke:#A80036;stroke-width:1.5;" width="240" x="32" y="47.48"/><ellipse cx="114.75" cy="63.48" fill="#ADD1B2" rx="11" ry="11" style="stroke:#A80036;stroke-width:1.0;"/><path d="M117.2231,69.6231 Q116.6421,69.9219 116.0029,70.0713 Q115.3638,70.2207 114.6582,70.2207 Q112.1514,70.2207 110.8315,68.5689 Q109.5117,66.917 109.5117,63.7959 Q109.5117,60.6665 110.8315,59.0147 Q112.1514,57.3628 114.6582,57.3628 Q115.3638,57.3628 116.0112,57.5122 Q116.6587,57.6616 117.2231,57.9605 L117.2231,60.6831 Q116.5923,60.1021 115.9988,59.8323 Q115.4053,59.5625 114.7744,59.5625 Q113.4297,59.5625 112.7449,60.6292 Q112.0601,61.6958 112.0601,63.7959 Q112.0601,65.8877 112.7449,66.9544 Q113.4297,68.021 114.7744,68.021 Q115.4053,68.021 115.9988,67.7512 Q116.5923,67.4815 117.2231,66.9004 Z " fill="#000000"/><text fill="#000000" font-family="sans-serif" font-size="12" lengthAdjust="spacing" textLength="66" x="135.25" y="68.0152">OrcWeapon</text><line style="stroke:#A80036;stroke-width:1.5;" x1="33" x2="271" y1="79.48" y2="79.48"/><rect fill="none" height="6" style="stroke:#C82930;stroke-width:1.0;" width="6" x="40" y="87.48"/><text fill="#000000" font-family="sans-serif" font-size="11" lengthAdjust="spacing" textLength="144" x="52" y="94.1148">weaponType : WeaponType</text><line style="stroke:#A80036;stroke-width:1.5;" x1="33" x2="271" y1="100.4351" y2="100.4351"/><ellipse cx="43" cy="111.4351" fill="#84BE84" rx="3" ry="3" style="stroke:#038048;stroke-width:1.0;"/><text fill="#000000" font-family="sans-serif" font-size="11" lengthAdjust="spacing" textLength="214" x="52" y="115.0698">OrcWeapon(weaponType : WeaponType)</text><ellipse cx="43" cy="124.3902" fill="#84BE84" rx="3" ry="3" style="stroke:#038048;stroke-width:1.0;"/><text fill="#000000" font-family="sans-serif" font-size="11" lengthAdjust="spacing" textLength="170" x="52" y="128.0249">getWeaponType() : WeaponType</text><ellipse cx="43" cy="137.3452" fill="#84BE84" rx="3" ry="3" style="stroke:#038048;stroke-width:1.0;"/><text fill="#000000" font-family="sans-serif" font-size="11" lengthAdjust="spacing" textLength="92" x="52" y="140.98">toString() : String</text><!--MD5=[a3f6aaa3f93db2c29fed664e0312b4de]
class Weapon--><rect codeLine="34" fill="#FEFECE" filter="url(#f18wukzvu3qzxq)" height="60.9551" id="Weapon" style="stroke:#A80036;stroke-width:1.5;" width="196" x="312" y="259.12"/><ellipse cx="382.75" cy="275.12" fill="#B4A7E5" rx="11" ry="11" style="stroke:#A80036;stroke-width:1.0;"/><path d="M379.1777,271.3851 L379.1777,269.2269 L386.5571,269.2269 L386.5571,271.3851 L384.0918,271.3851 L384.0918,279.4618 L386.5571,279.4618 L386.5571,281.62 L379.1777,281.62 L379.1777,279.4618 L381.6431,279.4618 L381.6431,271.3851 Z " fill="#000000"/><text fill="#000000" font-family="sans-serif" font-size="12" font-style="italic" lengthAdjust="spacing" textLength="46" x="403.25" y="279.6552">Weapon</text><line style="stroke:#A80036;stroke-width:1.5;" x1="313" x2="507" y1="291.12" y2="291.12"/><line style="stroke:#A80036;stroke-width:1.5;" x1="313" x2="507" y1="299.12" y2="299.12"/><ellipse cx="323" cy="310.12" fill="#84BE84" rx="3" ry="3" style="stroke:#038048;stroke-width:1.0;"/><text fill="#000000" font-family="sans-serif" font-size="11" font-style="italic" lengthAdjust="spacing" textLength="170" x="332" y="313.7548">getWeaponType() : WeaponType</text><!--MD5=[8ae71b71ba93939591acd41dcd28b845]
class WeaponType--><rect codeLine="37" fill="#FEFECE" filter="url(#f18wukzvu3qzxq)" height="151.6406" id="WeaponType" style="stroke:#A80036;stroke-width:1.5;" width="222" x="48" y="213.78"/><ellipse cx="117.25" cy="229.78" fill="#EB937F" rx="11" ry="11" style="stroke:#A80036;stroke-width:1.0;"/><path d="M120.8643,236.28 L113.1445,236.28 L113.1445,223.8869 L120.8643,223.8869 L120.8643,226.0451 L115.5933,226.0451 L115.5933,228.718 L120.3662,228.718 L120.3662,230.8762 L115.5933,230.8762 L115.5933,234.1218 L120.8643,234.1218 Z " fill="#000000"/><text fill="#000000" font-family="sans-serif" font-size="12" lengthAdjust="spacing" textLength="75" x="137.75" y="234.3152">WeaponType</text><line style="stroke:#A80036;stroke-width:1.5;" x1="49" x2="269" y1="245.78" y2="245.78"/><ellipse cx="59" cy="256.78" rx="3" ry="3" style="stroke:#038048;stroke-width:1.0;fill:none;"/><text fill="#000000" font-family="sans-serif" font-size="11" lengthAdjust="spacing" text-decoration="underline" textLength="21" x="68" y="260.4148">AXE</text><ellipse cx="59" cy="269.7351" rx="3" ry="3" style="stroke:#038048;stroke-width:1.0;fill:none;"/><text fill="#000000" font-family="sans-serif" font-size="11" lengthAdjust="spacing" text-decoration="underline" textLength="82" x="68" y="273.3698">SHORT_SWORD</text><ellipse cx="59" cy="282.6902" rx="3" ry="3" style="stroke:#038048;stroke-width:1.0;fill:none;"/><text fill="#000000" font-family="sans-serif" font-size="11" lengthAdjust="spacing" text-decoration="underline" textLength="33" x="68" y="286.3249">SPEAR</text><ellipse cx="59" cy="295.6452" rx="3" ry="3" style="stroke:#038048;stroke-width:1.0;fill:none;"/><text fill="#000000" font-family="sans-serif" font-size="11" lengthAdjust="spacing" text-decoration="underline" textLength="61" x="68" y="299.28">UNDEFINED</text><rect fill="none" height="6" style="stroke:#C82930;stroke-width:1.0;" width="6" x="56" y="305.6003"/><text fill="#000000" font-family="sans-serif" font-size="11" lengthAdjust="spacing" textLength="61" x="68" y="312.2351">title : String</text><line style="stroke:#A80036;stroke-width:1.5;" x1="49" x2="269" y1="318.5554" y2="318.5554"/><ellipse cx="59" cy="329.5554" fill="#84BE84" rx="3" ry="3" style="stroke:#038048;stroke-width:1.0;"/><text fill="#000000" font-family="sans-serif" font-size="11" lengthAdjust="spacing" textLength="92" x="68" y="333.1902">toString() : String</text><ellipse cx="59" cy="342.5105" fill="#84BE84" rx="3" ry="3" style="stroke:#038048;stroke-width:1.0;"/><text fill="#000000" font-family="sans-serif" font-size="11" lengthAdjust="spacing" text-decoration="underline" textLength="196" x="68" y="346.1452">valueOf(name : String) : WeaponType</text><ellipse cx="59" cy="355.4655" fill="#84BE84" rx="3" ry="3" style="stroke:#038048;stroke-width:1.0;"/><text fill="#000000" font-family="sans-serif" font-size="11" lengthAdjust="spacing" text-decoration="underline" textLength="127" x="68" y="359.1003">values() : WeaponType[]</text><!--MD5=[0205c4839325d6ce96f9b1e46e675259]
link ElfWeapon to WeaponType--><path codeLine="48" d="M354.67,147.62 C328.28,166.64 297.42,188.87 268.11,209.99 " fill="none" id="ElfWeapon-to-WeaponType" style="stroke:#A80036;stroke-width:1.0;"/><polygon fill="#A80036" points="264.42,213.37,274.0586,211.3458,268.4741,210.4436,269.3763,204.8591,264.42,213.37" style="stroke:#A80036;stroke-width:1.0;"/><text fill="#000000" font-family="sans-serif" font-size="13" lengthAdjust="spacing" textLength="86" x="183.2741" y="202.9726">-weaponType</text><!--MD5=[6d48b37b9d5992b82b06673f69ccbb72]
link OrcWeapon to WeaponType--><path codeLine="49" d="M153.8,147.37 C154.48,165.79 155.27,187.24 156.03,207.79 " fill="none" id="OrcWeapon-to-WeaponType" style="stroke:#A80036;stroke-width:1.0;"/><polygon fill="#A80036" points="156.24,212.55,159.9022,203.4073,156.0539,207.5535,151.9078,203.7051,156.24,212.55" style="stroke:#A80036;stroke-width:1.0;"/><text fill="#000000" font-family="sans-serif" font-size="13" lengthAdjust="spacing" textLength="86" x="65.7355" y="202.9092">-weaponType</text><!--MD5=[db771adaa33e77a0579d83fdbadabc20]
link App to Blacksmith--><path codeLine="50" d="M750.22,154.18 C801.13,187.11 863.83,227.67 906.96,255.58 " fill="none" id="App-to-Blacksmith" style="stroke:#A80036;stroke-width:1.0;"/><polygon fill="#A80036" points="910.86,258.75,905.4722,250.5055,906.6606,256.0361,901.13,257.2245,910.86,258.75" style="stroke:#A80036;stroke-width:1.0;"/><text fill="#000000" font-family="sans-serif" font-size="13" lengthAdjust="spacing" textLength="78" x="816.2999" y="248.4412">-blacksmith</text><!--MD5=[5b0fde0f94403f08ef3352f17891370a]
link ElfBlacksmith to Blacksmith--><path codeLine="51" d="M1247.6,141.32 C1183.85,173.74 1097.06,217.87 1035.16,249.36 " fill="none" id="ElfBlacksmith-to-Blacksmith" style="stroke:#A80036;stroke-width:1.0;stroke-dasharray:7.0,7.0;"/><polygon fill="none" points="1038.8,255.87,1017.8,258.7,1032.45,243.39,1038.8,255.87" style="stroke:#A80036;stroke-width:1.0;"/><!--MD5=[e8713081b60c61187cca1fb5989ecb53]
link ElfWeapon to Weapon--><path codeLine="52" d="M419.65,147.37 C417.75,175.17 415.38,209.9 413.46,237.96 " fill="none" id="ElfWeapon-to-Weapon" style="stroke:#A80036;stroke-width:1.0;stroke-dasharray:7.0,7.0;"/><polygon fill="none" points="420.39,238.3,412.04,257.78,406.42,237.34,420.39,238.3" style="stroke:#A80036;stroke-width:1.0;"/><!--MD5=[69482e3dcf108e07ef089187ceb4350c]
link OrcBlacksmith to Blacksmith--><path codeLine="53" d="M958,141.08 C958,169.76 958,207.69 958,237.91 " fill="none" id="OrcBlacksmith-to-Blacksmith" style="stroke:#A80036;stroke-width:1.0;stroke-dasharray:7.0,7.0;"/><polygon fill="none" points="965,237.77,958,257.77,951,237.77,965,237.77" style="stroke:#A80036;stroke-width:1.0;"/><!--MD5=[913bf78d058aa9104840ab32302cadca]
link OrcWeapon to Weapon--><path codeLine="54" d="M218.78,147.62 C260.4,178.31 313.38,217.37 353.01,246.59 " fill="none" id="OrcWeapon-to-Weapon" style="stroke:#A80036;stroke-width:1.0;stroke-dasharray:7.0,7.0;"/><polygon fill="none" points="356.71,241.35,368.65,258.85,348.4,252.62,356.71,241.35" style="stroke:#A80036;stroke-width:1.0;"/><!--MD5=[edbd49dc82383d9d55471b764b17ce0e]
@startuml
package com.yonatankarp.factory.method {
  class App {
    - LOGGER : Logger {static}
    - blacksmith : Blacksmith
    + App(blacksmith : Blacksmith)
    + main(args : String[]) {static}
    - manufactureWeapons()
  }
  interface Blacksmith {
    + manufactureWeapon(WeaponType) : Weapon {abstract}
  }
  class ElfBlacksmith {
    - ELFARSENAL : Map<WeaponType, ElfWeapon> {static}
    + ElfBlacksmith()
    + manufactureWeapon(weaponType : WeaponType) : Weapon
  }
  class ElfWeapon {
    - weaponType : WeaponType
    + ElfWeapon(weaponType : WeaponType)
    + getWeaponType() : WeaponType
    + toString() : String
  }
  class OrcBlacksmith {
    - ORCARSENAL : Map<WeaponType, OrcWeapon> {static}
    + OrcBlacksmith()
    + manufactureWeapon(weaponType : WeaponType) : Weapon
  }
  class OrcWeapon {
    - weaponType : WeaponType
    + OrcWeapon(weaponType : WeaponType)
    + getWeaponType() : WeaponType
    + toString() : String
  }
  interface Weapon {
    + getWeaponType() : WeaponType {abstract}
  }
  enum WeaponType {
    + AXE {static}
    + SHORT_SWORD {static}
    + SPEAR {static}
    + UNDEFINED {static}
    - title : String
    + toString() : String
    + valueOf(name : String) : WeaponType {static}
    + values() : WeaponType[] {static}
  }
}
ElfWeapon - ->  "-weaponType" WeaponType
OrcWeapon - ->  "-weaponType" WeaponType
App - ->  "-blacksmith" Blacksmith
ElfBlacksmith ..|> Blacksmith
ElfWeapon ..|> Weapon
OrcBlacksmith ..|> Blacksmith
OrcWeapon ..|> Weapon
@enduml

PlantUML version 1.2021.16(Wed Dec 08 18:25:22 CET 2021)
(GPL source distribution)
Java Runtime: OpenJDK Runtime Environment
JVM: OpenJDK 64-Bit Server VM
Default Encoding: UTF-8
Language: en
Country: DE
--></g></svg>