<?xml version="1.0" encoding="UTF-8" standalone="no"?><svg xmlns="http://www.w3.org/2000/svg" xmlns:xlink="http://www.w3.org/1999/xlink" contentScriptType="application/ecmascript" contentStyleType="text/css" height="466px" preserveAspectRatio="none" style="width:1457px;height:466px;background:#FFFFFF;" version="1.1" viewBox="0 0 1457 466" width="1457px" zoomAndPan="magnify"><defs><filter height="300%" id="fk1pfjn22dwl2" width="300%" x="-1" y="-1"><feGaussianBlur result="blurOut" stdDeviation="2.0"/><feColorMatrix in="blurOut" result="blurOut2" type="matrix" values="0 0 0 0 0 0 0 0 0 0 0 0 0 0 0 0 0 0 .4 0"/><feOffset dx="4.0" dy="4.0" in="blurOut2" result="blurOut3"/><feBlend in="SourceGraphic" in2="blurOut3" mode="normal"/></filter></defs><g><!--MD5=[e38b75c073b281270a571dea9cf4669d]
cluster com.yonatankarp.facade--><polygon fill="#FFFFFF" filter="url(#fk1pfjn22dwl2)" points="16,6,193,6,200,28.4883,1440,28.4883,1440,459.69,16,459.69,16,6" style="stroke:#000000;stroke-width:1.5;"/><line style="stroke:#000000;stroke-width:1.5;" x1="16" x2="200" y1="28.4883" y2="28.4883"/><text fill="#000000" font-family="sans-serif" font-size="14" font-weight="bold" lengthAdjust="spacing" textLength="171" x="20" y="21.5352">com.yonatankarp.facade</text><!--MD5=[335f4d9be48430461c68bf6d6fdba145]
class App--><rect codeLine="2" fill="#FEFECE" filter="url(#fk1pfjn22dwl2)" height="73.9102" id="App" style="stroke:#A80036;stroke-width:1.5;" width="133" x="1291.5" y="73.39"/><ellipse cx="1341.75" cy="89.39" fill="#ADD1B2" rx="11" ry="11" style="stroke:#A80036;stroke-width:1.0;"/><path d="M1344.2231,95.5331 Q1343.6421,95.8319 1343.0029,95.9813 Q1342.3638,96.1307 1341.6582,96.1307 Q1339.1514,96.1307 1337.8315,94.4789 Q1336.5117,92.827 1336.5117,89.7059 Q1336.5117,86.5765 1337.8315,84.9247 Q1339.1514,83.2728 1341.6582,83.2728 Q1342.3638,83.2728 1343.0112,83.4222 Q1343.6587,83.5716 1344.2231,83.8705 L1344.2231,86.5931 Q1343.5923,86.0121 1342.9988,85.7423 Q1342.4053,85.4725 1341.7744,85.4725 Q1340.4297,85.4725 1339.7449,86.5392 Q1339.0601,87.6058 1339.0601,89.7059 Q1339.0601,91.7977 1339.7449,92.8644 Q1340.4297,93.931 1341.7744,93.931 Q1342.4053,93.931 1342.9988,93.6612 Q1343.5923,93.3915 1344.2231,92.8104 Z " fill="#000000"/><text fill="#000000" font-family="sans-serif" font-size="12" lengthAdjust="spacing" textLength="24" x="1362.25" y="93.9252">App</text><line style="stroke:#A80036;stroke-width:1.5;" x1="1292.5" x2="1423.5" y1="105.39" y2="105.39"/><rect fill="none" height="6" style="stroke:#C82930;stroke-width:1.0;" width="6" x="1299.5" y="113.39"/><text fill="#000000" font-family="sans-serif" font-size="11" lengthAdjust="spacing" text-decoration="underline" textLength="82" x="1311.5" y="120.0248">logger : Logger</text><line style="stroke:#A80036;stroke-width:1.5;" x1="1292.5" x2="1423.5" y1="126.3451" y2="126.3451"/><ellipse cx="1302.5" cy="137.3451" fill="#84BE84" rx="3" ry="3" style="stroke:#038048;stroke-width:1.0;"/><text fill="#000000" font-family="sans-serif" font-size="11" lengthAdjust="spacing" text-decoration="underline" textLength="107" x="1311.5" y="140.9798">main(args : String[])</text><!--MD5=[afeb8e129d8761bdecd5d0ffe977666c]
class DwarvenCartOperator--><rect codeLine="6" fill="#FEFECE" filter="url(#fk1pfjn22dwl2)" height="86.8652" id="DwarvenCartOperator" style="stroke:#A80036;stroke-width:1.5;" width="158" x="1099" y="66.91"/><ellipse cx="1114" cy="82.91" fill="#ADD1B2" rx="11" ry="11" style="stroke:#A80036;stroke-width:1.0;"/><path d="M1116.4731,89.0531 Q1115.8921,89.3519 1115.2529,89.5013 Q1114.6138,89.6507 1113.9082,89.6507 Q1111.4014,89.6507 1110.0815,87.9989 Q1108.7617,86.347 1108.7617,83.2259 Q1108.7617,80.0965 1110.0815,78.4447 Q1111.4014,76.7928 1113.9082,76.7928 Q1114.6138,76.7928 1115.2612,76.9422 Q1115.9087,77.0916 1116.4731,77.3905 L1116.4731,80.1131 Q1115.8423,79.5321 1115.2488,79.2623 Q1114.6553,78.9925 1114.0244,78.9925 Q1112.6797,78.9925 1111.9949,80.0592 Q1111.3101,81.1258 1111.3101,83.2259 Q1111.3101,85.3177 1111.9949,86.3844 Q1112.6797,87.451 1114.0244,87.451 Q1114.6553,87.451 1115.2488,87.1812 Q1115.8423,86.9115 1116.4731,86.3304 Z " fill="#000000"/><text fill="#000000" font-family="sans-serif" font-size="12" lengthAdjust="spacing" textLength="126" x="1128" y="87.4452">DwarvenCartOperator</text><line style="stroke:#A80036;stroke-width:1.5;" x1="1100" x2="1256" y1="98.91" y2="98.91"/><line style="stroke:#A80036;stroke-width:1.5;" x1="1100" x2="1256" y1="106.91" y2="106.91"/><ellipse cx="1110" cy="117.91" fill="#84BE84" rx="3" ry="3" style="stroke:#038048;stroke-width:1.0;"/><text fill="#000000" font-family="sans-serif" font-size="11" lengthAdjust="spacing" textLength="126" x="1119" y="121.5448">DwarvenCartOperator()</text><ellipse cx="1110" cy="130.8651" fill="#84BE84" rx="3" ry="3" style="stroke:#038048;stroke-width:1.0;"/><text fill="#000000" font-family="sans-serif" font-size="11" lengthAdjust="spacing" textLength="78" x="1119" y="134.4998">name() : String</text><ellipse cx="1110" cy="143.8202" fill="#84BE84" rx="3" ry="3" style="stroke:#038048;stroke-width:1.0;"/><text fill="#000000" font-family="sans-serif" font-size="11" lengthAdjust="spacing" textLength="34" x="1119" y="147.4549">work()</text><!--MD5=[47fad61207280491572f0d0e7307ce7d]
class DwarvenGoldDigger--><rect codeLine="11" fill="#FEFECE" filter="url(#fk1pfjn22dwl2)" height="86.8652" id="DwarvenGoldDigger" style="stroke:#A80036;stroke-width:1.5;" width="147" x="917.5" y="66.91"/><ellipse cx="932.5" cy="82.91" fill="#ADD1B2" rx="11" ry="11" style="stroke:#A80036;stroke-width:1.0;"/><path d="M934.9731,89.0531 Q934.3921,89.3519 933.7529,89.5013 Q933.1138,89.6507 932.4082,89.6507 Q929.9014,89.6507 928.5815,87.9989 Q927.2617,86.347 927.2617,83.2259 Q927.2617,80.0965 928.5815,78.4447 Q929.9014,76.7928 932.4082,76.7928 Q933.1138,76.7928 933.7612,76.9422 Q934.4087,77.0916 934.9731,77.3905 L934.9731,80.1131 Q934.3423,79.5321 933.7488,79.2623 Q933.1553,78.9925 932.5244,78.9925 Q931.1797,78.9925 930.4949,80.0592 Q929.8101,81.1258 929.8101,83.2259 Q929.8101,85.3177 930.4949,86.3844 Q931.1797,87.451 932.5244,87.451 Q933.1553,87.451 933.7488,87.1812 Q934.3423,86.9115 934.9731,86.3304 Z " fill="#000000"/><text fill="#000000" font-family="sans-serif" font-size="12" lengthAdjust="spacing" textLength="115" x="946.5" y="87.4452">DwarvenGoldDigger</text><line style="stroke:#A80036;stroke-width:1.5;" x1="918.5" x2="1063.5" y1="98.91" y2="98.91"/><line style="stroke:#A80036;stroke-width:1.5;" x1="918.5" x2="1063.5" y1="106.91" y2="106.91"/><ellipse cx="928.5" cy="117.91" fill="#84BE84" rx="3" ry="3" style="stroke:#038048;stroke-width:1.0;"/><text fill="#000000" font-family="sans-serif" font-size="11" lengthAdjust="spacing" textLength="115" x="937.5" y="121.5448">DwarvenGoldDigger()</text><ellipse cx="928.5" cy="130.8651" fill="#84BE84" rx="3" ry="3" style="stroke:#038048;stroke-width:1.0;"/><text fill="#000000" font-family="sans-serif" font-size="11" lengthAdjust="spacing" textLength="78" x="937.5" y="134.4998">name() : String</text><ellipse cx="928.5" cy="143.8202" fill="#84BE84" rx="3" ry="3" style="stroke:#038048;stroke-width:1.0;"/><text fill="#000000" font-family="sans-serif" font-size="11" lengthAdjust="spacing" textLength="34" x="937.5" y="147.4549">work()</text><!--MD5=[98a2caa2d82c0f5211ba1d9a7f21e025]
class DwarvenGoldmineFacade--><rect codeLine="16" fill="#FEFECE" filter="url(#fk1pfjn22dwl2)" height="125.7305" id="DwarvenGoldmineFacade" style="stroke:#A80036;stroke-width:1.5;" width="433" x="449.5" y="47.48"/><ellipse cx="588.75" cy="63.48" fill="#ADD1B2" rx="11" ry="11" style="stroke:#A80036;stroke-width:1.0;"/><path d="M591.2231,69.6231 Q590.6421,69.9219 590.0029,70.0713 Q589.3638,70.2207 588.6582,70.2207 Q586.1514,70.2207 584.8315,68.5689 Q583.5117,66.917 583.5117,63.7959 Q583.5117,60.6665 584.8315,59.0147 Q586.1514,57.3628 588.6582,57.3628 Q589.3638,57.3628 590.0112,57.5122 Q590.6587,57.6616 591.2231,57.9605 L591.2231,60.6831 Q590.5923,60.1021 589.9988,59.8323 Q589.4053,59.5625 588.7744,59.5625 Q587.4297,59.5625 586.7449,60.6292 Q586.0601,61.6958 586.0601,63.7959 Q586.0601,65.8877 586.7449,66.9544 Q587.4297,68.021 588.7744,68.021 Q589.4053,68.021 589.9988,67.7512 Q590.5923,67.4815 591.2231,66.9004 Z " fill="#000000"/><text fill="#000000" font-family="sans-serif" font-size="12" lengthAdjust="spacing" textLength="146" x="609.25" y="68.0152">DwarvenGoldmineFacade</text><line style="stroke:#A80036;stroke-width:1.5;" x1="450.5" x2="881.5" y1="79.48" y2="79.48"/><rect fill="none" height="6" style="stroke:#C82930;stroke-width:1.0;" width="6" x="457.5" y="87.48"/><text fill="#000000" font-family="sans-serif" font-size="11" lengthAdjust="spacing" textLength="198" x="469.5" y="94.1148">workers : List&lt;DwarvenMineWorker&gt;</text><line style="stroke:#A80036;stroke-width:1.5;" x1="450.5" x2="881.5" y1="100.4351" y2="100.4351"/><ellipse cx="460.5" cy="111.4351" fill="#84BE84" rx="3" ry="3" style="stroke:#038048;stroke-width:1.0;"/><text fill="#000000" font-family="sans-serif" font-size="11" lengthAdjust="spacing" textLength="142" x="469.5" y="115.0698">DwarvenGoldmineFacade()</text><ellipse cx="460.5" cy="124.3902" fill="#84BE84" rx="3" ry="3" style="stroke:#038048;stroke-width:1.0;"/><text fill="#000000" font-family="sans-serif" font-size="11" lengthAdjust="spacing" textLength="70" x="469.5" y="128.0249">digOutGold()</text><ellipse cx="460.5" cy="137.3452" fill="#84BE84" rx="3" ry="3" style="stroke:#038048;stroke-width:1.0;"/><text fill="#000000" font-family="sans-serif" font-size="11" lengthAdjust="spacing" textLength="48" x="469.5" y="140.98">endDay()</text><rect fill="#F24D5C" height="6" style="stroke:#C82930;stroke-width:1.0;" width="6" x="457.5" y="147.3003"/><text fill="#000000" font-family="sans-serif" font-size="11" lengthAdjust="spacing" text-decoration="underline" textLength="407" x="469.5" y="153.9351">makeActions(workers : Collection&lt;DwarvenMineWorker&gt;, actions : Action[])</text><ellipse cx="460.5" cy="163.2554" fill="#84BE84" rx="3" ry="3" style="stroke:#038048;stroke-width:1.0;"/><text fill="#000000" font-family="sans-serif" font-size="11" lengthAdjust="spacing" textLength="75" x="469.5" y="166.8902">startNewDay()</text><!--MD5=[2b0466f0e9538cdcab2d438ea56f6bef]
class DwarvenMineWorker--><rect codeLine="24" fill="#FEFECE" filter="url(#fk1pfjn22dwl2)" height="164.5957" id="DwarvenMineWorker" style="stroke:#A80036;stroke-width:1.5;" width="158" x="587" y="259.69"/><ellipse cx="605.6" cy="275.69" fill="#A9DCDF" rx="11" ry="11" style="stroke:#A80036;stroke-width:1.0;"/><path d="M605.4633,271.0381 L604.3095,276.1099 L606.6254,276.1099 Z M603.9691,268.7969 L606.9657,268.7969 L610.3109,281.19 L607.8622,281.19 L607.0985,278.127 L603.8197,278.127 L603.0727,281.19 L600.6239,281.19 Z " fill="#000000"/><text fill="#000000" font-family="sans-serif" font-size="12" font-style="italic" lengthAdjust="spacing" textLength="118" x="620.4" y="280.2252">DwarvenMineWorker</text><line style="stroke:#A80036;stroke-width:1.5;" x1="588" x2="744" y1="291.69" y2="291.69"/><line style="stroke:#A80036;stroke-width:1.5;" x1="588" x2="744" y1="299.69" y2="299.69"/><ellipse cx="598" cy="310.69" fill="#84BE84" rx="3" ry="3" style="stroke:#038048;stroke-width:1.0;"/><text fill="#000000" font-family="sans-serif" font-size="11" lengthAdjust="spacing" textLength="117" x="607" y="314.3248">DwarvenMineWorker()</text><rect fill="#F24D5C" height="6" style="stroke:#C82930;stroke-width:1.0;" width="6" x="595" y="320.6451"/><text fill="#000000" font-family="sans-serif" font-size="11" lengthAdjust="spacing" textLength="118" x="607" y="327.2798">action(action : Action)</text><ellipse cx="598" cy="336.6002" fill="#84BE84" rx="3" ry="3" style="stroke:#038048;stroke-width:1.0;"/><text fill="#000000" font-family="sans-serif" font-size="11" lengthAdjust="spacing" textLength="132" x="607" y="340.2349">action(actions : Action[])</text><ellipse cx="598" cy="349.5552" fill="#84BE84" rx="3" ry="3" style="stroke:#038048;stroke-width:1.0;"/><text fill="#000000" font-family="sans-serif" font-size="11" lengthAdjust="spacing" textLength="53" x="607" y="353.19">goHome()</text><ellipse cx="598" cy="362.5103" fill="#84BE84" rx="3" ry="3" style="stroke:#038048;stroke-width:1.0;"/><text fill="#000000" font-family="sans-serif" font-size="11" lengthAdjust="spacing" textLength="61" x="607" y="366.1451">goToMine()</text><ellipse cx="598" cy="375.4654" fill="#84BE84" rx="3" ry="3" style="stroke:#038048;stroke-width:1.0;"/><text fill="#000000" font-family="sans-serif" font-size="11" lengthAdjust="spacing" textLength="64" x="607" y="379.1002">goToSleep()</text><ellipse cx="598" cy="388.4205" fill="#84BE84" rx="3" ry="3" style="stroke:#038048;stroke-width:1.0;"/><text fill="#000000" font-family="sans-serif" font-size="11" font-style="italic" lengthAdjust="spacing" textLength="78" x="607" y="392.0552">name() : String</text><ellipse cx="598" cy="401.3755" fill="#84BE84" rx="3" ry="3" style="stroke:#038048;stroke-width:1.0;"/><text fill="#000000" font-family="sans-serif" font-size="11" lengthAdjust="spacing" textLength="49" x="607" y="405.0103">wakeUp()</text><ellipse cx="598" cy="414.3306" fill="#84BE84" rx="3" ry="3" style="stroke:#038048;stroke-width:1.0;"/><text fill="#000000" font-family="sans-serif" font-size="11" font-style="italic" lengthAdjust="spacing" textLength="34" x="607" y="417.9654">work()</text><!--MD5=[f8e7078f77c005d15b486c0c98deb1e6]
class Action--><rect codeLine="35" fill="#FEFECE" filter="url(#fk1pfjn22dwl2)" height="138.6855" id="Action" style="stroke:#A80036;stroke-width:1.5;" width="189" x="225.5" y="41"/><ellipse cx="292.75" cy="57" fill="#EB937F" rx="11" ry="11" style="stroke:#A80036;stroke-width:1.0;"/><path d="M296.3643,63.5 L288.6445,63.5 L288.6445,51.1069 L296.3643,51.1069 L296.3643,53.2651 L291.0933,53.2651 L291.0933,55.938 L295.8662,55.938 L295.8662,58.0962 L291.0933,58.0962 L291.0933,61.3418 L296.3643,61.3418 Z " fill="#000000"/><polygon fill="#4177AF" points="318.25,52.5,314.25,58.5,322.25,58.5" style="stroke:#1963A0;stroke-width:1.0;"/><text fill="#000000" font-family="sans-serif" font-size="12" lengthAdjust="spacing" textLength="35" x="324.25" y="61.5352">Action</text><line style="stroke:#A80036;stroke-width:1.5;" x1="226.5" x2="413.5" y1="73" y2="73"/><ellipse cx="236.5" cy="84" rx="3" ry="3" style="stroke:#038048;stroke-width:1.0;fill:none;"/><text fill="#000000" font-family="sans-serif" font-size="11" lengthAdjust="spacing" text-decoration="underline" textLength="55" x="245.5" y="87.6348">GO_HOME</text><ellipse cx="236.5" cy="96.9551" rx="3" ry="3" style="stroke:#038048;stroke-width:1.0;fill:none;"/><text fill="#000000" font-family="sans-serif" font-size="11" lengthAdjust="spacing" text-decoration="underline" textLength="71" x="245.5" y="100.5898">GO_TO_MINE</text><ellipse cx="236.5" cy="109.9102" rx="3" ry="3" style="stroke:#038048;stroke-width:1.0;fill:none;"/><text fill="#000000" font-family="sans-serif" font-size="11" lengthAdjust="spacing" text-decoration="underline" textLength="75" x="245.5" y="113.5449">GO_TO_SLEEP</text><ellipse cx="236.5" cy="122.8652" rx="3" ry="3" style="stroke:#038048;stroke-width:1.0;fill:none;"/><text fill="#000000" font-family="sans-serif" font-size="11" lengthAdjust="spacing" text-decoration="underline" textLength="50" x="245.5" y="126.5">WAKE_UP</text><ellipse cx="236.5" cy="135.8203" rx="3" ry="3" style="stroke:#038048;stroke-width:1.0;fill:none;"/><text fill="#000000" font-family="sans-serif" font-size="11" lengthAdjust="spacing" text-decoration="underline" textLength="32" x="245.5" y="139.4551">WORK</text><line style="stroke:#A80036;stroke-width:1.5;" x1="226.5" x2="413.5" y1="145.7754" y2="145.7754"/><ellipse cx="236.5" cy="156.7754" fill="#84BE84" rx="3" ry="3" style="stroke:#038048;stroke-width:1.0;"/><text fill="#000000" font-family="sans-serif" font-size="11" lengthAdjust="spacing" text-decoration="underline" textLength="163" x="245.5" y="160.4102">valueOf(name : String) : Action</text><ellipse cx="236.5" cy="169.7305" fill="#84BE84" rx="3" ry="3" style="stroke:#038048;stroke-width:1.0;"/><text fill="#000000" font-family="sans-serif" font-size="11" lengthAdjust="spacing" text-decoration="underline" textLength="94" x="245.5" y="173.3652">values() : Action[]</text><!--MD5=[ba1df32530cf404c2f9d789edcabd757]
class DwarvenTunnelDigger--><rect codeLine="44" fill="#FEFECE" filter="url(#fk1pfjn22dwl2)" height="86.8652" id="DwarvenTunnelDigger" style="stroke:#A80036;stroke-width:1.5;" width="159" x="31.5" y="66.91"/><ellipse cx="46.5" cy="82.91" fill="#ADD1B2" rx="11" ry="11" style="stroke:#A80036;stroke-width:1.0;"/><path d="M48.9731,89.0531 Q48.3921,89.3519 47.7529,89.5013 Q47.1138,89.6507 46.4082,89.6507 Q43.9014,89.6507 42.5815,87.9989 Q41.2617,86.347 41.2617,83.2259 Q41.2617,80.0965 42.5815,78.4447 Q43.9014,76.7928 46.4082,76.7928 Q47.1138,76.7928 47.7612,76.9422 Q48.4087,77.0916 48.9731,77.3905 L48.9731,80.1131 Q48.3423,79.5321 47.7488,79.2623 Q47.1553,78.9925 46.5244,78.9925 Q45.1797,78.9925 44.4949,80.0592 Q43.8101,81.1258 43.8101,83.2259 Q43.8101,85.3177 44.4949,86.3844 Q45.1797,87.451 46.5244,87.451 Q47.1553,87.451 47.7488,87.1812 Q48.3423,86.9115 48.9731,86.3304 Z " fill="#000000"/><text fill="#000000" font-family="sans-serif" font-size="12" lengthAdjust="spacing" textLength="127" x="60.5" y="87.4452">DwarvenTunnelDigger</text><line style="stroke:#A80036;stroke-width:1.5;" x1="32.5" x2="189.5" y1="98.91" y2="98.91"/><line style="stroke:#A80036;stroke-width:1.5;" x1="32.5" x2="189.5" y1="106.91" y2="106.91"/><ellipse cx="42.5" cy="117.91" fill="#84BE84" rx="3" ry="3" style="stroke:#038048;stroke-width:1.0;"/><text fill="#000000" font-family="sans-serif" font-size="11" lengthAdjust="spacing" textLength="127" x="51.5" y="121.5448">DwarvenTunnelDigger()</text><ellipse cx="42.5" cy="130.8651" fill="#84BE84" rx="3" ry="3" style="stroke:#038048;stroke-width:1.0;"/><text fill="#000000" font-family="sans-serif" font-size="11" lengthAdjust="spacing" textLength="78" x="51.5" y="134.4998">name() : String</text><ellipse cx="42.5" cy="143.8202" fill="#84BE84" rx="3" ry="3" style="stroke:#038048;stroke-width:1.0;"/><text fill="#000000" font-family="sans-serif" font-size="11" lengthAdjust="spacing" textLength="34" x="51.5" y="147.4549">work()</text><!--MD5=[a08a6b8d75cb823327b54537541fdd2b]
link DwarvenGoldmineFacade to DwarvenMineWorker--><path codeLine="50" d="M666,173.41 C666,198.1 666,226.93 666,253.65 " fill="none" id="DwarvenGoldmineFacade-to-DwarvenMineWorker" style="stroke:#A80036;stroke-width:1.0;"/><polygon fill="#A80036" points="666,258.51,670,249.51,666,253.51,662,249.51,666,258.51" style="stroke:#A80036;stroke-width:1.0;"/><text fill="#000000" font-family="sans-serif" font-size="13" lengthAdjust="spacing" textLength="58" x="605.2359" y="249.0867">-workers</text><!--MD5=[6c97ccc6912981efdcb053d21321abf9]
link Action to DwarvenMineWorker--><path codeLine="51" d="M414.55,174.02 C464.02,206.81 524.35,246.8 573.52,279.39 " fill="none" id="Action-to-DwarvenMineWorker" style="stroke:#A80036;stroke-width:1.0;stroke-dasharray:7.0,7.0;"/><ellipse cx="579.1419" cy="283.11" fill="#FFFFFF" rx="8" ry="8" style="stroke:#A80036;stroke-width:1.0;"/><line style="stroke:#A80036;stroke-width:1.0;" x1="572.4738" x2="585.81" y1="278.69" y2="287.53"/><line style="stroke:#A80036;stroke-width:1.0;" x1="583.5619" x2="574.7219" y1="276.4419" y2="289.7781"/><!--MD5=[e4de3bdcd4201928469336f890eb9ecc]
link DwarvenCartOperator to DwarvenMineWorker--><path codeLine="52" d="M1122.66,154.26 C1109.71,163.3 1095.69,172.32 1082,179.69 C978.43,235.46 851.3,281.73 765.04,310.14 " fill="none" id="DwarvenCartOperator-to-DwarvenMineWorker" style="stroke:#A80036;stroke-width:1.0;"/><polygon fill="none" points="767.47,316.71,746.29,316.24,763.14,303.4,767.47,316.71" style="stroke:#A80036;stroke-width:1.0;"/><!--MD5=[1203ef5d0a23f74ee194cd81070475bf]
link DwarvenGoldDigger to DwarvenMineWorker--><path codeLine="53" d="M934.96,154 C923.46,162.6 911.39,171.5 900,179.69 C855.25,211.87 804.96,246.64 762.51,275.61 " fill="none" id="DwarvenGoldDigger-to-DwarvenMineWorker" style="stroke:#A80036;stroke-width:1.0;"/><polygon fill="none" points="766.56,281.32,746.08,286.79,758.68,269.75,766.56,281.32" style="stroke:#A80036;stroke-width:1.0;"/><!--MD5=[38710c32f273adf85be1816784a195c2]
link DwarvenTunnelDigger to DwarvenMineWorker--><path codeLine="54" d="M166.27,154.2 C179.51,163.34 193.9,172.42 208,179.69 C325.71,240.36 471.45,287.2 566.48,314.34 " fill="none" id="DwarvenTunnelDigger-to-DwarvenMineWorker" style="stroke:#A80036;stroke-width:1.0;"/><polygon fill="none" points="568.32,307.59,585.68,319.75,564.53,321.06,568.32,307.59" style="stroke:#A80036;stroke-width:1.0;"/><!--MD5=[35ff2176dcd43a5b5c0986dc951a2ecc]
@startuml
package com.yonatankarp.facade {
  class App {
    - logger : Logger {static}
    + main(args : String[]) {static}
  }
  class DwarvenCartOperator {
    + DwarvenCartOperator()
    + name() : String
    + work()
  }
  class DwarvenGoldDigger {
    + DwarvenGoldDigger()
    + name() : String
    + work()
  }
  class DwarvenGoldmineFacade {
    - workers : List<DwarvenMineWorker>
    + DwarvenGoldmineFacade()
    + digOutGold()
    + endDay()
    - makeActions(workers : Collection<DwarvenMineWorker>, actions : Action[]) {static}
    + startNewDay()
  }
  abstract class DwarvenMineWorker {
    + DwarvenMineWorker()
    - action(action : Action)
    + action(actions : Action[])
    + goHome()
    + goToMine()
    + goToSleep()
    + name() : String {abstract}
    + wakeUp()
    + work() {abstract}
  }
  ~enum Action {
    + GO_HOME {static}
    + GO_TO_MINE {static}
    + GO_TO_SLEEP {static}
    + WAKE_UP {static}
    + WORK {static}
    + valueOf(name : String) : Action {static}
    + values() : Action[] {static}
  }
  class DwarvenTunnelDigger {
    + DwarvenTunnelDigger()
    + name() : String
    + work()
  }
}
DwarvenGoldmineFacade - ->  "-workers" DwarvenMineWorker
Action ..+ DwarvenMineWorker
DwarvenCartOperator - -|> DwarvenMineWorker
DwarvenGoldDigger - -|> DwarvenMineWorker
DwarvenTunnelDigger - -|> DwarvenMineWorker
@enduml

PlantUML version 1.2021.16(Wed Dec 08 18:25:22 CET 2021)
(GPL source distribution)
Java Runtime: OpenJDK Runtime Environment
JVM: OpenJDK 64-Bit Server VM
Default Encoding: UTF-8
Language: en
Country: DE
--></g></svg>