<?xml version="1.0" encoding="UTF-8" standalone="no"?><svg xmlns="http://www.w3.org/2000/svg" xmlns:xlink="http://www.w3.org/1999/xlink" contentScriptType="application/ecmascript" contentStyleType="text/css" height="284px" preserveAspectRatio="none" style="width:331px;height:284px;background:#FFFFFF;" version="1.1" viewBox="0 0 331 284" width="331px" zoomAndPan="magnify"><defs><filter height="300%" id="f1as0d6awhx0op" width="300%" x="-1" y="-1"><feGaussianBlur result="blurOut" stdDeviation="2.0"/><feColorMatrix in="blurOut" result="blurOut2" type="matrix" values="0 0 0 0 0 0 0 0 0 0 0 0 0 0 0 0 0 0 .4 0"/><feOffset dx="4.0" dy="4.0" in="blurOut2" result="blurOut3"/><feBlend in="SourceGraphic" in2="blurOut3" mode="normal"/></filter></defs><g><!--MD5=[0d7e978513eb7803508f9fdf97291ab3]
cluster com.yonatankarp.factory.method--><polygon fill="#FFFFFF" filter="url(#f1as0d6awhx0op)" points="16,6,255,6,262,28.4883,306,28.4883,306,277.78,16,277.78,16,6" style="stroke:#000000;stroke-width:1.5;"/><line style="stroke:#000000;stroke-width:1.5;" x1="16" x2="262" y1="28.4883" y2="28.4883"/><text fill="#000000" font-family="sans-serif" font-size="14" font-weight="bold" lengthAdjust="spacing" textLength="233" x="20" y="21.5352">com.yonatankarp.factory.method</text><!--MD5=[335f4d9be48430461c68bf6d6fdba145]
class App--><rect codeLine="2" fill="#FEFECE" filter="url(#f1as0d6awhx0op)" height="60.9551" id="App" style="stroke:#A80036;stroke-width:1.5;" width="133" x="76.5" y="41"/><ellipse cx="126.75" cy="57" fill="#ADD1B2" rx="11" ry="11" style="stroke:#A80036;stroke-width:1.0;"/><path d="M129.2231,63.1431 Q128.6421,63.4419 128.0029,63.5913 Q127.3638,63.7407 126.6582,63.7407 Q124.1514,63.7407 122.8315,62.0889 Q121.5117,60.437 121.5117,57.3159 Q121.5117,54.1865 122.8315,52.5347 Q124.1514,50.8828 126.6582,50.8828 Q127.3638,50.8828 128.0112,51.0322 Q128.6587,51.1816 129.2231,51.4805 L129.2231,54.2031 Q128.5923,53.6221 127.9988,53.3523 Q127.4053,53.0825 126.7744,53.0825 Q125.4297,53.0825 124.7449,54.1492 Q124.0601,55.2158 124.0601,57.3159 Q124.0601,59.4077 124.7449,60.4744 Q125.4297,61.541 126.7744,61.541 Q127.4053,61.541 127.9988,61.2712 Q128.5923,61.0015 129.2231,60.4204 Z " fill="#000000"/><text fill="#000000" font-family="sans-serif" font-size="12" lengthAdjust="spacing" textLength="24" x="147.25" y="61.5352">App</text><line style="stroke:#A80036;stroke-width:1.5;" x1="77.5" x2="208.5" y1="73" y2="73"/><line style="stroke:#A80036;stroke-width:1.5;" x1="77.5" x2="208.5" y1="81" y2="81"/><ellipse cx="87.5" cy="92" fill="#84BE84" rx="3" ry="3" style="stroke:#038048;stroke-width:1.0;"/><text fill="#000000" font-family="sans-serif" font-size="11" lengthAdjust="spacing" text-decoration="underline" textLength="107" x="96.5" y="95.6348">main(args : String[])</text><!--MD5=[08dbe06e87f91eb667838fe2f259c34a]
class Money--><rect codeLine="6" fill="#FEFECE" filter="url(#f1as0d6awhx0op)" height="99.8203" id="Money" style="stroke:#A80036;stroke-width:1.5;" width="222" x="32" y="161.96"/><ellipse cx="120.25" cy="177.96" fill="#ADD1B2" rx="11" ry="11" style="stroke:#A80036;stroke-width:1.0;"/><path d="M122.7231,184.1031 Q122.1421,184.4019 121.5029,184.5513 Q120.8638,184.7007 120.1582,184.7007 Q117.6514,184.7007 116.3315,183.0489 Q115.0117,181.397 115.0117,178.2759 Q115.0117,175.1465 116.3315,173.4947 Q117.6514,171.8428 120.1582,171.8428 Q120.8638,171.8428 121.5112,171.9922 Q122.1587,172.1416 122.7231,172.4405 L122.7231,175.1631 Q122.0923,174.5821 121.4988,174.3123 Q120.9053,174.0425 120.2744,174.0425 Q118.9297,174.0425 118.2449,175.1092 Q117.5601,176.1758 117.5601,178.2759 Q117.5601,180.3677 118.2449,181.4344 Q118.9297,182.501 120.2744,182.501 Q120.9053,182.501 121.4988,182.2312 Q122.0923,181.9615 122.7231,181.3804 Z " fill="#000000"/><text fill="#000000" font-family="sans-serif" font-size="12" lengthAdjust="spacing" textLength="37" x="140.75" y="182.4952">Money</text><line style="stroke:#A80036;stroke-width:1.5;" x1="33" x2="253" y1="193.96" y2="193.96"/><line style="stroke:#A80036;stroke-width:1.5;" x1="33" x2="253" y1="201.96" y2="201.96"/><ellipse cx="43" cy="212.96" fill="#84BE84" rx="3" ry="3" style="stroke:#038048;stroke-width:1.0;"/><text fill="#000000" font-family="sans-serif" font-size="11" lengthAdjust="spacing" text-decoration="underline" textLength="106" x="52" y="216.5948">dollars(amount: Int)</text><ellipse cx="43" cy="225.9151" fill="#84BE84" rx="3" ry="3" style="stroke:#038048;stroke-width:1.0;"/><text fill="#000000" font-family="sans-serif" font-size="11" lengthAdjust="spacing" text-decoration="underline" textLength="100" x="52" y="229.5498">euros(amount: Int)</text><ellipse cx="43" cy="238.8702" fill="#84BE84" rx="3" ry="3" style="stroke:#038048;stroke-width:1.0;"/><text fill="#000000" font-family="sans-serif" font-size="11" lengthAdjust="spacing" textLength="51" x="52" y="242.5049">toString()</text><rect fill="#F24D5C" height="6" style="stroke:#C82930;stroke-width:1.0;" width="6" x="40" y="248.8252"/><text fill="#000000" font-family="sans-serif" font-size="11" lengthAdjust="spacing" textLength="196" x="52" y="255.46">Money(amount: Int, currency: String)</text><!--MD5=[82ff15e9725034d97f7d5af70023bf4e]
link App to Money--><path codeLine="13" d="M143,102.17 C143,117.86 143,137.63 143,155.99 " fill="none" id="App-to-Money" style="stroke:#A80036;stroke-width:1.0;"/><polygon fill="#A80036" points="143,160.63,147,151.63,143,155.63,139,151.63,143,160.63" style="stroke:#A80036;stroke-width:1.0;"/><text fill="#000000" font-family="sans-serif" font-size="13" lengthAdjust="spacing" textLength="42" x="98.0469" y="151.1005">money</text><!--MD5=[3751d065adf94ebe09f035afdd807456]
link Money to Money--><path codeLine="14" d="M254.4,199.43 C274.74,201.01 289,205.15 289,211.87 C289,217.96 277.29,221.93 259.95,223.8 " fill="none" id="Money-to-Money" style="stroke:#A80036;stroke-width:1.0;"/><polygon fill="#A80036" points="255.4,224.31,264.7285,227.4691,260.379,223.8522,263.9959,219.5027,255.4,224.31" style="stroke:#A80036;stroke-width:1.0;"/><text fill="#000000" font-family="sans-serif" font-size="13" lengthAdjust="spacing" textLength="51" x="261.8867" y="222.157">-dollars</text><!--MD5=[3751d065adf94ebe09f035afdd807456]
link Money to Money--><path codeLine="15" d="M254.35,185.55 C292.88,185.28 324,194.05 324,211.87 C324,228.79 295.96,237.55 260.16,238.16 " fill="none" id="Money-to-Money-1" style="stroke:#A80036;stroke-width:1.0;"/><polygon fill="#A80036" points="255.35,238.19,264.3727,242.1385,260.3499,238.1614,264.327,234.1386,255.35,238.19" style="stroke:#A80036;stroke-width:1.0;"/><text fill="#000000" font-family="sans-serif" font-size="13" lengthAdjust="spacing" textLength="36" x="261.828" y="252.7225">-euro</text><!--MD5=[f7a25d7f6987b51b50778e69a70245c0]
@startuml
package com.yonatankarp.factory.method {
  class App {
    + main(args : String[]) {static}
  }

  class Money {
    + dollars(amount: Int) {static}
    + euros(amount: Int) {static}
    + toString()
    - Money(amount: Int, currency: String)
  }

  App - -> "money" Money
  Money - ->  "-dollars" Money
  Money - ->  "-euro" Money
}
@enduml

PlantUML version 1.2021.16(Wed Dec 08 18:25:22 CET 2021)
(GPL source distribution)
Java Runtime: OpenJDK Runtime Environment
JVM: OpenJDK 64-Bit Server VM
Default Encoding: UTF-8
Language: en
Country: DE
--></g></svg>