<?xml version="1.0" encoding="UTF-8" standalone="no"?><svg xmlns="http://www.w3.org/2000/svg" xmlns:xlink="http://www.w3.org/1999/xlink" contentScriptType="application/ecmascript" contentStyleType="text/css" height="150px" preserveAspectRatio="none" style="width:401px;height:150px;background:#FFFFFF;" version="1.1" viewBox="0 0 401 150" width="401px" zoomAndPan="magnify"><defs><filter height="300%" id="f14j2chepa0c5c" width="300%" x="-1" y="-1"><feGaussianBlur result="blurOut" stdDeviation="2.0"/><feColorMatrix in="blurOut" result="blurOut2" type="matrix" values="0 0 0 0 0 0 0 0 0 0 0 0 0 0 0 0 0 0 .4 0"/><feOffset dx="4.0" dy="4.0" in="blurOut2" result="blurOut3"/><feBlend in="SourceGraphic" in2="blurOut3" mode="normal"/></filter></defs><g><!--MD5=[43610d3c3e9f986172ea5a57ce4efadb]
cluster com.yonatankarp.singleton--><polygon fill="#FFFFFF" filter="url(#f14j2chepa0c5c)" points="16,6,215,6,222,28.4883,384,28.4883,384,143.87,16,143.87,16,6" style="stroke:#000000;stroke-width:1.5;"/><line style="stroke:#000000;stroke-width:1.5;" x1="16" x2="222" y1="28.4883" y2="28.4883"/><text fill="#000000" font-family="sans-serif" font-size="14" font-weight="bold" lengthAdjust="spacing" textLength="193" x="20" y="21.5352">com.yonatankarp.singleton</text><!--MD5=[335f4d9be48430461c68bf6d6fdba145]
class App--><rect codeLine="2" fill="#FEFECE" filter="url(#f14j2chepa0c5c)" height="86.8652" id="App" style="stroke:#A80036;stroke-width:1.5;" width="133" x="235.5" y="41"/><ellipse cx="285.75" cy="57" fill="#ADD1B2" rx="11" ry="11" style="stroke:#A80036;stroke-width:1.0;"/><path d="M288.2231,63.1431 Q287.6421,63.4419 287.0029,63.5913 Q286.3638,63.7407 285.6582,63.7407 Q283.1514,63.7407 281.8315,62.0889 Q280.5117,60.437 280.5117,57.3159 Q280.5117,54.1865 281.8315,52.5347 Q283.1514,50.8828 285.6582,50.8828 Q286.3638,50.8828 287.0112,51.0322 Q287.6587,51.1816 288.2231,51.4805 L288.2231,54.2031 Q287.5923,53.6221 286.9988,53.3523 Q286.4053,53.0825 285.7744,53.0825 Q284.4297,53.0825 283.7449,54.1492 Q283.0601,55.2158 283.0601,57.3159 Q283.0601,59.4077 283.7449,60.4744 Q284.4297,61.541 285.7744,61.541 Q286.4053,61.541 286.9988,61.2712 Q287.5923,61.0015 288.2231,60.4204 Z " fill="#000000"/><text fill="#000000" font-family="sans-serif" font-size="12" lengthAdjust="spacing" textLength="24" x="306.25" y="61.5352">App</text><line style="stroke:#A80036;stroke-width:1.5;" x1="236.5" x2="367.5" y1="73" y2="73"/><rect fill="none" height="6" style="stroke:#C82930;stroke-width:1.0;" width="6" x="243.5" y="81"/><text fill="#000000" font-family="sans-serif" font-size="11" lengthAdjust="spacing" text-decoration="underline" textLength="91" x="255.5" y="87.6348">LOGGER : Logger</text><line style="stroke:#A80036;stroke-width:1.5;" x1="236.5" x2="367.5" y1="93.9551" y2="93.9551"/><ellipse cx="246.5" cy="104.9551" fill="#84BE84" rx="3" ry="3" style="stroke:#038048;stroke-width:1.0;"/><text fill="#000000" font-family="sans-serif" font-size="11" lengthAdjust="spacing" textLength="30" x="255.5" y="108.5898">App()</text><ellipse cx="246.5" cy="117.9102" fill="#84BE84" rx="3" ry="3" style="stroke:#038048;stroke-width:1.0;"/><text fill="#000000" font-family="sans-serif" font-size="11" lengthAdjust="spacing" text-decoration="underline" textLength="107" x="255.5" y="121.5449">main(args : String[])</text><rect fill="#FEFECE" filter="url(#f14j2chepa0c5c)" height="49.6875" style="stroke:#A80036;stroke-width:1.5;" width="151" x="31.5" y="59.59"/><text fill="#000000" font-family="sans-serif" font-size="12" lengthAdjust="spacing" textLength="63" x="75.5" y="73.1916">IvoryTower</text><line style="stroke:#A80036;stroke-width:1.5;" x1="32.5" x2="181.5" y1="77.7228" y2="77.7228"/><rect fill="#F24D5C" height="6" style="stroke:#C82930;stroke-width:1.0;" width="6" x="39.5" y="85.7228"/><text fill="#000000" font-family="sans-serif" font-size="10" lengthAdjust="spacing" textLength="59" x="51.5" y="91.3908">IvoryTower()</text><ellipse cx="42.5" cy="100.5002" fill="#84BE84" rx="3" ry="3" style="stroke:#038048;stroke-width:1.0;"/><text fill="#000000" font-family="sans-serif" font-size="10" lengthAdjust="spacing" text-decoration="underline" textLength="125" x="51.5" y="103.1681">getInstance() : IvoryTower</text><!--MD5=[41e598a8b9d2497c00e037935f927c0b]
link IvoryTower to IvoryTower--><path codeLine="12" d="M182.92,75.22 C202.63,75.78 217.5,78.86 217.5,84.44 C217.5,89.45 205.5,92.44 188.77,93.41 " fill="none" id="IvoryTower-to-IvoryTower" style="stroke:#A80036;stroke-width:1.0;"/><polygon fill="#A80036" points="183.92,93.66,193.0835,97.2698,188.9154,93.4453,192.7399,89.2772,183.92,93.66" style="stroke:#A80036;stroke-width:1.0;"/><text fill="#000000" font-family="sans-serif" font-size="13" lengthAdjust="spacing" textLength="72" x="190.2146" y="92.8854">-INSTANCE</text><!--MD5=[d0c7685a7aff40a7408fe433a1d111e0]
@startuml
package com.yonatankarp.singleton {
  class App {
    - LOGGER : Logger {static}
    + App()
    + main(args : String[]) {static}
  }
  object IvoryTower {
    - IvoryTower()
    + getInstance() : IvoryTower {static}
  }
}
IvoryTower - ->  "-INSTANCE" IvoryTower
@enduml

PlantUML version 1.2021.16(Wed Dec 08 18:25:22 CET 2021)
(GPL source distribution)
Java Runtime: OpenJDK Runtime Environment
JVM: OpenJDK 64-Bit Server VM
Default Encoding: UTF-8
Language: en
Country: DE
--></g></svg>