<?xml version="1.0" encoding="UTF-8" standalone="no"?><svg xmlns="http://www.w3.org/2000/svg" xmlns:xlink="http://www.w3.org/1999/xlink" contentScriptType="application/ecmascript" contentStyleType="text/css" height="163px" preserveAspectRatio="none" style="width:1488px;height:163px;background:#FFFFFF;" version="1.1" viewBox="0 0 1488 163" width="1488px" zoomAndPan="magnify"><defs><filter height="300%" id="fmb63cz7y4ulv" width="300%" x="-1" y="-1"><feGaussianBlur result="blurOut" stdDeviation="2.0"/><feColorMatrix in="blurOut" result="blurOut2" type="matrix" values="0 0 0 0 0 0 0 0 0 0 0 0 0 0 0 0 0 0 .4 0"/><feOffset dx="4.0" dy="4.0" in="blurOut2" result="blurOut3"/><feBlend in="SourceGraphic" in2="blurOut3" mode="normal"/></filter></defs><g><!--MD5=[43610d3c3e9f986172ea5a57ce4efadb]
cluster com.yonatankarp.singleton--><polygon fill="#FFFFFF" filter="url(#fmb63cz7y4ulv)" points="16,6,215,6,222,28.4883,1471,28.4883,1471,156.82,16,156.82,16,6" style="stroke:#000000;stroke-width:1.5;"/><line style="stroke:#000000;stroke-width:1.5;" x1="16" x2="222" y1="28.4883" y2="28.4883"/><text fill="#000000" font-family="sans-serif" font-size="14" font-weight="bold" lengthAdjust="spacing" textLength="193" x="20" y="21.5352">com.yonatankarp.singleton</text><!--MD5=[49dd81b605e6922ae45f31699da7c9b4]
class EnumIvoryTower--><rect codeLine="3" fill="#FEFECE" filter="url(#fmb63cz7y4ulv)" height="99.8203" id="EnumIvoryTower" style="stroke:#A80036;stroke-width:1.5;" width="244" x="1211" y="41"/><ellipse cx="1281.25" cy="57" fill="#EB937F" rx="11" ry="11" style="stroke:#A80036;stroke-width:1.0;"/><path d="M1284.8643,63.5 L1277.1445,63.5 L1277.1445,51.1069 L1284.8643,51.1069 L1284.8643,53.2651 L1279.5933,53.2651 L1279.5933,55.938 L1284.3662,55.938 L1284.3662,58.0962 L1279.5933,58.0962 L1279.5933,61.3418 L1284.8643,61.3418 Z " fill="#000000"/><text fill="#000000" font-family="sans-serif" font-size="12" lengthAdjust="spacing" textLength="95" x="1301.75" y="61.5352">EnumIvoryTower</text><line style="stroke:#A80036;stroke-width:1.5;" x1="1212" x2="1454" y1="73" y2="73"/><ellipse cx="1222" cy="84" rx="3" ry="3" style="stroke:#038048;stroke-width:1.0;fill:none;"/><text fill="#000000" font-family="sans-serif" font-size="11" lengthAdjust="spacing" text-decoration="underline" textLength="45" x="1231" y="87.6348">instance</text><line style="stroke:#A80036;stroke-width:1.5;" x1="1212" x2="1454" y1="93.9551" y2="93.9551"/><ellipse cx="1222" cy="104.9551" fill="#84BE84" rx="3" ry="3" style="stroke:#038048;stroke-width:1.0;"/><text fill="#000000" font-family="sans-serif" font-size="11" lengthAdjust="spacing" textLength="92" x="1231" y="108.5898">toString() : String</text><ellipse cx="1222" cy="117.9102" fill="#84BE84" rx="3" ry="3" style="stroke:#038048;stroke-width:1.0;"/><text fill="#000000" font-family="sans-serif" font-size="11" lengthAdjust="spacing" text-decoration="underline" textLength="218" x="1231" y="121.5449">valueOf(name : String) : EnumIvoryTower</text><ellipse cx="1222" cy="130.8652" fill="#84BE84" rx="3" ry="3" style="stroke:#038048;stroke-width:1.0;"/><text fill="#000000" font-family="sans-serif" font-size="11" lengthAdjust="spacing" text-decoration="underline" textLength="149" x="1231" y="134.5">values() : EnumIvoryTower[]</text><!--MD5=[7d12b61c3d5d0cd1ae518327b2e991e9]
class InitializingOnDemandHolderIdiom--><rect codeLine="10" fill="#FEFECE" filter="url(#fmb63cz7y4ulv)" height="73.9102" id="InitializingOnDemandHolderIdiom" style="stroke:#A80036;stroke-width:1.5;" width="261" x="896.5" y="53.95"/><ellipse cx="927.7" cy="69.95" fill="#ADD1B2" rx="11" ry="11" style="stroke:#A80036;stroke-width:1.0;"/><path d="M930.1731,76.0931 Q929.5921,76.3919 928.9529,76.5413 Q928.3138,76.6907 927.6082,76.6907 Q925.1014,76.6907 923.7815,75.0389 Q922.4617,73.387 922.4617,70.2659 Q922.4617,67.1365 923.7815,65.4847 Q925.1014,63.8328 927.6082,63.8328 Q928.3138,63.8328 928.9612,63.9822 Q929.6087,64.1316 930.1731,64.4305 L930.1731,67.1531 Q929.5423,66.5721 928.9488,66.3023 Q928.3553,66.0325 927.7244,66.0325 Q926.3797,66.0325 925.6949,67.0992 Q925.0101,68.1658 925.0101,70.2659 Q925.0101,72.3577 925.6949,73.4244 Q926.3797,74.491 927.7244,74.491 Q928.3553,74.491 928.9488,74.2212 Q929.5423,73.9515 930.1731,73.3704 Z " fill="#000000"/><text fill="#000000" font-family="sans-serif" font-size="12" lengthAdjust="spacing" textLength="193" x="945.3" y="74.4852">InitializingOnDemandHolderIdiom</text><line style="stroke:#A80036;stroke-width:1.5;" x1="897.5" x2="1156.5" y1="85.95" y2="85.95"/><ellipse cx="907.5" cy="96.95" rx="3" ry="3" style="stroke:#038048;stroke-width:1.0;fill:none;"/><text fill="#000000" font-family="sans-serif" font-size="11" lengthAdjust="spacing" text-decoration="underline" textLength="235" x="916.5" y="100.5848">instance : InitializingOnDemandHolderIdiom</text><line style="stroke:#A80036;stroke-width:1.5;" x1="897.5" x2="1156.5" y1="106.9051" y2="106.9051"/><rect fill="#F24D5C" height="6" style="stroke:#C82930;stroke-width:1.0;" width="6" x="904.5" y="114.9051"/><text fill="#000000" font-family="sans-serif" font-size="11" lengthAdjust="spacing" textLength="189" x="916.5" y="121.5398">InitializingOnDemandHolderIdiom()</text><!--MD5=[f05896b5e14cfb8963f744c6b6aabdeb]
class IvoryTower--><rect codeLine="15" fill="#FEFECE" filter="url(#fmb63cz7y4ulv)" height="73.9102" id="IvoryTower" style="stroke:#A80036;stroke-width:1.5;" width="140" x="704" y="53.95"/><ellipse cx="739.25" cy="69.95" fill="#ADD1B2" rx="11" ry="11" style="stroke:#A80036;stroke-width:1.0;"/><path d="M741.7231,76.0931 Q741.1421,76.3919 740.5029,76.5413 Q739.8638,76.6907 739.1582,76.6907 Q736.6514,76.6907 735.3315,75.0389 Q734.0117,73.387 734.0117,70.2659 Q734.0117,67.1365 735.3315,65.4847 Q736.6514,63.8328 739.1582,63.8328 Q739.8638,63.8328 740.5112,63.9822 Q741.1587,64.1316 741.7231,64.4305 L741.7231,67.1531 Q741.0923,66.5721 740.4988,66.3023 Q739.9053,66.0325 739.2744,66.0325 Q737.9297,66.0325 737.2449,67.0992 Q736.5601,68.1658 736.5601,70.2659 Q736.5601,72.3577 737.2449,73.4244 Q737.9297,74.491 739.2744,74.491 Q739.9053,74.491 740.4988,74.2212 Q741.0923,73.9515 741.7231,73.3704 Z " fill="#000000"/><text fill="#000000" font-family="sans-serif" font-size="12" lengthAdjust="spacing" textLength="63" x="757.75" y="74.4852">IvoryTower</text><line style="stroke:#A80036;stroke-width:1.5;" x1="705" x2="843" y1="85.95" y2="85.95"/><ellipse cx="715" cy="96.95" rx="3" ry="3" style="stroke:#038048;stroke-width:1.0;fill:none;"/><text fill="#000000" font-family="sans-serif" font-size="11" lengthAdjust="spacing" text-decoration="underline" textLength="114" x="724" y="100.5848">instance : IvoryTower</text><line style="stroke:#A80036;stroke-width:1.5;" x1="705" x2="843" y1="106.9051" y2="106.9051"/><rect fill="#F24D5C" height="6" style="stroke:#C82930;stroke-width:1.0;" width="6" x="712" y="114.9051"/><text fill="#000000" font-family="sans-serif" font-size="11" lengthAdjust="spacing" textLength="68" x="724" y="121.5398">IvoryTower()</text><!--MD5=[3a93b59aef1cdf1f06660182dbdcc16a]
class ThreadSafeDoubleCheckLocking--><rect codeLine="20" fill="#FEFECE" filter="url(#fmb63cz7y4ulv)" height="99.8203" id="ThreadSafeDoubleCheckLocking" style="stroke:#A80036;stroke-width:1.5;" width="278" x="373" y="41"/><ellipse cx="415.45" cy="57" fill="#ADD1B2" rx="11" ry="11" style="stroke:#A80036;stroke-width:1.0;"/><path d="M417.9231,63.1431 Q417.3421,63.4419 416.7029,63.5913 Q416.0638,63.7407 415.3582,63.7407 Q412.8514,63.7407 411.5315,62.0889 Q410.2117,60.437 410.2117,57.3159 Q410.2117,54.1865 411.5315,52.5347 Q412.8514,50.8828 415.3582,50.8828 Q416.0638,50.8828 416.7112,51.0322 Q417.3587,51.1816 417.9231,51.4805 L417.9231,54.2031 Q417.2923,53.6221 416.6988,53.3523 Q416.1053,53.0825 415.4744,53.0825 Q414.1297,53.0825 413.4449,54.1492 Q412.7601,55.2158 412.7601,57.3159 Q412.7601,59.4077 413.4449,60.4744 Q414.1297,61.541 415.4744,61.541 Q416.1053,61.541 416.6988,61.2712 Q417.2923,61.0015 417.9231,60.4204 Z " fill="#000000"/><text fill="#000000" font-family="sans-serif" font-size="12" lengthAdjust="spacing" textLength="185" x="435.55" y="61.5352">ThreadSafeDoubleCheckLocking</text><line style="stroke:#A80036;stroke-width:1.5;" x1="374" x2="650" y1="73" y2="73"/><rect fill="none" height="6" style="stroke:#C82930;stroke-width:1.0;" width="6" x="381" y="81"/><text fill="#000000" font-family="sans-serif" font-size="11" lengthAdjust="spacing" text-decoration="underline" textLength="72" x="393" y="87.6348">flag : boolean</text><rect fill="none" height="6" style="stroke:#C82930;stroke-width:1.0;" width="6" x="381" y="93.9551"/><text fill="#000000" font-family="sans-serif" font-size="11" lengthAdjust="spacing" text-decoration="underline" textLength="227" x="393" y="100.5898">instance : ThreadSafeDoubleCheckLocking</text><line style="stroke:#A80036;stroke-width:1.5;" x1="374" x2="650" y1="106.9102" y2="106.9102"/><rect fill="#F24D5C" height="6" style="stroke:#C82930;stroke-width:1.0;" width="6" x="381" y="114.9102"/><text fill="#000000" font-family="sans-serif" font-size="11" lengthAdjust="spacing" textLength="181" x="393" y="121.5449">ThreadSafeDoubleCheckLocking()</text><ellipse cx="384" cy="130.8652" fill="#84BE84" rx="3" ry="3" style="stroke:#038048;stroke-width:1.0;"/><text fill="#000000" font-family="sans-serif" font-size="11" lengthAdjust="spacing" text-decoration="underline" textLength="252" x="393" y="134.5">getInstance() : ThreadSafeDoubleCheckLocking</text><!--MD5=[a20bd8804f4eca3348257d814cad5489]
class ThreadSafeLazyLoadedIvoryTower--><rect codeLine="27" fill="#FEFECE" filter="url(#fmb63cz7y4ulv)" height="86.8652" id="ThreadSafeLazyLoadedIvoryTower" style="stroke:#A80036;stroke-width:1.5;" width="288" x="32" y="47.48"/><ellipse cx="73.1" cy="63.48" fill="#ADD1B2" rx="11" ry="11" style="stroke:#A80036;stroke-width:1.0;"/><path d="M75.5731,69.6231 Q74.9921,69.9219 74.3529,70.0713 Q73.7138,70.2207 73.0082,70.2207 Q70.5014,70.2207 69.1815,68.5689 Q67.8617,66.917 67.8617,63.7959 Q67.8617,60.6665 69.1815,59.0147 Q70.5014,57.3628 73.0082,57.3628 Q73.7138,57.3628 74.3612,57.5122 Q75.0087,57.6616 75.5731,57.9605 L75.5731,60.6831 Q74.9423,60.1021 74.3488,59.8323 Q73.7553,59.5625 73.1244,59.5625 Q71.7797,59.5625 71.0949,60.6292 Q70.4101,61.6958 70.4101,63.7959 Q70.4101,65.8877 71.0949,66.9544 Q71.7797,68.021 73.1244,68.021 Q73.7553,68.021 74.3488,67.7512 Q74.9423,67.4815 75.5731,66.9004 Z " fill="#000000"/><text fill="#000000" font-family="sans-serif" font-size="12" lengthAdjust="spacing" textLength="198" x="92.9" y="68.0152">ThreadSafeLazyLoadedIvoryTower</text><line style="stroke:#A80036;stroke-width:1.5;" x1="33" x2="319" y1="79.48" y2="79.48"/><rect fill="none" height="6" style="stroke:#C82930;stroke-width:1.0;" width="6" x="40" y="87.48"/><text fill="#000000" font-family="sans-serif" font-size="11" lengthAdjust="spacing" text-decoration="underline" textLength="237" x="52" y="94.1148">instance : ThreadSafeLazyLoadedIvoryTower</text><line style="stroke:#A80036;stroke-width:1.5;" x1="33" x2="319" y1="100.4351" y2="100.4351"/><rect fill="#F24D5C" height="6" style="stroke:#C82930;stroke-width:1.0;" width="6" x="40" y="108.4351"/><text fill="#000000" font-family="sans-serif" font-size="11" lengthAdjust="spacing" textLength="191" x="52" y="115.0698">ThreadSafeLazyLoadedIvoryTower()</text><ellipse cx="43" cy="124.3902" fill="#84BE84" rx="3" ry="3" style="stroke:#038048;stroke-width:1.0;"/><text fill="#000000" font-family="sans-serif" font-size="11" lengthAdjust="spacing" text-decoration="underline" textLength="262" x="52" y="128.0249">getInstance() : ThreadSafeLazyLoadedIvoryTower</text><!--MD5=[41e598a8b9d2497c00e037935f927c0b]
link IvoryTower to IvoryTower--><path codeLine="33" d="M844.17,77.12 C863.87,77.72 879,82.32 879,90.91 C879,98.63 866.79,103.12 850.02,104.39 " fill="none" id="IvoryTower-to-IvoryTower" style="stroke:#A80036;stroke-width:1.0;"/><polygon fill="#A80036" points="845.17,104.7,854.3641,108.2311,850.1634,104.4425,853.952,100.2417,845.17,104.7" style="stroke:#A80036;stroke-width:1.0;"/><text fill="#000000" font-family="sans-serif" font-size="13" lengthAdjust="spacing" textLength="61" x="852.1865" y="105.0758">-instance</text><!--MD5=[5790d123fac309cbddafc3c64c15dad6]
link InitializingOnDemandHolderIdiom to InitializingOnDemandHolderIdiom--><path codeLine="34" d="M1157.77,78.18 C1178.4,80.06 1192.5,84.31 1192.5,90.91 C1192.5,96.89 1180.92,100.94 1163.4,103.05 " fill="none" id="InitializingOnDemandHolderIdiom-to-InitializingOnDemandHolderIdiom" style="stroke:#A80036;stroke-width:1.0;"/><polygon fill="#A80036" points="1158.77,103.64,1168.1425,106.666,1163.742,103.1114,1167.2967,98.7109,1158.77,103.64" style="stroke:#A80036;stroke-width:1.0;"/><text fill="#000000" font-family="sans-serif" font-size="13" lengthAdjust="spacing" textLength="61" x="1165.1197" y="102.7503">-instance</text><!--MD5=[2afedfd990b2f2f6dd58f6b6a0dec0cd]
link ThreadSafeDoubleCheckLocking to ThreadSafeDoubleCheckLocking--><path codeLine="35" d="M651.25,73.93 C671.98,76.57 686,82.23 686,90.91 C686,98.77 674.49,104.16 656.9,107.07 " fill="none" id="ThreadSafeDoubleCheckLocking-to-ThreadSafeDoubleCheckLocking" style="stroke:#A80036;stroke-width:1.0;"/><polygon fill="#A80036" points="652.25,107.89,661.7296,110.5617,657.1986,107.1749,660.5854,102.6439,652.25,107.89" style="stroke:#A80036;stroke-width:1.0;"/><text fill="#000000" font-family="sans-serif" font-size="13" lengthAdjust="spacing" textLength="61" x="659.253" y="108.9848">-instance</text><!--MD5=[22d33edd3ccc9eefc2b00cad93dd5924]
link ThreadSafeLazyLoadedIvoryTower to ThreadSafeLazyLoadedIvoryTower--><path codeLine="36" d="M320.32,76.25 C341.06,78.6 355,83.49 355,90.91 C355,97.64 343.55,102.28 325.97,104.84 " fill="none" id="ThreadSafeLazyLoadedIvoryTower-to-ThreadSafeLazyLoadedIvoryTower" style="stroke:#A80036;stroke-width:1.0;"/><polygon fill="#A80036" points="321.32,105.57,330.7597,108.3793,326.2785,104.927,329.7308,100.4458,321.32,105.57" style="stroke:#A80036;stroke-width:1.0;"/><text fill="#000000" font-family="sans-serif" font-size="13" lengthAdjust="spacing" textLength="61" x="327.9224" y="105.128">-instance</text><!--MD5=[68a911308b2ebb623855d6f79c707bab]
@startuml
package com.yonatankarp.singleton {

  enum EnumIvoryTower {
    + instance {static}
    + toString() : String
    + valueOf(name : String) : EnumIvoryTower {static}
    + values() : EnumIvoryTower[] {static}
  }

  class InitializingOnDemandHolderIdiom {
    - InitializingOnDemandHolderIdiom()
    + instance : InitializingOnDemandHolderIdiom {static}
  }

  class IvoryTower {
    + instance : IvoryTower {static}
    - IvoryTower()
  }

  class ThreadSafeDoubleCheckLocking {
    - flag : boolean {static}
    - instance : ThreadSafeDoubleCheckLocking {static}
    - ThreadSafeDoubleCheckLocking()
    + getInstance() : ThreadSafeDoubleCheckLocking {static}
  }

  class ThreadSafeLazyLoadedIvoryTower {
    - instance : ThreadSafeLazyLoadedIvoryTower {static}
    - ThreadSafeLazyLoadedIvoryTower()
    + getInstance() : ThreadSafeLazyLoadedIvoryTower {static}
  }
}
IvoryTower - ->  "-instance" IvoryTower
InitializingOnDemandHolderIdiom  - -> "-instance" InitializingOnDemandHolderIdiom
ThreadSafeDoubleCheckLocking - ->  "-instance" ThreadSafeDoubleCheckLocking
ThreadSafeLazyLoadedIvoryTower - ->  "-instance" ThreadSafeLazyLoadedIvoryTower
@enduml

PlantUML version 1.2021.16(Wed Dec 08 18:25:22 CET 2021)
(GPL source distribution)
Java Runtime: OpenJDK Runtime Environment
JVM: OpenJDK 64-Bit Server VM
Default Encoding: UTF-8
Language: en
Country: DE
--></g></svg>