<?xml version="1.0" encoding="UTF-8" standalone="no"?><svg xmlns="http://www.w3.org/2000/svg" xmlns:xlink="http://www.w3.org/1999/xlink" contentScriptType="application/ecmascript" contentStyleType="text/css" height="297px" preserveAspectRatio="none" style="width:1672px;height:297px;background:#FFFFFF;" version="1.1" viewBox="0 0 1672 297" width="1672px" zoomAndPan="magnify"><defs><filter height="300%" id="f8rxgnaegy820" width="300%" x="-1" y="-1"><feGaussianBlur result="blurOut" stdDeviation="2.0"/><feColorMatrix in="blurOut" result="blurOut2" type="matrix" values="0 0 0 0 0 0 0 0 0 0 0 0 0 0 0 0 0 0 .4 0"/><feOffset dx="4.0" dy="4.0" in="blurOut2" result="blurOut3"/><feBlend in="SourceGraphic" in2="blurOut3" mode="normal"/></filter></defs><g><!--MD5=[43610d3c3e9f986172ea5a57ce4efadb]
cluster com.yonatankarp.singleton--><polygon fill="#FFFFFF" filter="url(#f8rxgnaegy820)" points="16,6,215,6,222,28.4883,1655,28.4883,1655,290.73,16,290.73,16,6" style="stroke:#000000;stroke-width:1.5;"/><line style="stroke:#000000;stroke-width:1.5;" x1="16" x2="222" y1="28.4883" y2="28.4883"/><text fill="#000000" font-family="sans-serif" font-size="14" font-weight="bold" lengthAdjust="spacing" textLength="193" x="20" y="21.5352">com.yonatankarp.singleton</text><!--MD5=[335f4d9be48430461c68bf6d6fdba145]
class App--><rect codeLine="2" fill="#FEFECE" filter="url(#f8rxgnaegy820)" height="86.8652" id="App" style="stroke:#A80036;stroke-width:1.5;" width="133" x="1506.5" y="47.48"/><ellipse cx="1556.75" cy="63.48" fill="#ADD1B2" rx="11" ry="11" style="stroke:#A80036;stroke-width:1.0;"/><path d="M1559.2231,69.6231 Q1558.6421,69.9219 1558.0029,70.0713 Q1557.3638,70.2207 1556.6582,70.2207 Q1554.1514,70.2207 1552.8315,68.5689 Q1551.5117,66.917 1551.5117,63.7959 Q1551.5117,60.6665 1552.8315,59.0147 Q1554.1514,57.3628 1556.6582,57.3628 Q1557.3638,57.3628 1558.0112,57.5122 Q1558.6587,57.6616 1559.2231,57.9605 L1559.2231,60.6831 Q1558.5923,60.1021 1557.9988,59.8323 Q1557.4053,59.5625 1556.7744,59.5625 Q1555.4297,59.5625 1554.7449,60.6292 Q1554.0601,61.6958 1554.0601,63.7959 Q1554.0601,65.8877 1554.7449,66.9544 Q1555.4297,68.021 1556.7744,68.021 Q1557.4053,68.021 1557.9988,67.7512 Q1558.5923,67.4815 1559.2231,66.9004 Z " fill="#000000"/><text fill="#000000" font-family="sans-serif" font-size="12" lengthAdjust="spacing" textLength="24" x="1577.25" y="68.0152">App</text><line style="stroke:#A80036;stroke-width:1.5;" x1="1507.5" x2="1638.5" y1="79.48" y2="79.48"/><rect fill="none" height="6" style="stroke:#C82930;stroke-width:1.0;" width="6" x="1514.5" y="87.48"/><text fill="#000000" font-family="sans-serif" font-size="11" lengthAdjust="spacing" text-decoration="underline" textLength="79" x="1526.5" y="94.1148">logger: Logger</text><line style="stroke:#A80036;stroke-width:1.5;" x1="1507.5" x2="1638.5" y1="100.4351" y2="100.4351"/><ellipse cx="1517.5" cy="111.4351" fill="#84BE84" rx="3" ry="3" style="stroke:#038048;stroke-width:1.0;"/><text fill="#000000" font-family="sans-serif" font-size="11" lengthAdjust="spacing" textLength="30" x="1526.5" y="115.0698">App()</text><ellipse cx="1517.5" cy="124.3902" fill="#84BE84" rx="3" ry="3" style="stroke:#038048;stroke-width:1.0;"/><text fill="#000000" font-family="sans-serif" font-size="11" lengthAdjust="spacing" text-decoration="underline" textLength="107" x="1526.5" y="128.0249">main(args : String[])</text><!--MD5=[49dd81b605e6922ae45f31699da7c9b4]
class EnumIvoryTower--><rect codeLine="7" fill="#FEFECE" filter="url(#f8rxgnaegy820)" height="99.8203" id="EnumIvoryTower" style="stroke:#A80036;stroke-width:1.5;" width="244" x="1228" y="41"/><ellipse cx="1298.25" cy="57" fill="#EB937F" rx="11" ry="11" style="stroke:#A80036;stroke-width:1.0;"/><path d="M1301.8643,63.5 L1294.1445,63.5 L1294.1445,51.1069 L1301.8643,51.1069 L1301.8643,53.2651 L1296.5933,53.2651 L1296.5933,55.938 L1301.3662,55.938 L1301.3662,58.0962 L1296.5933,58.0962 L1296.5933,61.3418 L1301.8643,61.3418 Z " fill="#000000"/><text fill="#000000" font-family="sans-serif" font-size="12" lengthAdjust="spacing" textLength="95" x="1318.75" y="61.5352">EnumIvoryTower</text><line style="stroke:#A80036;stroke-width:1.5;" x1="1229" x2="1471" y1="73" y2="73"/><ellipse cx="1239" cy="84" rx="3" ry="3" style="stroke:#038048;stroke-width:1.0;fill:none;"/><text fill="#000000" font-family="sans-serif" font-size="11" lengthAdjust="spacing" text-decoration="underline" textLength="54" x="1248" y="87.6348">INSTANCE</text><line style="stroke:#A80036;stroke-width:1.5;" x1="1229" x2="1471" y1="93.9551" y2="93.9551"/><ellipse cx="1239" cy="104.9551" fill="#84BE84" rx="3" ry="3" style="stroke:#038048;stroke-width:1.0;"/><text fill="#000000" font-family="sans-serif" font-size="11" lengthAdjust="spacing" textLength="92" x="1248" y="108.5898">toString() : String</text><ellipse cx="1239" cy="117.9102" fill="#84BE84" rx="3" ry="3" style="stroke:#038048;stroke-width:1.0;"/><text fill="#000000" font-family="sans-serif" font-size="11" lengthAdjust="spacing" text-decoration="underline" textLength="218" x="1248" y="121.5449">valueOf(name : String) : EnumIvoryTower</text><ellipse cx="1239" cy="130.8652" fill="#84BE84" rx="3" ry="3" style="stroke:#038048;stroke-width:1.0;"/><text fill="#000000" font-family="sans-serif" font-size="11" lengthAdjust="spacing" text-decoration="underline" textLength="149" x="1248" y="134.5">values() : EnumIvoryTower[]</text><!--MD5=[7d12b61c3d5d0cd1ae518327b2e991e9]
class InitializingOnDemandHolderIdiom--><rect codeLine="13" fill="#FEFECE" filter="url(#f8rxgnaegy820)" height="73.9102" id="InitializingOnDemandHolderIdiom" style="stroke:#A80036;stroke-width:1.5;" width="286" x="915" y="200.82"/><ellipse cx="957.45" cy="216.82" fill="#ADD1B2" rx="11" ry="11" style="stroke:#A80036;stroke-width:1.0;"/><path d="M959.9231,222.9631 Q959.3421,223.2619 958.7029,223.4113 Q958.0638,223.5607 957.3582,223.5607 Q954.8514,223.5607 953.5315,221.9089 Q952.2117,220.257 952.2117,217.1359 Q952.2117,214.0065 953.5315,212.3547 Q954.8514,210.7028 957.3582,210.7028 Q958.0638,210.7028 958.7112,210.8522 Q959.3587,211.0016 959.9231,211.3005 L959.9231,214.0231 Q959.2923,213.4421 958.6988,213.1723 Q958.1053,212.9025 957.4744,212.9025 Q956.1297,212.9025 955.4449,213.9692 Q954.7601,215.0358 954.7601,217.1359 Q954.7601,219.2277 955.4449,220.2944 Q956.1297,221.361 957.4744,221.361 Q958.1053,221.361 958.6988,221.0912 Q959.2923,220.8215 959.9231,220.2404 Z " fill="#000000"/><text fill="#000000" font-family="sans-serif" font-size="12" lengthAdjust="spacing" textLength="193" x="977.55" y="221.3552">InitializingOnDemandHolderIdiom</text><line style="stroke:#A80036;stroke-width:1.5;" x1="916" x2="1200" y1="232.82" y2="232.82"/><line style="stroke:#A80036;stroke-width:1.5;" x1="916" x2="1200" y1="240.82" y2="240.82"/><rect fill="#F24D5C" height="6" style="stroke:#C82930;stroke-width:1.0;" width="6" x="923" y="248.82"/><text fill="#000000" font-family="sans-serif" font-size="11" lengthAdjust="spacing" textLength="189" x="935" y="255.4548">InitializingOnDemandHolderIdiom()</text><ellipse cx="926" cy="264.7751" fill="#84BE84" rx="3" ry="3" style="stroke:#038048;stroke-width:1.0;"/><text fill="#000000" font-family="sans-serif" font-size="11" lengthAdjust="spacing" text-decoration="underline" textLength="260" x="935" y="268.4098">getInstance() : InitializingOnDemandHolderIdiom</text><!--MD5=[8b8ae204ed5bf33b911d9897772a533e]
class HelperHolder--><rect codeLine="17" fill="#FEFECE" filter="url(#f8rxgnaegy820)" height="73.9102" id="HelperHolder" style="stroke:#A80036;stroke-width:1.5;" width="270" x="923" y="53.95"/><ellipse cx="1009.25" cy="69.95" fill="#ADD1B2" rx="11" ry="11" style="stroke:#A80036;stroke-width:1.0;"/><path d="M1011.7231,76.0931 Q1011.1421,76.3919 1010.5029,76.5413 Q1009.8638,76.6907 1009.1582,76.6907 Q1006.6514,76.6907 1005.3315,75.0389 Q1004.0117,73.387 1004.0117,70.2659 Q1004.0117,67.1365 1005.3315,65.4847 Q1006.6514,63.8328 1009.1582,63.8328 Q1009.8638,63.8328 1010.5112,63.9822 Q1011.1587,64.1316 1011.7231,64.4305 L1011.7231,67.1531 Q1011.0923,66.5721 1010.4988,66.3023 Q1009.9053,66.0325 1009.2744,66.0325 Q1007.9297,66.0325 1007.2449,67.0992 Q1006.5601,68.1658 1006.5601,70.2659 Q1006.5601,72.3577 1007.2449,73.4244 Q1007.9297,74.491 1009.2744,74.491 Q1009.9053,74.491 1010.4988,74.2212 Q1011.0923,73.9515 1011.7231,73.3704 Z " fill="#000000"/><rect fill="#F24D5C" height="6" style="stroke:#C82930;stroke-width:1.0;" width="6" x="1031.75" y="66.45"/><text fill="#000000" font-family="sans-serif" font-size="12" lengthAdjust="spacing" textLength="78" x="1040.75" y="74.4852">HelperHolder</text><line style="stroke:#A80036;stroke-width:1.5;" x1="924" x2="1192" y1="85.95" y2="85.95"/><rect fill="none" height="6" style="stroke:#C82930;stroke-width:1.0;" width="6" x="931" y="93.95"/><text fill="#000000" font-family="sans-serif" font-size="11" lengthAdjust="spacing" text-decoration="underline" textLength="244" x="943" y="100.5848">INSTANCE : InitializingOnDemandHolderIdiom</text><line style="stroke:#A80036;stroke-width:1.5;" x1="924" x2="1192" y1="106.9051" y2="106.9051"/><rect fill="#F24D5C" height="6" style="stroke:#C82930;stroke-width:1.0;" width="6" x="931" y="114.9051"/><text fill="#000000" font-family="sans-serif" font-size="11" lengthAdjust="spacing" textLength="79" x="943" y="121.5398">HelperHolder()</text><!--MD5=[f05896b5e14cfb8963f744c6b6aabdeb]
class IvoryTower--><rect codeLine="21" fill="#FEFECE" filter="url(#f8rxgnaegy820)" height="86.8652" id="IvoryTower" style="stroke:#A80036;stroke-width:1.5;" width="165" x="704.5" y="47.48"/><ellipse cx="751.25" cy="63.48" fill="#ADD1B2" rx="11" ry="11" style="stroke:#A80036;stroke-width:1.0;"/><path d="M753.7231,69.6231 Q753.1421,69.9219 752.5029,70.0713 Q751.8638,70.2207 751.1582,70.2207 Q748.6514,70.2207 747.3315,68.5689 Q746.0117,66.917 746.0117,63.7959 Q746.0117,60.6665 747.3315,59.0147 Q748.6514,57.3628 751.1582,57.3628 Q751.8638,57.3628 752.5112,57.5122 Q753.1587,57.6616 753.7231,57.9605 L753.7231,60.6831 Q753.0923,60.1021 752.4988,59.8323 Q751.9053,59.5625 751.2744,59.5625 Q749.9297,59.5625 749.2449,60.6292 Q748.5601,61.6958 748.5601,63.7959 Q748.5601,65.8877 749.2449,66.9544 Q749.9297,68.021 751.2744,68.021 Q751.9053,68.021 752.4988,67.7512 Q753.0923,67.4815 753.7231,66.9004 Z " fill="#000000"/><text fill="#000000" font-family="sans-serif" font-size="12" lengthAdjust="spacing" textLength="63" x="771.75" y="68.0152">IvoryTower</text><line style="stroke:#A80036;stroke-width:1.5;" x1="705.5" x2="868.5" y1="79.48" y2="79.48"/><rect fill="none" height="6" style="stroke:#C82930;stroke-width:1.0;" width="6" x="712.5" y="87.48"/><text fill="#000000" font-family="sans-serif" font-size="11" lengthAdjust="spacing" text-decoration="underline" textLength="123" x="724.5" y="94.1148">INSTANCE : IvoryTower</text><line style="stroke:#A80036;stroke-width:1.5;" x1="705.5" x2="868.5" y1="100.4351" y2="100.4351"/><rect fill="#F24D5C" height="6" style="stroke:#C82930;stroke-width:1.0;" width="6" x="712.5" y="108.4351"/><text fill="#000000" font-family="sans-serif" font-size="11" lengthAdjust="spacing" textLength="68" x="724.5" y="115.0698">IvoryTower()</text><ellipse cx="715.5" cy="124.3902" fill="#84BE84" rx="3" ry="3" style="stroke:#038048;stroke-width:1.0;"/><text fill="#000000" font-family="sans-serif" font-size="11" lengthAdjust="spacing" text-decoration="underline" textLength="139" x="724.5" y="128.0249">getInstance() : IvoryTower</text><!--MD5=[3a93b59aef1cdf1f06660182dbdcc16a]
class ThreadSafeDoubleCheckLocking--><rect codeLine="26" fill="#FEFECE" filter="url(#f8rxgnaegy820)" height="99.8203" id="ThreadSafeDoubleCheckLocking" style="stroke:#A80036;stroke-width:1.5;" width="278" x="373" y="41"/><ellipse cx="415.45" cy="57" fill="#ADD1B2" rx="11" ry="11" style="stroke:#A80036;stroke-width:1.0;"/><path d="M417.9231,63.1431 Q417.3421,63.4419 416.7029,63.5913 Q416.0638,63.7407 415.3582,63.7407 Q412.8514,63.7407 411.5315,62.0889 Q410.2117,60.437 410.2117,57.3159 Q410.2117,54.1865 411.5315,52.5347 Q412.8514,50.8828 415.3582,50.8828 Q416.0638,50.8828 416.7112,51.0322 Q417.3587,51.1816 417.9231,51.4805 L417.9231,54.2031 Q417.2923,53.6221 416.6988,53.3523 Q416.1053,53.0825 415.4744,53.0825 Q414.1297,53.0825 413.4449,54.1492 Q412.7601,55.2158 412.7601,57.3159 Q412.7601,59.4077 413.4449,60.4744 Q414.1297,61.541 415.4744,61.541 Q416.1053,61.541 416.6988,61.2712 Q417.2923,61.0015 417.9231,60.4204 Z " fill="#000000"/><text fill="#000000" font-family="sans-serif" font-size="12" lengthAdjust="spacing" textLength="185" x="435.55" y="61.5352">ThreadSafeDoubleCheckLocking</text><line style="stroke:#A80036;stroke-width:1.5;" x1="374" x2="650" y1="73" y2="73"/><rect fill="none" height="6" style="stroke:#C82930;stroke-width:1.0;" width="6" x="381" y="81"/><text fill="#000000" font-family="sans-serif" font-size="11" lengthAdjust="spacing" text-decoration="underline" textLength="72" x="393" y="87.6348">flag : boolean</text><rect fill="none" height="6" style="stroke:#C82930;stroke-width:1.0;" width="6" x="381" y="93.9551"/><text fill="#000000" font-family="sans-serif" font-size="11" lengthAdjust="spacing" text-decoration="underline" textLength="227" x="393" y="100.5898">instance : ThreadSafeDoubleCheckLocking</text><line style="stroke:#A80036;stroke-width:1.5;" x1="374" x2="650" y1="106.9102" y2="106.9102"/><rect fill="#F24D5C" height="6" style="stroke:#C82930;stroke-width:1.0;" width="6" x="381" y="114.9102"/><text fill="#000000" font-family="sans-serif" font-size="11" lengthAdjust="spacing" textLength="181" x="393" y="121.5449">ThreadSafeDoubleCheckLocking()</text><ellipse cx="384" cy="130.8652" fill="#84BE84" rx="3" ry="3" style="stroke:#038048;stroke-width:1.0;"/><text fill="#000000" font-family="sans-serif" font-size="11" lengthAdjust="spacing" text-decoration="underline" textLength="252" x="393" y="134.5">getInstance() : ThreadSafeDoubleCheckLocking</text><!--MD5=[a20bd8804f4eca3348257d814cad5489]
class ThreadSafeLazyLoadedIvoryTower--><rect codeLine="32" fill="#FEFECE" filter="url(#f8rxgnaegy820)" height="86.8652" id="ThreadSafeLazyLoadedIvoryTower" style="stroke:#A80036;stroke-width:1.5;" width="288" x="32" y="47.48"/><ellipse cx="73.1" cy="63.48" fill="#ADD1B2" rx="11" ry="11" style="stroke:#A80036;stroke-width:1.0;"/><path d="M75.5731,69.6231 Q74.9921,69.9219 74.3529,70.0713 Q73.7138,70.2207 73.0082,70.2207 Q70.5014,70.2207 69.1815,68.5689 Q67.8617,66.917 67.8617,63.7959 Q67.8617,60.6665 69.1815,59.0147 Q70.5014,57.3628 73.0082,57.3628 Q73.7138,57.3628 74.3612,57.5122 Q75.0087,57.6616 75.5731,57.9605 L75.5731,60.6831 Q74.9423,60.1021 74.3488,59.8323 Q73.7553,59.5625 73.1244,59.5625 Q71.7797,59.5625 71.0949,60.6292 Q70.4101,61.6958 70.4101,63.7959 Q70.4101,65.8877 71.0949,66.9544 Q71.7797,68.021 73.1244,68.021 Q73.7553,68.021 74.3488,67.7512 Q74.9423,67.4815 75.5731,66.9004 Z " fill="#000000"/><text fill="#000000" font-family="sans-serif" font-size="12" lengthAdjust="spacing" textLength="198" x="92.9" y="68.0152">ThreadSafeLazyLoadedIvoryTower</text><line style="stroke:#A80036;stroke-width:1.5;" x1="33" x2="319" y1="79.48" y2="79.48"/><rect fill="none" height="6" style="stroke:#C82930;stroke-width:1.0;" width="6" x="40" y="87.48"/><text fill="#000000" font-family="sans-serif" font-size="11" lengthAdjust="spacing" text-decoration="underline" textLength="237" x="52" y="94.1148">instance : ThreadSafeLazyLoadedIvoryTower</text><line style="stroke:#A80036;stroke-width:1.5;" x1="33" x2="319" y1="100.4351" y2="100.4351"/><rect fill="#F24D5C" height="6" style="stroke:#C82930;stroke-width:1.0;" width="6" x="40" y="108.4351"/><text fill="#000000" font-family="sans-serif" font-size="11" lengthAdjust="spacing" textLength="191" x="52" y="115.0698">ThreadSafeLazyLoadedIvoryTower()</text><ellipse cx="43" cy="124.3902" fill="#84BE84" rx="3" ry="3" style="stroke:#038048;stroke-width:1.0;"/><text fill="#000000" font-family="sans-serif" font-size="11" lengthAdjust="spacing" text-decoration="underline" textLength="262" x="52" y="128.0249">getInstance() : ThreadSafeLazyLoadedIvoryTower</text><!--MD5=[41e598a8b9d2497c00e037935f927c0b]
link IvoryTower to IvoryTower--><path codeLine="38" d="M869.9,63.86 C889.77,65.97 904.5,74.99 904.5,90.91 C904.5,105.21 892.61,113.94 875.78,117.1 " fill="none" id="IvoryTower-to-IvoryTower" style="stroke:#A80036;stroke-width:1.0;"/><polygon fill="#A80036" points="870.9,117.96,880.3871,120.6048,875.8466,117.2309,879.2205,112.6903,870.9,117.96" style="stroke:#A80036;stroke-width:1.0;"/><text fill="#000000" font-family="sans-serif" font-size="13" lengthAdjust="spacing" textLength="72" x="877.8087" y="152.2987">-INSTANCE</text><!--MD5=[2afedfd990b2f2f6dd58f6b6a0dec0cd]
link ThreadSafeDoubleCheckLocking to ThreadSafeDoubleCheckLocking--><path codeLine="39" d="M651.25,65.93 C671.98,69.82 686,78.15 686,90.91 C686,102.48 674.49,110.4 656.9,114.68 " fill="none" id="ThreadSafeDoubleCheckLocking-to-ThreadSafeDoubleCheckLocking" style="stroke:#A80036;stroke-width:1.0;"/><polygon fill="#A80036" points="652.25,115.89,661.8924,117.8962,657.1369,114.8326,660.2005,110.0771,652.25,115.89" style="stroke:#A80036;stroke-width:1.0;"/><text fill="#000000" font-family="sans-serif" font-size="13" lengthAdjust="spacing" textLength="61" x="659.4173" y="119.1451">-instance</text><!--MD5=[22d33edd3ccc9eefc2b00cad93dd5924]
link ThreadSafeLazyLoadedIvoryTower to ThreadSafeLazyLoadedIvoryTower--><path codeLine="40" d="M320.32,66.13 C341.06,70.1 355,78.36 355,90.91 C355,102.28 343.55,110.13 325.97,114.46 " fill="none" id="ThreadSafeLazyLoadedIvoryTower-to-ThreadSafeLazyLoadedIvoryTower" style="stroke:#A80036;stroke-width:1.0;"/><polygon fill="#A80036" points="321.32,115.69,330.9624,117.6962,326.2069,114.6326,329.2705,109.8771,321.32,115.69" style="stroke:#A80036;stroke-width:1.0;"/><text fill="#000000" font-family="sans-serif" font-size="13" lengthAdjust="spacing" textLength="61" x="327.9224" y="118.001">-instance</text><!--MD5=[44fbfb5cc3944e1801edd5f4e2bb2a26]
link HelperHolder to InitializingOnDemandHolderIdiom--><path codeLine="41" d="M1046.79,128.09 C1045.2,145.2 1044.84,165.95 1045.71,184.72 " fill="none" id="HelperHolder-to-InitializingOnDemandHolderIdiom" style="stroke:#A80036;stroke-width:1.0;stroke-dasharray:7.0,7.0;"/><ellipse cx="1046.2493" cy="191.5683" fill="#FFFFFF" rx="8" ry="8" style="stroke:#A80036;stroke-width:1.0;"/><line style="stroke:#A80036;stroke-width:1.0;" x1="1045.7085" x2="1046.79" y1="183.5866" y2="199.55"/><line style="stroke:#A80036;stroke-width:1.0;" x1="1054.231" x2="1038.2676" y1="191.0276" y2="192.109"/><!--MD5=[44fbfb5cc3944e1801edd5f4e2bb2a26]
link HelperHolder to InitializingOnDemandHolderIdiom--><path codeLine="42" d="M1069.87,128.09 C1071.86,148.31 1072.03,173.62 1070.38,194.72 " fill="none" id="HelperHolder-to-InitializingOnDemandHolderIdiom-1" style="stroke:#A80036;stroke-width:1.0;"/><polygon fill="#A80036" points="1069.87,199.55,1074.6282,190.9268,1070.2994,194.5685,1066.6578,190.2397,1069.87,199.55" style="stroke:#A80036;stroke-width:1.0;"/><text fill="#000000" font-family="sans-serif" font-size="13" lengthAdjust="spacing" textLength="72" x="993.5718" y="190.1794">-INSTANCE</text><!--MD5=[03a5fd9aa3cdcebcdb012c1d5a938c5a]
@startuml
package com.yonatankarp.singleton {
  class App {
    - logger: Logger {static}
    + App()
    + main(args : String[]) {static}
  }
  enum EnumIvoryTower {
    + INSTANCE {static}
    + toString() : String
    + valueOf(name : String) : EnumIvoryTower {static}
    + values() : EnumIvoryTower[] {static}
  }
  class InitializingOnDemandHolderIdiom {
    - InitializingOnDemandHolderIdiom()
    + getInstance() : InitializingOnDemandHolderIdiom {static}
  }
  -class HelperHolder {
    - INSTANCE : InitializingOnDemandHolderIdiom {static}
    - HelperHolder()
  }
  class IvoryTower {
    - INSTANCE : IvoryTower {static}
    - IvoryTower()
    + getInstance() : IvoryTower {static}
  }
  class ThreadSafeDoubleCheckLocking {
    - flag : boolean {static}
    - instance : ThreadSafeDoubleCheckLocking {static}
    - ThreadSafeDoubleCheckLocking()
    + getInstance() : ThreadSafeDoubleCheckLocking {static}
  }
  class ThreadSafeLazyLoadedIvoryTower {
    - instance : ThreadSafeLazyLoadedIvoryTower {static}
    - ThreadSafeLazyLoadedIvoryTower()
    + getInstance() : ThreadSafeLazyLoadedIvoryTower {static}
  }
}
IvoryTower - ->  "-INSTANCE" IvoryTower
ThreadSafeDoubleCheckLocking - ->  "-instance" ThreadSafeDoubleCheckLocking
ThreadSafeLazyLoadedIvoryTower - ->  "-instance" ThreadSafeLazyLoadedIvoryTower
HelperHolder ..+ InitializingOnDemandHolderIdiom
HelperHolder - ->  "-INSTANCE" InitializingOnDemandHolderIdiom
@enduml

PlantUML version 1.2021.16(Wed Dec 08 18:25:22 CET 2021)
(GPL source distribution)
Java Runtime: OpenJDK Runtime Environment
JVM: OpenJDK 64-Bit Server VM
Default Encoding: UTF-8
Language: en
Country: DE
--></g></svg>