<?xml version="1.0" encoding="UTF-8" standalone="no"?><svg xmlns="http://www.w3.org/2000/svg" xmlns:xlink="http://www.w3.org/1999/xlink" contentScriptType="application/ecmascript" contentStyleType="text/css" height="336px" preserveAspectRatio="none" style="width:579px;height:336px;background:#FFFFFF;" version="1.1" viewBox="0 0 579 336" width="579px" zoomAndPan="magnify"><defs><filter height="300%" id="f13xn2jwg930y4" width="300%" x="-1" y="-1"><feGaussianBlur result="blurOut" stdDeviation="2.0"/><feColorMatrix in="blurOut" result="blurOut2" type="matrix" values="0 0 0 0 0 0 0 0 0 0 0 0 0 0 0 0 0 0 .4 0"/><feOffset dx="4.0" dy="4.0" in="blurOut2" result="blurOut3"/><feBlend in="SourceGraphic" in2="blurOut3" mode="normal"/></filter></defs><g><!--MD5=[79329777b9d6c32b5f5c67114dd67b4f]
cluster com.yonatankarp.adapter--><polygon fill="#FFFFFF" filter="url(#f13xn2jwg930y4)" points="16,6,201,6,208,28.4883,562,28.4883,562,329.87,16,329.87,16,6" style="stroke:#000000;stroke-width:1.5;"/><line style="stroke:#000000;stroke-width:1.5;" x1="16" x2="208" y1="28.4883" y2="28.4883"/><text fill="#000000" font-family="sans-serif" font-size="14" font-weight="bold" lengthAdjust="spacing" textLength="179" x="20" y="21.5352">com.yonatankarp.adapter</text><!--MD5=[335f4d9be48430461c68bf6d6fdba145]
class App--><rect codeLine="2" fill="#FEFECE" filter="url(#f13xn2jwg930y4)" height="73.9102" id="App" style="stroke:#A80036;stroke-width:1.5;" width="133" x="413.5" y="47.48"/><ellipse cx="463.75" cy="63.48" fill="#ADD1B2" rx="11" ry="11" style="stroke:#A80036;stroke-width:1.0;"/><path d="M466.2231,69.6231 Q465.6421,69.9219 465.0029,70.0713 Q464.3638,70.2207 463.6582,70.2207 Q461.1514,70.2207 459.8315,68.5689 Q458.5117,66.917 458.5117,63.7959 Q458.5117,60.6665 459.8315,59.0147 Q461.1514,57.3628 463.6582,57.3628 Q464.3638,57.3628 465.0112,57.5122 Q465.6587,57.6616 466.2231,57.9605 L466.2231,60.6831 Q465.5923,60.1021 464.9988,59.8323 Q464.4053,59.5625 463.7744,59.5625 Q462.4297,59.5625 461.7449,60.6292 Q461.0601,61.6958 461.0601,63.7959 Q461.0601,65.8877 461.7449,66.9544 Q462.4297,68.021 463.7744,68.021 Q464.4053,68.021 464.9988,67.7512 Q465.5923,67.4815 466.2231,66.9004 Z " fill="#000000"/><text fill="#000000" font-family="sans-serif" font-size="12" lengthAdjust="spacing" textLength="24" x="484.25" y="68.0152">App</text><line style="stroke:#A80036;stroke-width:1.5;" x1="414.5" x2="545.5" y1="79.48" y2="79.48"/><line style="stroke:#A80036;stroke-width:1.5;" x1="414.5" x2="545.5" y1="87.48" y2="87.48"/><rect fill="#F24D5C" height="6" style="stroke:#C82930;stroke-width:1.0;" width="6" x="421.5" y="95.48"/><text fill="#000000" font-family="sans-serif" font-size="11" lengthAdjust="spacing" textLength="30" x="433.5" y="102.1148">App()</text><ellipse cx="424.5" cy="111.4351" fill="#84BE84" rx="3" ry="3" style="stroke:#038048;stroke-width:1.0;"/><text fill="#000000" font-family="sans-serif" font-size="11" lengthAdjust="spacing" text-decoration="underline" textLength="107" x="433.5" y="115.0698">main(args : String[])</text><!--MD5=[e1665daf6915d178d93765c8a3060919]
class Captain--><rect codeLine="6" fill="#FEFECE" filter="url(#f13xn2jwg930y4)" height="86.8652" id="Captain" style="stroke:#A80036;stroke-width:1.5;" width="170" x="209" y="41"/><ellipse cx="267.75" cy="57" fill="#ADD1B2" rx="11" ry="11" style="stroke:#A80036;stroke-width:1.0;"/><path d="M270.2231,63.1431 Q269.6421,63.4419 269.0029,63.5913 Q268.3638,63.7407 267.6582,63.7407 Q265.1514,63.7407 263.8315,62.0889 Q262.5117,60.437 262.5117,57.3159 Q262.5117,54.1865 263.8315,52.5347 Q265.1514,50.8828 267.6582,50.8828 Q268.3638,50.8828 269.0112,51.0322 Q269.6587,51.1816 270.2231,51.4805 L270.2231,54.2031 Q269.5923,53.6221 268.9988,53.3523 Q268.4053,53.0825 267.7744,53.0825 Q266.4297,53.0825 265.7449,54.1492 Q265.0601,55.2158 265.0601,57.3159 Q265.0601,59.4077 265.7449,60.4744 Q266.4297,61.541 267.7744,61.541 Q268.4053,61.541 268.9988,61.2712 Q269.5923,61.0015 270.2231,60.4204 Z " fill="#000000"/><text fill="#000000" font-family="sans-serif" font-size="12" lengthAdjust="spacing" textLength="44" x="288.25" y="61.5352">Captain</text><line style="stroke:#A80036;stroke-width:1.5;" x1="210" x2="378" y1="73" y2="73"/><rect fill="none" height="6" style="stroke:#C82930;stroke-width:1.0;" width="6" x="217" y="81"/><text fill="#000000" font-family="sans-serif" font-size="11" lengthAdjust="spacing" textLength="131" x="229" y="87.6348">rowingBoat : RowingBoat</text><line style="stroke:#A80036;stroke-width:1.5;" x1="210" x2="378" y1="93.9551" y2="93.9551"/><ellipse cx="220" cy="104.9551" fill="#84BE84" rx="3" ry="3" style="stroke:#038048;stroke-width:1.0;"/><text fill="#000000" font-family="sans-serif" font-size="11" lengthAdjust="spacing" textLength="144" x="229" y="108.5898">Captain(boat : RowingBoat)</text><polygon fill="#4177AF" points="220,113.9102,216,119.9102,224,119.9102" style="stroke:#1963A0;stroke-width:1.0;"/><text fill="#000000" font-family="sans-serif" font-size="11" lengthAdjust="spacing" textLength="28" x="229" y="121.5449">row()</text><!--MD5=[bca2c3d9ff9df1f6765c82544459eb70]
class FishingBoat--><rect codeLine="11" fill="#FEFECE" filter="url(#f13xn2jwg930y4)" height="86.8652" id="FishingBoat" style="stroke:#A80036;stroke-width:1.5;" width="108" x="56" y="207.87"/><ellipse cx="71.45" cy="223.87" fill="#ADD1B2" rx="11" ry="11" style="stroke:#A80036;stroke-width:1.0;"/><path d="M73.9231,230.0131 Q73.3421,230.3119 72.7029,230.4613 Q72.0638,230.6107 71.3582,230.6107 Q68.8514,230.6107 67.5315,228.9589 Q66.2117,227.307 66.2117,224.1859 Q66.2117,221.0565 67.5315,219.4047 Q68.8514,217.7528 71.3582,217.7528 Q72.0638,217.7528 72.7112,217.9022 Q73.3587,218.0516 73.9231,218.3505 L73.9231,221.0731 Q73.2923,220.4921 72.6988,220.2223 Q72.1053,219.9525 71.4744,219.9525 Q70.1297,219.9525 69.4449,221.0192 Q68.7601,222.0858 68.7601,224.1859 Q68.7601,226.2777 69.4449,227.3444 Q70.1297,228.411 71.4744,228.411 Q72.1053,228.411 72.6988,228.1412 Q73.2923,227.8715 73.9231,227.2904 Z " fill="#000000"/><polygon fill="#4177AF" points="90.55,219.37,86.55,225.37,94.55,225.37" style="stroke:#1963A0;stroke-width:1.0;"/><text fill="#000000" font-family="sans-serif" font-size="12" lengthAdjust="spacing" textLength="64" x="96.55" y="228.4052">FishingBoat</text><line style="stroke:#A80036;stroke-width:1.5;" x1="57" x2="163" y1="239.87" y2="239.87"/><rect fill="none" height="6" style="stroke:#C82930;stroke-width:1.0;" width="6" x="64" y="247.87"/><text fill="#000000" font-family="sans-serif" font-size="11" lengthAdjust="spacing" text-decoration="underline" textLength="82" x="76" y="254.5048">logger : Logger</text><line style="stroke:#A80036;stroke-width:1.5;" x1="57" x2="163" y1="260.8251" y2="260.8251"/><polygon fill="#4177AF" points="67,267.8251,63,273.8251,71,273.8251" style="stroke:#1963A0;stroke-width:1.0;"/><text fill="#000000" font-family="sans-serif" font-size="11" lengthAdjust="spacing" textLength="70" x="76" y="275.4598">FishingBoat()</text><polygon fill="#4177AF" points="67,280.7802,63,286.7802,71,286.7802" style="stroke:#1963A0;stroke-width:1.0;"/><text fill="#000000" font-family="sans-serif" font-size="11" lengthAdjust="spacing" textLength="26" x="76" y="288.4149">sail()</text><!--MD5=[8ae358a1dff2e08178b008be9a32e929]
class FishingBoatAdapter--><rect codeLine="16" fill="#FEFECE" filter="url(#f13xn2jwg930y4)" height="73.9102" id="FishingBoatAdapter" style="stroke:#A80036;stroke-width:1.5;" width="143" x="31.5" y="47.48"/><ellipse cx="46.5" cy="63.48" fill="#ADD1B2" rx="11" ry="11" style="stroke:#A80036;stroke-width:1.0;"/><path d="M48.9731,69.6231 Q48.3921,69.9219 47.7529,70.0713 Q47.1138,70.2207 46.4082,70.2207 Q43.9014,70.2207 42.5815,68.5689 Q41.2617,66.917 41.2617,63.7959 Q41.2617,60.6665 42.5815,59.0147 Q43.9014,57.3628 46.4082,57.3628 Q47.1138,57.3628 47.7612,57.5122 Q48.4087,57.6616 48.9731,57.9605 L48.9731,60.6831 Q48.3423,60.1021 47.7488,59.8323 Q47.1553,59.5625 46.5244,59.5625 Q45.1797,59.5625 44.4949,60.6292 Q43.8101,61.6958 43.8101,63.7959 Q43.8101,65.8877 44.4949,66.9544 Q45.1797,68.021 46.5244,68.021 Q47.1553,68.021 47.7488,67.7512 Q48.3423,67.4815 48.9731,66.9004 Z " fill="#000000"/><text fill="#000000" font-family="sans-serif" font-size="12" lengthAdjust="spacing" textLength="111" x="60.5" y="68.0152">FishingBoatAdapter</text><line style="stroke:#A80036;stroke-width:1.5;" x1="32.5" x2="173.5" y1="79.48" y2="79.48"/><rect fill="none" height="6" style="stroke:#C82930;stroke-width:1.0;" width="6" x="39.5" y="87.48"/><text fill="#000000" font-family="sans-serif" font-size="11" lengthAdjust="spacing" textLength="95" x="51.5" y="94.1148">boat : FishingBoat</text><line style="stroke:#A80036;stroke-width:1.5;" x1="32.5" x2="173.5" y1="100.4351" y2="100.4351"/><ellipse cx="42.5" cy="111.4351" fill="#84BE84" rx="3" ry="3" style="stroke:#038048;stroke-width:1.0;"/><text fill="#000000" font-family="sans-serif" font-size="11" lengthAdjust="spacing" textLength="28" x="51.5" y="115.0698">row()</text><!--MD5=[be62644637f116feb21d0075954bf30e]
class RowingBoat--><rect codeLine="20" fill="#FEFECE" filter="url(#f13xn2jwg930y4)" height="60.9551" id="RowingBoat" style="stroke:#A80036;stroke-width:1.5;" width="98" x="247" y="220.87"/><ellipse cx="262" cy="236.87" fill="#B4A7E5" rx="11" ry="11" style="stroke:#A80036;stroke-width:1.0;"/><path d="M258.4277,233.1351 L258.4277,230.9769 L265.8071,230.9769 L265.8071,233.1351 L263.3418,233.1351 L263.3418,241.2118 L265.8071,241.2118 L265.8071,243.37 L258.4277,243.37 L258.4277,241.2118 L260.8931,241.2118 L260.8931,233.1351 Z " fill="#000000"/><text fill="#000000" font-family="sans-serif" font-size="12" font-style="italic" lengthAdjust="spacing" textLength="66" x="276" y="241.4052">RowingBoat</text><line style="stroke:#A80036;stroke-width:1.5;" x1="248" x2="344" y1="252.87" y2="252.87"/><line style="stroke:#A80036;stroke-width:1.5;" x1="248" x2="344" y1="260.87" y2="260.87"/><ellipse cx="258" cy="271.87" fill="#84BE84" rx="3" ry="3" style="stroke:#038048;stroke-width:1.0;"/><text fill="#000000" font-family="sans-serif" font-size="11" font-style="italic" lengthAdjust="spacing" textLength="28" x="267" y="275.5048">row()</text><!--MD5=[a5f689a4dcab0f47960e208d2470e3b2]
link FishingBoatAdapter to FishingBoat--><path codeLine="24" d="M104.54,121.52 C105.54,145.05 106.86,176.04 107.95,201.67 " fill="none" id="FishingBoatAdapter-to-FishingBoat" style="stroke:#A80036;stroke-width:1.0;"/><polygon fill="#A80036" points="108.16,206.55,111.771,197.387,107.9459,201.5546,103.7783,197.7295,108.16,206.55" style="stroke:#A80036;stroke-width:1.0;"/><text fill="#000000" font-family="sans-serif" font-size="13" lengthAdjust="spacing" textLength="36" x="68.9439" y="197.2498">-boat</text><!--MD5=[a006ec9ad9f20120a0459751c88957de]
link Captain to RowingBoat--><path codeLine="25" d="M294.52,128.21 C294.85,155.14 295.27,189.47 295.57,214.79 " fill="none" id="Captain-to-RowingBoat" style="stroke:#A80036;stroke-width:1.0;"/><polygon fill="#A80036" points="295.63,219.51,299.501,210.4538,295.5586,214.5105,291.5018,210.5681,295.63,219.51" style="stroke:#A80036;stroke-width:1.0;"/><text fill="#000000" font-family="sans-serif" font-size="13" lengthAdjust="spacing" textLength="78" x="209.0422" y="210.3597">-rowingBoat</text><!--MD5=[5e402aadbf2ebf16000bad6fd43c5450]
link FishingBoatAdapter to RowingBoat--><path codeLine="26" d="M145.35,121.52 C174.94,146.73 214.56,180.49 245.75,207.06 " fill="none" id="FishingBoatAdapter-to-RowingBoat" style="stroke:#A80036;stroke-width:1.0;stroke-dasharray:7.0,7.0;"/><polygon fill="none" points="250.25,201.7,260.94,220,241.17,212.35,250.25,201.7" style="stroke:#A80036;stroke-width:1.0;"/><!--MD5=[e5b2643de98342505210c326c0622386]
@startuml
package com.yonatankarp.adapter {
  class App {
    - App()
    + main(args : String[]) {static}
  }
  class Captain {
    - rowingBoat : RowingBoat
    + Captain(boat : RowingBoat)
    ~ row()
  }
  ~class FishingBoat {
    - logger : Logger {static}
    ~ FishingBoat()
    ~ sail()
  }
  class FishingBoatAdapter {
    - boat : FishingBoat
    + row()
  }
  interface RowingBoat {
    + row() {abstract}
  }
}
FishingBoatAdapter - ->  "-boat" FishingBoat
Captain - ->  "-rowingBoat" RowingBoat
FishingBoatAdapter ..|> RowingBoat
@enduml

PlantUML version 1.2021.16(Wed Dec 08 18:25:22 CET 2021)
(GPL source distribution)
Java Runtime: OpenJDK Runtime Environment
JVM: OpenJDK 64-Bit Server VM
Default Encoding: UTF-8
Language: en
Country: DE
--></g></svg>