<?xml version="1.0" encoding="UTF-8" standalone="no"?><svg xmlns="http://www.w3.org/2000/svg" xmlns:xlink="http://www.w3.org/1999/xlink" contentScriptType="application/ecmascript" contentStyleType="text/css" height="781px" preserveAspectRatio="none" style="width:1210px;height:781px;background:#FFFFFF;" version="1.1" viewBox="0 0 1210 781" width="1210px" zoomAndPan="magnify"><defs><filter height="300%" id="fvkiyiuru279e" width="300%" x="-1" y="-1"><feGaussianBlur result="blurOut" stdDeviation="2.0"/><feColorMatrix in="blurOut" result="blurOut2" type="matrix" values="0 0 0 0 0 0 0 0 0 0 0 0 0 0 0 0 0 0 .4 0"/><feOffset dx="4.0" dy="4.0" in="blurOut2" result="blurOut3"/><feBlend in="SourceGraphic" in2="blurOut3" mode="normal"/></filter></defs><g><!--MD5=[de9ec9ef86e809826d9b5bac0745bc28]
cluster com.yonatankarp.builder--><polygon fill="#FFFFFF" filter="url(#fvkiyiuru279e)" points="16,6,198,6,205,28.4883,1193,28.4883,1193,774.43,16,774.43,16,6" style="stroke:#000000;stroke-width:1.5;"/><line style="stroke:#000000;stroke-width:1.5;" x1="16" x2="205" y1="28.4883" y2="28.4883"/><text fill="#000000" font-family="sans-serif" font-size="14" font-weight="bold" lengthAdjust="spacing" textLength="176" x="20" y="21.5352">com.yonatankarp.builder</text><!--MD5=[335f4d9be48430461c68bf6d6fdba145]
class App--><rect codeLine="2" fill="#FEFECE" filter="url(#fvkiyiuru279e)" height="60.9551" id="App" style="stroke:#A80036;stroke-width:1.5;" width="133" x="935.5" y="112.26"/><ellipse cx="985.75" cy="128.26" fill="#ADD1B2" rx="11" ry="11" style="stroke:#A80036;stroke-width:1.0;"/><path d="M988.2231,134.4031 Q987.6421,134.7019 987.0029,134.8513 Q986.3638,135.0007 985.6582,135.0007 Q983.1514,135.0007 981.8315,133.3489 Q980.5117,131.697 980.5117,128.5759 Q980.5117,125.4465 981.8315,123.7947 Q983.1514,122.1428 985.6582,122.1428 Q986.3638,122.1428 987.0112,122.2922 Q987.6587,122.4416 988.2231,122.7405 L988.2231,125.4631 Q987.5923,124.8821 986.9988,124.6123 Q986.4053,124.3425 985.7744,124.3425 Q984.4297,124.3425 983.7449,125.4092 Q983.0601,126.4758 983.0601,128.5759 Q983.0601,130.6677 983.7449,131.7344 Q984.4297,132.801 985.7744,132.801 Q986.4053,132.801 986.9988,132.5312 Q987.5923,132.2615 988.2231,131.6804 Z " fill="#000000"/><text fill="#000000" font-family="sans-serif" font-size="12" lengthAdjust="spacing" textLength="24" x="1006.25" y="132.7952">App</text><line style="stroke:#A80036;stroke-width:1.5;" x1="936.5" x2="1067.5" y1="144.26" y2="144.26"/><line style="stroke:#A80036;stroke-width:1.5;" x1="936.5" x2="1067.5" y1="152.26" y2="152.26"/><ellipse cx="946.5" cy="163.26" fill="#84BE84" rx="3" ry="3" style="stroke:#038048;stroke-width:1.0;"/><text fill="#000000" font-family="sans-serif" font-size="11" lengthAdjust="spacing" text-decoration="underline" textLength="107" x="955.5" y="166.8948">main(args : String[])</text><!--MD5=[a702c9cead6b8aebdf2250a28dfa18e7]
class Armor--><rect codeLine="5" fill="#FEFECE" filter="url(#fvkiyiuru279e)" height="151.6406" id="Armor" style="stroke:#A80036;stroke-width:1.5;" width="189" x="32.5" y="600.31"/><ellipse cx="104.75" cy="616.31" fill="#EB937F" rx="11" ry="11" style="stroke:#A80036;stroke-width:1.0;"/><path d="M108.3643,622.81 L100.6445,622.81 L100.6445,610.4169 L108.3643,610.4169 L108.3643,612.5751 L103.0933,612.5751 L103.0933,615.248 L107.8662,615.248 L107.8662,617.4062 L103.0933,617.4062 L103.0933,620.6518 L108.3643,620.6518 Z " fill="#000000"/><text fill="#000000" font-family="sans-serif" font-size="12" lengthAdjust="spacing" textLength="36" x="125.25" y="620.8452">Armor</text><line style="stroke:#A80036;stroke-width:1.5;" x1="33.5" x2="220.5" y1="632.31" y2="632.31"/><ellipse cx="43.5" cy="643.31" rx="3" ry="3" style="stroke:#038048;stroke-width:1.0;fill:none;"/><text fill="#000000" font-family="sans-serif" font-size="11" lengthAdjust="spacing" text-decoration="underline" textLength="67" x="52.5" y="646.9448">CHAIN_MAIL</text><ellipse cx="43.5" cy="656.2651" rx="3" ry="3" style="stroke:#038048;stroke-width:1.0;fill:none;"/><text fill="#000000" font-family="sans-serif" font-size="11" lengthAdjust="spacing" text-decoration="underline" textLength="50" x="52.5" y="659.8998">CLOTHES</text><ellipse cx="43.5" cy="669.2202" rx="3" ry="3" style="stroke:#038048;stroke-width:1.0;fill:none;"/><text fill="#000000" font-family="sans-serif" font-size="11" lengthAdjust="spacing" text-decoration="underline" textLength="48" x="52.5" y="672.8549">LEATHER</text><ellipse cx="43.5" cy="682.1752" rx="3" ry="3" style="stroke:#038048;stroke-width:1.0;fill:none;"/><text fill="#000000" font-family="sans-serif" font-size="11" lengthAdjust="spacing" text-decoration="underline" textLength="65" x="52.5" y="685.81">PLATE_MAIL</text><rect fill="none" height="6" style="stroke:#C82930;stroke-width:1.0;" width="6" x="40.5" y="692.1303"/><text fill="#000000" font-family="sans-serif" font-size="11" lengthAdjust="spacing" textLength="61" x="52.5" y="698.7651">title : String</text><line style="stroke:#A80036;stroke-width:1.5;" x1="33.5" x2="220.5" y1="705.0854" y2="705.0854"/><ellipse cx="43.5" cy="716.0854" fill="#84BE84" rx="3" ry="3" style="stroke:#038048;stroke-width:1.0;"/><text fill="#000000" font-family="sans-serif" font-size="11" lengthAdjust="spacing" textLength="92" x="52.5" y="719.7202">toString() : String</text><ellipse cx="43.5" cy="729.0405" fill="#84BE84" rx="3" ry="3" style="stroke:#038048;stroke-width:1.0;"/><text fill="#000000" font-family="sans-serif" font-size="11" lengthAdjust="spacing" text-decoration="underline" textLength="163" x="52.5" y="732.6752">valueOf(name : String) : Armor</text><ellipse cx="43.5" cy="741.9955" fill="#84BE84" rx="3" ry="3" style="stroke:#038048;stroke-width:1.0;"/><text fill="#000000" font-family="sans-serif" font-size="11" lengthAdjust="spacing" text-decoration="underline" textLength="94" x="52.5" y="745.6303">values() : Armor[]</text><!--MD5=[86775f038f8fb66099e7e0fd0540f10e]
class HairColor--><rect codeLine="15" fill="#FEFECE" filter="url(#fvkiyiuru279e)" height="151.6406" id="HairColor" style="stroke:#A80036;stroke-width:1.5;" width="206" x="256" y="600.31"/><ellipse cx="327.75" cy="616.31" fill="#EB937F" rx="11" ry="11" style="stroke:#A80036;stroke-width:1.0;"/><path d="M331.3643,622.81 L323.6445,622.81 L323.6445,610.4169 L331.3643,610.4169 L331.3643,612.5751 L326.0933,612.5751 L326.0933,615.248 L330.8662,615.248 L330.8662,617.4062 L326.0933,617.4062 L326.0933,620.6518 L331.3643,620.6518 Z " fill="#000000"/><text fill="#000000" font-family="sans-serif" font-size="12" lengthAdjust="spacing" textLength="54" x="348.25" y="620.8452">HairColor</text><line style="stroke:#A80036;stroke-width:1.5;" x1="257" x2="461" y1="632.31" y2="632.31"/><ellipse cx="267" cy="643.31" rx="3" ry="3" style="stroke:#038048;stroke-width:1.0;fill:none;"/><text fill="#000000" font-family="sans-serif" font-size="11" lengthAdjust="spacing" text-decoration="underline" textLength="35" x="276" y="646.9448">BLACK</text><ellipse cx="267" cy="656.2651" rx="3" ry="3" style="stroke:#038048;stroke-width:1.0;fill:none;"/><text fill="#000000" font-family="sans-serif" font-size="11" lengthAdjust="spacing" text-decoration="underline" textLength="37" x="276" y="659.8998">BLOND</text><ellipse cx="267" cy="669.2202" rx="3" ry="3" style="stroke:#038048;stroke-width:1.0;fill:none;"/><text fill="#000000" font-family="sans-serif" font-size="11" lengthAdjust="spacing" text-decoration="underline" textLength="39" x="276" y="672.8549">BROWN</text><ellipse cx="267" cy="682.1752" rx="3" ry="3" style="stroke:#038048;stroke-width:1.0;fill:none;"/><text fill="#000000" font-family="sans-serif" font-size="11" lengthAdjust="spacing" text-decoration="underline" textLength="21" x="276" y="685.81">RED</text><ellipse cx="267" cy="695.1303" rx="3" ry="3" style="stroke:#038048;stroke-width:1.0;fill:none;"/><text fill="#000000" font-family="sans-serif" font-size="11" lengthAdjust="spacing" text-decoration="underline" textLength="33" x="276" y="698.7651">WHITE</text><line style="stroke:#A80036;stroke-width:1.5;" x1="257" x2="461" y1="705.0854" y2="705.0854"/><ellipse cx="267" cy="716.0854" fill="#84BE84" rx="3" ry="3" style="stroke:#038048;stroke-width:1.0;"/><text fill="#000000" font-family="sans-serif" font-size="11" lengthAdjust="spacing" textLength="92" x="276" y="719.7202">toString() : String</text><ellipse cx="267" cy="729.0405" fill="#84BE84" rx="3" ry="3" style="stroke:#038048;stroke-width:1.0;"/><text fill="#000000" font-family="sans-serif" font-size="11" lengthAdjust="spacing" text-decoration="underline" textLength="180" x="276" y="732.6752">valueOf(name : String) : HairColor</text><ellipse cx="267" cy="741.9955" fill="#84BE84" rx="3" ry="3" style="stroke:#038048;stroke-width:1.0;"/><text fill="#000000" font-family="sans-serif" font-size="11" lengthAdjust="spacing" text-decoration="underline" textLength="111" x="276" y="745.6303">values() : HairColor[]</text><!--MD5=[6ab19a67f37618af942880edd00f0de3]
class HairType--><rect codeLine="25" fill="#FEFECE" filter="url(#fvkiyiuru279e)" height="164.5957" id="HairType" style="stroke:#A80036;stroke-width:1.5;" width="202" x="497" y="593.83"/><ellipse cx="567.25" cy="609.83" fill="#EB937F" rx="11" ry="11" style="stroke:#A80036;stroke-width:1.0;"/><path d="M570.8643,616.33 L563.1445,616.33 L563.1445,603.9369 L570.8643,603.9369 L570.8643,606.0951 L565.5933,606.0951 L565.5933,608.768 L570.3662,608.768 L570.3662,610.9262 L565.5933,610.9262 L565.5933,614.1718 L570.8643,614.1718 Z " fill="#000000"/><text fill="#000000" font-family="sans-serif" font-size="12" lengthAdjust="spacing" textLength="53" x="587.75" y="614.3652">HairType</text><line style="stroke:#A80036;stroke-width:1.5;" x1="498" x2="698" y1="625.83" y2="625.83"/><ellipse cx="508" cy="636.83" rx="3" ry="3" style="stroke:#038048;stroke-width:1.0;fill:none;"/><text fill="#000000" font-family="sans-serif" font-size="11" lengthAdjust="spacing" text-decoration="underline" textLength="28" x="517" y="640.4648">BALD</text><ellipse cx="508" cy="649.7851" rx="3" ry="3" style="stroke:#038048;stroke-width:1.0;fill:none;"/><text fill="#000000" font-family="sans-serif" font-size="11" lengthAdjust="spacing" text-decoration="underline" textLength="36" x="517" y="653.4198">CURLY</text><ellipse cx="508" cy="662.7402" rx="3" ry="3" style="stroke:#038048;stroke-width:1.0;fill:none;"/><text fill="#000000" font-family="sans-serif" font-size="11" lengthAdjust="spacing" text-decoration="underline" textLength="73" x="517" y="666.3749">LONG_CURLY</text><ellipse cx="508" cy="675.6952" rx="3" ry="3" style="stroke:#038048;stroke-width:1.0;fill:none;"/><text fill="#000000" font-family="sans-serif" font-size="11" lengthAdjust="spacing" text-decoration="underline" textLength="91" x="517" y="679.33">LONG_STRAIGHT</text><ellipse cx="508" cy="688.6503" rx="3" ry="3" style="stroke:#038048;stroke-width:1.0;fill:none;"/><text fill="#000000" font-family="sans-serif" font-size="11" lengthAdjust="spacing" text-decoration="underline" textLength="37" x="517" y="692.2851">SHORT</text><rect fill="none" height="6" style="stroke:#C82930;stroke-width:1.0;" width="6" x="505" y="698.6054"/><text fill="#000000" font-family="sans-serif" font-size="11" lengthAdjust="spacing" textLength="61" x="517" y="705.2402">title : String</text><line style="stroke:#A80036;stroke-width:1.5;" x1="498" x2="698" y1="711.5605" y2="711.5605"/><ellipse cx="508" cy="722.5605" fill="#84BE84" rx="3" ry="3" style="stroke:#038048;stroke-width:1.0;"/><text fill="#000000" font-family="sans-serif" font-size="11" lengthAdjust="spacing" textLength="92" x="517" y="726.1952">toString() : String</text><ellipse cx="508" cy="735.5155" fill="#84BE84" rx="3" ry="3" style="stroke:#038048;stroke-width:1.0;"/><text fill="#000000" font-family="sans-serif" font-size="11" lengthAdjust="spacing" text-decoration="underline" textLength="176" x="517" y="739.1503">valueOf(name : String) : HairType</text><ellipse cx="508" cy="748.4706" fill="#84BE84" rx="3" ry="3" style="stroke:#038048;stroke-width:1.0;"/><text fill="#000000" font-family="sans-serif" font-size="11" lengthAdjust="spacing" text-decoration="underline" textLength="107" x="517" y="752.1054">values() : HairType[]</text><!--MD5=[83d663719cacb629c6960fa896b4e935]
class Profession--><rect codeLine="36" fill="#FEFECE" filter="url(#fvkiyiuru279e)" height="138.6855" id="Profession" style="stroke:#A80036;stroke-width:1.5;" width="211" x="734.5" y="606.79"/><ellipse cx="806.25" cy="622.79" fill="#EB937F" rx="11" ry="11" style="stroke:#A80036;stroke-width:1.0;"/><path d="M809.8643,629.29 L802.1445,629.29 L802.1445,616.8969 L809.8643,616.8969 L809.8643,619.0551 L804.5933,619.0551 L804.5933,621.728 L809.3662,621.728 L809.3662,623.8862 L804.5933,623.8862 L804.5933,627.1318 L809.8643,627.1318 Z " fill="#000000"/><text fill="#000000" font-family="sans-serif" font-size="12" lengthAdjust="spacing" textLength="59" x="826.75" y="627.3252">Profession</text><line style="stroke:#A80036;stroke-width:1.5;" x1="735.5" x2="944.5" y1="638.79" y2="638.79"/><ellipse cx="745.5" cy="649.79" rx="3" ry="3" style="stroke:#038048;stroke-width:1.0;fill:none;"/><text fill="#000000" font-family="sans-serif" font-size="11" lengthAdjust="spacing" text-decoration="underline" textLength="31" x="754.5" y="653.4248">MAGE</text><ellipse cx="745.5" cy="662.7451" rx="3" ry="3" style="stroke:#038048;stroke-width:1.0;fill:none;"/><text fill="#000000" font-family="sans-serif" font-size="11" lengthAdjust="spacing" text-decoration="underline" textLength="35" x="754.5" y="666.3798">PRIEST</text><ellipse cx="745.5" cy="675.7002" rx="3" ry="3" style="stroke:#038048;stroke-width:1.0;fill:none;"/><text fill="#000000" font-family="sans-serif" font-size="11" lengthAdjust="spacing" text-decoration="underline" textLength="30" x="754.5" y="679.3349">THIEF</text><ellipse cx="745.5" cy="688.6552" rx="3" ry="3" style="stroke:#038048;stroke-width:1.0;fill:none;"/><text fill="#000000" font-family="sans-serif" font-size="11" lengthAdjust="spacing" text-decoration="underline" textLength="50" x="754.5" y="692.29">WARRIOR</text><line style="stroke:#A80036;stroke-width:1.5;" x1="735.5" x2="944.5" y1="698.6103" y2="698.6103"/><ellipse cx="745.5" cy="709.6103" fill="#84BE84" rx="3" ry="3" style="stroke:#038048;stroke-width:1.0;"/><text fill="#000000" font-family="sans-serif" font-size="11" lengthAdjust="spacing" textLength="92" x="754.5" y="713.2451">toString() : String</text><ellipse cx="745.5" cy="722.5654" fill="#84BE84" rx="3" ry="3" style="stroke:#038048;stroke-width:1.0;"/><text fill="#000000" font-family="sans-serif" font-size="11" lengthAdjust="spacing" text-decoration="underline" textLength="185" x="754.5" y="726.2002">valueOf(name : String) : Profession</text><ellipse cx="745.5" cy="735.5205" fill="#84BE84" rx="3" ry="3" style="stroke:#038048;stroke-width:1.0;"/><text fill="#000000" font-family="sans-serif" font-size="11" lengthAdjust="spacing" text-decoration="underline" textLength="116" x="754.5" y="739.1552">values() : Profession[]</text><!--MD5=[a3f6aaa3f93db2c29fed664e0312b4de]
class Weapon--><rect codeLine="45" fill="#FEFECE" filter="url(#fvkiyiuru279e)" height="151.6406" id="Weapon" style="stroke:#A80036;stroke-width:1.5;" width="196" x="981" y="600.31"/><ellipse cx="1051.75" cy="616.31" fill="#EB937F" rx="11" ry="11" style="stroke:#A80036;stroke-width:1.0;"/><path d="M1055.3643,622.81 L1047.6445,622.81 L1047.6445,610.4169 L1055.3643,610.4169 L1055.3643,612.5751 L1050.0933,612.5751 L1050.0933,615.248 L1054.8662,615.248 L1054.8662,617.4062 L1050.0933,617.4062 L1050.0933,620.6518 L1055.3643,620.6518 Z " fill="#000000"/><text fill="#000000" font-family="sans-serif" font-size="12" lengthAdjust="spacing" textLength="46" x="1072.25" y="620.8452">Weapon</text><line style="stroke:#A80036;stroke-width:1.5;" x1="982" x2="1176" y1="632.31" y2="632.31"/><ellipse cx="992" cy="643.31" rx="3" ry="3" style="stroke:#038048;stroke-width:1.0;fill:none;"/><text fill="#000000" font-family="sans-serif" font-size="11" lengthAdjust="spacing" text-decoration="underline" textLength="21" x="1001" y="646.9448">AXE</text><ellipse cx="992" cy="656.2651" rx="3" ry="3" style="stroke:#038048;stroke-width:1.0;fill:none;"/><text fill="#000000" font-family="sans-serif" font-size="11" lengthAdjust="spacing" text-decoration="underline" textLength="24" x="1001" y="659.8998">BOW</text><ellipse cx="992" cy="669.2202" rx="3" ry="3" style="stroke:#038048;stroke-width:1.0;fill:none;"/><text fill="#000000" font-family="sans-serif" font-size="11" lengthAdjust="spacing" text-decoration="underline" textLength="45" x="1001" y="672.8549">DAGGER</text><ellipse cx="992" cy="682.1752" rx="3" ry="3" style="stroke:#038048;stroke-width:1.0;fill:none;"/><text fill="#000000" font-family="sans-serif" font-size="11" lengthAdjust="spacing" text-decoration="underline" textLength="39" x="1001" y="685.81">SWORD</text><ellipse cx="992" cy="695.1303" rx="3" ry="3" style="stroke:#038048;stroke-width:1.0;fill:none;"/><text fill="#000000" font-family="sans-serif" font-size="11" lengthAdjust="spacing" text-decoration="underline" textLength="71" x="1001" y="698.7651">WARHAMMER</text><line style="stroke:#A80036;stroke-width:1.5;" x1="982" x2="1176" y1="705.0854" y2="705.0854"/><ellipse cx="992" cy="716.0854" fill="#84BE84" rx="3" ry="3" style="stroke:#038048;stroke-width:1.0;"/><text fill="#000000" font-family="sans-serif" font-size="11" lengthAdjust="spacing" textLength="92" x="1001" y="719.7202">toString() : String</text><ellipse cx="992" cy="729.0405" fill="#84BE84" rx="3" ry="3" style="stroke:#038048;stroke-width:1.0;"/><text fill="#000000" font-family="sans-serif" font-size="11" lengthAdjust="spacing" text-decoration="underline" textLength="170" x="1001" y="732.6752">valueOf(name : String) : Weapon</text><ellipse cx="992" cy="741.9955" fill="#84BE84" rx="3" ry="3" style="stroke:#038048;stroke-width:1.0;"/><text fill="#000000" font-family="sans-serif" font-size="11" lengthAdjust="spacing" text-decoration="underline" textLength="101" x="1001" y="745.6303">values() : Weapon[]</text><!--MD5=[666ab4d123c8a4db535fefed801ea066]
class Hero--><rect codeLine="55" fill="#FEFECE" filter="url(#fvkiyiuru279e)" height="229.3711" id="Hero" style="stroke:#A80036;stroke-width:1.5;" width="174" x="541" y="304.46"/><ellipse cx="609.75" cy="320.46" fill="#ADD1B2" rx="11" ry="11" style="stroke:#A80036;stroke-width:1.0;"/><path d="M612.2231,326.6031 Q611.6421,326.9019 611.0029,327.0513 Q610.3638,327.2007 609.6582,327.2007 Q607.1514,327.2007 605.8315,325.5489 Q604.5117,323.897 604.5117,320.7759 Q604.5117,317.6465 605.8315,315.9947 Q607.1514,314.3428 609.6582,314.3428 Q610.3638,314.3428 611.0112,314.4922 Q611.6587,314.6416 612.2231,314.9405 L612.2231,317.6631 Q611.5923,317.0821 610.9988,316.8123 Q610.4053,316.5425 609.7744,316.5425 Q608.4297,316.5425 607.7449,317.6092 Q607.0601,318.6758 607.0601,320.7759 Q607.0601,322.8677 607.7449,323.9344 Q608.4297,325.001 609.7744,325.001 Q610.4053,325.001 610.9988,324.7312 Q611.5923,324.4615 612.2231,323.8804 Z " fill="#000000"/><text fill="#000000" font-family="sans-serif" font-size="12" lengthAdjust="spacing" textLength="28" x="630.25" y="324.9952">Hero</text><line style="stroke:#A80036;stroke-width:1.5;" x1="542" x2="714" y1="336.46" y2="336.46"/><rect fill="none" height="6" style="stroke:#C82930;stroke-width:1.0;" width="6" x="549" y="344.46"/><text fill="#000000" font-family="sans-serif" font-size="11" lengthAdjust="spacing" textLength="77" x="561" y="351.0948">armor : Armor</text><rect fill="none" height="6" style="stroke:#C82930;stroke-width:1.0;" width="6" x="549" y="357.4151"/><text fill="#000000" font-family="sans-serif" font-size="11" lengthAdjust="spacing" textLength="112" x="561" y="364.0498">hairColor : HairColor</text><rect fill="none" height="6" style="stroke:#C82930;stroke-width:1.0;" width="6" x="549" y="370.3702"/><text fill="#000000" font-family="sans-serif" font-size="11" lengthAdjust="spacing" textLength="104" x="561" y="377.0049">hairType : HairType</text><rect fill="none" height="6" style="stroke:#C82930;stroke-width:1.0;" width="6" x="549" y="383.3252"/><text fill="#000000" font-family="sans-serif" font-size="11" lengthAdjust="spacing" textLength="70" x="561" y="389.96">name : String</text><rect fill="none" height="6" style="stroke:#C82930;stroke-width:1.0;" width="6" x="549" y="396.2803"/><text fill="#000000" font-family="sans-serif" font-size="11" lengthAdjust="spacing" textLength="124" x="561" y="402.9151">profession : Profession</text><rect fill="none" height="6" style="stroke:#C82930;stroke-width:1.0;" width="6" x="549" y="409.2354"/><text fill="#000000" font-family="sans-serif" font-size="11" lengthAdjust="spacing" textLength="92" x="561" y="415.8702">weapon : Weapon</text><line style="stroke:#A80036;stroke-width:1.5;" x1="542" x2="714" y1="422.1905" y2="422.1905"/><rect fill="#F24D5C" height="6" style="stroke:#C82930;stroke-width:1.0;" width="6" x="549" y="430.1905"/><text fill="#000000" font-family="sans-serif" font-size="11" lengthAdjust="spacing" textLength="118" x="561" y="436.8252">Hero(builder : Builder)</text><ellipse cx="552" cy="446.1455" fill="#84BE84" rx="3" ry="3" style="stroke:#038048;stroke-width:1.0;"/><text fill="#000000" font-family="sans-serif" font-size="11" lengthAdjust="spacing" textLength="104" x="561" y="449.7803">getArmor() : Armor</text><ellipse cx="552" cy="459.1006" fill="#84BE84" rx="3" ry="3" style="stroke:#038048;stroke-width:1.0;"/><text fill="#000000" font-family="sans-serif" font-size="11" lengthAdjust="spacing" textLength="138" x="561" y="462.7354">getHairColor() : HairColor</text><ellipse cx="552" cy="472.0557" fill="#84BE84" rx="3" ry="3" style="stroke:#038048;stroke-width:1.0;"/><text fill="#000000" font-family="sans-serif" font-size="11" lengthAdjust="spacing" textLength="130" x="561" y="475.6905">getHairType() : HairType</text><ellipse cx="552" cy="485.0108" fill="#84BE84" rx="3" ry="3" style="stroke:#038048;stroke-width:1.0;"/><text fill="#000000" font-family="sans-serif" font-size="11" lengthAdjust="spacing" textLength="96" x="561" y="488.6455">getName() : String</text><ellipse cx="552" cy="497.9659" fill="#84BE84" rx="3" ry="3" style="stroke:#038048;stroke-width:1.0;"/><text fill="#000000" font-family="sans-serif" font-size="11" lengthAdjust="spacing" textLength="148" x="561" y="501.6006">getProfession() : Profession</text><ellipse cx="552" cy="510.9209" fill="#84BE84" rx="3" ry="3" style="stroke:#038048;stroke-width:1.0;"/><text fill="#000000" font-family="sans-serif" font-size="11" lengthAdjust="spacing" textLength="118" x="561" y="514.5557">getWeapon() : Weapon</text><ellipse cx="552" cy="523.876" fill="#84BE84" rx="3" ry="3" style="stroke:#038048;stroke-width:1.0;"/><text fill="#000000" font-family="sans-serif" font-size="11" lengthAdjust="spacing" textLength="92" x="561" y="527.5108">toString() : String</text><!--MD5=[a8dc8aefce085dae70bec15e302cfec9]
class Builder--><rect codeLine="71" fill="#FEFECE" filter="url(#fvkiyiuru279e)" height="203.4609" id="Builder" style="stroke:#A80036;stroke-width:1.5;" width="271" x="430.5" y="41"/><ellipse cx="541.75" cy="57" fill="#ADD1B2" rx="11" ry="11" style="stroke:#A80036;stroke-width:1.0;"/><path d="M544.2231,63.1431 Q543.6421,63.4419 543.0029,63.5913 Q542.3638,63.7407 541.6582,63.7407 Q539.1514,63.7407 537.8315,62.0889 Q536.5117,60.437 536.5117,57.3159 Q536.5117,54.1865 537.8315,52.5347 Q539.1514,50.8828 541.6582,50.8828 Q542.3638,50.8828 543.0112,51.0322 Q543.6587,51.1816 544.2231,51.4805 L544.2231,54.2031 Q543.5923,53.6221 542.9988,53.3523 Q542.4053,53.0825 541.7744,53.0825 Q540.4297,53.0825 539.7449,54.1492 Q539.0601,55.2158 539.0601,57.3159 Q539.0601,59.4077 539.7449,60.4744 Q540.4297,61.541 541.7744,61.541 Q542.4053,61.541 542.9988,61.2712 Q543.5923,61.0015 544.2231,60.4204 Z " fill="#000000"/><text fill="#000000" font-family="sans-serif" font-size="12" lengthAdjust="spacing" textLength="40" x="562.25" y="61.5352">Builder</text><line style="stroke:#A80036;stroke-width:1.5;" x1="431.5" x2="700.5" y1="73" y2="73"/><rect fill="none" height="6" style="stroke:#C82930;stroke-width:1.0;" width="6" x="438.5" y="81"/><text fill="#000000" font-family="sans-serif" font-size="11" lengthAdjust="spacing" textLength="77" x="450.5" y="87.6348">armor : Armor</text><rect fill="none" height="6" style="stroke:#C82930;stroke-width:1.0;" width="6" x="438.5" y="93.9551"/><text fill="#000000" font-family="sans-serif" font-size="11" lengthAdjust="spacing" textLength="112" x="450.5" y="100.5898">hairColor : HairColor</text><rect fill="none" height="6" style="stroke:#C82930;stroke-width:1.0;" width="6" x="438.5" y="106.9102"/><text fill="#000000" font-family="sans-serif" font-size="11" lengthAdjust="spacing" textLength="104" x="450.5" y="113.5449">hairType : HairType</text><rect fill="none" height="6" style="stroke:#C82930;stroke-width:1.0;" width="6" x="438.5" y="119.8652"/><text fill="#000000" font-family="sans-serif" font-size="11" lengthAdjust="spacing" textLength="70" x="450.5" y="126.5">name : String</text><rect fill="none" height="6" style="stroke:#C82930;stroke-width:1.0;" width="6" x="438.5" y="132.8203"/><text fill="#000000" font-family="sans-serif" font-size="11" lengthAdjust="spacing" textLength="124" x="450.5" y="139.4551">profession : Profession</text><rect fill="none" height="6" style="stroke:#C82930;stroke-width:1.0;" width="6" x="438.5" y="145.7754"/><text fill="#000000" font-family="sans-serif" font-size="11" lengthAdjust="spacing" textLength="92" x="450.5" y="152.4102">weapon : Weapon</text><line style="stroke:#A80036;stroke-width:1.5;" x1="431.5" x2="700.5" y1="158.7305" y2="158.7305"/><ellipse cx="441.5" cy="169.7305" fill="#84BE84" rx="3" ry="3" style="stroke:#038048;stroke-width:1.0;"/><text fill="#000000" font-family="sans-serif" font-size="11" lengthAdjust="spacing" textLength="245" x="450.5" y="173.3652">Builder(profession : Profession, name : String)</text><ellipse cx="441.5" cy="182.6855" fill="#84BE84" rx="3" ry="3" style="stroke:#038048;stroke-width:1.0;"/><text fill="#000000" font-family="sans-serif" font-size="11" lengthAdjust="spacing" textLength="70" x="450.5" y="186.3203">build() : Hero</text><ellipse cx="441.5" cy="195.6406" fill="#84BE84" rx="3" ry="3" style="stroke:#038048;stroke-width:1.0;"/><text fill="#000000" font-family="sans-serif" font-size="11" lengthAdjust="spacing" textLength="188" x="450.5" y="199.2754">withArmor(armor : Armor) : Builder</text><ellipse cx="441.5" cy="208.5957" fill="#84BE84" rx="3" ry="3" style="stroke:#038048;stroke-width:1.0;"/><text fill="#000000" font-family="sans-serif" font-size="11" lengthAdjust="spacing" textLength="240" x="450.5" y="212.2305">withHairColor(hairColor : HairColor) : Builder</text><ellipse cx="441.5" cy="221.5508" fill="#84BE84" rx="3" ry="3" style="stroke:#038048;stroke-width:1.0;"/><text fill="#000000" font-family="sans-serif" font-size="11" lengthAdjust="spacing" textLength="228" x="450.5" y="225.1855">withHairType(hairType : HairType) : Builder</text><ellipse cx="441.5" cy="234.5059" fill="#84BE84" rx="3" ry="3" style="stroke:#038048;stroke-width:1.0;"/><text fill="#000000" font-family="sans-serif" font-size="11" lengthAdjust="spacing" textLength="210" x="450.5" y="238.1406">withWeapon(weapon : Weapon) : Builder</text><!--MD5=[1c8e68cd7e59546a9ddb486a7f36bedf]
link Hero to Profession--><path codeLine="86" d="M715.45,525.33 C736.93,551.16 759.45,578.25 779.35,602.18 " fill="none" id="Hero-to-Profession" style="stroke:#A80036;stroke-width:1.0;"/><polygon fill="#A80036" points="783.03,605.61,780.3447,596.1343,779.8305,601.7677,774.197,601.2535,783.03,605.61" style="stroke:#A80036;stroke-width:1.0;"/><text fill="#000000" font-family="sans-serif" font-size="13" lengthAdjust="spacing" textLength="75" x="698.2878" y="596.2514">-profession</text><!--MD5=[988a6c364f35f58c6cff08364bae023e]
link Builder to Hero--><path codeLine="87" d="M588.82,244.75 C592.08,259.15 595.46,274.13 598.82,288.98 " fill="none" id="Builder-to-Hero" style="stroke:#A80036;stroke-width:1.0;stroke-dasharray:7.0,7.0;"/><ellipse cx="600.5323" cy="295.5777" fill="#FFFFFF" rx="8" ry="8" style="stroke:#A80036;stroke-width:1.0;"/><line style="stroke:#A80036;stroke-width:1.0;" x1="598.7646" x2="602.3" y1="287.7755" y2="303.38"/><line style="stroke:#A80036;stroke-width:1.0;" x1="608.3346" x2="592.73" y1="293.81" y2="297.3454"/><!--MD5=[6ab5ff2410e817f91e0ae7c81508c831]
link Hero to Armor--><path codeLine="88" d="M540.87,452.99 C460.32,484.74 338.42,536.39 239,593.83 C234.89,596.21 230.74,598.7 226.6,601.28 " fill="none" id="Hero-to-Armor" style="stroke:#A80036;stroke-width:1.0;"/><polygon fill="#A80036" points="222.73,604.35,232.4786,602.9484,226.9636,601.6897,228.2222,596.1747,222.73,604.35" style="stroke:#A80036;stroke-width:1.0;"/><text fill="#000000" font-family="sans-serif" font-size="13" lengthAdjust="spacing" textLength="45" x="220.7543" y="589.6094">-armor</text><!--MD5=[da5ee90edd8faba465e2f73b4e57e680]
link Builder to HairColor--><path codeLine="89" d="M524.05,244.74 C515.98,264.51 507.65,285.11 500,304.46 C460.63,404.04 417.06,519.42 388.92,594.66 " fill="none" id="Builder-to-HairColor" style="stroke:#A80036;stroke-width:1.0;"/><polygon fill="#A80036" points="386.92,599.01,393.8254,591.9875,388.6756,594.3284,386.3348,589.1785,386.92,599.01" style="stroke:#A80036;stroke-width:1.0;"/><text fill="#000000" font-family="sans-serif" font-size="13" lengthAdjust="spacing" textLength="66" x="320.4358" y="589.6231">-hairColor</text><!--MD5=[d0e34129843c19f6de4df92c502c9b20]
link Builder to Weapon--><path codeLine="90" d="M701.79,235.86 C729.75,257.11 758.2,280.54 783,304.46 C877.45,395.54 968.99,516.83 1024.65,595.44 " fill="none" id="Builder-to-Weapon" style="stroke:#A80036;stroke-width:1.0;"/><polygon fill="#A80036" points="1027.94,599.09,1026.0151,589.4311,1025.0555,595.006,1019.4806,594.0463,1027.94,599.09" style="stroke:#A80036;stroke-width:1.0;"/><text fill="#000000" font-family="sans-serif" font-size="13" lengthAdjust="spacing" textLength="56" x="1025.67" y="589.4501">-weapon</text><!--MD5=[b710a5fbe4fedc39f0fcb21ef63228fa]
link Builder to HairType--><path codeLine="91" d="M534.63,244.96 C529.79,264.52 525.56,284.99 523,304.46 C509.71,405.54 498.37,434.91 523,533.83 C527.56,552.15 534.99,570.7 543.43,588.07 " fill="none" id="Builder-to-HairType" style="stroke:#A80036;stroke-width:1.0;"/><polygon fill="#A80036" points="546.09,592.42,545.6806,582.5797,543.8711,587.9393,538.5115,586.1299,546.09,592.42" style="stroke:#A80036;stroke-width:1.0;"/><text fill="#000000" font-family="sans-serif" font-size="13" lengthAdjust="spacing" textLength="62" x="476.7058" y="582.9681">-hairType</text><!--MD5=[86e945134fd5380749c98c0b8b160dc3]
link Hero to HairColor--><path codeLine="92" d="M540.66,502.93 C509.1,532.86 473.56,566.54 442.35,596.13 " fill="none" id="Hero-to-HairColor" style="stroke:#A80036;stroke-width:1.0;"/><polygon fill="#A80036" points="439.17,599.09,448.4589,595.8163,442.8043,595.656,442.9645,590.0015,439.17,599.09" style="stroke:#A80036;stroke-width:1.0;"/><text fill="#000000" font-family="sans-serif" font-size="13" lengthAdjust="spacing" textLength="66" x="376.7149" y="589.4501">-hairColor</text><!--MD5=[e506f7f838a50934d8f3f4c903e241b3]
link Builder to Profession--><path codeLine="93" d="M687,244.85 C704.2,263.32 720.32,283.44 733,304.46 C789.42,398 817.38,522.79 830.24,601.06 " fill="none" id="Builder-to-Profession" style="stroke:#A80036;stroke-width:1.0;"/><polygon fill="#A80036" points="831.14,605.61,833.6463,596.0854,830.3389,600.6746,825.7497,597.3672,831.14,605.61" style="stroke:#A80036;stroke-width:1.0;"/><text fill="#000000" font-family="sans-serif" font-size="13" lengthAdjust="spacing" textLength="75" x="834.0935" y="596.2514">-profession</text><!--MD5=[35c74bee9f622f17514d189c57ef48cd]
link Hero to Weapon--><path codeLine="94" d="M715.44,461.51 C784.08,494.91 881.34,544.35 963,593.83 C967.16,596.35 971.36,598.97 975.59,601.65 " fill="none" id="Hero-to-Weapon" style="stroke:#A80036;stroke-width:1.0;"/><polygon fill="#A80036" points="979.55,604.82,974.1226,596.6015,975.3376,602.1264,969.8128,603.3414,979.55,604.82" style="stroke:#A80036;stroke-width:1.0;"/><text fill="#000000" font-family="sans-serif" font-size="13" lengthAdjust="spacing" textLength="56" x="924.5242" y="589.6184">-weapon</text><!--MD5=[c89c4ffc51073c963a62c1134c8d9926]
link Hero to HairType--><path codeLine="95" d="M614.58,534.22 C612.46,552.21 610.3,570.55 608.27,587.81 " fill="none" id="Hero-to-HairType" style="stroke:#A80036;stroke-width:1.0;"/><polygon fill="#A80036" points="607.59,592.62,612.6184,584.1515,608.1767,587.6545,604.6737,583.2128,607.59,592.62" style="stroke:#A80036;stroke-width:1.0;"/><text fill="#000000" font-family="sans-serif" font-size="13" lengthAdjust="spacing" textLength="62" x="611.205" y="583.1859">-hairType</text><!--MD5=[1f96a815f4ee1d2f2c74a6dd57c38d11]
link Builder to Armor--><path codeLine="96" d="M458.81,244.79 C439.69,264.1 420.35,284.53 403,304.46 C319.85,399.99 234.3,518.65 180.93,595.59 " fill="none" id="Builder-to-Armor" style="stroke:#A80036;stroke-width:1.0;"/><polygon fill="#A80036" points="177.78,599.14,186.1954,594.0232,180.629,595.0311,179.6211,589.4648,177.78,599.14" style="stroke:#A80036;stroke-width:1.0;"/><text fill="#000000" font-family="sans-serif" font-size="13" lengthAdjust="spacing" textLength="45" x="135.5638" y="589.5051">-armor</text><!--MD5=[5f352c337546d887ebdb4d4b31d5b3ef]
@startuml
package com.yonatankarp.builder {
    class App {
    + main(args : String[]) {static}
    }
    enum Armor {
    + CHAIN_MAIL {static}
    + CLOTHES {static}
    + LEATHER {static}
    + PLATE_MAIL {static}
    - title : String
    + toString() : String
    + valueOf(name : String) : Armor {static}
    + values() : Armor[] {static}
    }
    enum HairColor {
    + BLACK {static}
    + BLOND {static}
    + BROWN {static}
    + RED {static}
    + WHITE {static}
    + toString() : String
    + valueOf(name : String) : HairColor {static}
    + values() : HairColor[] {static}
    }
    enum HairType {
    + BALD {static}
    + CURLY {static}
    + LONG_CURLY {static}
    + LONG_STRAIGHT {static}
    + SHORT {static}
    - title : String
    + toString() : String
    + valueOf(name : String) : HairType {static}
    + values() : HairType[] {static}
    }
    enum Profession {
    + MAGE {static}
    + PRIEST {static}
    + THIEF {static}
    + WARRIOR {static}
    + toString() : String
    + valueOf(name : String) : Profession {static}
    + values() : Profession[] {static}
    }
    enum Weapon {
    + AXE {static}
    + BOW {static}
    + DAGGER {static}
    + SWORD {static}
    + WARHAMMER {static}
    + toString() : String
    + valueOf(name : String) : Weapon {static}
    + values() : Weapon[] {static}
    }
    class Hero {
      - armor : Armor
      - hairColor : HairColor
      - hairType : HairType
      - name : String
      - profession : Profession
      - weapon : Weapon
      - Hero(builder : Builder)
      + getArmor() : Armor
      + getHairColor() : HairColor
      + getHairType() : HairType
      + getName() : String
      + getProfession() : Profession
      + getWeapon() : Weapon
      + toString() : String
    }
    class Builder {
      - armor : Armor
      - hairColor : HairColor
      - hairType : HairType
      - name : String
      - profession : Profession
      - weapon : Weapon
      + Builder(profession : Profession, name : String)
      + build() : Hero
      + withArmor(armor : Armor) : Builder
      + withHairColor(hairColor : HairColor) : Builder
      + withHairType(hairType : HairType) : Builder
      + withWeapon(weapon : Weapon) : Builder
    }
}
Hero - ->  "-profession" Profession
Builder ..+ Hero
Hero - ->  "-armor" Armor
Builder - ->  "-hairColor" HairColor
Builder - ->  "-weapon" Weapon
Builder - ->  "-hairType" HairType
Hero - ->  "-hairColor" HairColor
Builder - ->  "-profession" Profession
Hero - ->  "-weapon" Weapon
Hero - ->  "-hairType" HairType
Builder - ->  "-armor" Armor
@enduml

PlantUML version 1.2021.16(Wed Dec 08 18:25:22 CET 2021)
(GPL source distribution)
Java Runtime: OpenJDK Runtime Environment
JVM: OpenJDK 64-Bit Server VM
Default Encoding: UTF-8
Language: en
Country: DE
--></g></svg>