<?xml version="1.0" encoding="UTF-8" standalone="no"?><svg xmlns="http://www.w3.org/2000/svg" xmlns:xlink="http://www.w3.org/1999/xlink" contentScriptType="application/ecmascript" contentStyleType="text/css" height="388px" preserveAspectRatio="none" style="width:1591px;height:388px;background:#FFFFFF;" version="1.1" viewBox="0 0 1591 388" width="1591px" zoomAndPan="magnify"><defs><filter height="300%" id="f1r9e20m5saavm" width="300%" x="-1" y="-1"><feGaussianBlur result="blurOut" stdDeviation="2.0"/><feColorMatrix in="blurOut" result="blurOut2" type="matrix" values="0 0 0 0 0 0 0 0 0 0 0 0 0 0 0 0 0 0 .4 0"/><feOffset dx="4.0" dy="4.0" in="blurOut2" result="blurOut3"/><feBlend in="SourceGraphic" in2="blurOut3" mode="normal"/></filter></defs><g><!--MD5=[8168517b694158bb598f9326a801ec89]
cluster com.yonatankarp.strategy--><polygon fill="#FFFFFF" filter="url(#f1r9e20m5saavm)" points="16,6,206,6,213,28.4883,1574,28.4883,1574,381.69,16,381.69,16,6" style="stroke:#000000;stroke-width:1.5;"/><line style="stroke:#000000;stroke-width:1.5;" x1="16" x2="213" y1="28.4883" y2="28.4883"/><text fill="#000000" font-family="sans-serif" font-size="14" font-weight="bold" lengthAdjust="spacing" textLength="184" x="20" y="21.5352">com.yonatankarp.strategy</text><!--MD5=[335f4d9be48430461c68bf6d6fdba145]
class App--><rect codeLine="2" fill="#FEFECE" filter="url(#f1r9e20m5saavm)" height="86.8652" id="App" style="stroke:#A80036;stroke-width:1.5;" width="133" x="1425.5" y="66.91"/><ellipse cx="1475.75" cy="82.91" fill="#ADD1B2" rx="11" ry="11" style="stroke:#A80036;stroke-width:1.0;"/><path d="M1478.2231,89.0531 Q1477.6421,89.3519 1477.0029,89.5013 Q1476.3638,89.6507 1475.6582,89.6507 Q1473.1514,89.6507 1471.8315,87.9989 Q1470.5117,86.347 1470.5117,83.2259 Q1470.5117,80.0965 1471.8315,78.4447 Q1473.1514,76.7928 1475.6582,76.7928 Q1476.3638,76.7928 1477.0112,76.9422 Q1477.6587,77.0916 1478.2231,77.3905 L1478.2231,80.1131 Q1477.5923,79.5321 1476.9988,79.2623 Q1476.4053,78.9925 1475.7744,78.9925 Q1474.4297,78.9925 1473.7449,80.0592 Q1473.0601,81.1258 1473.0601,83.2259 Q1473.0601,85.3177 1473.7449,86.3844 Q1474.4297,87.451 1475.7744,87.451 Q1476.4053,87.451 1476.9988,87.1812 Q1477.5923,86.9115 1478.2231,86.3304 Z " fill="#000000"/><text fill="#000000" font-family="sans-serif" font-size="12" lengthAdjust="spacing" textLength="24" x="1496.25" y="87.4452">App</text><line style="stroke:#A80036;stroke-width:1.5;" x1="1426.5" x2="1557.5" y1="98.91" y2="98.91"/><rect fill="none" height="6" style="stroke:#C82930;stroke-width:1.0;" width="6" x="1433.5" y="106.91"/><text fill="#000000" font-family="sans-serif" font-size="11" lengthAdjust="spacing" text-decoration="underline" textLength="91" x="1445.5" y="113.5448">LOGGER : Logger</text><line style="stroke:#A80036;stroke-width:1.5;" x1="1426.5" x2="1557.5" y1="119.8651" y2="119.8651"/><ellipse cx="1436.5" cy="130.8651" fill="#84BE84" rx="3" ry="3" style="stroke:#038048;stroke-width:1.0;"/><text fill="#000000" font-family="sans-serif" font-size="11" lengthAdjust="spacing" textLength="30" x="1445.5" y="134.4998">App()</text><ellipse cx="1436.5" cy="143.8202" fill="#84BE84" rx="3" ry="3" style="stroke:#038048;stroke-width:1.0;"/><text fill="#000000" font-family="sans-serif" font-size="11" lengthAdjust="spacing" text-decoration="underline" textLength="107" x="1445.5" y="147.4549">main(args : String[])</text><!--MD5=[bbd43c3fceaef378a35d19cfcd3352f4]
class DragonSlayer--><rect codeLine="7" fill="#FEFECE" filter="url(#f1r9e20m5saavm)" height="99.8203" id="DragonSlayer" style="stroke:#A80036;stroke-width:1.5;" width="292" x="786" y="60.44"/><ellipse cx="889.75" cy="76.44" fill="#ADD1B2" rx="11" ry="11" style="stroke:#A80036;stroke-width:1.0;"/><path d="M892.2231,82.5831 Q891.6421,82.8819 891.0029,83.0313 Q890.3638,83.1807 889.6582,83.1807 Q887.1514,83.1807 885.8315,81.5289 Q884.5117,79.877 884.5117,76.7559 Q884.5117,73.6265 885.8315,71.9747 Q887.1514,70.3228 889.6582,70.3228 Q890.3638,70.3228 891.0112,70.4722 Q891.6587,70.6216 892.2231,70.9205 L892.2231,73.6431 Q891.5923,73.0621 890.9988,72.7923 Q890.4053,72.5225 889.7744,72.5225 Q888.4297,72.5225 887.7449,73.5892 Q887.0601,74.6558 887.0601,76.7559 Q887.0601,78.8477 887.7449,79.9144 Q888.4297,80.981 889.7744,80.981 Q890.4053,80.981 890.9988,80.7112 Q891.5923,80.4415 892.2231,79.8604 Z " fill="#000000"/><text fill="#000000" font-family="sans-serif" font-size="12" lengthAdjust="spacing" textLength="76" x="910.25" y="80.9752">DragonSlayer</text><line style="stroke:#A80036;stroke-width:1.5;" x1="787" x2="1077" y1="92.44" y2="92.44"/><rect fill="none" height="6" style="stroke:#C82930;stroke-width:1.0;" width="6" x="794" y="100.44"/><text fill="#000000" font-family="sans-serif" font-size="11" lengthAdjust="spacing" textLength="175" x="806" y="107.0748">strategy : DragonSlayingStrategy</text><line style="stroke:#A80036;stroke-width:1.5;" x1="787" x2="1077" y1="113.3951" y2="113.3951"/><ellipse cx="797" cy="124.3951" fill="#84BE84" rx="3" ry="3" style="stroke:#038048;stroke-width:1.0;"/><text fill="#000000" font-family="sans-serif" font-size="11" lengthAdjust="spacing" textLength="255" x="806" y="128.0298">DragonSlayer(strategy : DragonSlayingStrategy)</text><ellipse cx="797" cy="137.3502" fill="#84BE84" rx="3" ry="3" style="stroke:#038048;stroke-width:1.0;"/><text fill="#000000" font-family="sans-serif" font-size="11" lengthAdjust="spacing" textLength="266" x="806" y="140.9849">changeStrategy(strategy : DragonSlayingStrategy)</text><ellipse cx="797" cy="150.3052" fill="#84BE84" rx="3" ry="3" style="stroke:#038048;stroke-width:1.0;"/><text fill="#000000" font-family="sans-serif" font-size="11" lengthAdjust="spacing" textLength="65" x="806" y="153.94">goToBattle()</text><!--MD5=[15905c54b76293c0fcf187b6805680c9]
class DragonSlayingStrategy--><rect codeLine="13" fill="#FEFECE" filter="url(#f1r9e20m5saavm)" height="60.9551" id="DragonSlayingStrategy" style="stroke:#A80036;stroke-width:1.5;" width="159" x="733.5" y="272.69"/><ellipse cx="748.5" cy="288.69" fill="#B4A7E5" rx="11" ry="11" style="stroke:#A80036;stroke-width:1.0;"/><path d="M744.9277,284.9551 L744.9277,282.7969 L752.3071,282.7969 L752.3071,284.9551 L749.8418,284.9551 L749.8418,293.0318 L752.3071,293.0318 L752.3071,295.19 L744.9277,295.19 L744.9277,293.0318 L747.3931,293.0318 L747.3931,284.9551 Z " fill="#000000"/><text fill="#000000" font-family="sans-serif" font-size="12" font-style="italic" lengthAdjust="spacing" textLength="127" x="762.5" y="293.2252">DragonSlayingStrategy</text><line style="stroke:#A80036;stroke-width:1.5;" x1="734.5" x2="891.5" y1="304.69" y2="304.69"/><line style="stroke:#A80036;stroke-width:1.5;" x1="734.5" x2="891.5" y1="312.69" y2="312.69"/><ellipse cx="744.5" cy="323.69" fill="#84BE84" rx="3" ry="3" style="stroke:#038048;stroke-width:1.0;"/><text fill="#000000" font-family="sans-serif" font-size="11" font-style="italic" lengthAdjust="spacing" textLength="50" x="753.5" y="327.3248">execute()</text><!--MD5=[dc1dcf1ce2cf51a730d4064e703cf943]
class EnumStrategy--><rect codeLine="16" fill="#FEFECE" filter="url(#f1r9e20m5saavm)" height="99.8203" id="EnumStrategy" style="stroke:#A80036;stroke-width:1.5;" width="149" x="1177.5" y="252.78"/><ellipse cx="1210.05" cy="268.78" fill="#ADD1B2" rx="11" ry="11" style="stroke:#A80036;stroke-width:1.0;"/><path d="M1212.5231,274.9231 Q1211.9421,275.2219 1211.3029,275.3713 Q1210.6638,275.5207 1209.9582,275.5207 Q1207.4514,275.5207 1206.1315,273.8689 Q1204.8117,272.217 1204.8117,269.0959 Q1204.8117,265.9665 1206.1315,264.3147 Q1207.4514,262.6628 1209.9582,262.6628 Q1210.6638,262.6628 1211.3112,262.8122 Q1211.9587,262.9616 1212.5231,263.2605 L1212.5231,265.9831 Q1211.8923,265.4021 1211.2988,265.1323 Q1210.7053,264.8625 1210.0744,264.8625 Q1208.7297,264.8625 1208.0449,265.9292 Q1207.3601,266.9958 1207.3601,269.0959 Q1207.3601,271.1877 1208.0449,272.2544 Q1208.7297,273.321 1210.0744,273.321 Q1210.7053,273.321 1211.2988,273.0512 Q1211.8923,272.7815 1212.5231,272.2004 Z " fill="#000000"/><text fill="#000000" font-family="sans-serif" font-size="12" lengthAdjust="spacing" textLength="78" x="1227.95" y="273.3152">EnumStrategy</text><line style="stroke:#A80036;stroke-width:1.5;" x1="1178.5" x2="1325.5" y1="284.78" y2="284.78"/><ellipse cx="1188.5" cy="295.78" rx="3" ry="3" style="stroke:#038048;stroke-width:1.0;fill:none;"/><text fill="#000000" font-family="sans-serif" font-size="11" lengthAdjust="spacing" textLength="95" x="1197.5" y="299.4148">MELEE_STRATEGY</text><ellipse cx="1188.5" cy="308.7351" rx="3" ry="3" style="stroke:#038048;stroke-width:1.0;fill:none;"/><text fill="#000000" font-family="sans-serif" font-size="11" lengthAdjust="spacing" textLength="123" x="1197.5" y="312.3698">PROJECTILE_STRATEGY</text><ellipse cx="1188.5" cy="321.6902" rx="3" ry="3" style="stroke:#038048;stroke-width:1.0;fill:none;"/><text fill="#000000" font-family="sans-serif" font-size="11" lengthAdjust="spacing" textLength="92" x="1197.5" y="325.3249">SPELL_STRATEGY</text><line style="stroke:#A80036;stroke-width:1.5;" x1="1178.5" x2="1325.5" y1="331.6452" y2="331.6452"/><ellipse cx="1188.5" cy="342.6452" fill="#84BE84" rx="3" ry="3" style="stroke:#038048;stroke-width:1.0;"/><text fill="#000000" font-family="sans-serif" font-size="11" lengthAdjust="spacing" textLength="82" x="1197.5" y="346.28">EnumStrategy()</text><!--MD5=[377953f0e8c8c0131a700fca43c84158]
class Strategy--><rect codeLine="22" fill="#FEFECE" filter="url(#f1r9e20m5saavm)" height="138.6855" id="Strategy" style="stroke:#A80036;stroke-width:1.5;" width="278" x="1113" y="41"/><ellipse cx="1224.75" cy="57" fill="#EB937F" rx="11" ry="11" style="stroke:#A80036;stroke-width:1.0;"/><path d="M1228.3643,63.5 L1220.6445,63.5 L1220.6445,51.1069 L1228.3643,51.1069 L1228.3643,53.2651 L1223.0933,53.2651 L1223.0933,55.938 L1227.8662,55.938 L1227.8662,58.0962 L1223.0933,58.0962 L1223.0933,61.3418 L1228.3643,61.3418 Z " fill="#000000"/><text fill="#000000" font-family="sans-serif" font-size="12" lengthAdjust="spacing" textLength="46" x="1245.25" y="61.5352">Strategy</text><line style="stroke:#A80036;stroke-width:1.5;" x1="1114" x2="1390" y1="73" y2="73"/><ellipse cx="1124" cy="84" rx="3" ry="3" style="stroke:#038048;stroke-width:1.0;fill:none;"/><text fill="#000000" font-family="sans-serif" font-size="11" lengthAdjust="spacing" text-decoration="underline" textLength="74" x="1133" y="87.6348">MeleeStrategy</text><ellipse cx="1124" cy="96.9551" rx="3" ry="3" style="stroke:#038048;stroke-width:1.0;fill:none;"/><text fill="#000000" font-family="sans-serif" font-size="11" lengthAdjust="spacing" text-decoration="underline" textLength="93" x="1133" y="100.5898">ProjectileStrategy</text><ellipse cx="1124" cy="109.9102" rx="3" ry="3" style="stroke:#038048;stroke-width:1.0;fill:none;"/><text fill="#000000" font-family="sans-serif" font-size="11" lengthAdjust="spacing" text-decoration="underline" textLength="69" x="1133" y="113.5449">SpellStrategy</text><rect fill="none" height="6" style="stroke:#C82930;stroke-width:1.0;" width="6" x="1121" y="119.8652"/><text fill="#000000" font-family="sans-serif" font-size="11" lengthAdjust="spacing" textLength="252" x="1133" y="126.5">dragonSlayingStrategy : DragonSlayingStrategy</text><line style="stroke:#A80036;stroke-width:1.5;" x1="1114" x2="1390" y1="132.8203" y2="132.8203"/><ellipse cx="1124" cy="143.8203" fill="#84BE84" rx="3" ry="3" style="stroke:#038048;stroke-width:1.0;"/><text fill="#000000" font-family="sans-serif" font-size="11" lengthAdjust="spacing" textLength="50" x="1133" y="147.4551">execute()</text><ellipse cx="1124" cy="156.7754" fill="#84BE84" rx="3" ry="3" style="stroke:#038048;stroke-width:1.0;"/><text fill="#000000" font-family="sans-serif" font-size="11" lengthAdjust="spacing" text-decoration="underline" textLength="172" x="1133" y="160.4102">valueOf(name : String) : Strategy</text><ellipse cx="1124" cy="169.7305" fill="#84BE84" rx="3" ry="3" style="stroke:#038048;stroke-width:1.0;"/><text fill="#000000" font-family="sans-serif" font-size="11" lengthAdjust="spacing" text-decoration="underline" textLength="103" x="1133" y="173.3652">values() : Strategy[]</text><!--MD5=[e8149e95d26c86ef5fca11661bf06c9e]
class MeleeStrategy--><rect codeLine="31" fill="#FEFECE" filter="url(#f1r9e20m5saavm)" height="73.9102" id="MeleeStrategy" style="stroke:#A80036;stroke-width:1.5;" width="112" x="639" y="73.39"/><ellipse cx="654" cy="89.39" fill="#ADD1B2" rx="11" ry="11" style="stroke:#A80036;stroke-width:1.0;"/><path d="M656.4731,95.5331 Q655.8921,95.8319 655.2529,95.9813 Q654.6138,96.1307 653.9082,96.1307 Q651.4014,96.1307 650.0815,94.4789 Q648.7617,92.827 648.7617,89.7059 Q648.7617,86.5765 650.0815,84.9247 Q651.4014,83.2728 653.9082,83.2728 Q654.6138,83.2728 655.2612,83.4222 Q655.9087,83.5716 656.4731,83.8705 L656.4731,86.5931 Q655.8423,86.0121 655.2488,85.7423 Q654.6553,85.4725 654.0244,85.4725 Q652.6797,85.4725 651.9949,86.5392 Q651.3101,87.6058 651.3101,89.7059 Q651.3101,91.7977 651.9949,92.8644 Q652.6797,93.931 654.0244,93.931 Q654.6553,93.931 655.2488,93.6612 Q655.8423,93.3915 656.4731,92.8104 Z " fill="#000000"/><text fill="#000000" font-family="sans-serif" font-size="12" lengthAdjust="spacing" textLength="80" x="668" y="93.9252">MeleeStrategy</text><line style="stroke:#A80036;stroke-width:1.5;" x1="640" x2="750" y1="105.39" y2="105.39"/><line style="stroke:#A80036;stroke-width:1.5;" x1="640" x2="750" y1="113.39" y2="113.39"/><ellipse cx="650" cy="124.39" fill="#84BE84" rx="3" ry="3" style="stroke:#038048;stroke-width:1.0;"/><text fill="#000000" font-family="sans-serif" font-size="11" lengthAdjust="spacing" textLength="82" x="659" y="128.0248">MeleeStrategy()</text><ellipse cx="650" cy="137.3451" fill="#84BE84" rx="3" ry="3" style="stroke:#038048;stroke-width:1.0;"/><text fill="#000000" font-family="sans-serif" font-size="11" lengthAdjust="spacing" textLength="50" x="659" y="140.9798">execute()</text><!--MD5=[32d65e57b3b6780b6546ff539a4b2f0d]
class ProjectileStrategy--><rect codeLine="35" fill="#FEFECE" filter="url(#f1r9e20m5saavm)" height="73.9102" id="ProjectileStrategy" style="stroke:#A80036;stroke-width:1.5;" width="131" x="472.5" y="73.39"/><ellipse cx="487.5" cy="89.39" fill="#ADD1B2" rx="11" ry="11" style="stroke:#A80036;stroke-width:1.0;"/><path d="M489.9731,95.5331 Q489.3921,95.8319 488.7529,95.9813 Q488.1138,96.1307 487.4082,96.1307 Q484.9014,96.1307 483.5815,94.4789 Q482.2617,92.827 482.2617,89.7059 Q482.2617,86.5765 483.5815,84.9247 Q484.9014,83.2728 487.4082,83.2728 Q488.1138,83.2728 488.7612,83.4222 Q489.4087,83.5716 489.9731,83.8705 L489.9731,86.5931 Q489.3423,86.0121 488.7488,85.7423 Q488.1553,85.4725 487.5244,85.4725 Q486.1797,85.4725 485.4949,86.5392 Q484.8101,87.6058 484.8101,89.7059 Q484.8101,91.7977 485.4949,92.8644 Q486.1797,93.931 487.5244,93.931 Q488.1553,93.931 488.7488,93.6612 Q489.3423,93.3915 489.9731,92.8104 Z " fill="#000000"/><text fill="#000000" font-family="sans-serif" font-size="12" lengthAdjust="spacing" textLength="99" x="501.5" y="93.9252">ProjectileStrategy</text><line style="stroke:#A80036;stroke-width:1.5;" x1="473.5" x2="602.5" y1="105.39" y2="105.39"/><line style="stroke:#A80036;stroke-width:1.5;" x1="473.5" x2="602.5" y1="113.39" y2="113.39"/><ellipse cx="483.5" cy="124.39" fill="#84BE84" rx="3" ry="3" style="stroke:#038048;stroke-width:1.0;"/><text fill="#000000" font-family="sans-serif" font-size="11" lengthAdjust="spacing" textLength="101" x="492.5" y="128.0248">ProjectileStrategy()</text><ellipse cx="483.5" cy="137.3451" fill="#84BE84" rx="3" ry="3" style="stroke:#038048;stroke-width:1.0;"/><text fill="#000000" font-family="sans-serif" font-size="11" lengthAdjust="spacing" textLength="50" x="492.5" y="140.9798">execute()</text><!--MD5=[4857c1dd135872cfdb70ddf534a54bb4]
class SpellStrategy--><rect codeLine="39" fill="#FEFECE" filter="url(#f1r9e20m5saavm)" height="73.9102" id="SpellStrategy" style="stroke:#A80036;stroke-width:1.5;" width="105" x="332.5" y="73.39"/><ellipse cx="347.5" cy="89.39" fill="#ADD1B2" rx="11" ry="11" style="stroke:#A80036;stroke-width:1.0;"/><path d="M349.9731,95.5331 Q349.3921,95.8319 348.7529,95.9813 Q348.1138,96.1307 347.4082,96.1307 Q344.9014,96.1307 343.5815,94.4789 Q342.2617,92.827 342.2617,89.7059 Q342.2617,86.5765 343.5815,84.9247 Q344.9014,83.2728 347.4082,83.2728 Q348.1138,83.2728 348.7612,83.4222 Q349.4087,83.5716 349.9731,83.8705 L349.9731,86.5931 Q349.3423,86.0121 348.7488,85.7423 Q348.1553,85.4725 347.5244,85.4725 Q346.1797,85.4725 345.4949,86.5392 Q344.8101,87.6058 344.8101,89.7059 Q344.8101,91.7977 345.4949,92.8644 Q346.1797,93.931 347.5244,93.931 Q348.1553,93.931 348.7488,93.6612 Q349.3423,93.3915 349.9731,92.8104 Z " fill="#000000"/><text fill="#000000" font-family="sans-serif" font-size="12" lengthAdjust="spacing" textLength="73" x="361.5" y="93.9252">SpellStrategy</text><line style="stroke:#A80036;stroke-width:1.5;" x1="333.5" x2="436.5" y1="105.39" y2="105.39"/><line style="stroke:#A80036;stroke-width:1.5;" x1="333.5" x2="436.5" y1="113.39" y2="113.39"/><ellipse cx="343.5" cy="124.39" fill="#84BE84" rx="3" ry="3" style="stroke:#038048;stroke-width:1.0;"/><text fill="#000000" font-family="sans-serif" font-size="11" lengthAdjust="spacing" textLength="77" x="352.5" y="128.0248">SpellStrategy()</text><ellipse cx="343.5" cy="137.3451" fill="#84BE84" rx="3" ry="3" style="stroke:#038048;stroke-width:1.0;"/><text fill="#000000" font-family="sans-serif" font-size="11" lengthAdjust="spacing" textLength="50" x="352.5" y="140.9798">execute()</text><!--MD5=[39577e05812124c7a2da085c8ba1cb48]
class FunctionalDragonSlayer--><rect codeLine="43" fill="#FEFECE" filter="url(#f1r9e20m5saavm)" height="99.8203" id="FunctionalDragonSlayer" style="stroke:#A80036;stroke-width:1.5;" width="266" x="32" y="60.44"/><ellipse cx="94.25" cy="76.44" fill="#ADD1B2" rx="11" ry="11" style="stroke:#A80036;stroke-width:1.0;"/><path d="M96.7231,82.5831 Q96.1421,82.8819 95.5029,83.0313 Q94.8638,83.1807 94.1582,83.1807 Q91.6514,83.1807 90.3315,81.5289 Q89.0117,79.877 89.0117,76.7559 Q89.0117,73.6265 90.3315,71.9747 Q91.6514,70.3228 94.1582,70.3228 Q94.8638,70.3228 95.5112,70.4722 Q96.1587,70.6216 96.7231,70.9205 L96.7231,73.6431 Q96.0923,73.0621 95.4988,72.7923 Q94.9053,72.5225 94.2744,72.5225 Q92.9297,72.5225 92.2449,73.5892 Q91.5601,74.6558 91.5601,76.7559 Q91.5601,78.8477 92.2449,79.9144 Q92.9297,80.981 94.2744,80.981 Q94.9053,80.981 95.4988,80.7112 Q96.0923,80.4415 96.7231,79.8604 Z " fill="#000000"/><text fill="#000000" font-family="sans-serif" font-size="12" lengthAdjust="spacing" textLength="133" x="114.75" y="80.9752">FunctionalDragonSlayer</text><line style="stroke:#A80036;stroke-width:1.5;" x1="33" x2="297" y1="92.44" y2="92.44"/><line style="stroke:#A80036;stroke-width:1.5;" x1="33" x2="297" y1="100.44" y2="100.44"/><rect fill="#F24D5C" height="6" style="stroke:#C82930;stroke-width:1.0;" width="6" x="40" y="108.44"/><text fill="#000000" font-family="sans-serif" font-size="11" lengthAdjust="spacing" textLength="104" x="52" y="115.0748">strategy : () -&gt; Unit</text><ellipse cx="43" cy="124.3951" fill="#84BE84" rx="3" ry="3" style="stroke:#038048;stroke-width:1.0;"/><text fill="#000000" font-family="sans-serif" font-size="11" lengthAdjust="spacing" textLength="240" x="52" y="128.0298">FunctionalDragonSlayer(strategy : () -&gt; Unit)</text><ellipse cx="43" cy="137.3502" fill="#84BE84" rx="3" ry="3" style="stroke:#038048;stroke-width:1.0;"/><text fill="#000000" font-family="sans-serif" font-size="11" lengthAdjust="spacing" textLength="195" x="52" y="140.9849">changeStrategy(strategy : () -&gt; Unit)</text><ellipse cx="43" cy="150.3052" fill="#84BE84" rx="3" ry="3" style="stroke:#038048;stroke-width:1.0;"/><text fill="#000000" font-family="sans-serif" font-size="11" lengthAdjust="spacing" textLength="65" x="52" y="153.94">goToBattle()</text><!--MD5=[14a443494307f728d108f702e9edf08f]
class LambdaStrategy--><rect codeLine="49" fill="#FEFECE" filter="url(#f1r9e20m5saavm)" height="86.8652" id="LambdaStrategy" style="stroke:#A80036;stroke-width:1.5;" width="125" x="102.5" y="259.69"/><ellipse cx="117.5" cy="275.69" fill="#ADD1B2" rx="11" ry="11" style="stroke:#A80036;stroke-width:1.0;"/><path d="M119.9731,281.8331 Q119.3921,282.1319 118.7529,282.2813 Q118.1138,282.4307 117.4082,282.4307 Q114.9014,282.4307 113.5815,280.7789 Q112.2617,279.127 112.2617,276.0059 Q112.2617,272.8765 113.5815,271.2247 Q114.9014,269.5728 117.4082,269.5728 Q118.1138,269.5728 118.7612,269.7222 Q119.4087,269.8716 119.9731,270.1705 L119.9731,272.8931 Q119.3423,272.3121 118.7488,272.0423 Q118.1553,271.7725 117.5244,271.7725 Q116.1797,271.7725 115.4949,272.8392 Q114.8101,273.9058 114.8101,276.0059 Q114.8101,278.0977 115.4949,279.1644 Q116.1797,280.231 117.5244,280.231 Q118.1553,280.231 118.7488,279.9612 Q119.3423,279.6915 119.9731,279.1104 Z " fill="#000000"/><text fill="#000000" font-family="sans-serif" font-size="12" lengthAdjust="spacing" textLength="93" x="131.5" y="280.2252">LambdaStrategy</text><line style="stroke:#A80036;stroke-width:1.5;" x1="103.5" x2="226.5" y1="291.69" y2="291.69"/><ellipse cx="113.5" cy="302.69" rx="3" ry="3" style="stroke:#038048;stroke-width:1.0;fill:none;"/><text fill="#000000" font-family="sans-serif" font-size="11" lengthAdjust="spacing" text-decoration="underline" textLength="75" x="122.5" y="306.3248">meleeStrategy</text><ellipse cx="113.5" cy="315.6451" rx="3" ry="3" style="stroke:#038048;stroke-width:1.0;fill:none;"/><text fill="#000000" font-family="sans-serif" font-size="11" lengthAdjust="spacing" text-decoration="underline" textLength="94" x="122.5" y="319.2798">projectileStrategy</text><ellipse cx="113.5" cy="328.6002" rx="3" ry="3" style="stroke:#038048;stroke-width:1.0;fill:none;"/><text fill="#000000" font-family="sans-serif" font-size="11" lengthAdjust="spacing" text-decoration="underline" textLength="69" x="122.5" y="332.2349">spellStrategy</text><line style="stroke:#A80036;stroke-width:1.5;" x1="103.5" x2="226.5" y1="338.5552" y2="338.5552"/><!--MD5=[6aeca057285ed987dd76aee80d922e75]
link Strategy to EnumStrategy--><path codeLine="55" d="M1252,180.07 C1252,198.32 1252,217.98 1252,236.06 " fill="none" id="Strategy-to-EnumStrategy" style="stroke:#A80036;stroke-width:1.0;stroke-dasharray:7.0,7.0;"/><ellipse cx="1252" cy="242.96" fill="#FFFFFF" rx="8" ry="8" style="stroke:#A80036;stroke-width:1.0;"/><line style="stroke:#A80036;stroke-width:1.0;" x1="1252" x2="1252" y1="234.96" y2="250.96"/><line style="stroke:#A80036;stroke-width:1.0;" x1="1260" x2="1244" y1="242.96" y2="242.96"/><!--MD5=[80d5d7d860355a1fb4d07a51103465d9]
link Strategy to DragonSlayingStrategy--><path codeLine="56" d="M1112.89,164.95 C1101.4,169.94 1089.98,174.92 1079,179.69 C1007.98,210.55 926.81,245.51 872.74,270.07 " fill="none" id="Strategy-to-DragonSlayingStrategy" style="stroke:#A80036;stroke-width:1.0;"/><polygon fill="#A80036" points="868.32,272.09,878.1685,272.0072,872.8718,270.021,874.8581,264.7243,868.32,272.09" style="stroke:#A80036;stroke-width:1.0;"/><text fill="#000000" font-family="sans-serif" font-size="13" lengthAdjust="spacing" textLength="148" x="894.9269" y="262.0091">-dragonSlayingStrategy</text><!--MD5=[80d5d7d860355a1fb4d07a51103465d9]
link Strategy to DragonSlayingStrategy--><path codeLine="58" d="M1112.9,180.17 C1046.24,209.14 970.8,241.63 912.05,265.73 " fill="none" id="Strategy-to-DragonSlayingStrategy-1" style="stroke:#A80036;stroke-width:1.0;stroke-dasharray:7.0,7.0;"/><polygon fill="none" points="914.97,272.1,893.81,273.15,909.7,259.13,914.97,272.1" style="stroke:#A80036;stroke-width:1.0;"/><!--MD5=[56e8dec4e68c95b7dc9d5801820b8a43]
link DragonSlayer to DragonSlayingStrategy--><path codeLine="57" d="M901.35,160.37 C880.35,193.96 853.01,237.69 834.35,267.55 " fill="none" id="DragonSlayer-to-DragonSlayingStrategy" style="stroke:#A80036;stroke-width:1.0;"/><polygon fill="#A80036" points="831.77,271.67,839.937,266.1654,834.4238,267.4324,833.1568,261.9193,831.77,271.67" style="stroke:#A80036;stroke-width:1.0;"/><text fill="#000000" font-family="sans-serif" font-size="13" lengthAdjust="spacing" textLength="59" x="769.2914" y="261.8444">-strategy</text><!--MD5=[86201fcf68b8b33eb5179ea4d475ace2]
link MeleeStrategy to DragonSlayingStrategy--><path codeLine="59" d="M717.47,147.6 C736.31,177.98 763.34,221.58 783.84,254.65 " fill="none" id="MeleeStrategy-to-DragonSlayingStrategy" style="stroke:#A80036;stroke-width:1.0;stroke-dasharray:7.0,7.0;"/><polygon fill="none" points="789.66,250.76,794.25,271.44,777.76,258.13,789.66,250.76" style="stroke:#A80036;stroke-width:1.0;"/><!--MD5=[226c442b9212b14dc0d92b5c4eaa00cc]
link ProjectileStrategy to DragonSlayingStrategy--><path codeLine="60" d="M579.86,147.49 C592.79,158.2 607.25,169.72 621,179.69 C661.11,208.78 708.03,238.66 745.44,261.57 " fill="none" id="ProjectileStrategy-to-DragonSlayingStrategy" style="stroke:#A80036;stroke-width:1.0;stroke-dasharray:7.0,7.0;"/><polygon fill="none" points="749.02,255.56,762.48,271.92,741.76,267.52,749.02,255.56" style="stroke:#A80036;stroke-width:1.0;"/><!--MD5=[d44029dcd4eb531b4bda03e219495175]
link SpellStrategy to DragonSlayingStrategy--><path codeLine="61" d="M416.22,147.71 C427.51,159.17 440.96,171.07 455,179.69 C535.24,228.99 637.95,261.34 712.76,280.26 " fill="none" id="SpellStrategy-to-DragonSlayingStrategy" style="stroke:#A80036;stroke-width:1.0;stroke-dasharray:7.0,7.0;"/><polygon fill="none" points="714.33,273.44,732.09,285,711,287.04,714.33,273.44" style="stroke:#A80036;stroke-width:1.0;"/><!--MD5=[6116d6a0f7d981befce363c672cdaf1d]
link FunctionalDragonSlayer to LambdaStrategy--><path codeLine="62" d="M165,160.37 C165,189.04 165,225.09 165,253.6 " fill="none" id="FunctionalDragonSlayer-to-LambdaStrategy" style="stroke:#A80036;stroke-width:1.0;"/><polygon fill="#A80036" points="165,258.42,169,249.42,165,253.42,161,249.42,165,258.42" style="stroke:#A80036;stroke-width:1.0;"/><text fill="#000000" font-family="sans-serif" font-size="13" lengthAdjust="spacing" textLength="59" x="100.9297" y="248.8123">-strategy</text><!--MD5=[7861d543bbdb0b69a1c65ef41584b2b5]
@startuml
package com.yonatankarp.strategy {
  class App {
    - LOGGER : Logger {static}
    + App()
    + main(args : String[]) {static}
  }
  class DragonSlayer {
    - strategy : DragonSlayingStrategy
    + DragonSlayer(strategy : DragonSlayingStrategy)
    + changeStrategy(strategy : DragonSlayingStrategy)
    + goToBattle()
  }
  interface DragonSlayingStrategy {
    + execute() {abstract}
  }
  class EnumStrategy {
    + EnumStrategy()
    + MELEE_STRATEGY
    + PROJECTILE_STRATEGY
    + SPELL_STRATEGY
  }
  enum Strategy {
    + MeleeStrategy {static}
    + ProjectileStrategy {static}
    + SpellStrategy {static}
    - dragonSlayingStrategy : DragonSlayingStrategy
    + execute()
    + valueOf(name : String) : Strategy {static}
    + values() : Strategy[] {static}
  }
  class MeleeStrategy {
    + MeleeStrategy()
    + execute()
  }
  class ProjectileStrategy {
    + ProjectileStrategy()
    + execute()
  }
  class SpellStrategy {
    + SpellStrategy()
    + execute()
  }
  class FunctionalDragonSlayer {
      - strategy : () -> Unit
      + FunctionalDragonSlayer(strategy : () -> Unit)
      + changeStrategy(strategy : () -> Unit)
      + goToBattle()
  }
  class LambdaStrategy {
    + meleeStrategy {static}
    + projectileStrategy {static}
    + spellStrategy {static}
  }
}
Strategy ..+ EnumStrategy
Strategy - ->  "-dragonSlayingStrategy" DragonSlayingStrategy
DragonSlayer - ->  "-strategy" DragonSlayingStrategy
Strategy ..|> DragonSlayingStrategy
MeleeStrategy ..|> DragonSlayingStrategy
ProjectileStrategy ..|> DragonSlayingStrategy
SpellStrategy ..|> DragonSlayingStrategy
FunctionalDragonSlayer - ->  "-strategy" LambdaStrategy
@enduml

PlantUML version 1.2021.16(Wed Dec 08 18:25:22 CET 2021)
(GPL source distribution)
Java Runtime: OpenJDK Runtime Environment
JVM: OpenJDK 64-Bit Server VM
Default Encoding: UTF-8
Language: en
Country: DE
--></g></svg>