<?xml version="1.0" encoding="UTF-8" standalone="no"?><svg xmlns="http://www.w3.org/2000/svg" xmlns:xlink="http://www.w3.org/1999/xlink" contentScriptType="application/ecmascript" contentStyleType="text/css" height="682px" preserveAspectRatio="none" style="width:615px;height:682px;background:#FFFFFF;" version="1.1" viewBox="0 0 615 682" width="615px" zoomAndPan="magnify"><defs><filter height="300%" id="f96adtzb7h6db" width="300%" x="-1" y="-1"><feGaussianBlur result="blurOut" stdDeviation="2.0"/><feColorMatrix in="blurOut" result="blurOut2" type="matrix" values="0 0 0 0 0 0 0 0 0 0 0 0 0 0 0 0 0 0 .4 0"/><feOffset dx="4.0" dy="4.0" in="blurOut2" result="blurOut3"/><feBlend in="SourceGraphic" in2="blurOut3" mode="normal"/></filter></defs><g><!--MD5=[d0e55b2edb7ed035a016e60efeb74c59]
cluster com.yonatankarp.composite--><polygon fill="#FFFFFF" filter="url(#f96adtzb7h6db)" points="16,6,222,6,229,28.4883,598,28.4883,598,675.6,16,675.6,16,6" style="stroke:#000000;stroke-width:1.5;"/><line style="stroke:#000000;stroke-width:1.5;" x1="16" x2="229" y1="28.4883" y2="28.4883"/><text fill="#000000" font-family="sans-serif" font-size="14" font-weight="bold" lengthAdjust="spacing" textLength="200" x="20" y="21.5352">com.yonatankarp.composite</text><!--MD5=[335f4d9be48430461c68bf6d6fdba145]
class App--><rect codeLine="2" fill="#FEFECE" filter="url(#f96adtzb7h6db)" height="86.8652" id="App" style="stroke:#A80036;stroke-width:1.5;" width="133" x="305.5" y="41"/><ellipse cx="355.75" cy="57" fill="#ADD1B2" rx="11" ry="11" style="stroke:#A80036;stroke-width:1.0;"/><path d="M358.2231,63.1431 Q357.6421,63.4419 357.0029,63.5913 Q356.3638,63.7407 355.6582,63.7407 Q353.1514,63.7407 351.8315,62.0889 Q350.5117,60.437 350.5117,57.3159 Q350.5117,54.1865 351.8315,52.5347 Q353.1514,50.8828 355.6582,50.8828 Q356.3638,50.8828 357.0112,51.0322 Q357.6587,51.1816 358.2231,51.4805 L358.2231,54.2031 Q357.5923,53.6221 356.9988,53.3523 Q356.4053,53.0825 355.7744,53.0825 Q354.4297,53.0825 353.7449,54.1492 Q353.0601,55.2158 353.0601,57.3159 Q353.0601,59.4077 353.7449,60.4744 Q354.4297,61.541 355.7744,61.541 Q356.4053,61.541 356.9988,61.2712 Q357.5923,61.0015 358.2231,60.4204 Z " fill="#000000"/><text fill="#000000" font-family="sans-serif" font-size="12" lengthAdjust="spacing" textLength="24" x="376.25" y="61.5352">App</text><line style="stroke:#A80036;stroke-width:1.5;" x1="306.5" x2="437.5" y1="73" y2="73"/><rect fill="none" height="6" style="stroke:#C82930;stroke-width:1.0;" width="6" x="313.5" y="81"/><text fill="#000000" font-family="sans-serif" font-size="11" lengthAdjust="spacing" text-decoration="underline" textLength="82" x="325.5" y="87.6348">logger : Logger</text><line style="stroke:#A80036;stroke-width:1.5;" x1="306.5" x2="437.5" y1="93.9551" y2="93.9551"/><ellipse cx="316.5" cy="104.9551" fill="#84BE84" rx="3" ry="3" style="stroke:#038048;stroke-width:1.0;"/><text fill="#000000" font-family="sans-serif" font-size="11" lengthAdjust="spacing" textLength="30" x="325.5" y="108.5898">App()</text><ellipse cx="316.5" cy="117.9102" fill="#84BE84" rx="3" ry="3" style="stroke:#038048;stroke-width:1.0;"/><text fill="#000000" font-family="sans-serif" font-size="11" lengthAdjust="spacing" text-decoration="underline" textLength="107" x="325.5" y="121.5449">main(args : String[])</text><!--MD5=[120fced6fc53ed38bb00f3c478c713f1]
class Letter--><rect codeLine="7" fill="#FEFECE" filter="url(#f96adtzb7h6db)" height="86.8652" id="Letter" style="stroke:#A80036;stroke-width:1.5;" width="117" x="32.5" y="334.73"/><ellipse cx="70.9" cy="350.73" fill="#ADD1B2" rx="11" ry="11" style="stroke:#A80036;stroke-width:1.0;"/><path d="M73.3731,356.8731 Q72.7921,357.1719 72.1529,357.3213 Q71.5138,357.4707 70.8082,357.4707 Q68.3014,357.4707 66.9815,355.8189 Q65.6617,354.167 65.6617,351.0459 Q65.6617,347.9165 66.9815,346.2647 Q68.3014,344.6128 70.8082,344.6128 Q71.5138,344.6128 72.1612,344.7622 Q72.8087,344.9116 73.3731,345.2105 L73.3731,347.9331 Q72.7423,347.3521 72.1488,347.0823 Q71.5553,346.8125 70.9244,346.8125 Q69.5797,346.8125 68.8949,347.8792 Q68.2101,348.9458 68.2101,351.0459 Q68.2101,353.1377 68.8949,354.2044 Q69.5797,355.271 70.9244,355.271 Q71.5553,355.271 72.1488,355.0012 Q72.7423,354.7315 73.3731,354.1504 Z " fill="#000000"/><text fill="#000000" font-family="sans-serif" font-size="12" lengthAdjust="spacing" textLength="33" x="90.1" y="355.2652">Letter</text><line style="stroke:#A80036;stroke-width:1.5;" x1="33.5" x2="148.5" y1="366.73" y2="366.73"/><rect fill="none" height="6" style="stroke:#C82930;stroke-width:1.0;" width="6" x="40.5" y="374.73"/><text fill="#000000" font-family="sans-serif" font-size="11" lengthAdjust="spacing" textLength="84" x="52.5" y="381.3648">character : char</text><line style="stroke:#A80036;stroke-width:1.5;" x1="33.5" x2="148.5" y1="387.6851" y2="387.6851"/><ellipse cx="43.5" cy="398.6851" fill="#84BE84" rx="3" ry="3" style="stroke:#038048;stroke-width:1.0;"/><text fill="#000000" font-family="sans-serif" font-size="11" lengthAdjust="spacing" textLength="78" x="52.5" y="402.3198">Letter(c : char)</text><polygon fill="#FFFF44" points="43.5,406.6402,47.5,410.6402,43.5,414.6402,39.5,410.6402" style="stroke:#B38D22;stroke-width:1.0;"/><text fill="#000000" font-family="sans-serif" font-size="11" lengthAdjust="spacing" textLength="91" x="52.5" y="415.2749">printThisBefore()</text><!--MD5=[c35328c723ac268d87c52db3b70575f0]
class LetterComposite--><rect codeLine="12" fill="#FEFECE" filter="url(#f96adtzb7h6db)" height="138.6855" id="LetterComposite" style="stroke:#A80036;stroke-width:1.5;" width="205" x="176.5" y="501.6"/><ellipse cx="227.75" cy="517.6" fill="#A9DCDF" rx="11" ry="11" style="stroke:#A80036;stroke-width:1.0;"/><path d="M227.6133,512.9481 L226.4595,518.0199 L228.7754,518.0199 Z M226.1191,510.7069 L229.1157,510.7069 L232.4609,523.1 L230.0122,523.1 L229.2485,520.037 L225.9697,520.037 L225.2227,523.1 L222.7739,523.1 Z " fill="#000000"/><text fill="#000000" font-family="sans-serif" font-size="12" font-style="italic" lengthAdjust="spacing" textLength="94" x="248.25" y="522.1352">LetterComposite</text><line style="stroke:#A80036;stroke-width:1.5;" x1="177.5" x2="380.5" y1="533.6" y2="533.6"/><rect fill="none" height="6" style="stroke:#C82930;stroke-width:1.0;" width="6" x="184.5" y="541.6"/><text fill="#000000" font-family="sans-serif" font-size="11" lengthAdjust="spacing" textLength="179" x="196.5" y="548.2348">children : List&lt;LetterComposite&gt;</text><line style="stroke:#A80036;stroke-width:1.5;" x1="177.5" x2="380.5" y1="554.5551" y2="554.5551"/><ellipse cx="187.5" cy="565.5551" fill="#84BE84" rx="3" ry="3" style="stroke:#038048;stroke-width:1.0;"/><text fill="#000000" font-family="sans-serif" font-size="11" lengthAdjust="spacing" textLength="97" x="196.5" y="569.1898">LetterComposite()</text><ellipse cx="187.5" cy="578.5102" fill="#84BE84" rx="3" ry="3" style="stroke:#038048;stroke-width:1.0;"/><text fill="#000000" font-family="sans-serif" font-size="11" lengthAdjust="spacing" textLength="154" x="196.5" y="582.1449">add(letter : LetterComposite)</text><ellipse cx="187.5" cy="591.4652" fill="#84BE84" rx="3" ry="3" style="stroke:#038048;stroke-width:1.0;"/><text fill="#000000" font-family="sans-serif" font-size="11" lengthAdjust="spacing" textLength="62" x="196.5" y="595.1">count() : int</text><ellipse cx="187.5" cy="604.4203" fill="#84BE84" rx="3" ry="3" style="stroke:#038048;stroke-width:1.0;"/><text fill="#000000" font-family="sans-serif" font-size="11" lengthAdjust="spacing" textLength="34" x="196.5" y="608.0551">print()</text><polygon fill="#FFFF44" points="187.5,612.3754,191.5,616.3754,187.5,620.3754,183.5,616.3754" style="stroke:#B38D22;stroke-width:1.0;"/><text fill="#000000" font-family="sans-serif" font-size="11" lengthAdjust="spacing" textLength="84" x="196.5" y="621.0102">printThisAfter()</text><polygon fill="#FFFF44" points="187.5,625.3305,191.5,629.3305,187.5,633.3305,183.5,629.3305" style="stroke:#B38D22;stroke-width:1.0;"/><text fill="#000000" font-family="sans-serif" font-size="11" lengthAdjust="spacing" textLength="91" x="196.5" y="633.9652">printThisBefore()</text><!--MD5=[a44095febb5c0f3dbcca6f71fb4ef835]
class Messenger--><rect codeLine="21" fill="#FEFECE" filter="url(#f96adtzb7h6db)" height="86.8652" id="Messenger" style="stroke:#A80036;stroke-width:1.5;" width="234" x="255" y="187.87"/><ellipse cx="336.75" cy="203.87" fill="#ADD1B2" rx="11" ry="11" style="stroke:#A80036;stroke-width:1.0;"/><path d="M339.2231,210.0131 Q338.6421,210.3119 338.0029,210.4613 Q337.3638,210.6107 336.6582,210.6107 Q334.1514,210.6107 332.8315,208.9589 Q331.5117,207.307 331.5117,204.1859 Q331.5117,201.0565 332.8315,199.4047 Q334.1514,197.7528 336.6582,197.7528 Q337.3638,197.7528 338.0112,197.9022 Q338.6587,198.0516 339.2231,198.3505 L339.2231,201.0731 Q338.5923,200.4921 337.9988,200.2223 Q337.4053,199.9525 336.7744,199.9525 Q335.4297,199.9525 334.7449,201.0192 Q334.0601,202.0858 334.0601,204.1859 Q334.0601,206.2777 334.7449,207.3444 Q335.4297,208.411 336.7744,208.411 Q337.4053,208.411 337.9988,208.1412 Q338.5923,207.8715 339.2231,207.2904 Z " fill="#000000"/><text fill="#000000" font-family="sans-serif" font-size="12" lengthAdjust="spacing" textLength="62" x="357.25" y="208.4052">Messenger</text><line style="stroke:#A80036;stroke-width:1.5;" x1="256" x2="488" y1="219.87" y2="219.87"/><line style="stroke:#A80036;stroke-width:1.5;" x1="256" x2="488" y1="227.87" y2="227.87"/><ellipse cx="266" cy="238.87" fill="#84BE84" rx="3" ry="3" style="stroke:#038048;stroke-width:1.0;"/><text fill="#000000" font-family="sans-serif" font-size="11" lengthAdjust="spacing" textLength="66" x="275" y="242.5048">Messenger()</text><polygon fill="#4177AF" points="266,247.8251,262,253.8251,270,253.8251" style="stroke:#1963A0;stroke-width:1.0;"/><text fill="#000000" font-family="sans-serif" font-size="11" lengthAdjust="spacing" textLength="208" x="275" y="255.4598">messageFromElves() : LetterComposite</text><polygon fill="#4177AF" points="266,260.7802,262,266.7802,270,266.7802" style="stroke:#1963A0;stroke-width:1.0;"/><text fill="#000000" font-family="sans-serif" font-size="11" lengthAdjust="spacing" textLength="207" x="275" y="268.4149">messageFromOrcs() : LetterComposite</text><!--MD5=[809345c0b0cbe75053da8b155ded178a]
class Sentence--><rect codeLine="26" fill="#FEFECE" filter="url(#f96adtzb7h6db)" height="73.9102" id="Sentence" style="stroke:#A80036;stroke-width:1.5;" width="189" x="184.5" y="341.21"/><ellipse cx="249.25" cy="357.21" fill="#ADD1B2" rx="11" ry="11" style="stroke:#A80036;stroke-width:1.0;"/><path d="M251.7231,363.3531 Q251.1421,363.6519 250.5029,363.8013 Q249.8638,363.9507 249.1582,363.9507 Q246.6514,363.9507 245.3315,362.2989 Q244.0117,360.647 244.0117,357.5259 Q244.0117,354.3965 245.3315,352.7447 Q246.6514,351.0928 249.1582,351.0928 Q249.8638,351.0928 250.5112,351.2422 Q251.1587,351.3916 251.7231,351.6905 L251.7231,354.4131 Q251.0923,353.8321 250.4988,353.5623 Q249.9053,353.2925 249.2744,353.2925 Q247.9297,353.2925 247.2449,354.3592 Q246.5601,355.4258 246.5601,357.5259 Q246.5601,359.6177 247.2449,360.6844 Q247.9297,361.751 249.2744,361.751 Q249.9053,361.751 250.4988,361.4812 Q251.0923,361.2115 251.7231,360.6304 Z " fill="#000000"/><text fill="#000000" font-family="sans-serif" font-size="12" lengthAdjust="spacing" textLength="51" x="269.75" y="361.7452">Sentence</text><line style="stroke:#A80036;stroke-width:1.5;" x1="185.5" x2="372.5" y1="373.21" y2="373.21"/><line style="stroke:#A80036;stroke-width:1.5;" x1="185.5" x2="372.5" y1="381.21" y2="381.21"/><ellipse cx="195.5" cy="392.21" fill="#84BE84" rx="3" ry="3" style="stroke:#038048;stroke-width:1.0;"/><text fill="#000000" font-family="sans-serif" font-size="11" lengthAdjust="spacing" textLength="163" x="204.5" y="395.8448">Sentence(words : List&lt;Word&gt;)</text><polygon fill="#FFFF44" points="195.5,400.1651,199.5,404.1651,195.5,408.1651,191.5,404.1651" style="stroke:#B38D22;stroke-width:1.0;"/><text fill="#000000" font-family="sans-serif" font-size="11" lengthAdjust="spacing" textLength="84" x="204.5" y="408.7998">printThisAfter()</text><!--MD5=[07513b2cfa2016c46090541be20532fe]
class Word--><rect codeLine="30" fill="#FEFECE" filter="url(#f96adtzb7h6db)" height="86.8652" id="Word" style="stroke:#A80036;stroke-width:1.5;" width="173" x="408.5" y="334.73"/><ellipse cx="475.75" cy="350.73" fill="#ADD1B2" rx="11" ry="11" style="stroke:#A80036;stroke-width:1.0;"/><path d="M478.2231,356.8731 Q477.6421,357.1719 477.0029,357.3213 Q476.3638,357.4707 475.6582,357.4707 Q473.1514,357.4707 471.8315,355.8189 Q470.5117,354.167 470.5117,351.0459 Q470.5117,347.9165 471.8315,346.2647 Q473.1514,344.6128 475.6582,344.6128 Q476.3638,344.6128 477.0112,344.7622 Q477.6587,344.9116 478.2231,345.2105 L478.2231,347.9331 Q477.5923,347.3521 476.9988,347.0823 Q476.4053,346.8125 475.7744,346.8125 Q474.4297,346.8125 473.7449,347.8792 Q473.0601,348.9458 473.0601,351.0459 Q473.0601,353.1377 473.7449,354.2044 Q474.4297,355.271 475.7744,355.271 Q476.4053,355.271 476.9988,355.0012 Q477.5923,354.7315 478.2231,354.1504 Z " fill="#000000"/><text fill="#000000" font-family="sans-serif" font-size="12" lengthAdjust="spacing" textLength="30" x="496.25" y="355.2652">Word</text><line style="stroke:#A80036;stroke-width:1.5;" x1="409.5" x2="580.5" y1="366.73" y2="366.73"/><line style="stroke:#A80036;stroke-width:1.5;" x1="409.5" x2="580.5" y1="374.73" y2="374.73"/><ellipse cx="419.5" cy="385.73" fill="#84BE84" rx="3" ry="3" style="stroke:#038048;stroke-width:1.0;"/><text fill="#000000" font-family="sans-serif" font-size="11" lengthAdjust="spacing" textLength="147" x="428.5" y="389.3648">Word(letters : List&lt;Letter&gt;)</text><ellipse cx="419.5" cy="398.6851" fill="#84BE84" rx="3" ry="3" style="stroke:#038048;stroke-width:1.0;"/><text fill="#000000" font-family="sans-serif" font-size="11" lengthAdjust="spacing" textLength="111" x="428.5" y="402.3198">Word(letters : char[])</text><polygon fill="#FFFF44" points="419.5,406.6402,423.5,410.6402,419.5,414.6402,415.5,410.6402" style="stroke:#B38D22;stroke-width:1.0;"/><text fill="#000000" font-family="sans-serif" font-size="11" lengthAdjust="spacing" textLength="91" x="428.5" y="415.2749">printThisBefore()</text><!--MD5=[4f2ef09db44c52d22efe6a568fd501be]
link LetterComposite to LetterComposite--><path codeLine="36" d="M381.12,534.52 C414.21,534.8 440.5,546.83 440.5,570.6 C440.5,592.79 417.59,604.75 387.61,606.47 " fill="none" id="LetterComposite-to-LetterComposite" style="stroke:#A80036;stroke-width:1.0;"/><polygon fill="#A80036" points="382.63,606.63,391.7515,610.3445,387.6275,606.4725,391.4995,602.3485,382.63,606.63" style="stroke:#A80036;stroke-width:1.0;"/><text fill="#000000" font-family="sans-serif" font-size="13" lengthAdjust="spacing" textLength="59" x="389.5519" y="606.0673">-children</text><!--MD5=[5f184d197247a58cd36b652316532839]
link Letter to LetterComposite--><path codeLine="37" d="M133.19,421.9 C152.1,441.06 175.08,464.34 197.15,486.69 " fill="none" id="Letter-to-LetterComposite" style="stroke:#A80036;stroke-width:1.0;"/><polygon fill="none" points="202.09,481.74,211.16,500.89,192.13,491.57,202.09,481.74" style="stroke:#A80036;stroke-width:1.0;"/><!--MD5=[4e1a7e6e3a0c5a777daadcbae8357891]
link Sentence to LetterComposite--><path codeLine="38" d="M279,415.43 C279,434.01 279,457.53 279,480.55 " fill="none" id="Sentence-to-LetterComposite" style="stroke:#A80036;stroke-width:1.0;"/><polygon fill="none" points="286,480.35,279,500.35,272,480.35,286,480.35" style="stroke:#A80036;stroke-width:1.0;"/><!--MD5=[656d8ab685982e26a33c0c3c0982c950]
link Word to LetterComposite--><path codeLine="39" d="M446.53,421.9 C424.38,441.43 397.38,465.23 371.57,487.98 " fill="none" id="Word-to-LetterComposite" style="stroke:#A80036;stroke-width:1.0;"/><polygon fill="none" points="376.48,492.99,356.85,500.96,367.23,482.49,376.48,492.99" style="stroke:#A80036;stroke-width:1.0;"/><!--MD5=[4fe1df1827ebb6df47f7478f5b2c408e]
link Messenger to Word--><path codeLine="40" d="M408.24,274.98 C422.75,292.07 439.53,311.83 454.44,329.4 " fill="none" id="Messenger-to-Word" style="stroke:#A80036;stroke-width:1.0;"/><polygon fill="#A80036" points="457.62,333.14,454.8204,323.6974,454.3743,329.3367,448.7351,328.8906,457.62,333.14" style="stroke:#A80036;stroke-width:1.0;"/><!--MD5=[b830b9b2e7b59bc4d5197446ea87d3f5]
link Messenger to Sentence--><path codeLine="41" d="M344.6,274.98 C332.26,294.21 317.74,316.82 305.51,335.87 " fill="none" id="Messenger-to-Sentence" style="stroke:#A80036;stroke-width:1.0;"/><polygon fill="#A80036" points="302.94,339.87,311.1715,334.4624,305.6438,335.6641,304.4421,330.1364,302.94,339.87" style="stroke:#A80036;stroke-width:1.0;"/><!--MD5=[53034a4c8c3be564f583cdca8ced17a5]
link App to Messenger--><path codeLine="42" d="M372,128.12 C372,144.77 372,163.96 372,181.18 " fill="none" id="App-to-Messenger" style="stroke:#A80036;stroke-width:1.0;"/><polygon fill="#A80036" points="372,185.91,376,176.91,372,180.91,368,176.91,372,185.91" style="stroke:#A80036;stroke-width:1.0;"/><!--MD5=[a999a878a76e61956d27df1c8a106667]
@startuml
package com.yonatankarp.composite {
  class App {
    - logger : Logger {static}
    + App()
    + main(args : String[]) {static}
  }
  class Letter {
    - character : char
    + Letter(c : char)
    # printThisBefore()
  }
  abstract class LetterComposite {
    - children : List<LetterComposite>
    + LetterComposite()
    + add(letter : LetterComposite)
    + count() : int
    + print()
    # printThisAfter()
    # printThisBefore()
  }
  class Messenger {
    + Messenger()
    ~ messageFromElves() : LetterComposite
    ~ messageFromOrcs() : LetterComposite
  }
  class Sentence {
    + Sentence(words : List<Word>)
    # printThisAfter()
  }
  class Word {
    + Word(letters : List<Letter>)
    + Word(letters : char[])
    # printThisBefore()
  }
}
LetterComposite - ->  "-children" LetterComposite
Letter - -|> LetterComposite
Sentence - -|> LetterComposite
Word - -|> LetterComposite
Messenger - -> Word
Messenger - -> Sentence
App - -> Messenger
@enduml

PlantUML version 1.2021.16(Wed Dec 08 18:25:22 CET 2021)
(GPL source distribution)
Java Runtime: OpenJDK Runtime Environment
JVM: OpenJDK 64-Bit Server VM
Default Encoding: UTF-8
Language: en
Country: DE
--></g></svg>