<?xml version="1.0" encoding="UTF-8" standalone="no"?><svg xmlns="http://www.w3.org/2000/svg" xmlns:xlink="http://www.w3.org/1999/xlink" contentScriptType="application/ecmascript" contentStyleType="text/css" height="388px" preserveAspectRatio="none" style="width:1084px;height:388px;background:#FFFFFF;" version="1.1" viewBox="0 0 1084 388" width="1084px" zoomAndPan="magnify"><defs><filter height="300%" id="f1arb4eutqxsm9" width="300%" x="-1" y="-1"><feGaussianBlur result="blurOut" stdDeviation="2.0"/><feColorMatrix in="blurOut" result="blurOut2" type="matrix" values="0 0 0 0 0 0 0 0 0 0 0 0 0 0 0 0 0 0 .4 0"/><feOffset dx="4.0" dy="4.0" in="blurOut2" result="blurOut3"/><feBlend in="SourceGraphic" in2="blurOut3" mode="normal"/></filter></defs><g><!--MD5=[8124a7bc166626a4614f555fbaa23081]
cluster com.yonatankarp.bridge--><polygon fill="#FFFFFF" filter="url(#f1arb4eutqxsm9)" points="16,6,193,6,200,28.4883,1067,28.4883,1067,381.69,16,381.69,16,6" style="stroke:#000000;stroke-width:1.5;"/><line style="stroke:#000000;stroke-width:1.5;" x1="16" x2="200" y1="28.4883" y2="28.4883"/><text fill="#000000" font-family="sans-serif" font-size="14" font-weight="bold" lengthAdjust="spacing" textLength="171" x="20" y="21.5352">com.yonatankarp.bridge</text><!--MD5=[335f4d9be48430461c68bf6d6fdba145]
class App--><rect codeLine="2" fill="#FEFECE" filter="url(#f1arb4eutqxsm9)" height="86.8652" id="App" style="stroke:#A80036;stroke-width:1.5;" width="133" x="918.5" y="66.91"/><ellipse cx="968.75" cy="82.91" fill="#ADD1B2" rx="11" ry="11" style="stroke:#A80036;stroke-width:1.0;"/><path d="M971.2231,89.0531 Q970.6421,89.3519 970.0029,89.5013 Q969.3638,89.6507 968.6582,89.6507 Q966.1514,89.6507 964.8315,87.9989 Q963.5117,86.347 963.5117,83.2259 Q963.5117,80.0965 964.8315,78.4447 Q966.1514,76.7928 968.6582,76.7928 Q969.3638,76.7928 970.0112,76.9422 Q970.6587,77.0916 971.2231,77.3905 L971.2231,80.1131 Q970.5923,79.5321 969.9988,79.2623 Q969.4053,78.9925 968.7744,78.9925 Q967.4297,78.9925 966.7449,80.0592 Q966.0601,81.1258 966.0601,83.2259 Q966.0601,85.3177 966.7449,86.3844 Q967.4297,87.451 968.7744,87.451 Q969.4053,87.451 969.9988,87.1812 Q970.5923,86.9115 971.2231,86.3304 Z " fill="#000000"/><text fill="#000000" font-family="sans-serif" font-size="12" lengthAdjust="spacing" textLength="24" x="989.25" y="87.4452">App</text><line style="stroke:#A80036;stroke-width:1.5;" x1="919.5" x2="1050.5" y1="98.91" y2="98.91"/><rect fill="none" height="6" style="stroke:#C82930;stroke-width:1.0;" width="6" x="926.5" y="106.91"/><text fill="#000000" font-family="sans-serif" font-size="11" lengthAdjust="spacing" text-decoration="underline" textLength="91" x="938.5" y="113.5448">LOGGER : Logger</text><line style="stroke:#A80036;stroke-width:1.5;" x1="919.5" x2="1050.5" y1="119.8651" y2="119.8651"/><ellipse cx="929.5" cy="130.8651" fill="#84BE84" rx="3" ry="3" style="stroke:#038048;stroke-width:1.0;"/><text fill="#000000" font-family="sans-serif" font-size="11" lengthAdjust="spacing" textLength="30" x="938.5" y="134.4998">App()</text><ellipse cx="929.5" cy="143.8202" fill="#84BE84" rx="3" ry="3" style="stroke:#038048;stroke-width:1.0;"/><text fill="#000000" font-family="sans-serif" font-size="11" lengthAdjust="spacing" text-decoration="underline" textLength="107" x="938.5" y="147.4549">main(args : String[])</text><!--MD5=[5a16c0ad0b4032ba72faa39652912379]
class Enchantment--><rect codeLine="7" fill="#FEFECE" filter="url(#f1arb4eutqxsm9)" height="86.8652" id="Enchantment" style="stroke:#A80036;stroke-width:1.5;" width="106" x="459" y="259.69"/><ellipse cx="474" cy="275.69" fill="#B4A7E5" rx="11" ry="11" style="stroke:#A80036;stroke-width:1.0;"/><path d="M470.4277,271.9551 L470.4277,269.7969 L477.8071,269.7969 L477.8071,271.9551 L475.3418,271.9551 L475.3418,280.0318 L477.8071,280.0318 L477.8071,282.19 L470.4277,282.19 L470.4277,280.0318 L472.8931,280.0318 L472.8931,271.9551 Z " fill="#000000"/><text fill="#000000" font-family="sans-serif" font-size="12" font-style="italic" lengthAdjust="spacing" textLength="74" x="488" y="280.2252">Enchantment</text><line style="stroke:#A80036;stroke-width:1.5;" x1="460" x2="564" y1="291.69" y2="291.69"/><line style="stroke:#A80036;stroke-width:1.5;" x1="460" x2="564" y1="299.69" y2="299.69"/><ellipse cx="470" cy="310.69" fill="#84BE84" rx="3" ry="3" style="stroke:#038048;stroke-width:1.0;"/><text fill="#000000" font-family="sans-serif" font-size="11" font-style="italic" lengthAdjust="spacing" textLength="37" x="479" y="314.3248">apply()</text><ellipse cx="470" cy="323.6451" fill="#84BE84" rx="3" ry="3" style="stroke:#038048;stroke-width:1.0;"/><text fill="#000000" font-family="sans-serif" font-size="11" font-style="italic" lengthAdjust="spacing" textLength="65" x="479" y="327.2798">onActivate()</text><ellipse cx="470" cy="336.6002" fill="#84BE84" rx="3" ry="3" style="stroke:#038048;stroke-width:1.0;"/><text fill="#000000" font-family="sans-serif" font-size="11" font-style="italic" lengthAdjust="spacing" textLength="77" x="479" y="340.2349">onDeactivate()</text><!--MD5=[517150b5bcd58953b2329c6e87958e28]
class FlyingEnchantment--><rect codeLine="12" fill="#FEFECE" filter="url(#f1arb4eutqxsm9)" height="112.7754" id="FlyingEnchantment" style="stroke:#A80036;stroke-width:1.5;" width="138" x="745" y="53.96"/><ellipse cx="760" cy="69.96" fill="#ADD1B2" rx="11" ry="11" style="stroke:#A80036;stroke-width:1.0;"/><path d="M762.4731,76.1031 Q761.8921,76.4019 761.2529,76.5513 Q760.6138,76.7007 759.9082,76.7007 Q757.4014,76.7007 756.0815,75.0489 Q754.7617,73.397 754.7617,70.2759 Q754.7617,67.1465 756.0815,65.4947 Q757.4014,63.8428 759.9082,63.8428 Q760.6138,63.8428 761.2612,63.9922 Q761.9087,64.1416 762.4731,64.4405 L762.4731,67.1631 Q761.8423,66.5821 761.2488,66.3123 Q760.6553,66.0425 760.0244,66.0425 Q758.6797,66.0425 757.9949,67.1092 Q757.3101,68.1758 757.3101,70.2759 Q757.3101,72.3677 757.9949,73.4344 Q758.6797,74.501 760.0244,74.501 Q760.6553,74.501 761.2488,74.2312 Q761.8423,73.9615 762.4731,73.3804 Z " fill="#000000"/><text fill="#000000" font-family="sans-serif" font-size="12" lengthAdjust="spacing" textLength="106" x="774" y="74.4952">FlyingEnchantment</text><line style="stroke:#A80036;stroke-width:1.5;" x1="746" x2="882" y1="85.96" y2="85.96"/><rect fill="none" height="6" style="stroke:#C82930;stroke-width:1.0;" width="6" x="753" y="93.96"/><text fill="#000000" font-family="sans-serif" font-size="11" lengthAdjust="spacing" text-decoration="underline" textLength="91" x="765" y="100.5948">LOGGER : Logger</text><line style="stroke:#A80036;stroke-width:1.5;" x1="746" x2="882" y1="106.9151" y2="106.9151"/><ellipse cx="756" cy="117.9151" fill="#84BE84" rx="3" ry="3" style="stroke:#038048;stroke-width:1.0;"/><text fill="#000000" font-family="sans-serif" font-size="11" lengthAdjust="spacing" textLength="110" x="765" y="121.5498">FlyingEnchantment()</text><ellipse cx="756" cy="130.8702" fill="#84BE84" rx="3" ry="3" style="stroke:#038048;stroke-width:1.0;"/><text fill="#000000" font-family="sans-serif" font-size="11" lengthAdjust="spacing" textLength="37" x="765" y="134.5049">apply()</text><ellipse cx="756" cy="143.8252" fill="#84BE84" rx="3" ry="3" style="stroke:#038048;stroke-width:1.0;"/><text fill="#000000" font-family="sans-serif" font-size="11" lengthAdjust="spacing" textLength="65" x="765" y="147.46">onActivate()</text><ellipse cx="756" cy="156.7803" fill="#84BE84" rx="3" ry="3" style="stroke:#038048;stroke-width:1.0;"/><text fill="#000000" font-family="sans-serif" font-size="11" lengthAdjust="spacing" textLength="77" x="765" y="160.4151">onDeactivate()</text><!--MD5=[86c1596561fee28999dc00b52e297f69]
class Hammer--><rect codeLine="19" fill="#FEFECE" filter="url(#f1arb4eutqxsm9)" height="138.6855" id="Hammer" style="stroke:#A80036;stroke-width:1.5;" width="228" x="283" y="41"/><ellipse cx="367.75" cy="57" fill="#ADD1B2" rx="11" ry="11" style="stroke:#A80036;stroke-width:1.0;"/><path d="M370.2231,63.1431 Q369.6421,63.4419 369.0029,63.5913 Q368.3638,63.7407 367.6582,63.7407 Q365.1514,63.7407 363.8315,62.0889 Q362.5117,60.437 362.5117,57.3159 Q362.5117,54.1865 363.8315,52.5347 Q365.1514,50.8828 367.6582,50.8828 Q368.3638,50.8828 369.0112,51.0322 Q369.6587,51.1816 370.2231,51.4805 L370.2231,54.2031 Q369.5923,53.6221 368.9988,53.3523 Q368.4053,53.0825 367.7744,53.0825 Q366.4297,53.0825 365.7449,54.1492 Q365.0601,55.2158 365.0601,57.3159 Q365.0601,59.4077 365.7449,60.4744 Q366.4297,61.541 367.7744,61.541 Q368.4053,61.541 368.9988,61.2712 Q369.5923,61.0015 370.2231,60.4204 Z " fill="#000000"/><text fill="#000000" font-family="sans-serif" font-size="12" lengthAdjust="spacing" textLength="50" x="388.25" y="61.5352">Hammer</text><line style="stroke:#A80036;stroke-width:1.5;" x1="284" x2="510" y1="73" y2="73"/><rect fill="none" height="6" style="stroke:#C82930;stroke-width:1.0;" width="6" x="291" y="81"/><text fill="#000000" font-family="sans-serif" font-size="11" lengthAdjust="spacing" text-decoration="underline" textLength="91" x="303" y="87.6348">LOGGER : Logger</text><rect fill="none" height="6" style="stroke:#C82930;stroke-width:1.0;" width="6" x="291" y="93.9551"/><text fill="#000000" font-family="sans-serif" font-size="11" lengthAdjust="spacing" textLength="149" x="303" y="100.5898">enchantment : Enchantment</text><line style="stroke:#A80036;stroke-width:1.5;" x1="284" x2="510" y1="106.9102" y2="106.9102"/><ellipse cx="294" cy="117.9102" fill="#84BE84" rx="3" ry="3" style="stroke:#038048;stroke-width:1.0;"/><text fill="#000000" font-family="sans-serif" font-size="11" lengthAdjust="spacing" textLength="202" x="303" y="121.5449">Hammer(enchantment : Enchantment)</text><ellipse cx="294" cy="130.8652" fill="#84BE84" rx="3" ry="3" style="stroke:#038048;stroke-width:1.0;"/><text fill="#000000" font-family="sans-serif" font-size="11" lengthAdjust="spacing" textLength="174" x="303" y="134.5">getEnchantment() : Enchantment</text><ellipse cx="294" cy="143.8203" fill="#84BE84" rx="3" ry="3" style="stroke:#038048;stroke-width:1.0;"/><text fill="#000000" font-family="sans-serif" font-size="11" lengthAdjust="spacing" textLength="39" x="303" y="147.4551">swing()</text><ellipse cx="294" cy="156.7754" fill="#84BE84" rx="3" ry="3" style="stroke:#038048;stroke-width:1.0;"/><text fill="#000000" font-family="sans-serif" font-size="11" lengthAdjust="spacing" textLength="49" x="303" y="160.4102">unwield()</text><ellipse cx="294" cy="169.7305" fill="#84BE84" rx="3" ry="3" style="stroke:#038048;stroke-width:1.0;"/><text fill="#000000" font-family="sans-serif" font-size="11" lengthAdjust="spacing" textLength="35" x="303" y="173.3652">wield()</text><!--MD5=[9d6861b1dc40d6291cea19cdcf300c78]
class SoulEatingEnchantment--><rect codeLine="28" fill="#FEFECE" filter="url(#f1arb4eutqxsm9)" height="112.7754" id="SoulEatingEnchantment" style="stroke:#A80036;stroke-width:1.5;" width="164" x="546" y="53.96"/><ellipse cx="561" cy="69.96" fill="#ADD1B2" rx="11" ry="11" style="stroke:#A80036;stroke-width:1.0;"/><path d="M563.4731,76.1031 Q562.8921,76.4019 562.2529,76.5513 Q561.6138,76.7007 560.9082,76.7007 Q558.4014,76.7007 557.0815,75.0489 Q555.7617,73.397 555.7617,70.2759 Q555.7617,67.1465 557.0815,65.4947 Q558.4014,63.8428 560.9082,63.8428 Q561.6138,63.8428 562.2612,63.9922 Q562.9087,64.1416 563.4731,64.4405 L563.4731,67.1631 Q562.8423,66.5821 562.2488,66.3123 Q561.6553,66.0425 561.0244,66.0425 Q559.6797,66.0425 558.9949,67.1092 Q558.3101,68.1758 558.3101,70.2759 Q558.3101,72.3677 558.9949,73.4344 Q559.6797,74.501 561.0244,74.501 Q561.6553,74.501 562.2488,74.2312 Q562.8423,73.9615 563.4731,73.3804 Z " fill="#000000"/><text fill="#000000" font-family="sans-serif" font-size="12" lengthAdjust="spacing" textLength="132" x="575" y="74.4952">SoulEatingEnchantment</text><line style="stroke:#A80036;stroke-width:1.5;" x1="547" x2="709" y1="85.96" y2="85.96"/><rect fill="none" height="6" style="stroke:#C82930;stroke-width:1.0;" width="6" x="554" y="93.96"/><text fill="#000000" font-family="sans-serif" font-size="11" lengthAdjust="spacing" text-decoration="underline" textLength="91" x="566" y="100.5948">LOGGER : Logger</text><line style="stroke:#A80036;stroke-width:1.5;" x1="547" x2="709" y1="106.9151" y2="106.9151"/><ellipse cx="557" cy="117.9151" fill="#84BE84" rx="3" ry="3" style="stroke:#038048;stroke-width:1.0;"/><text fill="#000000" font-family="sans-serif" font-size="11" lengthAdjust="spacing" textLength="134" x="566" y="121.5498">SoulEatingEnchantment()</text><ellipse cx="557" cy="130.8702" fill="#84BE84" rx="3" ry="3" style="stroke:#038048;stroke-width:1.0;"/><text fill="#000000" font-family="sans-serif" font-size="11" lengthAdjust="spacing" textLength="37" x="566" y="134.5049">apply()</text><ellipse cx="557" cy="143.8252" fill="#84BE84" rx="3" ry="3" style="stroke:#038048;stroke-width:1.0;"/><text fill="#000000" font-family="sans-serif" font-size="11" lengthAdjust="spacing" textLength="65" x="566" y="147.46">onActivate()</text><ellipse cx="557" cy="156.7803" fill="#84BE84" rx="3" ry="3" style="stroke:#038048;stroke-width:1.0;"/><text fill="#000000" font-family="sans-serif" font-size="11" lengthAdjust="spacing" textLength="77" x="566" y="160.4151">onDeactivate()</text><!--MD5=[53a1db06a8ddb586c04aec032f1cb7b6]
class Sword--><rect codeLine="35" fill="#FEFECE" filter="url(#f1arb4eutqxsm9)" height="138.6855" id="Sword" style="stroke:#A80036;stroke-width:1.5;" width="216" x="32" y="41"/><ellipse cx="118.25" cy="57" fill="#ADD1B2" rx="11" ry="11" style="stroke:#A80036;stroke-width:1.0;"/><path d="M120.7231,63.1431 Q120.1421,63.4419 119.5029,63.5913 Q118.8638,63.7407 118.1582,63.7407 Q115.6514,63.7407 114.3315,62.0889 Q113.0117,60.437 113.0117,57.3159 Q113.0117,54.1865 114.3315,52.5347 Q115.6514,50.8828 118.1582,50.8828 Q118.8638,50.8828 119.5112,51.0322 Q120.1587,51.1816 120.7231,51.4805 L120.7231,54.2031 Q120.0923,53.6221 119.4988,53.3523 Q118.9053,53.0825 118.2744,53.0825 Q116.9297,53.0825 116.2449,54.1492 Q115.5601,55.2158 115.5601,57.3159 Q115.5601,59.4077 116.2449,60.4744 Q116.9297,61.541 118.2744,61.541 Q118.9053,61.541 119.4988,61.2712 Q120.0923,61.0015 120.7231,60.4204 Z " fill="#000000"/><text fill="#000000" font-family="sans-serif" font-size="12" lengthAdjust="spacing" textLength="35" x="138.75" y="61.5352">Sword</text><line style="stroke:#A80036;stroke-width:1.5;" x1="33" x2="247" y1="73" y2="73"/><rect fill="none" height="6" style="stroke:#C82930;stroke-width:1.0;" width="6" x="40" y="81"/><text fill="#000000" font-family="sans-serif" font-size="11" lengthAdjust="spacing" text-decoration="underline" textLength="91" x="52" y="87.6348">LOGGER : Logger</text><rect fill="none" height="6" style="stroke:#C82930;stroke-width:1.0;" width="6" x="40" y="93.9551"/><text fill="#000000" font-family="sans-serif" font-size="11" lengthAdjust="spacing" textLength="149" x="52" y="100.5898">enchantment : Enchantment</text><line style="stroke:#A80036;stroke-width:1.5;" x1="33" x2="247" y1="106.9102" y2="106.9102"/><ellipse cx="43" cy="117.9102" fill="#84BE84" rx="3" ry="3" style="stroke:#038048;stroke-width:1.0;"/><text fill="#000000" font-family="sans-serif" font-size="11" lengthAdjust="spacing" textLength="190" x="52" y="121.5449">Sword(enchantment : Enchantment)</text><ellipse cx="43" cy="130.8652" fill="#84BE84" rx="3" ry="3" style="stroke:#038048;stroke-width:1.0;"/><text fill="#000000" font-family="sans-serif" font-size="11" lengthAdjust="spacing" textLength="174" x="52" y="134.5">getEnchantment() : Enchantment</text><ellipse cx="43" cy="143.8203" fill="#84BE84" rx="3" ry="3" style="stroke:#038048;stroke-width:1.0;"/><text fill="#000000" font-family="sans-serif" font-size="11" lengthAdjust="spacing" textLength="39" x="52" y="147.4551">swing()</text><ellipse cx="43" cy="156.7754" fill="#84BE84" rx="3" ry="3" style="stroke:#038048;stroke-width:1.0;"/><text fill="#000000" font-family="sans-serif" font-size="11" lengthAdjust="spacing" textLength="49" x="52" y="160.4102">unwield()</text><ellipse cx="43" cy="169.7305" fill="#84BE84" rx="3" ry="3" style="stroke:#038048;stroke-width:1.0;"/><text fill="#000000" font-family="sans-serif" font-size="11" lengthAdjust="spacing" textLength="35" x="52" y="173.3652">wield()</text><!--MD5=[a3f6aaa3f93db2c29fed664e0312b4de]
class Weapon--><rect codeLine="44" fill="#FEFECE" filter="url(#f1arb4eutqxsm9)" height="99.8203" id="Weapon" style="stroke:#A80036;stroke-width:1.5;" width="200" x="120" y="252.78"/><ellipse cx="192.75" cy="268.78" fill="#B4A7E5" rx="11" ry="11" style="stroke:#A80036;stroke-width:1.0;"/><path d="M189.1777,265.0451 L189.1777,262.8869 L196.5571,262.8869 L196.5571,265.0451 L194.0918,265.0451 L194.0918,273.1218 L196.5571,273.1218 L196.5571,275.28 L189.1777,275.28 L189.1777,273.1218 L191.6431,273.1218 L191.6431,265.0451 Z " fill="#000000"/><text fill="#000000" font-family="sans-serif" font-size="12" font-style="italic" lengthAdjust="spacing" textLength="46" x="213.25" y="273.3152">Weapon</text><line style="stroke:#A80036;stroke-width:1.5;" x1="121" x2="319" y1="284.78" y2="284.78"/><line style="stroke:#A80036;stroke-width:1.5;" x1="121" x2="319" y1="292.78" y2="292.78"/><ellipse cx="131" cy="303.78" fill="#84BE84" rx="3" ry="3" style="stroke:#038048;stroke-width:1.0;"/><text fill="#000000" font-family="sans-serif" font-size="11" font-style="italic" lengthAdjust="spacing" textLength="174" x="140" y="307.4148">getEnchantment() : Enchantment</text><ellipse cx="131" cy="316.7351" fill="#84BE84" rx="3" ry="3" style="stroke:#038048;stroke-width:1.0;"/><text fill="#000000" font-family="sans-serif" font-size="11" font-style="italic" lengthAdjust="spacing" textLength="39" x="140" y="320.3698">swing()</text><ellipse cx="131" cy="329.6902" fill="#84BE84" rx="3" ry="3" style="stroke:#038048;stroke-width:1.0;"/><text fill="#000000" font-family="sans-serif" font-size="11" font-style="italic" lengthAdjust="spacing" textLength="49" x="140" y="333.3249">unwield()</text><ellipse cx="131" cy="342.6452" fill="#84BE84" rx="3" ry="3" style="stroke:#038048;stroke-width:1.0;"/><text fill="#000000" font-family="sans-serif" font-size="11" font-style="italic" lengthAdjust="spacing" textLength="35" x="140" y="346.28">wield()</text><!--MD5=[2c33f450867bf2860414afd1378390a3]
link Sword to Enchantment--><path codeLine="51" d="M248.26,170.89 C253.91,173.89 259.51,176.84 265,179.69 C328.94,212.94 403.19,249.32 453.46,273.62 " fill="none" id="Sword-to-Enchantment" style="stroke:#A80036;stroke-width:1.0;"/><polygon fill="#A80036" points="457.8,275.72,451.452,268.1898,453.3025,273.5355,447.9568,275.3859,457.8,275.72" style="stroke:#A80036;stroke-width:1.0;"/><text fill="#000000" font-family="sans-serif" font-size="13" lengthAdjust="spacing" textLength="90" x="361.0576" y="271.1255">-enchantment</text><!--MD5=[1c4f584e64276ba489f191c71846270c]
link Hammer to Enchantment--><path codeLine="52" d="M438.52,180.07 C453.47,204.81 469.98,232.15 483.56,254.62 " fill="none" id="Hammer-to-Enchantment" style="stroke:#A80036;stroke-width:1.0;"/><polygon fill="#A80036" points="485.99,258.64,484.7511,248.8694,483.4007,254.3627,477.9074,253.0122,485.99,258.64" style="stroke:#A80036;stroke-width:1.0;"/><text fill="#000000" font-family="sans-serif" font-size="13" lengthAdjust="spacing" textLength="90" x="384.6992" y="248.8123">-enchantment</text><!--MD5=[cb8887ea2ece7b2fcd48609d5fefc6a2]
link FlyingEnchantment to Enchantment--><path codeLine="53" d="M745.72,167.16 C739.81,171.52 733.85,175.75 728,179.69 C681.54,210.99 626.52,241.98 583.65,264.89 " fill="none" id="FlyingEnchantment-to-Enchantment" style="stroke:#A80036;stroke-width:1.0;stroke-dasharray:7.0,7.0;"/><polygon fill="none" points="587.16,270.95,566.21,274.12,580.61,258.58,587.16,270.95" style="stroke:#A80036;stroke-width:1.0;"/><!--MD5=[fa7a32b901e4fe2ea50774695a227f04]
link Hammer to Weapon--><path codeLine="54" d="M333.1,180.07 C315.87,198.6 297.28,218.58 280.26,236.89 " fill="none" id="Hammer-to-Weapon" style="stroke:#A80036;stroke-width:1.0;stroke-dasharray:7.0,7.0;"/><polygon fill="none" points="285.55,241.48,266.8,251.36,275.29,231.95,285.55,241.48" style="stroke:#A80036;stroke-width:1.0;"/><!--MD5=[22b489a845480dbd83d654706df0a073]
link SoulEatingEnchantment to Enchantment--><path codeLine="55" d="M593.98,167.17 C579.74,190.54 563.15,217.75 548.64,241.56 " fill="none" id="SoulEatingEnchantment-to-Enchantment" style="stroke:#A80036;stroke-width:1.0;stroke-dasharray:7.0,7.0;"/><polygon fill="none" points="554.71,245.06,538.32,258.5,542.75,237.78,554.71,245.06" style="stroke:#A80036;stroke-width:1.0;"/><!--MD5=[ee33c06d97dfa98f13a6b199da77c1c9]
link Sword to Weapon--><path codeLine="56" d="M168.88,180.07 C176.08,197.19 183.8,215.56 191,232.7 " fill="none" id="Sword-to-Weapon" style="stroke:#A80036;stroke-width:1.0;stroke-dasharray:7.0,7.0;"/><polygon fill="none" points="197.43,229.93,198.73,251.08,184.52,235.35,197.43,229.93" style="stroke:#A80036;stroke-width:1.0;"/><!--MD5=[ee7291476bfe68d7db9666b049b621f9]
@startuml
package com.yonatankarp.bridge {
  class App {
    - LOGGER : Logger {static}
    + App()
    + main(args : String[]) {static}
  }
  interface Enchantment {
    + apply() {abstract}
    + onActivate() {abstract}
    + onDeactivate() {abstract}
  }
  class FlyingEnchantment {
    - LOGGER : Logger {static}
    + FlyingEnchantment()
    + apply()
    + onActivate()
    + onDeactivate()
  }
  class Hammer {
    - LOGGER : Logger {static}
    - enchantment : Enchantment
    + Hammer(enchantment : Enchantment)
    + getEnchantment() : Enchantment
    + swing()
    + unwield()
    + wield()
  }
  class SoulEatingEnchantment {
    - LOGGER : Logger {static}
    + SoulEatingEnchantment()
    + apply()
    + onActivate()
    + onDeactivate()
  }
  class Sword {
    - LOGGER : Logger {static}
    - enchantment : Enchantment
    + Sword(enchantment : Enchantment)
    + getEnchantment() : Enchantment
    + swing()
    + unwield()
    + wield()
  }
  interface Weapon {
    + getEnchantment() : Enchantment {abstract}
    + swing() {abstract}
    + unwield() {abstract}
    + wield() {abstract}
  }
}
Sword - ->  "-enchantment" Enchantment
Hammer - ->  "-enchantment" Enchantment
FlyingEnchantment ..|> Enchantment
Hammer ..|> Weapon
SoulEatingEnchantment ..|> Enchantment
Sword ..|> Weapon
@enduml

PlantUML version 1.2021.16(Wed Dec 08 18:25:22 CET 2021)
(GPL source distribution)
Java Runtime: OpenJDK Runtime Environment
JVM: OpenJDK 64-Bit Server VM
Default Encoding: UTF-8
Language: en
Country: DE
--></g></svg>