<?xml version="1.0" encoding="UTF-8" standalone="no"?><svg xmlns="http://www.w3.org/2000/svg" xmlns:xlink="http://www.w3.org/1999/xlink" contentScriptType="application/ecmascript" contentStyleType="text/css" height="470px" preserveAspectRatio="none" style="width:1870px;height:470px;background:#FFFFFF;" version="1.1" viewBox="0 0 1870 470" width="1870px" zoomAndPan="magnify"><defs><filter height="300%" id="f1co4ksmq0o13n" width="300%" x="-1" y="-1"><feGaussianBlur result="blurOut" stdDeviation="2.0"/><feColorMatrix in="blurOut" result="blurOut2" type="matrix" values="0 0 0 0 0 0 0 0 0 0 0 0 0 0 0 0 0 0 .4 0"/><feOffset dx="4.0" dy="4.0" in="blurOut2" result="blurOut3"/><feBlend in="SourceGraphic" in2="blurOut3" mode="normal"/></filter></defs><g><!--MD5=[391eb31a2041341f0c5eacf6205a0d87]
cluster com.yonatankarp.prototype--><polygon fill="#FFFFFF" filter="url(#f1co4ksmq0o13n)" points="16,6,217,6,224,28.4883,1853,28.4883,1853,463.51,16,463.51,16,6" style="stroke:#000000;stroke-width:1.5;"/><line style="stroke:#000000;stroke-width:1.5;" x1="16" x2="224" y1="28.4883" y2="28.4883"/><text fill="#000000" font-family="sans-serif" font-size="14" font-weight="bold" lengthAdjust="spacing" textLength="195" x="20" y="21.5352">com.yonatankarp.prototype</text><!--MD5=[335f4d9be48430461c68bf6d6fdba145]
class App--><rect codeLine="2" fill="#FEFECE" filter="url(#f1co4ksmq0o13n)" height="73.9102" id="App" style="stroke:#A80036;stroke-width:1.5;" width="108" x="1729" y="73.39"/><ellipse cx="1767.4" cy="89.39" fill="#ADD1B2" rx="11" ry="11" style="stroke:#A80036;stroke-width:1.0;"/><path d="M1769.8731,95.5331 Q1769.2921,95.8319 1768.6529,95.9813 Q1768.0138,96.1307 1767.3082,96.1307 Q1764.8014,96.1307 1763.4815,94.4789 Q1762.1617,92.827 1762.1617,89.7059 Q1762.1617,86.5765 1763.4815,84.9247 Q1764.8014,83.2728 1767.3082,83.2728 Q1768.0138,83.2728 1768.6612,83.4222 Q1769.3087,83.5716 1769.8731,83.8705 L1769.8731,86.5931 Q1769.2423,86.0121 1768.6488,85.7423 Q1768.0553,85.4725 1767.4244,85.4725 Q1766.0797,85.4725 1765.3949,86.5392 Q1764.7101,87.6058 1764.7101,89.7059 Q1764.7101,91.7977 1765.3949,92.8644 Q1766.0797,93.931 1767.4244,93.931 Q1768.0553,93.931 1768.6488,93.6612 Q1769.2423,93.3915 1769.8731,92.8104 Z " fill="#000000"/><text fill="#000000" font-family="sans-serif" font-size="12" lengthAdjust="spacing" textLength="24" x="1786.6" y="93.9252">App</text><line style="stroke:#A80036;stroke-width:1.5;" x1="1730" x2="1836" y1="105.39" y2="105.39"/><rect fill="none" height="6" style="stroke:#C82930;stroke-width:1.0;" width="6" x="1737" y="113.39"/><text fill="#000000" font-family="sans-serif" font-size="11" lengthAdjust="spacing" text-decoration="underline" textLength="82" x="1749" y="120.0248">logger : Logger</text><line style="stroke:#A80036;stroke-width:1.5;" x1="1730" x2="1836" y1="126.3451" y2="126.3451"/><ellipse cx="1740" cy="137.3451" fill="#84BE84" rx="3" ry="3" style="stroke:#038048;stroke-width:1.0;"/><text fill="#000000" font-family="sans-serif" font-size="11" lengthAdjust="spacing" text-decoration="underline" textLength="34" x="1749" y="140.9798">main()</text><!--MD5=[74f5148b25996fb58aa9453688e9dbab]
class Beast--><rect codeLine="6" fill="#FEFECE" filter="url(#f1co4ksmq0o13n)" height="86.8652" id="Beast" style="stroke:#A80036;stroke-width:1.5;" width="182" x="1186" y="239.69"/><ellipse cx="1257.25" cy="255.69" fill="#A9DCDF" rx="11" ry="11" style="stroke:#A80036;stroke-width:1.0;"/><path d="M1257.1133,251.0381 L1255.9595,256.1099 L1258.2754,256.1099 Z M1255.6191,248.7969 L1258.6157,248.7969 L1261.9609,261.19 L1259.5122,261.19 L1258.7485,258.127 L1255.4697,258.127 L1254.7227,261.19 L1252.2739,261.19 Z " fill="#000000"/><text fill="#000000" font-family="sans-serif" font-size="12" font-style="italic" lengthAdjust="spacing" textLength="31" x="1277.75" y="260.2252">Beast</text><line style="stroke:#A80036;stroke-width:1.5;" x1="1187" x2="1367" y1="271.69" y2="271.69"/><line style="stroke:#A80036;stroke-width:1.5;" x1="1187" x2="1367" y1="279.69" y2="279.69"/><ellipse cx="1197" cy="290.69" fill="#84BE84" rx="3" ry="3" style="stroke:#038048;stroke-width:1.0;"/><text fill="#000000" font-family="sans-serif" font-size="11" lengthAdjust="spacing" textLength="36" x="1206" y="294.3248">Beast()</text><ellipse cx="1197" cy="303.6451" fill="#84BE84" rx="3" ry="3" style="stroke:#038048;stroke-width:1.0;"/><text fill="#000000" font-family="sans-serif" font-size="11" font-style="italic" lengthAdjust="spacing" textLength="74" x="1206" y="307.2798">clone() : Beast</text><ellipse cx="1197" cy="316.6002" fill="#84BE84" rx="3" ry="3" style="stroke:#038048;stroke-width:1.0;"/><text fill="#000000" font-family="sans-serif" font-size="11" lengthAdjust="spacing" textLength="156" x="1206" y="320.2349">equals(obj : Object) : boolean</text><!--MD5=[7e6966532eac80fce7eb89140564a2d2]
class ElfBeast--><rect codeLine="11" fill="#FEFECE" filter="url(#f1co4ksmq0o13n)" height="112.7754" id="ElfBeast" style="stroke:#A80036;stroke-width:1.5;" width="182" x="1512" y="53.96"/><ellipse cx="1576.25" cy="69.96" fill="#ADD1B2" rx="11" ry="11" style="stroke:#A80036;stroke-width:1.0;"/><path d="M1578.7231,76.1031 Q1578.1421,76.4019 1577.5029,76.5513 Q1576.8638,76.7007 1576.1582,76.7007 Q1573.6514,76.7007 1572.3315,75.0489 Q1571.0117,73.397 1571.0117,70.2759 Q1571.0117,67.1465 1572.3315,65.4947 Q1573.6514,63.8428 1576.1582,63.8428 Q1576.8638,63.8428 1577.5112,63.9922 Q1578.1587,64.1416 1578.7231,64.4405 L1578.7231,67.1631 Q1578.0923,66.5821 1577.4988,66.3123 Q1576.9053,66.0425 1576.2744,66.0425 Q1574.9297,66.0425 1574.2449,67.1092 Q1573.5601,68.1758 1573.5601,70.2759 Q1573.5601,72.3677 1574.2449,73.4344 Q1574.9297,74.501 1576.2744,74.501 Q1576.9053,74.501 1577.4988,74.2312 Q1578.0923,73.9615 1578.7231,73.3804 Z " fill="#000000"/><text fill="#000000" font-family="sans-serif" font-size="12" lengthAdjust="spacing" textLength="45" x="1596.75" y="74.4952">ElfBeast</text><line style="stroke:#A80036;stroke-width:1.5;" x1="1513" x2="1693" y1="85.96" y2="85.96"/><rect fill="none" height="6" style="stroke:#C82930;stroke-width:1.0;" width="6" x="1520" y="93.96"/><text fill="#000000" font-family="sans-serif" font-size="11" lengthAdjust="spacing" textLength="90" x="1532" y="100.5948">helpType : String</text><line style="stroke:#A80036;stroke-width:1.5;" x1="1513" x2="1693" y1="106.9151" y2="106.9151"/><ellipse cx="1523" cy="117.9151" fill="#84BE84" rx="3" ry="3" style="stroke:#038048;stroke-width:1.0;"/><text fill="#000000" font-family="sans-serif" font-size="11" lengthAdjust="spacing" textLength="139" x="1532" y="121.5498">ElfBeast(helpType : String)</text><ellipse cx="1523" cy="130.8702" fill="#84BE84" rx="3" ry="3" style="stroke:#038048;stroke-width:1.0;"/><text fill="#000000" font-family="sans-serif" font-size="11" lengthAdjust="spacing" textLength="87" x="1532" y="134.5049">clone() : ElfBeast</text><ellipse cx="1523" cy="143.8252" fill="#84BE84" rx="3" ry="3" style="stroke:#038048;stroke-width:1.0;"/><text fill="#000000" font-family="sans-serif" font-size="11" lengthAdjust="spacing" textLength="156" x="1532" y="147.46">equals(obj : Object) : boolean</text><ellipse cx="1523" cy="156.7803" fill="#84BE84" rx="3" ry="3" style="stroke:#038048;stroke-width:1.0;"/><text fill="#000000" font-family="sans-serif" font-size="11" lengthAdjust="spacing" textLength="92" x="1532" y="160.4151">toString() : String</text><!--MD5=[2fe377e8f91e7632e26a6fdfe89b670d]
class ElfMage--><rect codeLine="18" fill="#FEFECE" filter="url(#f1co4ksmq0o13n)" height="112.7754" id="ElfMage" style="stroke:#A80036;stroke-width:1.5;" width="182" x="861" y="53.96"/><ellipse cx="925.25" cy="69.96" fill="#ADD1B2" rx="11" ry="11" style="stroke:#A80036;stroke-width:1.0;"/><path d="M927.7231,76.1031 Q927.1421,76.4019 926.5029,76.5513 Q925.8638,76.7007 925.1582,76.7007 Q922.6514,76.7007 921.3315,75.0489 Q920.0117,73.397 920.0117,70.2759 Q920.0117,67.1465 921.3315,65.4947 Q922.6514,63.8428 925.1582,63.8428 Q925.8638,63.8428 926.5112,63.9922 Q927.1587,64.1416 927.7231,64.4405 L927.7231,67.1631 Q927.0923,66.5821 926.4988,66.3123 Q925.9053,66.0425 925.2744,66.0425 Q923.9297,66.0425 923.2449,67.1092 Q922.5601,68.1758 922.5601,70.2759 Q922.5601,72.3677 923.2449,73.4344 Q923.9297,74.501 925.2744,74.501 Q925.9053,74.501 926.4988,74.2312 Q927.0923,73.9615 927.7231,73.3804 Z " fill="#000000"/><text fill="#000000" font-family="sans-serif" font-size="12" lengthAdjust="spacing" textLength="45" x="945.75" y="74.4952">ElfMage</text><line style="stroke:#A80036;stroke-width:1.5;" x1="862" x2="1042" y1="85.96" y2="85.96"/><rect fill="none" height="6" style="stroke:#C82930;stroke-width:1.0;" width="6" x="869" y="93.96"/><text fill="#000000" font-family="sans-serif" font-size="11" lengthAdjust="spacing" textLength="90" x="881" y="100.5948">helpType : String</text><line style="stroke:#A80036;stroke-width:1.5;" x1="862" x2="1042" y1="106.9151" y2="106.9151"/><ellipse cx="872" cy="117.9151" fill="#84BE84" rx="3" ry="3" style="stroke:#038048;stroke-width:1.0;"/><text fill="#000000" font-family="sans-serif" font-size="11" lengthAdjust="spacing" textLength="139" x="881" y="121.5498">ElfMage(helpType : String)</text><ellipse cx="872" cy="130.8702" fill="#84BE84" rx="3" ry="3" style="stroke:#038048;stroke-width:1.0;"/><text fill="#000000" font-family="sans-serif" font-size="11" lengthAdjust="spacing" textLength="87" x="881" y="134.5049">clone() : ElfMage</text><ellipse cx="872" cy="143.8252" fill="#84BE84" rx="3" ry="3" style="stroke:#038048;stroke-width:1.0;"/><text fill="#000000" font-family="sans-serif" font-size="11" lengthAdjust="spacing" textLength="156" x="881" y="147.46">equals(obj : Object) : boolean</text><ellipse cx="872" cy="156.7803" fill="#84BE84" rx="3" ry="3" style="stroke:#038048;stroke-width:1.0;"/><text fill="#000000" font-family="sans-serif" font-size="11" lengthAdjust="spacing" textLength="92" x="881" y="160.4151">toString() : String</text><!--MD5=[f9b86d49f7915787e1f3c01748f5900d]
class ElfWarlord--><rect codeLine="25" fill="#FEFECE" filter="url(#f1co4ksmq0o13n)" height="112.7754" id="ElfWarlord" style="stroke:#A80036;stroke-width:1.5;" width="182" x="249" y="53.96"/><ellipse cx="306.25" cy="69.96" fill="#ADD1B2" rx="11" ry="11" style="stroke:#A80036;stroke-width:1.0;"/><path d="M308.7231,76.1031 Q308.1421,76.4019 307.5029,76.5513 Q306.8638,76.7007 306.1582,76.7007 Q303.6514,76.7007 302.3315,75.0489 Q301.0117,73.397 301.0117,70.2759 Q301.0117,67.1465 302.3315,65.4947 Q303.6514,63.8428 306.1582,63.8428 Q306.8638,63.8428 307.5112,63.9922 Q308.1587,64.1416 308.7231,64.4405 L308.7231,67.1631 Q308.0923,66.5821 307.4988,66.3123 Q306.9053,66.0425 306.2744,66.0425 Q304.9297,66.0425 304.2449,67.1092 Q303.5601,68.1758 303.5601,70.2759 Q303.5601,72.3677 304.2449,73.4344 Q304.9297,74.501 306.2744,74.501 Q306.9053,74.501 307.4988,74.2312 Q308.0923,73.9615 308.7231,73.3804 Z " fill="#000000"/><text fill="#000000" font-family="sans-serif" font-size="12" lengthAdjust="spacing" textLength="59" x="326.75" y="74.4952">ElfWarlord</text><line style="stroke:#A80036;stroke-width:1.5;" x1="250" x2="430" y1="85.96" y2="85.96"/><rect fill="none" height="6" style="stroke:#C82930;stroke-width:1.0;" width="6" x="257" y="93.96"/><text fill="#000000" font-family="sans-serif" font-size="11" lengthAdjust="spacing" textLength="90" x="269" y="100.5948">helpType : String</text><line style="stroke:#A80036;stroke-width:1.5;" x1="250" x2="430" y1="106.9151" y2="106.9151"/><ellipse cx="260" cy="117.9151" fill="#84BE84" rx="3" ry="3" style="stroke:#038048;stroke-width:1.0;"/><text fill="#000000" font-family="sans-serif" font-size="11" lengthAdjust="spacing" textLength="153" x="269" y="121.5498">ElfWarlord(helpType : String)</text><ellipse cx="260" cy="130.8702" fill="#84BE84" rx="3" ry="3" style="stroke:#038048;stroke-width:1.0;"/><text fill="#000000" font-family="sans-serif" font-size="11" lengthAdjust="spacing" textLength="101" x="269" y="134.5049">clone() : ElfWarlord</text><ellipse cx="260" cy="143.8252" fill="#84BE84" rx="3" ry="3" style="stroke:#038048;stroke-width:1.0;"/><text fill="#000000" font-family="sans-serif" font-size="11" lengthAdjust="spacing" textLength="156" x="269" y="147.46">equals(obj : Object) : boolean</text><ellipse cx="260" cy="156.7803" fill="#84BE84" rx="3" ry="3" style="stroke:#038048;stroke-width:1.0;"/><text fill="#000000" font-family="sans-serif" font-size="11" lengthAdjust="spacing" textLength="92" x="269" y="160.4151">toString() : String</text><!--MD5=[aacd23f8084cc84f73d6b41d969895bc]
class HeroFactory--><rect codeLine="32" fill="#FEFECE" filter="url(#f1co4ksmq0o13n)" height="138.6855" id="HeroFactory" style="stroke:#A80036;stroke-width:1.5;" width="359" x="466.5" y="41"/><ellipse cx="607.25" cy="57" fill="#ADD1B2" rx="11" ry="11" style="stroke:#A80036;stroke-width:1.0;"/><path d="M609.7231,63.1431 Q609.1421,63.4419 608.5029,63.5913 Q607.8638,63.7407 607.1582,63.7407 Q604.6514,63.7407 603.3315,62.0889 Q602.0117,60.437 602.0117,57.3159 Q602.0117,54.1865 603.3315,52.5347 Q604.6514,50.8828 607.1582,50.8828 Q607.8638,50.8828 608.5112,51.0322 Q609.1587,51.1816 609.7231,51.4805 L609.7231,54.2031 Q609.0923,53.6221 608.4988,53.3523 Q607.9053,53.0825 607.2744,53.0825 Q605.9297,53.0825 605.2449,54.1492 Q604.5601,55.2158 604.5601,57.3159 Q604.5601,59.4077 605.2449,60.4744 Q605.9297,61.541 607.2744,61.541 Q607.9053,61.541 608.4988,61.2712 Q609.0923,61.0015 609.7231,60.4204 Z " fill="#000000"/><text fill="#000000" font-family="sans-serif" font-size="12" lengthAdjust="spacing" textLength="69" x="627.75" y="61.5352">HeroFactory</text><line style="stroke:#A80036;stroke-width:1.5;" x1="467.5" x2="824.5" y1="73" y2="73"/><rect fill="none" height="6" style="stroke:#C82930;stroke-width:1.0;" width="6" x="474.5" y="81"/><text fill="#000000" font-family="sans-serif" font-size="11" lengthAdjust="spacing" textLength="66" x="486.5" y="87.6348">beast : Beast</text><rect fill="none" height="6" style="stroke:#C82930;stroke-width:1.0;" width="6" x="474.5" y="93.9551"/><text fill="#000000" font-family="sans-serif" font-size="11" lengthAdjust="spacing" textLength="66" x="486.5" y="100.5898">mage : Mage</text><rect fill="none" height="6" style="stroke:#C82930;stroke-width:1.0;" width="6" x="474.5" y="106.9102"/><text fill="#000000" font-family="sans-serif" font-size="11" lengthAdjust="spacing" textLength="92" x="486.5" y="113.5449">warlord : Warlord</text><line style="stroke:#A80036;stroke-width:1.5;" x1="467.5" x2="824.5" y1="119.8652" y2="119.8652"/><ellipse cx="477.5" cy="130.8652" fill="#84BE84" rx="3" ry="3" style="stroke:#038048;stroke-width:1.0;"/><text fill="#000000" font-family="sans-serif" font-size="11" lengthAdjust="spacing" textLength="333" x="486.5" y="134.5">HeroFactoryImpl(mage : Mage, warlord : Warlord, beast : Beast)</text><ellipse cx="477.5" cy="143.8203" fill="#84BE84" rx="3" ry="3" style="stroke:#038048;stroke-width:1.0;"/><text fill="#000000" font-family="sans-serif" font-size="11" lengthAdjust="spacing" textLength="106" x="486.5" y="147.4551">createBeast() : Beast</text><ellipse cx="477.5" cy="156.7754" fill="#84BE84" rx="3" ry="3" style="stroke:#038048;stroke-width:1.0;"/><text fill="#000000" font-family="sans-serif" font-size="11" lengthAdjust="spacing" textLength="106" x="486.5" y="160.4102">createMage() : Mage</text><ellipse cx="477.5" cy="169.7305" fill="#84BE84" rx="3" ry="3" style="stroke:#038048;stroke-width:1.0;"/><text fill="#000000" font-family="sans-serif" font-size="11" lengthAdjust="spacing" textLength="134" x="486.5" y="173.3652">createWarlord() : Warlord</text><!--MD5=[96cefd8d79f96826677f0cc3fdb6b9c9]
class Mage--><rect codeLine="41" fill="#FEFECE" filter="url(#f1co4ksmq0o13n)" height="86.8652" id="Mage" style="stroke:#A80036;stroke-width:1.5;" width="182" x="861" y="239.69"/><ellipse cx="932.25" cy="255.69" fill="#A9DCDF" rx="11" ry="11" style="stroke:#A80036;stroke-width:1.0;"/><path d="M932.1133,251.0381 L930.9595,256.1099 L933.2754,256.1099 Z M930.6191,248.7969 L933.6157,248.7969 L936.9609,261.19 L934.5122,261.19 L933.7485,258.127 L930.4697,258.127 L929.7227,261.19 L927.2739,261.19 Z " fill="#000000"/><text fill="#000000" font-family="sans-serif" font-size="12" font-style="italic" lengthAdjust="spacing" textLength="31" x="952.75" y="260.2252">Mage</text><line style="stroke:#A80036;stroke-width:1.5;" x1="862" x2="1042" y1="271.69" y2="271.69"/><line style="stroke:#A80036;stroke-width:1.5;" x1="862" x2="1042" y1="279.69" y2="279.69"/><ellipse cx="872" cy="290.69" fill="#84BE84" rx="3" ry="3" style="stroke:#038048;stroke-width:1.0;"/><text fill="#000000" font-family="sans-serif" font-size="11" lengthAdjust="spacing" textLength="36" x="881" y="294.3248">Mage()</text><ellipse cx="872" cy="303.6451" fill="#84BE84" rx="3" ry="3" style="stroke:#038048;stroke-width:1.0;"/><text fill="#000000" font-family="sans-serif" font-size="11" font-style="italic" lengthAdjust="spacing" textLength="74" x="881" y="307.2798">clone() : Mage</text><ellipse cx="872" cy="316.6002" fill="#84BE84" rx="3" ry="3" style="stroke:#038048;stroke-width:1.0;"/><text fill="#000000" font-family="sans-serif" font-size="11" lengthAdjust="spacing" textLength="156" x="881" y="320.2349">equals(obj : Object) : boolean</text><!--MD5=[80e725b5d36cd42803c2c826b834a2fe]
class OrcBeast--><rect codeLine="46" fill="#FEFECE" filter="url(#f1co4ksmq0o13n)" height="112.7754" id="OrcBeast" style="stroke:#A80036;stroke-width:1.5;" width="182" x="1295" y="53.96"/><ellipse cx="1356.25" cy="69.96" fill="#ADD1B2" rx="11" ry="11" style="stroke:#A80036;stroke-width:1.0;"/><path d="M1358.7231,76.1031 Q1358.1421,76.4019 1357.5029,76.5513 Q1356.8638,76.7007 1356.1582,76.7007 Q1353.6514,76.7007 1352.3315,75.0489 Q1351.0117,73.397 1351.0117,70.2759 Q1351.0117,67.1465 1352.3315,65.4947 Q1353.6514,63.8428 1356.1582,63.8428 Q1356.8638,63.8428 1357.5112,63.9922 Q1358.1587,64.1416 1358.7231,64.4405 L1358.7231,67.1631 Q1358.0923,66.5821 1357.4988,66.3123 Q1356.9053,66.0425 1356.2744,66.0425 Q1354.9297,66.0425 1354.2449,67.1092 Q1353.5601,68.1758 1353.5601,70.2759 Q1353.5601,72.3677 1354.2449,73.4344 Q1354.9297,74.501 1356.2744,74.501 Q1356.9053,74.501 1357.4988,74.2312 Q1358.0923,73.9615 1358.7231,73.3804 Z " fill="#000000"/><text fill="#000000" font-family="sans-serif" font-size="12" lengthAdjust="spacing" textLength="51" x="1376.75" y="74.4952">OrcBeast</text><line style="stroke:#A80036;stroke-width:1.5;" x1="1296" x2="1476" y1="85.96" y2="85.96"/><rect fill="none" height="6" style="stroke:#C82930;stroke-width:1.0;" width="6" x="1303" y="93.96"/><text fill="#000000" font-family="sans-serif" font-size="11" lengthAdjust="spacing" textLength="82" x="1315" y="100.5948">weapon : String</text><line style="stroke:#A80036;stroke-width:1.5;" x1="1296" x2="1476" y1="106.9151" y2="106.9151"/><ellipse cx="1306" cy="117.9151" fill="#84BE84" rx="3" ry="3" style="stroke:#038048;stroke-width:1.0;"/><text fill="#000000" font-family="sans-serif" font-size="11" lengthAdjust="spacing" textLength="138" x="1315" y="121.5498">OrcBeast(weapon : String)</text><ellipse cx="1306" cy="130.8702" fill="#84BE84" rx="3" ry="3" style="stroke:#038048;stroke-width:1.0;"/><text fill="#000000" font-family="sans-serif" font-size="11" lengthAdjust="spacing" textLength="94" x="1315" y="134.5049">clone() : OrcBeast</text><ellipse cx="1306" cy="143.8252" fill="#84BE84" rx="3" ry="3" style="stroke:#038048;stroke-width:1.0;"/><text fill="#000000" font-family="sans-serif" font-size="11" lengthAdjust="spacing" textLength="156" x="1315" y="147.46">equals(obj : Object) : boolean</text><ellipse cx="1306" cy="156.7803" fill="#84BE84" rx="3" ry="3" style="stroke:#038048;stroke-width:1.0;"/><text fill="#000000" font-family="sans-serif" font-size="11" lengthAdjust="spacing" textLength="92" x="1315" y="160.4151">toString() : String</text><!--MD5=[a99e6f21ae24933e95b9413b85b9ae59]
class OrcMage--><rect codeLine="53" fill="#FEFECE" filter="url(#f1co4ksmq0o13n)" height="112.7754" id="OrcMage" style="stroke:#A80036;stroke-width:1.5;" width="182" x="1078" y="53.96"/><ellipse cx="1139.25" cy="69.96" fill="#ADD1B2" rx="11" ry="11" style="stroke:#A80036;stroke-width:1.0;"/><path d="M1141.7231,76.1031 Q1141.1421,76.4019 1140.5029,76.5513 Q1139.8638,76.7007 1139.1582,76.7007 Q1136.6514,76.7007 1135.3315,75.0489 Q1134.0117,73.397 1134.0117,70.2759 Q1134.0117,67.1465 1135.3315,65.4947 Q1136.6514,63.8428 1139.1582,63.8428 Q1139.8638,63.8428 1140.5112,63.9922 Q1141.1587,64.1416 1141.7231,64.4405 L1141.7231,67.1631 Q1141.0923,66.5821 1140.4988,66.3123 Q1139.9053,66.0425 1139.2744,66.0425 Q1137.9297,66.0425 1137.2449,67.1092 Q1136.5601,68.1758 1136.5601,70.2759 Q1136.5601,72.3677 1137.2449,73.4344 Q1137.9297,74.501 1139.2744,74.501 Q1139.9053,74.501 1140.4988,74.2312 Q1141.0923,73.9615 1141.7231,73.3804 Z " fill="#000000"/><text fill="#000000" font-family="sans-serif" font-size="12" lengthAdjust="spacing" textLength="51" x="1159.75" y="74.4952">OrcMage</text><line style="stroke:#A80036;stroke-width:1.5;" x1="1079" x2="1259" y1="85.96" y2="85.96"/><rect fill="none" height="6" style="stroke:#C82930;stroke-width:1.0;" width="6" x="1086" y="93.96"/><text fill="#000000" font-family="sans-serif" font-size="11" lengthAdjust="spacing" textLength="82" x="1098" y="100.5948">weapon : String</text><line style="stroke:#A80036;stroke-width:1.5;" x1="1079" x2="1259" y1="106.9151" y2="106.9151"/><ellipse cx="1089" cy="117.9151" fill="#84BE84" rx="3" ry="3" style="stroke:#038048;stroke-width:1.0;"/><text fill="#000000" font-family="sans-serif" font-size="11" lengthAdjust="spacing" textLength="138" x="1098" y="121.5498">OrcMage(weapon : String)</text><ellipse cx="1089" cy="130.8702" fill="#84BE84" rx="3" ry="3" style="stroke:#038048;stroke-width:1.0;"/><text fill="#000000" font-family="sans-serif" font-size="11" lengthAdjust="spacing" textLength="94" x="1098" y="134.5049">clone() : OrcMage</text><ellipse cx="1089" cy="143.8252" fill="#84BE84" rx="3" ry="3" style="stroke:#038048;stroke-width:1.0;"/><text fill="#000000" font-family="sans-serif" font-size="11" lengthAdjust="spacing" textLength="156" x="1098" y="147.46">equals(obj : Object) : boolean</text><ellipse cx="1089" cy="156.7803" fill="#84BE84" rx="3" ry="3" style="stroke:#038048;stroke-width:1.0;"/><text fill="#000000" font-family="sans-serif" font-size="11" lengthAdjust="spacing" textLength="92" x="1098" y="160.4151">toString() : String</text><!--MD5=[1b41c46c52a5f49238fbadd581d529c2]
class OrcWarlord--><rect codeLine="60" fill="#FEFECE" filter="url(#f1co4ksmq0o13n)" height="112.7754" id="OrcWarlord" style="stroke:#A80036;stroke-width:1.5;" width="182" x="32" y="53.96"/><ellipse cx="86.25" cy="69.96" fill="#ADD1B2" rx="11" ry="11" style="stroke:#A80036;stroke-width:1.0;"/><path d="M88.7231,76.1031 Q88.1421,76.4019 87.5029,76.5513 Q86.8638,76.7007 86.1582,76.7007 Q83.6514,76.7007 82.3315,75.0489 Q81.0117,73.397 81.0117,70.2759 Q81.0117,67.1465 82.3315,65.4947 Q83.6514,63.8428 86.1582,63.8428 Q86.8638,63.8428 87.5112,63.9922 Q88.1587,64.1416 88.7231,64.4405 L88.7231,67.1631 Q88.0923,66.5821 87.4988,66.3123 Q86.9053,66.0425 86.2744,66.0425 Q84.9297,66.0425 84.2449,67.1092 Q83.5601,68.1758 83.5601,70.2759 Q83.5601,72.3677 84.2449,73.4344 Q84.9297,74.501 86.2744,74.501 Q86.9053,74.501 87.4988,74.2312 Q88.0923,73.9615 88.7231,73.3804 Z " fill="#000000"/><text fill="#000000" font-family="sans-serif" font-size="12" lengthAdjust="spacing" textLength="65" x="106.75" y="74.4952">OrcWarlord</text><line style="stroke:#A80036;stroke-width:1.5;" x1="33" x2="213" y1="85.96" y2="85.96"/><rect fill="none" height="6" style="stroke:#C82930;stroke-width:1.0;" width="6" x="40" y="93.96"/><text fill="#000000" font-family="sans-serif" font-size="11" lengthAdjust="spacing" textLength="82" x="52" y="100.5948">weapon : String</text><line style="stroke:#A80036;stroke-width:1.5;" x1="33" x2="213" y1="106.9151" y2="106.9151"/><ellipse cx="43" cy="117.9151" fill="#84BE84" rx="3" ry="3" style="stroke:#038048;stroke-width:1.0;"/><text fill="#000000" font-family="sans-serif" font-size="11" lengthAdjust="spacing" textLength="152" x="52" y="121.5498">OrcWarlord(weapon : String)</text><ellipse cx="43" cy="130.8702" fill="#84BE84" rx="3" ry="3" style="stroke:#038048;stroke-width:1.0;"/><text fill="#000000" font-family="sans-serif" font-size="11" lengthAdjust="spacing" textLength="108" x="52" y="134.5049">clone() : OrcWarlord</text><ellipse cx="43" cy="143.8252" fill="#84BE84" rx="3" ry="3" style="stroke:#038048;stroke-width:1.0;"/><text fill="#000000" font-family="sans-serif" font-size="11" lengthAdjust="spacing" textLength="156" x="52" y="147.46">equals(obj : Object) : boolean</text><ellipse cx="43" cy="156.7803" fill="#84BE84" rx="3" ry="3" style="stroke:#038048;stroke-width:1.0;"/><text fill="#000000" font-family="sans-serif" font-size="11" lengthAdjust="spacing" textLength="92" x="52" y="160.4151">toString() : String</text><!--MD5=[8d9f5c65414212f4f21f7e0a62cdefa0]
class Prototype--><rect codeLine="67" fill="#FEFECE" filter="url(#f1co4ksmq0o13n)" height="60.9551" id="Prototype" style="stroke:#A80036;stroke-width:1.5;" width="99" x="902.5" y="386.55"/><ellipse cx="917.5" cy="402.55" fill="#B4A7E5" rx="11" ry="11" style="stroke:#A80036;stroke-width:1.0;"/><path d="M913.9277,398.8151 L913.9277,396.6569 L921.3071,396.6569 L921.3071,398.8151 L918.8418,398.8151 L918.8418,406.8918 L921.3071,406.8918 L921.3071,409.05 L913.9277,409.05 L913.9277,406.8918 L916.3931,406.8918 L916.3931,398.8151 Z " fill="#000000"/><text fill="#000000" font-family="sans-serif" font-size="12" font-style="italic" lengthAdjust="spacing" textLength="55" x="931.5" y="407.0852">Prototype</text><rect fill="#FFFFFF" height="16.1328" style="stroke:#000000;stroke-width:1.0;stroke-dasharray:2.0,2.0;" width="10" x="994.5" y="383.55"/><text fill="#000000" font-family="sans-serif" font-size="12" font-style="italic" lengthAdjust="spacing" textLength="8" x="995.5" y="396.1516">T</text><line style="stroke:#A80036;stroke-width:1.5;" x1="903.5" x2="1000.5" y1="418.55" y2="418.55"/><line style="stroke:#A80036;stroke-width:1.5;" x1="903.5" x2="1000.5" y1="426.55" y2="426.55"/><ellipse cx="913.5" cy="437.55" fill="#84BE84" rx="3" ry="3" style="stroke:#038048;stroke-width:1.0;"/><text fill="#000000" font-family="sans-serif" font-size="11" font-style="italic" lengthAdjust="spacing" textLength="53" x="922.5" y="441.1848">clone() : T</text><!--MD5=[057cb7da55fc813515bfa8d480b57432]
class Warlord--><rect codeLine="70" fill="#FEFECE" filter="url(#f1co4ksmq0o13n)" height="86.8652" id="Warlord" style="stroke:#A80036;stroke-width:1.5;" width="182" x="402" y="239.69"/><ellipse cx="466.25" cy="255.69" fill="#A9DCDF" rx="11" ry="11" style="stroke:#A80036;stroke-width:1.0;"/><path d="M466.1133,251.0381 L464.9595,256.1099 L467.2754,256.1099 Z M464.6191,248.7969 L467.6157,248.7969 L470.9609,261.19 L468.5122,261.19 L467.7485,258.127 L464.4697,258.127 L463.7227,261.19 L461.2739,261.19 Z " fill="#000000"/><text fill="#000000" font-family="sans-serif" font-size="12" font-style="italic" lengthAdjust="spacing" textLength="45" x="486.75" y="260.2252">Warlord</text><line style="stroke:#A80036;stroke-width:1.5;" x1="403" x2="583" y1="271.69" y2="271.69"/><line style="stroke:#A80036;stroke-width:1.5;" x1="403" x2="583" y1="279.69" y2="279.69"/><ellipse cx="413" cy="290.69" fill="#84BE84" rx="3" ry="3" style="stroke:#038048;stroke-width:1.0;"/><text fill="#000000" font-family="sans-serif" font-size="11" lengthAdjust="spacing" textLength="50" x="422" y="294.3248">Warlord()</text><ellipse cx="413" cy="303.6451" fill="#84BE84" rx="3" ry="3" style="stroke:#038048;stroke-width:1.0;"/><text fill="#000000" font-family="sans-serif" font-size="11" font-style="italic" lengthAdjust="spacing" textLength="88" x="422" y="307.2798">clone() : Warlord</text><ellipse cx="413" cy="316.6002" fill="#84BE84" rx="3" ry="3" style="stroke:#038048;stroke-width:1.0;"/><text fill="#000000" font-family="sans-serif" font-size="11" lengthAdjust="spacing" textLength="156" x="422" y="320.2349">equals(obj : Object) : boolean</text><!--MD5=[d404235870a8cf86ff1c3d9de3b52201]
link HeroFactory to Beast--><path codeLine="76" d="M825.86,174.58 C831.63,176.34 837.35,178.05 843,179.69 C957.57,212.99 1091.49,243.32 1179.93,262.19 " fill="none" id="HeroFactory-to-Beast" style="stroke:#A80036;stroke-width:1.0;"/><polygon fill="#A80036" points="1184.69,263.41,1176.7233,257.6194,1179.8002,262.3663,1175.0533,265.4431,1184.69,263.41" style="stroke:#A80036;stroke-width:1.0;"/><text fill="#000000" font-family="sans-serif" font-size="13" lengthAdjust="spacing" textLength="42" x="1136.1442" y="259.1604">-beast</text><!--MD5=[91f99eb8132c426e469ee157fb2fb56b]
link HeroFactory to Warlord--><path codeLine="77" d="M584.65,179.82 C567.94,198.47 550.23,218.24 534.88,235.38 " fill="none" id="HeroFactory-to-Warlord" style="stroke:#A80036;stroke-width:1.0;"/><polygon fill="#A80036" points="532.03,238.68,541.0076,234.6299,535.3598,234.9501,535.0397,229.3023,532.03,238.68" style="stroke:#A80036;stroke-width:1.0;"/><text fill="#000000" font-family="sans-serif" font-size="13" lengthAdjust="spacing" textLength="55" x="477.774" y="228.8367">-warlord</text><!--MD5=[fd1953df4ffb899ed6d8227f782ad227]
link HeroFactory to Mage--><path codeLine="78" d="M769.14,180.07 C803.19,199.07 839.29,219.22 870.34,236.55 " fill="none" id="HeroFactory-to-Mage" style="stroke:#A80036;stroke-width:1.0;"/><polygon fill="#A80036" points="874.28,239.31,868.3748,231.4278,869.9153,236.8709,864.4722,238.4114,874.28,239.31" style="stroke:#A80036;stroke-width:1.0;"/><text fill="#000000" font-family="sans-serif" font-size="13" lengthAdjust="spacing" textLength="42" x="818.3166" y="229.0449">-mage</text><!--MD5=[d18b47161e57cacc110594d9d09ec1fb]
link Beast to Prototype--><path codeLine="79" d="M1185.6,321.22 C1133.53,342.35 1069.32,368.42 1021.4,387.86 " fill="none" id="Beast-to-Prototype" style="stroke:#A80036;stroke-width:1.0;stroke-dasharray:7.0,7.0;"/><polygon fill="none" points="1024.11,394.73,1002.95,395.76,1018.84,381.75,1024.11,394.73" style="stroke:#A80036;stroke-width:1.0;"/><!--MD5=[4cab2958e2243e082aa863dfddb53dfe]
link ElfBeast to Beast--><path codeLine="80" d="M1516.92,167.15 C1509.57,171.51 1502.2,175.74 1495,179.69 C1460.66,198.53 1422.27,217.29 1387.39,233.51 " fill="none" id="ElfBeast-to-Beast" style="stroke:#A80036;stroke-width:1.0;"/><polygon fill="none" points="1390.51,240.24,1369.42,242.25,1384.66,227.52,1390.51,240.24" style="stroke:#A80036;stroke-width:1.0;"/><!--MD5=[192ab7b11ab52b312dd9bddc477d8599]
link ElfMage to Mage--><path codeLine="81" d="M952,166.79 C952,183.27 952,201.46 952,218.42 " fill="none" id="ElfMage-to-Mage" style="stroke:#A80036;stroke-width:1.0;"/><polygon fill="none" points="959,218.4,952,238.4,945,218.4,959,218.4" style="stroke:#A80036;stroke-width:1.0;"/><!--MD5=[e5dc13d1fcd024b61f4b64c5ee38cfdb]
link ElfWarlord to Warlord--><path codeLine="82" d="M389.67,166.79 C406.01,185.02 424.21,205.34 440.73,223.77 " fill="none" id="ElfWarlord-to-Warlord" style="stroke:#A80036;stroke-width:1.0;"/><polygon fill="none" points="445.59,218.83,453.72,238.4,435.16,228.17,445.59,218.83" style="stroke:#A80036;stroke-width:1.0;"/><!--MD5=[4158902eff3c2fcc272126bdb22e6913]
link Mage to Prototype--><path codeLine="83" d="M952,326.95 C952,339.23 952,352.74 952,365.44 " fill="none" id="Mage-to-Prototype" style="stroke:#A80036;stroke-width:1.0;stroke-dasharray:7.0,7.0;"/><polygon fill="none" points="959,365.34,952,385.34,945,365.34,959,365.34" style="stroke:#A80036;stroke-width:1.0;"/><!--MD5=[dd03a40f75be3307e6895e4e700119af]
link OrcBeast to Beast--><path codeLine="84" d="M1350.61,166.79 C1339.39,184.38 1326.93,203.9 1315.49,221.81 " fill="none" id="OrcBeast-to-Beast" style="stroke:#A80036;stroke-width:1.0;"/><polygon fill="none" points="1320.93,225.3,1304.27,238.4,1309.13,217.77,1320.93,225.3" style="stroke:#A80036;stroke-width:1.0;"/><!--MD5=[cd0f019734b2f15fa7e58d16c3ec0956]
link OrcMage to Mage--><path codeLine="85" d="M1098.25,167.03 C1074.03,186.09 1046.94,207.4 1022.73,226.46 " fill="none" id="OrcMage-to-Mage" style="stroke:#A80036;stroke-width:1.0;"/><polygon fill="none" points="1027.54,232.37,1007.49,239.24,1018.88,221.37,1027.54,232.37" style="stroke:#A80036;stroke-width:1.0;"/><!--MD5=[b311b7d9ca902d1645548dc3c982d7f5]
link OrcWarlord to Warlord--><path codeLine="86" d="M207.9,167.17 C215.61,171.59 223.38,175.83 231,179.69 C279.25,204.1 334.77,226.56 382.24,244.18 " fill="none" id="OrcWarlord-to-Warlord" style="stroke:#A80036;stroke-width:1.0;"/><polygon fill="none" points="384.34,237.86,400.71,251.31,379.52,251.01,384.34,237.86" style="stroke:#A80036;stroke-width:1.0;"/><!--MD5=[2d2adcb75ef8ff39681f80cc6dccc404]
link Warlord to Prototype--><path codeLine="87" d="M584.23,310.34 C671.83,335.52 802.28,373 881.98,395.91 " fill="none" id="Warlord-to-Prototype" style="stroke:#A80036;stroke-width:1.0;stroke-dasharray:7.0,7.0;"/><polygon fill="none" points="883.77,389.43,901.06,401.68,879.9,402.88,883.77,389.43" style="stroke:#A80036;stroke-width:1.0;"/><!--MD5=[88d384733a95a800c5693dde5f627390]
@startuml
package com.yonatankarp.prototype {
  class App {
    - logger : Logger {static}
    + main() {static}
  }
  abstract class Beast {
    + Beast()
    + clone() : Beast {abstract}
    + equals(obj : Object) : boolean
  }
  class ElfBeast {
    - helpType : String
    + ElfBeast(helpType : String)
    + clone() : ElfBeast
    + equals(obj : Object) : boolean
    + toString() : String
  }
  class ElfMage {
    - helpType : String
    + ElfMage(helpType : String)
    + clone() : ElfMage
    + equals(obj : Object) : boolean
    + toString() : String
  }
  class ElfWarlord {
    - helpType : String
    + ElfWarlord(helpType : String)
    + clone() : ElfWarlord
    + equals(obj : Object) : boolean
    + toString() : String
  }
  class HeroFactory {
    - beast : Beast
    - mage : Mage
    - warlord : Warlord
    + HeroFactoryImpl(mage : Mage, warlord : Warlord, beast : Beast)
    + createBeast() : Beast
    + createMage() : Mage
    + createWarlord() : Warlord
  }
  abstract class Mage {
    + Mage()
    + clone() : Mage {abstract}
    + equals(obj : Object) : boolean
  }
  class OrcBeast {
    - weapon : String
    + OrcBeast(weapon : String)
    + clone() : OrcBeast
    + equals(obj : Object) : boolean
    + toString() : String
  }
  class OrcMage {
    - weapon : String
    + OrcMage(weapon : String)
    + clone() : OrcMage
    + equals(obj : Object) : boolean
    + toString() : String
  }
  class OrcWarlord {
    - weapon : String
    + OrcWarlord(weapon : String)
    + clone() : OrcWarlord
    + equals(obj : Object) : boolean
    + toString() : String
  }
  interface Prototype<T> {
    + clone() : T {abstract}
  }
  abstract class Warlord {
    + Warlord()
    + clone() : Warlord {abstract}
    + equals(obj : Object) : boolean
  }
}
HeroFactory - ->  "-beast" Beast
HeroFactory - ->  "-warlord" Warlord
HeroFactory - ->  "-mage" Mage
Beast ..|> Prototype
ElfBeast - -|> Beast
ElfMage - -|> Mage
ElfWarlord - -|> Warlord
Mage ..|> Prototype
OrcBeast - -|> Beast
OrcMage - -|> Mage
OrcWarlord - -|> Warlord
Warlord ..|> Prototype
@enduml

PlantUML version 1.2021.16(Wed Dec 08 18:25:22 CET 2021)
(GPL source distribution)
Java Runtime: OpenJDK Runtime Environment
JVM: OpenJDK 64-Bit Server VM
Default Encoding: UTF-8
Language: en
Country: DE
--></g></svg>