<?xml version="1.0" encoding="UTF-8" standalone="no"?><svg xmlns="http://www.w3.org/2000/svg" xmlns:xlink="http://www.w3.org/1999/xlink" contentScriptType="application/ecmascript" contentStyleType="text/css" height="336px" preserveAspectRatio="none" style="width:804px;height:336px;background:#FFFFFF;" version="1.1" viewBox="0 0 804 336" width="804px" zoomAndPan="magnify"><defs><filter height="300%" id="fz19sfzvjyfmc" width="300%" x="-1" y="-1"><feGaussianBlur result="blurOut" stdDeviation="2.0"/><feColorMatrix in="blurOut" result="blurOut2" type="matrix" values="0 0 0 0 0 0 0 0 0 0 0 0 0 0 0 0 0 0 .4 0"/><feOffset dx="4.0" dy="4.0" in="blurOut2" result="blurOut3"/><feBlend in="SourceGraphic" in2="blurOut3" mode="normal"/></filter></defs><g><!--MD5=[5973a5ad8a1ecb25b5fb47633588e03e]
cluster com.yonatankarp.factory--><polygon fill="#FFFFFF" filter="url(#fz19sfzvjyfmc)" points="16,6,197,6,204,28.4883,787,28.4883,787,329.6,16,329.6,16,6" style="stroke:#000000;stroke-width:1.5;"/><line style="stroke:#000000;stroke-width:1.5;" x1="16" x2="204" y1="28.4883" y2="28.4883"/><text fill="#000000" font-family="sans-serif" font-size="14" font-weight="bold" lengthAdjust="spacing" textLength="175" x="20" y="21.5352">com.yonatankarp.factory</text><!--MD5=[335f4d9be48430461c68bf6d6fdba145]
class App--><rect codeLine="2" fill="#FEFECE" filter="url(#fz19sfzvjyfmc)" height="86.8652" id="App" style="stroke:#A80036;stroke-width:1.5;" width="133" x="409.5" y="41"/><ellipse cx="459.75" cy="57" fill="#ADD1B2" rx="11" ry="11" style="stroke:#A80036;stroke-width:1.0;"/><path d="M462.2231,63.1431 Q461.6421,63.4419 461.0029,63.5913 Q460.3638,63.7407 459.6582,63.7407 Q457.1514,63.7407 455.8315,62.0889 Q454.5117,60.437 454.5117,57.3159 Q454.5117,54.1865 455.8315,52.5347 Q457.1514,50.8828 459.6582,50.8828 Q460.3638,50.8828 461.0112,51.0322 Q461.6587,51.1816 462.2231,51.4805 L462.2231,54.2031 Q461.5923,53.6221 460.9988,53.3523 Q460.4053,53.0825 459.7744,53.0825 Q458.4297,53.0825 457.7449,54.1492 Q457.0601,55.2158 457.0601,57.3159 Q457.0601,59.4077 457.7449,60.4744 Q458.4297,61.541 459.7744,61.541 Q460.4053,61.541 460.9988,61.2712 Q461.5923,61.0015 462.2231,60.4204 Z " fill="#000000"/><text fill="#000000" font-family="sans-serif" font-size="12" lengthAdjust="spacing" textLength="24" x="480.25" y="61.5352">App</text><line style="stroke:#A80036;stroke-width:1.5;" x1="410.5" x2="541.5" y1="73" y2="73"/><rect fill="none" height="6" style="stroke:#C82930;stroke-width:1.0;" width="6" x="417.5" y="81"/><text fill="#000000" font-family="sans-serif" font-size="11" lengthAdjust="spacing" text-decoration="underline" textLength="91" x="429.5" y="87.6348">LOGGER : Logger</text><line style="stroke:#A80036;stroke-width:1.5;" x1="410.5" x2="541.5" y1="93.9551" y2="93.9551"/><ellipse cx="420.5" cy="104.9551" fill="#84BE84" rx="3" ry="3" style="stroke:#038048;stroke-width:1.0;"/><text fill="#000000" font-family="sans-serif" font-size="11" lengthAdjust="spacing" textLength="30" x="429.5" y="108.5898">App()</text><ellipse cx="420.5" cy="117.9102" fill="#84BE84" rx="3" ry="3" style="stroke:#038048;stroke-width:1.0;"/><text fill="#000000" font-family="sans-serif" font-size="11" lengthAdjust="spacing" text-decoration="underline" textLength="107" x="429.5" y="121.5449">main(args : String[])</text><!--MD5=[1da8f80c0a6f875dfd1b47fac061377f]
class Coin--><rect codeLine="7" fill="#FEFECE" filter="url(#fz19sfzvjyfmc)" height="60.9551" id="Coin" style="stroke:#A80036;stroke-width:1.5;" width="154" x="107" y="220.26"/><ellipse cx="167.25" cy="236.26" fill="#B4A7E5" rx="11" ry="11" style="stroke:#A80036;stroke-width:1.0;"/><path d="M163.6777,232.5251 L163.6777,230.3669 L171.0571,230.3669 L171.0571,232.5251 L168.5918,232.5251 L168.5918,240.6018 L171.0571,240.6018 L171.0571,242.76 L163.6777,242.76 L163.6777,240.6018 L166.1431,240.6018 L166.1431,232.5251 Z " fill="#000000"/><text fill="#000000" font-family="sans-serif" font-size="12" font-style="italic" lengthAdjust="spacing" textLength="25" x="187.75" y="240.7952">Coin</text><line style="stroke:#A80036;stroke-width:1.5;" x1="108" x2="260" y1="252.26" y2="252.26"/><line style="stroke:#A80036;stroke-width:1.5;" x1="108" x2="260" y1="260.26" y2="260.26"/><ellipse cx="118" cy="271.26" fill="#84BE84" rx="3" ry="3" style="stroke:#038048;stroke-width:1.0;"/><text fill="#000000" font-family="sans-serif" font-size="11" font-style="italic" lengthAdjust="spacing" textLength="128" x="127" y="274.8948">getDescription() : String</text><!--MD5=[02401112fe78ea25682bb5519c71b1dd]
class CoinFactory--><rect codeLine="10" fill="#FEFECE" filter="url(#fz19sfzvjyfmc)" height="73.9102" id="CoinFactory" style="stroke:#A80036;stroke-width:1.5;" width="193" x="577.5" y="47.48"/><ellipse cx="636.75" cy="63.48" fill="#ADD1B2" rx="11" ry="11" style="stroke:#A80036;stroke-width:1.0;"/><path d="M639.2231,69.6231 Q638.6421,69.9219 638.0029,70.0713 Q637.3638,70.2207 636.6582,70.2207 Q634.1514,70.2207 632.8315,68.5689 Q631.5117,66.917 631.5117,63.7959 Q631.5117,60.6665 632.8315,59.0147 Q634.1514,57.3628 636.6582,57.3628 Q637.3638,57.3628 638.0112,57.5122 Q638.6587,57.6616 639.2231,57.9605 L639.2231,60.6831 Q638.5923,60.1021 637.9988,59.8323 Q637.4053,59.5625 636.7744,59.5625 Q635.4297,59.5625 634.7449,60.6292 Q634.0601,61.6958 634.0601,63.7959 Q634.0601,65.8877 634.7449,66.9544 Q635.4297,68.021 636.7744,68.021 Q637.4053,68.021 637.9988,67.7512 Q638.5923,67.4815 639.2231,66.9004 Z " fill="#000000"/><text fill="#000000" font-family="sans-serif" font-size="12" lengthAdjust="spacing" textLength="66" x="657.25" y="68.0152">CoinFactory</text><line style="stroke:#A80036;stroke-width:1.5;" x1="578.5" x2="769.5" y1="79.48" y2="79.48"/><line style="stroke:#A80036;stroke-width:1.5;" x1="578.5" x2="769.5" y1="87.48" y2="87.48"/><ellipse cx="588.5" cy="98.48" fill="#84BE84" rx="3" ry="3" style="stroke:#038048;stroke-width:1.0;"/><text fill="#000000" font-family="sans-serif" font-size="11" lengthAdjust="spacing" textLength="73" x="597.5" y="102.1148">CoinFactory()</text><ellipse cx="588.5" cy="111.4351" fill="#84BE84" rx="3" ry="3" style="stroke:#038048;stroke-width:1.0;"/><text fill="#000000" font-family="sans-serif" font-size="11" lengthAdjust="spacing" text-decoration="underline" textLength="167" x="597.5" y="115.0698">getCoin(type : CoinType) : Coin</text><!--MD5=[a3c85ec4cb895f86924c9f8a30771738]
class CoinType--><rect codeLine="14" fill="#FEFECE" filter="url(#fz19sfzvjyfmc)" height="125.7305" id="CoinType" style="stroke:#A80036;stroke-width:1.5;" width="213" x="369.5" y="187.87"/><ellipse cx="444.75" cy="203.87" fill="#EB937F" rx="11" ry="11" style="stroke:#A80036;stroke-width:1.0;"/><path d="M448.3643,210.37 L440.6445,210.37 L440.6445,197.9769 L448.3643,197.9769 L448.3643,200.1351 L443.0933,200.1351 L443.0933,202.808 L447.8662,202.808 L447.8662,204.9662 L443.0933,204.9662 L443.0933,208.2118 L448.3643,208.2118 Z " fill="#000000"/><text fill="#000000" font-family="sans-serif" font-size="12" lengthAdjust="spacing" textLength="54" x="465.25" y="208.4052">CoinType</text><line style="stroke:#A80036;stroke-width:1.5;" x1="370.5" x2="581.5" y1="219.87" y2="219.87"/><ellipse cx="380.5" cy="230.87" rx="3" ry="3" style="stroke:#038048;stroke-width:1.0;fill:none;"/><text fill="#000000" font-family="sans-serif" font-size="11" lengthAdjust="spacing" text-decoration="underline" textLength="42" x="389.5" y="234.5048">COPPER</text><ellipse cx="380.5" cy="243.8251" rx="3" ry="3" style="stroke:#038048;stroke-width:1.0;fill:none;"/><text fill="#000000" font-family="sans-serif" font-size="11" lengthAdjust="spacing" text-decoration="underline" textLength="31" x="389.5" y="247.4598">GOLD</text><rect fill="none" height="6" style="stroke:#C82930;stroke-width:1.0;" width="6" x="377.5" y="253.7802"/><text fill="#000000" font-family="sans-serif" font-size="11" lengthAdjust="spacing" textLength="160" x="389.5" y="260.4149">constructor : Supplier&lt;Coin&gt;</text><line style="stroke:#A80036;stroke-width:1.5;" x1="370.5" x2="581.5" y1="266.7352" y2="266.7352"/><ellipse cx="380.5" cy="277.7352" fill="#84BE84" rx="3" ry="3" style="stroke:#038048;stroke-width:1.0;"/><text fill="#000000" font-family="sans-serif" font-size="11" lengthAdjust="spacing" textLength="187" x="389.5" y="281.37">getConstructor() : Supplier&lt;Coin&gt;</text><ellipse cx="380.5" cy="290.6903" fill="#84BE84" rx="3" ry="3" style="stroke:#038048;stroke-width:1.0;"/><text fill="#000000" font-family="sans-serif" font-size="11" lengthAdjust="spacing" text-decoration="underline" textLength="179" x="389.5" y="294.3251">valueOf(name : String) : CoinType</text><ellipse cx="380.5" cy="303.6454" fill="#84BE84" rx="3" ry="3" style="stroke:#038048;stroke-width:1.0;"/><text fill="#000000" font-family="sans-serif" font-size="11" lengthAdjust="spacing" text-decoration="underline" textLength="110" x="389.5" y="307.2802">values() : CoinType[]</text><!--MD5=[b4e6a29ebf85d01a78a0b4e86dcf0bd9]
class CopperCoin--><rect codeLine="22" fill="#FEFECE" filter="url(#fz19sfzvjyfmc)" height="86.8652" id="CopperCoin" style="stroke:#A80036;stroke-width:1.5;" width="154" x="221" y="41"/><ellipse cx="260.3" cy="57" fill="#ADD1B2" rx="11" ry="11" style="stroke:#A80036;stroke-width:1.0;"/><path d="M262.7731,63.1431 Q262.1921,63.4419 261.5529,63.5913 Q260.9138,63.7407 260.2082,63.7407 Q257.7014,63.7407 256.3815,62.0889 Q255.0617,60.437 255.0617,57.3159 Q255.0617,54.1865 256.3815,52.5347 Q257.7014,50.8828 260.2082,50.8828 Q260.9138,50.8828 261.5612,51.0322 Q262.2087,51.1816 262.7731,51.4805 L262.7731,54.2031 Q262.1423,53.6221 261.5488,53.3523 Q260.9553,53.0825 260.3244,53.0825 Q258.9797,53.0825 258.2949,54.1492 Q257.6101,55.2158 257.6101,57.3159 Q257.6101,59.4077 258.2949,60.4744 Q258.9797,61.541 260.3244,61.541 Q260.9553,61.541 261.5488,61.2712 Q262.1423,61.0015 262.7731,60.4204 Z " fill="#000000"/><text fill="#000000" font-family="sans-serif" font-size="12" lengthAdjust="spacing" textLength="68" x="279.7" y="61.5352">CopperCoin</text><line style="stroke:#A80036;stroke-width:1.5;" x1="222" x2="374" y1="73" y2="73"/><polygon fill="none" points="232,80,228,86,236,86" style="stroke:#1963A0;stroke-width:1.0;"/><text fill="#000000" font-family="sans-serif" font-size="11" lengthAdjust="spacing" text-decoration="underline" textLength="112" x="241" y="87.6348">DESCRIPTION : String</text><line style="stroke:#A80036;stroke-width:1.5;" x1="222" x2="374" y1="93.9551" y2="93.9551"/><ellipse cx="232" cy="104.9551" fill="#84BE84" rx="3" ry="3" style="stroke:#038048;stroke-width:1.0;"/><text fill="#000000" font-family="sans-serif" font-size="11" lengthAdjust="spacing" textLength="73" x="241" y="108.5898">CopperCoin()</text><ellipse cx="232" cy="117.9102" fill="#84BE84" rx="3" ry="3" style="stroke:#038048;stroke-width:1.0;"/><text fill="#000000" font-family="sans-serif" font-size="11" lengthAdjust="spacing" textLength="128" x="241" y="121.5449">getDescription() : String</text><!--MD5=[b45ea57b95654ba181861e451b56a3b0]
class GoldCoin--><rect codeLine="27" fill="#FEFECE" filter="url(#fz19sfzvjyfmc)" height="86.8652" id="GoldCoin" style="stroke:#A80036;stroke-width:1.5;" width="154" x="32" y="41"/><ellipse cx="78.75" cy="57" fill="#ADD1B2" rx="11" ry="11" style="stroke:#A80036;stroke-width:1.0;"/><path d="M81.2231,63.1431 Q80.6421,63.4419 80.0029,63.5913 Q79.3638,63.7407 78.6582,63.7407 Q76.1514,63.7407 74.8315,62.0889 Q73.5117,60.437 73.5117,57.3159 Q73.5117,54.1865 74.8315,52.5347 Q76.1514,50.8828 78.6582,50.8828 Q79.3638,50.8828 80.0112,51.0322 Q80.6587,51.1816 81.2231,51.4805 L81.2231,54.2031 Q80.5923,53.6221 79.9988,53.3523 Q79.4053,53.0825 78.7744,53.0825 Q77.4297,53.0825 76.7449,54.1492 Q76.0601,55.2158 76.0601,57.3159 Q76.0601,59.4077 76.7449,60.4744 Q77.4297,61.541 78.7744,61.541 Q79.4053,61.541 79.9988,61.2712 Q80.5923,61.0015 81.2231,60.4204 Z " fill="#000000"/><text fill="#000000" font-family="sans-serif" font-size="12" lengthAdjust="spacing" textLength="52" x="99.25" y="61.5352">GoldCoin</text><line style="stroke:#A80036;stroke-width:1.5;" x1="33" x2="185" y1="73" y2="73"/><polygon fill="none" points="43,80,39,86,47,86" style="stroke:#1963A0;stroke-width:1.0;"/><text fill="#000000" font-family="sans-serif" font-size="11" lengthAdjust="spacing" text-decoration="underline" textLength="112" x="52" y="87.6348">DESCRIPTION : String</text><line style="stroke:#A80036;stroke-width:1.5;" x1="33" x2="185" y1="93.9551" y2="93.9551"/><ellipse cx="43" cy="104.9551" fill="#84BE84" rx="3" ry="3" style="stroke:#038048;stroke-width:1.0;"/><text fill="#000000" font-family="sans-serif" font-size="11" lengthAdjust="spacing" textLength="58" x="52" y="108.5898">GoldCoin()</text><ellipse cx="43" cy="117.9102" fill="#84BE84" rx="3" ry="3" style="stroke:#038048;stroke-width:1.0;"/><text fill="#000000" font-family="sans-serif" font-size="11" lengthAdjust="spacing" textLength="128" x="52" y="121.5449">getDescription() : String</text><!--MD5=[5ab056752c53a5c8186560d19a1a77cc]
link CopperCoin to Coin--><path codeLine="33" d="M268.35,128.18 C252.57,150.91 233.14,178.92 216.9,202.32 " fill="none" id="CopperCoin-to-Coin" style="stroke:#A80036;stroke-width:1.0;stroke-dasharray:7.0,7.0;"/><polygon fill="none" points="222.71,206.22,205.56,218.66,211.21,198.24,222.71,206.22" style="stroke:#A80036;stroke-width:1.0;"/><!--MD5=[da290d4a12d7bcd789179ea367847377]
link GoldCoin to Coin--><path codeLine="34" d="M128.51,128.18 C138.63,150.34 151.04,177.53 161.56,200.57 " fill="none" id="GoldCoin-to-Coin" style="stroke:#A80036;stroke-width:1.0;stroke-dasharray:7.0,7.0;"/><polygon fill="none" points="167.82,197.43,169.76,218.53,155.08,203.24,167.82,197.43" style="stroke:#A80036;stroke-width:1.0;"/><!--MD5=[742d52998af028aa2f07e1cbdbb7895c]
link App to CoinFactory--><!--MD5=[7183c72fdee85b6cbc570809176415a1]
link App to CoinType--><!--MD5=[e59faaa1542dbf92c3b7528c2bee21bf]
@startuml
package com.yonatankarp.factory {
  class App {
    - LOGGER : Logger {static}
    + App()
    + main(args : String[]) {static}
  }
  interface Coin {
    + getDescription() : String {abstract}
  }
  class CoinFactory {
    + CoinFactory()
    + getCoin(type : CoinType) : Coin {static}
  }
  enum CoinType {
    + COPPER {static}
    + GOLD {static}
    - constructor : Supplier<Coin>
    + getConstructor() : Supplier<Coin>
    + valueOf(name : String) : CoinType {static}
    + values() : CoinType[] {static}
  }
  class CopperCoin {
    ~ DESCRIPTION : String {static}
    + CopperCoin()
    + getDescription() : String
  }
  class GoldCoin {
    ~ DESCRIPTION : String {static}
    + GoldCoin()
    + getDescription() : String
  }
}
CopperCoin ..|> Coin
GoldCoin ..|> Coin
@enduml

PlantUML version 1.2021.16(Wed Dec 08 18:25:22 CET 2021)
(GPL source distribution)
Java Runtime: OpenJDK Runtime Environment
JVM: OpenJDK 64-Bit Server VM
Default Encoding: UTF-8
Language: en
Country: DE
--></g></svg>